<?xml version="1.0" encoding="utf-8"?>
<!-- Generator: Adobe Illustrator 17.1.0, SVG Export Plug-In . SVG Version: 6.00 Build 0)  -->
<!DOCTYPE svg PUBLIC "-//W3C//DTD SVG 1.1//EN" "http://www.w3.org/Graphics/SVG/1.1/DTD/svg11.dtd">
<svg version="1.1" id="Layer_1" xmlns="http://www.w3.org/2000/svg" xmlns:xlink="http://www.w3.org/1999/xlink" x="0px" y="0px"
	 viewBox="0 275 1000 450" enable-background="new 0 275 1000 450" xml:space="preserve">
<g>
	<circle fill="#7FA53F" cx="83" cy="553.7" r="33"/>
	<circle fill="#228DBA" cx="82.6" cy="553.7" r="19"/>
	<circle fill="#228DBA" cx="82.6" cy="639.5" r="33"/>
	<circle fill="#7FA53F" cx="82.2" cy="639.5" r="19"/>
	<circle fill="#228DBA" cx="82.5" cy="380.4" r="33.6"/>
	<circle fill="#7FA53F" cx="82" cy="467.6" r="33.6"/>
	<g enable-background="new    ">
		<path d="M146.7,380c-2.8,6.9-6.7,11.2-7.1,11.2c-0.6,0-1.7,0-2.8-0.2c-0.1-3.9,0-11.5,0.2-14.4l-3,0.4c-0.1-0.6-0.2-1.1-0.2-1.6
			c2.4-0.6,4.5-1.2,4.8-1.2c0.3,0,1,0.6,1.2,1.1c-0.2,4.6-0.5,11.1-0.5,13.7c0,0.2,0.2,0.3,0.3,0.1c0.7-0.9,1.9-2.6,3.1-4.5
			c1.5-2.6,3.2-6.3,3.9-9.1c0.7-0.3,1.7-0.4,2.5-0.3c0.1,4.5,0.2,11.4,0.3,14c0,0.2,0.2,0.2,0.3,0.1c0.9-1.1,1.9-2.3,3.3-4.7
			c1.4-2.3,3-6.2,3-7.8c0-0.1,0-0.3-0.3-0.3l-2.3,0.2c-0.1-0.5-0.1-1.1-0.1-1.6c1.8-0.3,3.9-0.7,4.3-0.7c0.3,0,1.2,1,1.2,1.2
			c0,2.4-2.3,7.1-4.1,10c-2,3.1-4.5,5.7-4.8,5.7c-0.5,0-1.8,0-2.7-0.2c-0.1-2.6-0.2-6.6-0.1-11H146.7z"/>
		<path d="M170.3,386.3c-3.6,4-6.1,5.1-7.4,5.1c-0.9-0.2-2.1-0.9-2.7-2c-0.2-0.4-0.4-0.9-0.4-1.6c0-1.4,0.5-3.8,1.2-5.9
			c1.2-3.2,3.9-7.8,7.6-7.8c1.5,0,2.8,0.7,3.9,1.9h0.2l0.9-2.1c0.7,0.2,1.4,0.4,2.1,0.7c-1.1,3.5-2.8,10.4-3.6,14.4
			c0,0.1,0.1,0.2,0.2,0.2c0.3,0,1.4-0.3,2.7-0.7c0.2,0.5,0.3,1.1,0.4,1.6c-1.6,0.6-3.6,1-4.8,1c-0.1,0-0.8-0.5-1-1
			c0.1-0.7,0.5-2.3,1-3.9L170.3,386.3z M164.2,381c-0.9,2.1-1.5,4.6-1.5,6.4c0,1.1,0.6,1.7,1.2,1.7c1.8,0,6.2-4.3,6.9-6.3
			c0.2-0.7,0.9-3.5,1.2-4.7c-0.9-1.2-2.1-1.9-3.4-1.9C166.7,376.3,165.1,378.8,164.2,381z"/>
		<path d="M188.3,376.9c0-0.2-0.1-0.4-0.2-0.5c-0.4-0.3-1.1-0.5-2-0.5c-0.6,0-1.5,0.1-2.2,0.5c-0.7,0.4-1.4,1.2-1.4,2.3
			c0,1.5,1,2,2.7,2.7c2.6,1.1,4.1,2.3,4.1,4.5c0,1.9-0.9,3.4-2.7,4.4c-1.1,0.7-2.5,0.9-4.8,0.9c-1.5,0-3.2-0.4-3.8-0.7
			c0.1-1.6,0.2-3.2,0.2-4.8c0.5-0.1,1.2-0.1,1.7-0.1l0.3,2.8c0,0.2,0.1,0.4,0.2,0.4c0.5,0.4,1.4,0.5,2.3,0.5c0.9,0,2-0.2,2.6-0.6
			c0.8-0.5,1.2-1.2,1.2-2.4c0-1.6-1.1-2.2-2.8-3c-2.3-1-4-1.9-4-4.4c0-2,1.6-3.6,3-4.3c1.3-0.6,2.7-0.8,4.3-0.8c1.4,0,3,0.4,3.7,0.8
			c-0.2,1.5-0.3,3-0.4,4.4c-0.5,0-1.1,0-1.7,0.1L188.3,376.9z"/>
		<path d="M198.7,389.2c1.1,0,2.8-0.3,4.4-0.8c0.1,0.5,0.1,1.1,0.2,1.7c-2.1,0.8-4.6,1.2-6,1.2c-1.1,0-2.7-0.9-3.2-2.5
			c-0.1-0.2-0.1-0.5-0.1-0.7c0-1.1,1.1-5.9,1.3-6.9c0.3-1.3,0.8-3.6,1.1-4.6c-0.9,0-2,0-3,0c0.1-0.6,0.2-1.2,0.4-1.8
			c1-0.1,2-0.2,2.9-0.2c0.1,0,0.3-0.1,0.3-0.3c0.3-1.1,0.7-2.5,1-3.6c0.9-0.4,2.2-0.7,2.5-0.7c0.1,0,0.1,0,0.1,0.2
			c-0.2,1.1-0.6,2.9-1,4.4c2,0,4,0,5.9,0c-0.1,0.7-0.2,1.4-0.4,2c-1.7,0-3.8,0-5.9,0c-0.3,1.1-0.8,3.4-1.1,4.7
			c-0.4,1.7-1.2,5.2-1.2,6.3C196.9,388.7,197.6,389.2,198.7,389.2z"/>
		<path d="M209.5,377.2c2-2.2,3.8-3.1,5.9-3.1c2.8,0,4.2,2.2,4.3,4.1c-0.2,1.3-1,2.9-2.1,3.6c-2.1,1.1-4.8,1.5-8.2,1.5
			c-0.3,0.9-0.5,2.3-0.5,3c0,1.8,1,2.9,2.7,2.9c1.6,0,4-0.9,6.2-2.1c0.2,0.5,0.4,1,0.6,1.5c-2.2,1.4-5.1,2.7-7.8,2.7
			c-2.1,0-4.6-1.6-4.6-4.6C205.8,384.3,206.9,380.2,209.5,377.2z M211.5,377.7c-0.6,0.9-1.4,2-1.9,3.9c2.1,0,4.1-0.3,5.5-1
			c0.9-0.4,1.6-1.1,1.6-2.1c0-1.2-0.7-2.5-2.2-2.5C213.3,376,212.3,376.7,211.5,377.7z"/>
		<path d="M237.7,374.2c1.2,0,2,0.2,2.5,0.4c0.2,0,0.3,0.1,0.5,0.1c0.7,0,4.4,0,5.4-0.1c0,0.5,0,1.2,0,1.8c-1.3,0-2.6,0.1-3.9,0.2
			v0.2c0.4,0.5,0.8,1.7,0.8,2.9c0,1.6-0.5,3.4-1.4,4.9c-0.9,1.4-3.1,3.6-6.9,3.2c-1.3,0.8-2.2,1.4-2.2,2c0,0.9,2,1,4.8,1.2
			c2.1,0.2,3.5,0.4,4.4,1c0.9,0.5,1.7,1.6,1.7,2.8c0,2.8-3,6-10,6c-4.1,0-7-1.4-7-3.9c0-0.6,0.2-1.6,0.9-2.1
			c1.3-0.9,2.1-1.3,4.2-2.5l0-0.2c-1.2-0.4-1.9-1.1-1.9-2.4c0-0.4,0.2-0.6,3.1-2.4v-0.2c-1.5-0.8-2.5-2.3-2.5-4.6
			C230.1,378.5,233,374.2,237.7,374.2z M236.8,393c-1.2-0.2-2.5-0.3-3.4-0.4c-2.8,1.7-4.4,2.5-4.4,4c0,1.7,2.6,2.4,4.7,2.4
			c3.7,0,6.6-1.3,6.6-3.8C240.4,393.6,239.5,393.3,236.8,393z M235.8,386c2.3,0,4.3-2.7,4.3-6.4c0-1.2-0.1-2-0.5-2.7
			c-0.5-0.9-1.4-1.1-2.1-1.1c-2.6,0-4.4,3.1-4.4,6.7C232.9,384.8,234,386,235.8,386z"/>
		<path d="M249.9,377.2c2-2.2,3.8-3.1,5.9-3.1c2.8,0,4.2,2.2,4.3,4.1c-0.2,1.3-1,2.9-2.1,3.6c-2.1,1.1-4.8,1.5-8.2,1.5
			c-0.3,0.9-0.5,2.3-0.5,3c0,1.8,1,2.9,2.7,2.9c1.6,0,4-0.9,6.2-2.1c0.2,0.5,0.4,1,0.6,1.5c-2.2,1.4-5.1,2.7-7.8,2.7
			c-2.1,0-4.6-1.6-4.6-4.6C246.2,384.3,247.3,380.2,249.9,377.2z M251.9,377.7c-0.6,0.9-1.4,2-1.9,3.9c2.1,0,4.1-0.3,5.5-1
			c0.9-0.4,1.6-1.1,1.6-2.1c0-1.2-0.7-2.5-2.2-2.5C253.7,376,252.7,376.7,251.9,377.7z"/>
		<path d="M262.7,376.9c0-0.6-0.1-1.1-0.1-1.7c2.6-0.4,4.7-1.1,5-1.1c0.2,0,0.8,0.4,1,0.8c-0.3,1.1-0.6,2.6-1.1,4.2l0.3,0.1
			c3.1-3.6,6.3-5.1,8-5.2c1,0.2,2,0.9,2.5,2c0.2,0.4,0.2,0.9,0.2,1.2c0,1.7-1.3,6.6-3.1,11.7c0,0.2,0,0.3,0.2,0.3
			c0.5,0,1.6-0.3,2.8-0.6c0.1,0.5,0.2,1.1,0.2,1.6c-1.5,0.5-3.4,0.9-5,0.9c-0.2,0-0.9-0.5-1.1-1.2c0.7-2,1.9-6.1,2.4-8
			c0.3-1.1,0.7-2.9,0.7-3.9c0-0.8-0.4-1.4-1.2-1.4c-2.4,0-6.9,4.3-7.5,6.5c-0.4,1.4-1.5,6.2-1.9,7.7c-0.9,0-1.8,0-2.7,0
			c0.9-3.5,2.4-9.9,3.4-14.3L262.7,376.9z"/>
		<path d="M285.6,377.2c2-2.2,3.8-3.1,5.9-3.1c2.8,0,4.2,2.2,4.3,4.1c-0.2,1.3-1,2.9-2.1,3.6c-2.1,1.1-4.8,1.5-8.2,1.5
			c-0.3,0.9-0.5,2.3-0.5,3c0,1.8,1,2.9,2.7,2.9c1.6,0,4-0.9,6.2-2.1c0.2,0.5,0.4,1,0.6,1.5c-2.2,1.4-5.1,2.7-7.8,2.7
			c-2.1,0-4.6-1.6-4.6-4.6C281.9,384.3,283,380.2,285.6,377.2z M287.6,377.7c-0.6,0.9-1.4,2-1.9,3.9c2.1,0,4.1-0.3,5.5-1
			c0.9-0.4,1.6-1.1,1.6-2.1c0-1.2-0.7-2.5-2.2-2.5C289.4,376,288.5,376.7,287.6,377.7z"/>
		<path d="M298.5,376.8c-0.1-0.5-0.1-1.1-0.1-1.6c2.5-0.4,4.7-1,4.9-1c0.2,0,0.8,0.5,1,0.9c-0.3,1.1-0.6,2.6-1.1,4.8l0.3,0.1
			c2.3-3.5,4.7-5.8,6.1-5.8c0.8,0,1.5,0.3,1.9,0.5c0,1-0.9,2.7-1.3,3c-0.3-0.1-1.1-0.4-1.6-0.4c-1.6,0-5.3,4.3-6.2,7.6
			c-0.3,1.2-1.1,4.5-1.4,6c-0.9,0-1.8,0-2.7,0c0.7-3.2,2.3-10,3.2-14.4L298.5,376.8z"/>
		<path d="M321.4,386.3c-3.6,4-6.1,5.1-7.4,5.1c-0.9-0.2-2.1-0.9-2.7-2c-0.2-0.4-0.4-0.9-0.4-1.6c0-1.4,0.5-3.8,1.2-5.9
			c1.2-3.2,3.9-7.8,7.6-7.8c1.5,0,2.8,0.7,3.9,1.9h0.2l0.9-2.1c0.7,0.2,1.4,0.4,2.1,0.7c-1.1,3.5-2.8,10.4-3.6,14.4
			c0,0.1,0.1,0.2,0.2,0.2c0.3,0,1.4-0.3,2.7-0.7c0.2,0.5,0.3,1.1,0.4,1.6c-1.6,0.6-3.6,1-4.8,1c-0.1,0-0.8-0.5-1-1
			c0.1-0.7,0.5-2.3,1-3.9L321.4,386.3z M315.3,381c-0.9,2.1-1.5,4.6-1.5,6.4c0,1.1,0.6,1.7,1.2,1.7c1.8,0,6.2-4.3,6.9-6.3
			c0.2-0.7,0.9-3.5,1.2-4.7c-0.9-1.2-2.1-1.9-3.4-1.9C317.8,376.3,316.2,378.8,315.3,381z"/>
		<path d="M335.1,389.2c1.1,0,2.8-0.3,4.4-0.8c0.1,0.5,0.1,1.1,0.2,1.7c-2.1,0.8-4.6,1.2-6,1.2c-1.1,0-2.7-0.9-3.2-2.5
			c-0.1-0.2-0.1-0.5-0.1-0.7c0-1.1,1.1-5.9,1.3-6.9c0.3-1.3,0.8-3.6,1.1-4.6c-0.9,0-2,0-3,0c0.1-0.6,0.2-1.2,0.4-1.8
			c1-0.1,2-0.2,2.9-0.2c0.1,0,0.3-0.1,0.3-0.3c0.3-1.1,0.7-2.5,1-3.6c0.9-0.4,2.2-0.7,2.5-0.7c0.1,0,0.1,0,0.1,0.2
			c-0.2,1.1-0.6,2.9-1,4.4c2,0,4,0,5.9,0c-0.1,0.7-0.2,1.4-0.4,2c-1.7,0-3.8,0-5.9,0c-0.3,1.1-0.8,3.4-1.1,4.7
			c-0.4,1.7-1.2,5.2-1.2,6.3C333.3,388.7,334,389.2,335.1,389.2z"/>
		<path d="M345.9,377.2c2-2.2,3.8-3.1,5.9-3.1c2.8,0,4.2,2.2,4.3,4.1c-0.2,1.3-1,2.9-2.1,3.6c-2.1,1.1-4.8,1.5-8.2,1.5
			c-0.3,0.9-0.5,2.3-0.5,3c0,1.8,1,2.9,2.7,2.9c1.6,0,4-0.9,6.2-2.1c0.2,0.5,0.4,1,0.6,1.5c-2.2,1.4-5.1,2.7-7.8,2.7
			c-2.1,0-4.6-1.6-4.6-4.6C342.2,384.3,343.3,380.2,345.9,377.2z M347.9,377.7c-0.6,0.9-1.4,2-1.9,3.9c2.1,0,4.1-0.3,5.5-1
			c0.9-0.4,1.6-1.1,1.6-2.1c0-1.2-0.7-2.5-2.2-2.5C349.7,376,348.7,376.7,347.9,377.7z"/>
		<path d="M368.7,386.2c-2.9,3.4-5.9,5.2-7.6,5.2c-1-0.1-2.3-0.9-2.9-2c-0.3-0.4-0.4-1-0.4-1.6c0-1.7,0.5-4,1.3-6
			c1.2-3.3,3.9-7.7,7.8-7.7c1.6,0,3,0.7,3.9,1.4h0.2c0.7-2.8,1.5-6.5,2.1-9.4l-3.5,0.2c0-0.6-0.1-1.1-0.1-1.6
			c3.2-0.4,5.4-1.1,5.7-1.1c0.3,0,0.7,0.5,1,0.9c-0.7,2.9-5.1,21.7-5.7,24.6c0,0.1,0.1,0.2,0.2,0.2c0.3,0,1.2-0.2,2.4-0.6
			c0.2,0.5,0.3,1.1,0.4,1.6c-1.8,0.7-3.4,1-4.6,1c-0.2,0-0.9-0.5-1.1-1c0.1-0.6,0.5-2.1,1-4.1L368.7,386.2z M369.4,382.5
			c0.2-0.9,0.9-3.5,1.1-4.7c-0.9-1.1-2.3-1.5-3.5-1.5c-2.3,0-4,2.5-5,5c-0.8,2-1.4,4.4-1.4,6.1c0,1.4,0.7,1.8,1.4,1.8
			C364.3,389.1,368.8,384.5,369.4,382.5z"/>
	</g>
	<g enable-background="new    ">
		<path d="M146.7,465.6c-2.8,6.9-6.7,11.2-7.1,11.2c-0.6,0-1.7,0-2.8-0.2c-0.1-3.9,0-11.5,0.2-14.4l-3,0.4c-0.1-0.6-0.2-1.1-0.2-1.6
			c2.4-0.6,4.5-1.2,4.8-1.2c0.3,0,1,0.6,1.2,1.1c-0.2,4.6-0.5,11.1-0.5,13.7c0,0.2,0.2,0.3,0.3,0.1c0.7-0.9,1.9-2.6,3.1-4.5
			c1.5-2.6,3.2-6.3,3.9-9.1c0.7-0.3,1.7-0.4,2.5-0.3c0.1,4.5,0.2,11.4,0.3,14c0,0.2,0.2,0.2,0.3,0.1c0.9-1.1,1.9-2.3,3.3-4.7
			c1.4-2.3,3-6.2,3-7.8c0-0.1,0-0.3-0.3-0.3l-2.3,0.2c-0.1-0.5-0.1-1.1-0.1-1.6c1.8-0.3,3.9-0.7,4.3-0.7c0.3,0,1.2,1,1.2,1.2
			c0,2.4-2.3,7.1-4.1,10c-2,3.1-4.5,5.7-4.8,5.7c-0.5,0-1.8,0-2.7-0.2c-0.1-2.6-0.2-6.6-0.1-11H146.7z"/>
		<path d="M170.3,471.8c-3.6,4-6.1,5.1-7.4,5.1c-0.9-0.2-2.1-0.9-2.7-2c-0.2-0.4-0.4-0.9-0.4-1.6c0-1.4,0.5-3.8,1.2-5.9
			c1.2-3.2,3.9-7.8,7.6-7.8c1.5,0,2.8,0.7,3.9,1.9h0.2l0.9-2.1c0.7,0.2,1.4,0.4,2.1,0.7c-1.1,3.5-2.8,10.4-3.6,14.4
			c0,0.1,0.1,0.2,0.2,0.2c0.3,0,1.4-0.3,2.7-0.7c0.2,0.5,0.3,1.1,0.4,1.6c-1.6,0.6-3.6,1-4.8,1c-0.1,0-0.8-0.5-1-1
			c0.1-0.7,0.5-2.3,1-3.9L170.3,471.8z M164.2,466.5c-0.9,2.1-1.5,4.6-1.5,6.4c0,1.1,0.6,1.7,1.2,1.7c1.8,0,6.2-4.3,6.9-6.3
			c0.2-0.7,0.9-3.5,1.2-4.7c-0.9-1.2-2.1-1.9-3.4-1.9C166.7,461.8,165.1,464.4,164.2,466.5z"/>
		<path d="M188.3,462.5c0-0.2-0.1-0.4-0.2-0.5c-0.4-0.3-1.1-0.5-2-0.5c-0.6,0-1.5,0.1-2.2,0.5c-0.7,0.4-1.4,1.2-1.4,2.3
			c0,1.5,1,2,2.7,2.7c2.6,1.1,4.1,2.3,4.1,4.5c0,1.9-0.9,3.4-2.7,4.4c-1.1,0.7-2.5,0.9-4.8,0.9c-1.5,0-3.2-0.4-3.8-0.7
			c0.1-1.6,0.2-3.2,0.2-4.8c0.5-0.1,1.2-0.1,1.7-0.1l0.3,2.8c0,0.2,0.1,0.4,0.2,0.4c0.5,0.4,1.4,0.5,2.3,0.5c0.9,0,2-0.2,2.6-0.6
			c0.8-0.5,1.2-1.2,1.2-2.4c0-1.6-1.1-2.2-2.8-3c-2.3-1-4-1.9-4-4.4c0-2,1.6-3.6,3-4.3c1.3-0.6,2.7-0.8,4.3-0.8c1.4,0,3,0.4,3.7,0.8
			c-0.2,1.5-0.3,3-0.4,4.4c-0.5,0-1.1,0-1.7,0.1L188.3,462.5z"/>
		<path d="M198.7,474.7c1.1,0,2.8-0.3,4.4-0.8c0.1,0.5,0.1,1.1,0.2,1.7c-2.1,0.8-4.6,1.2-6,1.2c-1.1,0-2.7-0.9-3.2-2.5
			c-0.1-0.2-0.1-0.5-0.1-0.7c0-1.1,1.1-5.9,1.3-6.9c0.3-1.3,0.8-3.6,1.1-4.6c-0.9,0-2,0-3,0c0.1-0.6,0.2-1.2,0.4-1.8
			c1-0.1,2-0.2,2.9-0.2c0.1,0,0.3-0.1,0.3-0.3c0.3-1.1,0.7-2.5,1-3.6c0.9-0.4,2.2-0.7,2.5-0.7c0.1,0,0.1,0,0.1,0.2
			c-0.2,1.1-0.6,2.9-1,4.4c2,0,4,0,5.9,0c-0.1,0.7-0.2,1.4-0.4,2c-1.7,0-3.8,0-5.9,0c-0.3,1.1-0.8,3.4-1.1,4.7
			c-0.4,1.7-1.2,5.2-1.2,6.3C196.9,474.2,197.6,474.7,198.7,474.7z"/>
		<path d="M209.5,462.8c2-2.2,3.8-3.1,5.9-3.1c2.8,0,4.2,2.2,4.3,4.1c-0.2,1.3-1,2.9-2.1,3.6c-2.1,1.1-4.8,1.5-8.2,1.5
			c-0.3,0.9-0.5,2.3-0.5,3c0,1.8,1,2.9,2.7,2.9c1.6,0,4-0.9,6.2-2.1c0.2,0.5,0.4,1,0.6,1.5c-2.2,1.4-5.1,2.7-7.8,2.7
			c-2.1,0-4.6-1.6-4.6-4.6C205.8,469.9,206.9,465.7,209.5,462.8z M211.5,463.3c-0.6,0.9-1.4,2-1.9,3.9c2.1,0,4.1-0.3,5.5-1
			c0.9-0.4,1.6-1.1,1.6-2.1c0-1.2-0.7-2.5-2.2-2.5C213.3,461.6,212.3,462.2,211.5,463.3z"/>
		<path d="M240.1,471.7c-2.9,3.4-5.9,5.2-7.6,5.2c-1-0.1-2.3-0.9-2.9-2c-0.3-0.4-0.4-1-0.4-1.6c0-1.7,0.5-4,1.3-6
			c1.2-3.3,3.9-7.7,7.8-7.7c1.6,0,3,0.7,3.9,1.4h0.2c0.7-2.8,1.5-6.5,2.1-9.4l-3.5,0.2c0-0.6-0.1-1.1-0.1-1.6
			c3.2-0.4,5.4-1.1,5.7-1.1c0.3,0,0.7,0.5,1,0.9c-0.7,2.9-5.1,21.7-5.7,24.6c0,0.1,0.1,0.2,0.2,0.2c0.3,0,1.2-0.2,2.4-0.6
			c0.2,0.5,0.3,1.1,0.4,1.6c-1.8,0.7-3.4,1-4.6,1c-0.2,0-0.9-0.5-1.1-1c0.1-0.6,0.5-2.1,1-4.1L240.1,471.7z M240.8,468.1
			c0.2-0.9,0.9-3.5,1.1-4.7c-0.9-1.1-2.3-1.5-3.5-1.5c-2.3,0-4,2.5-5,5c-0.8,2-1.4,4.4-1.4,6.1c0,1.4,0.7,1.8,1.4,1.8
			C235.7,474.7,240.2,470,240.8,468.1z"/>
		<path d="M248.5,462.4c0-0.6-0.1-1.1-0.1-1.7c3-0.4,5.1-1,5.4-1c0.2,0,0.9,0.6,1.1,1c-0.9,3.8-2.9,12.1-3.4,14c0,0.2,0,0.3,0.2,0.3
			c0.5,0,1.6-0.3,2.9-0.6c0.2,0.5,0.2,1.1,0.3,1.6c-1.6,0.5-3.4,0.9-4.9,0.9c-0.2,0-1.1-0.7-1.4-1.2c0.9-3.9,2.1-9.1,3.1-13.5
			L248.5,462.4z M256.3,454.1c0,1-1,2-2.1,2c-1.1,0-2-0.9-2-2c0-0.9,0.8-2,2.2-2C255.7,452.2,256.3,453.3,256.3,454.1z"/>
		<path d="M267.9,462.5c0-0.2-0.1-0.4-0.2-0.5c-0.4-0.3-1.1-0.5-2-0.5c-0.6,0-1.5,0.1-2.2,0.5c-0.7,0.4-1.4,1.2-1.4,2.3
			c0,1.5,1,2,2.7,2.7c2.6,1.1,4.1,2.3,4.1,4.5c0,1.9-0.9,3.4-2.7,4.4c-1.1,0.7-2.5,0.9-4.8,0.9c-1.5,0-3.2-0.4-3.8-0.7
			c0.1-1.6,0.2-3.2,0.2-4.8c0.5-0.1,1.2-0.1,1.7-0.1l0.3,2.8c0,0.2,0.1,0.4,0.2,0.4c0.5,0.4,1.4,0.5,2.3,0.5c0.9,0,2-0.2,2.6-0.6
			c0.8-0.5,1.2-1.2,1.2-2.4c0-1.6-1.1-2.2-2.8-3c-2.3-1-4-1.9-4-4.4c0-2,1.6-3.6,3-4.3c1.3-0.6,2.7-0.8,4.3-0.8c1.4,0,3,0.4,3.7,0.8
			c-0.2,1.5-0.3,3-0.4,4.4c-0.5,0-1.1,0-1.7,0.1L267.9,462.5z"/>
		<path d="M277.7,465.4c2.9-3.9,5.5-5.7,8-5.8c0.9,0.1,2.1,1,2.7,2.2c0.2,0.4,0.3,0.9,0.3,1.4c0,2.6-0.7,6.1-2.3,8.8
			c-1.1,2.1-3.4,4.8-6.7,4.8c-1.4,0-2.7-0.4-3.9-1.5c-0.6,2.9-1.4,7.3-2.1,10.3c-0.9,0-1.8,0-2.7,0c1.4-7.2,3.2-16.6,4.6-23.6
			l-3.2,0.2c0-0.6,0-1.1,0-1.6c3.4-0.5,4.6-0.9,4.8-0.9s0.9,0.5,1.1,0.9c-0.3,1.2-0.7,3-1.1,4.8L277.7,465.4z M284.4,462.1
			c-2.4,0-6.8,5-7.5,7.3c-0.2,0.7-0.6,2.9-0.8,3.8c0.9,1.1,2.2,1.7,3.4,1.7c2.2,0,3.7-1.8,4.6-3.5c1.1-2.3,1.7-5.3,1.7-7.5
			C285.7,463,285.3,462.1,284.4,462.1z"/>
		<path d="M301.6,474.7c-1.4,1.4-3.1,2.1-5.5,2.1c-2,0-3.2-0.8-3.9-1.7c-0.6-0.7-1.1-2.1-1.1-3.6c0-3.9,1.6-7.5,4-9.7
			c1.8-1.6,3.6-2.2,5.5-2.2c1.6,0,2.8,0.6,3.6,1.4s1.5,2.3,1.5,4.3C305.5,468.7,304.1,472.2,301.6,474.7z M300.1,473.3
			c1.4-1.6,2.4-5,2.4-7.8c0-1.4-0.2-2.2-0.6-2.9c-0.4-0.7-1-1.2-2.1-1.2c-1.3,0-2.5,0.7-3.6,2.1c-1,1.3-2.2,4.4-2.2,7.6
			c0,1.2,0.2,2.1,0.6,2.8c0.4,0.7,1.2,1.1,2.1,1.1C298.1,475.2,299.3,474.4,300.1,473.3z"/>
		<path d="M318.1,462.5c0-0.2-0.1-0.4-0.2-0.5c-0.4-0.3-1.1-0.5-2-0.5c-0.6,0-1.5,0.1-2.2,0.5c-0.7,0.4-1.4,1.2-1.4,2.3
			c0,1.5,1,2,2.7,2.7c2.6,1.1,4.1,2.3,4.1,4.5c0,1.9-0.9,3.4-2.7,4.4c-1.1,0.7-2.5,0.9-4.8,0.9c-1.5,0-3.2-0.4-3.8-0.7
			c0.1-1.6,0.2-3.2,0.2-4.8c0.5-0.1,1.2-0.1,1.7-0.1l0.3,2.8c0,0.2,0.1,0.4,0.2,0.4c0.5,0.4,1.4,0.5,2.3,0.5c0.9,0,2-0.2,2.6-0.6
			c0.8-0.5,1.2-1.2,1.2-2.4c0-1.6-1.1-2.2-2.8-3c-2.3-1-4-1.9-4-4.4c0-2,1.6-3.6,3-4.3c1.3-0.6,2.7-0.8,4.3-0.8c1.4,0,3,0.4,3.7,0.8
			c-0.2,1.5-0.3,3-0.4,4.4c-0.5,0-1.1,0-1.7,0.1L318.1,462.5z"/>
		<path d="M326.2,462.8c2-2.2,3.8-3.1,5.9-3.1c2.8,0,4.2,2.2,4.3,4.1c-0.2,1.3-1,2.9-2.1,3.6c-2.1,1.1-4.8,1.5-8.2,1.5
			c-0.3,0.9-0.5,2.3-0.5,3c0,1.8,1,2.9,2.7,2.9c1.6,0,4-0.9,6.2-2.1c0.2,0.5,0.4,1,0.6,1.5c-2.2,1.4-5.1,2.7-7.8,2.7
			c-2.1,0-4.6-1.6-4.6-4.6C322.5,469.9,323.6,465.7,326.2,462.8z M328.2,463.3c-0.6,0.9-1.4,2-1.9,3.9c2.1,0,4.1-0.3,5.5-1
			c0.9-0.4,1.6-1.1,1.6-2.1c0-1.2-0.7-2.5-2.2-2.5C330,461.6,329.1,462.2,328.2,463.3z"/>
		<path d="M349,471.7c-2.9,3.4-5.9,5.2-7.6,5.2c-1-0.1-2.3-0.9-2.9-2c-0.3-0.4-0.4-1-0.4-1.6c0-1.7,0.5-4,1.3-6
			c1.2-3.3,3.9-7.7,7.8-7.7c1.6,0,3,0.7,3.9,1.4h0.2c0.7-2.8,1.5-6.5,2.1-9.4l-3.5,0.2c0-0.6-0.1-1.1-0.1-1.6
			c3.2-0.4,5.4-1.1,5.7-1.1c0.3,0,0.7,0.5,1,0.9c-0.7,2.9-5.1,21.7-5.7,24.6c0,0.1,0.1,0.2,0.2,0.2c0.3,0,1.2-0.2,2.4-0.6
			c0.2,0.5,0.3,1.1,0.4,1.6c-1.8,0.7-3.4,1-4.6,1c-0.2,0-0.9-0.5-1.1-1c0.1-0.6,0.5-2.1,1-4.1L349,471.7z M349.7,468.1
			c0.2-0.9,0.9-3.5,1.1-4.7c-0.9-1.1-2.3-1.5-3.5-1.5c-2.3,0-4,2.5-5,5c-0.8,2-1.4,4.4-1.4,6.1c0,1.4,0.7,1.8,1.4,1.8
			C344.6,474.7,349.2,470,349.7,468.1z"/>
	</g>
	<g enable-background="new    ">
		<path d="M134.6,551.2c0-0.6-0.1-1.1-0.1-1.7c3-0.4,5.1-1,5.4-1c0.2,0,0.9,0.6,1.1,1c-0.9,3.8-2.9,12.1-3.4,14c0,0.2,0,0.3,0.2,0.3
			c0.5,0,1.6-0.3,2.9-0.6c0.2,0.5,0.2,1.1,0.3,1.6c-1.6,0.5-3.4,0.9-4.9,0.9c-0.2,0-1.1-0.7-1.4-1.2c0.9-3.9,2.1-9.1,3.1-13.5
			L134.6,551.2z M142.4,542.9c0,1-1,2-2.1,2c-1.1,0-2-0.9-2-2c0-0.9,0.8-2,2.2-2C141.8,541,142.4,542.1,142.4,542.9z"/>
		<path d="M144.7,551.3c0-0.6-0.1-1.1-0.1-1.7c2.6-0.4,4.7-1.1,5-1.1c0.2,0,0.8,0.4,1,0.8c-0.3,1.1-0.6,2.6-1.1,4.2l0.3,0.1
			c3.1-3.6,6.3-5.1,8-5.2c1,0.2,2,0.9,2.5,2c0.2,0.4,0.2,0.9,0.2,1.2c0,1.7-1.3,6.6-3.1,11.7c0,0.2,0,0.3,0.2,0.3
			c0.5,0,1.6-0.3,2.8-0.6c0.1,0.5,0.2,1.1,0.2,1.6c-1.5,0.5-3.4,0.9-5,0.9c-0.2,0-0.9-0.5-1.1-1.2c0.7-2,1.9-6.1,2.4-8
			c0.3-1.1,0.7-2.9,0.7-3.9c0-0.8-0.4-1.4-1.2-1.4c-2.4,0-6.9,4.3-7.5,6.5c-0.4,1.4-1.5,6.2-1.9,7.7c-0.9,0-1.8,0-2.7,0
			c0.9-3.5,2.4-9.9,3.4-14.3L144.7,551.3z"/>
		<path d="M174.6,560.5c-2.9,3.4-5.9,5.2-7.6,5.2c-1-0.1-2.3-0.9-2.9-2c-0.3-0.4-0.4-1-0.4-1.6c0-1.7,0.5-4,1.3-6
			c1.2-3.3,3.9-7.7,7.8-7.7c1.6,0,3,0.7,3.9,1.4h0.2c0.7-2.8,1.5-6.5,2.1-9.4l-3.5,0.2c0-0.6-0.1-1.1-0.1-1.6
			c3.2-0.4,5.4-1.1,5.7-1.1c0.3,0,0.7,0.5,1,0.9c-0.7,2.9-5.1,21.7-5.7,24.6c0,0.1,0.1,0.2,0.2,0.2c0.3,0,1.2-0.2,2.4-0.6
			c0.2,0.5,0.3,1.1,0.4,1.6c-1.8,0.7-3.4,1-4.6,1c-0.2,0-0.9-0.5-1.1-1c0.1-0.6,0.5-2.1,1-4.1L174.6,560.5z M175.3,556.9
			c0.2-0.9,0.9-3.5,1.1-4.7c-0.9-1.1-2.3-1.5-3.5-1.5c-2.3,0-4,2.5-5,5c-0.8,2-1.4,4.4-1.4,6.1c0,1.4,0.7,1.8,1.4,1.8
			C170.2,563.5,174.7,558.9,175.3,556.9z"/>
		<path d="M183,551.2c0-0.6-0.1-1.1-0.1-1.7c3-0.4,5.1-1,5.4-1c0.2,0,0.9,0.6,1.1,1c-0.9,3.8-2.9,12.1-3.4,14c0,0.2,0,0.3,0.2,0.3
			c0.5,0,1.6-0.3,2.9-0.6c0.2,0.5,0.2,1.1,0.3,1.6c-1.6,0.5-3.4,0.9-4.9,0.9c-0.2,0-1.1-0.7-1.4-1.2c0.9-3.9,2.1-9.1,3.1-13.5
			L183,551.2z M190.8,542.9c0,1-1,2-2.1,2c-1.1,0-2-0.9-2-2c0-0.9,0.8-2,2.2-2C190.2,541,190.8,542.1,190.8,542.9z"/>
		<path d="M195.8,551.5c2-2.1,3.9-3,6.6-3c1.2,0,2.3,0.4,2.8,0.7c-0.1,0.7-1.1,2.1-1.6,2.4c-0.3-0.2-1.8-0.9-2.8-0.9
			c-1.3,0-2.4,0.9-3,1.7c-1.4,1.8-2.5,5.1-2.5,7.6c0,2.6,1.2,3.6,3,3.6c1.2,0,3.2-0.7,4.8-1.3c0.2,0.5,0.4,1,0.5,1.5
			c-1.7,0.9-4.3,1.9-6.2,1.9c-2.4,0-5-1.7-5-5.1C192.3,558.2,193.3,554.3,195.8,551.5z"/>
		<path d="M216.6,560.7c-3.6,4-6.1,5.1-7.4,5.1c-0.9-0.2-2.1-0.9-2.7-2c-0.2-0.4-0.4-0.9-0.4-1.6c0-1.4,0.5-3.8,1.2-5.9
			c1.2-3.2,3.9-7.8,7.6-7.8c1.5,0,2.8,0.7,3.9,1.9h0.2l0.9-2.1c0.7,0.2,1.4,0.4,2.1,0.7c-1.1,3.5-2.8,10.4-3.6,14.4
			c0,0.1,0.1,0.2,0.2,0.2c0.3,0,1.4-0.3,2.7-0.7c0.2,0.5,0.3,1.1,0.4,1.6c-1.6,0.6-3.6,1-4.8,1c-0.1,0-0.8-0.5-1-1
			c0.1-0.7,0.5-2.3,1-3.9L216.6,560.7z M210.5,555.3c-0.9,2.1-1.5,4.6-1.5,6.4c0,1.1,0.6,1.7,1.2,1.7c1.8,0,6.2-4.3,6.9-6.3
			c0.2-0.7,0.9-3.5,1.2-4.7c-0.9-1.2-2.1-1.9-3.4-1.9C213,550.6,211.4,553.2,210.5,555.3z"/>
		<path d="M230.3,563.5c1.1,0,2.8-0.3,4.4-0.8c0.1,0.5,0.1,1.1,0.2,1.7c-2.1,0.8-4.6,1.2-6,1.2c-1.1,0-2.7-0.9-3.2-2.5
			c-0.1-0.2-0.1-0.5-0.1-0.7c0-1.1,1.1-5.9,1.3-6.9c0.3-1.3,0.8-3.6,1.1-4.6c-0.9,0-2,0-3,0c0.1-0.6,0.2-1.2,0.4-1.8
			c1-0.1,2-0.2,2.9-0.2c0.1,0,0.3-0.1,0.3-0.3c0.3-1.1,0.7-2.5,1-3.6c0.9-0.4,2.2-0.7,2.5-0.7c0.1,0,0.1,0,0.1,0.2
			c-0.2,1.1-0.6,2.9-1,4.4c2,0,4,0,5.9,0c-0.1,0.7-0.2,1.4-0.4,2c-1.7,0-3.8,0-5.9,0c-0.3,1.1-0.8,3.4-1.1,4.7
			c-0.4,1.7-1.2,5.2-1.2,6.3C228.5,563,229.2,563.5,230.3,563.5z"/>
		<path d="M241.1,551.6c2-2.2,3.8-3.1,5.9-3.1c2.8,0,4.2,2.2,4.3,4.1c-0.2,1.3-1,2.9-2.1,3.6c-2.1,1.1-4.8,1.5-8.2,1.5
			c-0.3,0.9-0.5,2.3-0.5,3c0,1.8,1,2.9,2.7,2.9c1.6,0,4-0.9,6.2-2.1c0.2,0.5,0.4,1,0.6,1.5c-2.2,1.4-5.1,2.7-7.8,2.7
			c-2.1,0-4.6-1.6-4.6-4.6C237.3,558.7,238.4,554.5,241.1,551.6z M243.1,552.1c-0.6,0.9-1.4,2-1.9,3.9c2.1,0,4.1-0.3,5.5-1
			c0.9-0.4,1.6-1.1,1.6-2.1c0-1.2-0.7-2.5-2.2-2.5C244.9,550.4,243.9,551.1,243.1,552.1z"/>
		<path d="M263.1,551.3c0-0.2-0.1-0.4-0.2-0.5c-0.4-0.3-1.1-0.5-2-0.5c-0.6,0-1.5,0.1-2.2,0.5c-0.7,0.4-1.4,1.2-1.4,2.3
			c0,1.5,1,2,2.7,2.7c2.6,1.1,4.1,2.3,4.1,4.5c0,1.9-0.9,3.4-2.7,4.4c-1.1,0.7-2.5,0.9-4.8,0.9c-1.5,0-3.2-0.4-3.8-0.7
			c0.1-1.6,0.2-3.2,0.2-4.8c0.5-0.1,1.2-0.1,1.7-0.1l0.3,2.8c0,0.2,0.1,0.4,0.2,0.4c0.5,0.4,1.4,0.5,2.3,0.5c0.9,0,2-0.2,2.6-0.6
			c0.8-0.5,1.2-1.2,1.2-2.4c0-1.6-1.1-2.2-2.8-3c-2.3-1-4-1.9-4-4.4c0-2,1.6-3.6,3-4.3c1.3-0.6,2.7-0.8,4.3-0.8c1.4,0,3,0.4,3.7,0.8
			c-0.2,1.5-0.3,3-0.4,4.4c-0.5,0-1.1,0-1.7,0.1L263.1,551.3z"/>
		<path d="M275.9,551.3c0-0.6-0.1-1.1-0.1-1.7c2.6-0.4,4.7-1.1,5-1.1c0.2,0,0.8,0.4,1,0.8c-0.3,1.1-0.6,2.6-1.1,4.2l0.3,0.1
			c3.1-3.6,6.3-5.1,8-5.2c1,0.2,2,0.9,2.5,2c0.2,0.4,0.2,0.9,0.2,1.2c0,1.7-1.3,6.6-3.1,11.7c0,0.2,0,0.3,0.2,0.3
			c0.5,0,1.6-0.3,2.8-0.6c0.1,0.5,0.2,1.1,0.2,1.6c-1.5,0.5-3.4,0.9-5,0.9c-0.2,0-0.9-0.5-1.1-1.2c0.7-2,1.9-6.1,2.4-8
			c0.3-1.1,0.7-2.9,0.7-3.9c0-0.8-0.4-1.4-1.2-1.4c-2.4,0-6.9,4.3-7.5,6.5c-0.4,1.4-1.5,6.2-1.9,7.7c-0.9,0-1.8,0-2.7,0
			c0.9-3.5,2.4-9.9,3.4-14.3L275.9,551.3z"/>
		<path d="M298.8,551.6c2-2.2,3.8-3.1,5.9-3.1c2.8,0,4.2,2.2,4.3,4.1c-0.2,1.3-1,2.9-2.1,3.6c-2.1,1.1-4.8,1.5-8.2,1.5
			c-0.3,0.9-0.5,2.3-0.5,3c0,1.8,1,2.9,2.7,2.9c1.6,0,4-0.9,6.2-2.1c0.2,0.5,0.4,1,0.6,1.5c-2.2,1.4-5.1,2.7-7.8,2.7
			c-2.1,0-4.6-1.6-4.6-4.6C295.1,558.7,296.2,554.5,298.8,551.6z M300.9,552.1c-0.6,0.9-1.4,2-1.9,3.9c2.1,0,4.1-0.3,5.5-1
			c0.9-0.4,1.6-1.1,1.6-2.1c0-1.2-0.7-2.5-2.2-2.5C302.7,550.4,301.7,551.1,300.9,552.1z"/>
		<path d="M317.1,563.5c1.1,0,2.8-0.3,4.4-0.8c0.1,0.5,0.1,1.1,0.2,1.7c-2.1,0.8-4.6,1.2-6,1.2c-1.1,0-2.7-0.9-3.2-2.5
			c-0.1-0.2-0.1-0.5-0.1-0.7c0-1.1,1.1-5.9,1.3-6.9c0.3-1.3,0.8-3.6,1.1-4.6c-0.9,0-2,0-3,0c0.1-0.6,0.2-1.2,0.4-1.8
			c1-0.1,2-0.2,2.9-0.2c0.1,0,0.3-0.1,0.3-0.3c0.3-1.1,0.7-2.5,1-3.6c0.9-0.4,2.2-0.7,2.5-0.7c0.1,0,0.1,0,0.1,0.2
			c-0.2,1.1-0.6,2.9-1,4.4c2,0,4,0,5.9,0c-0.1,0.7-0.2,1.4-0.4,2c-1.7,0-3.8,0-5.9,0c-0.3,1.1-0.8,3.4-1.1,4.7
			c-0.4,1.7-1.2,5.2-1.2,6.3C315.3,563,316,563.5,317.1,563.5z"/>
		<path d="M332.9,551.2c0-0.6-0.1-1.1-0.1-1.7c3-0.4,5.1-1,5.4-1c0.2,0,0.9,0.6,1.1,1c-0.9,3.8-2.9,12.1-3.4,14c0,0.2,0,0.3,0.2,0.3
			c0.5,0,1.6-0.3,2.9-0.6c0.2,0.5,0.2,1.1,0.3,1.6c-1.6,0.5-3.4,0.9-4.9,0.9c-0.2,0-1.1-0.7-1.4-1.2c0.9-3.9,2.1-9.1,3.1-13.5
			L332.9,551.2z M340.7,542.9c0,1-1,2-2.1,2c-1.1,0-2-0.9-2-2c0-0.9,0.8-2,2.2-2C340.1,541,340.7,542.1,340.7,542.9z"/>
		<path d="M342.9,551.2c0-0.5-0.1-1.1-0.1-1.6c3-0.5,4.6-1.1,4.9-1.1c0.3,0,0.7,0.4,1,0.8c-0.2,1.1-0.5,2.3-0.9,4l0.4,0.1
			c3-3.6,5.5-4.9,7.1-4.9c0.8,0.1,1.8,0.7,2.3,1.7c0.2,0.3,0.2,0.7,0.2,1.1c0,0.3-0.1,1.2-0.3,2.2l0.3,0.1c2.9-3.8,5.5-5,7.2-5
			c0.7,0.1,2,0.8,2.5,2c0.2,0.4,0.3,0.8,0.3,1.2c0,1.6-1.2,6.5-2.9,11.7c0,0.1,0,0.2,0.1,0.2c0.5,0,1.4-0.2,2.7-0.6
			c0.1,0.5,0.2,1.1,0.3,1.6c-1.6,0.5-3.3,0.9-5,0.9c-0.2,0-0.9-0.6-1.1-1.2c0.7-2,1.6-5.7,2.1-7.5c0.3-1.1,0.9-3.4,0.9-4.5
			c0-0.6-0.4-1.3-1.3-1.3c-2.1,0-6.3,4.5-6.9,6.8c-0.5,2.2-1.2,4.9-1.8,7.4c-0.9,0-1.8,0-2.6,0c0.5-2,1.7-7.1,2.2-9
			c0.3-1.1,0.7-3.3,0.7-4.1c0-0.5-0.3-1.2-1.1-1.2c-2.3,0-6.3,4.5-6.9,6.8c-0.4,1.5-1.4,5.9-1.8,7.5c-0.9,0-1.8,0-2.6,0
			c0.8-3.5,2.3-9.9,3.3-14.4L342.9,551.2z"/>
		<path d="M376.4,554.3c2.9-3.9,5.5-5.7,8-5.8c0.9,0.1,2.1,1,2.7,2.2c0.2,0.4,0.3,0.9,0.3,1.4c0,2.6-0.7,6.1-2.3,8.8
			c-1.1,2.1-3.4,4.8-6.7,4.8c-1.4,0-2.7-0.4-3.9-1.5c-0.6,2.9-1.4,7.3-2.1,10.3c-0.9,0-1.8,0-2.7,0c1.4-7.2,3.2-16.6,4.6-23.6
			l-3.2,0.2c0-0.6,0-1.1,0-1.6c3.4-0.5,4.6-0.9,4.8-0.9s0.9,0.5,1.1,0.9c-0.3,1.2-0.7,3-1.1,4.8L376.4,554.3z M383.1,550.9
			c-2.4,0-6.8,5-7.5,7.3c-0.2,0.7-0.6,2.9-0.8,3.8c0.9,1.1,2.2,1.7,3.4,1.7c2.2,0,3.7-1.8,4.6-3.5c1.1-2.3,1.7-5.3,1.7-7.5
			C384.4,551.8,384,550.9,383.1,550.9z"/>
		<path d="M400.3,563.5c-1.4,1.4-3.1,2.1-5.5,2.1c-2,0-3.2-0.8-3.9-1.7c-0.6-0.7-1.1-2.1-1.1-3.6c0-3.9,1.6-7.5,4-9.7
			c1.8-1.6,3.6-2.2,5.5-2.2c1.6,0,2.8,0.6,3.6,1.4s1.5,2.3,1.5,4.3C404.2,557.5,402.8,561,400.3,563.5z M398.8,562.1
			c1.4-1.6,2.4-5,2.4-7.8c0-1.4-0.2-2.2-0.6-2.9c-0.4-0.7-1-1.2-2.1-1.2c-1.3,0-2.5,0.7-3.6,2.1c-1,1.3-2.2,4.4-2.2,7.6
			c0,1.2,0.2,2.1,0.6,2.8c0.4,0.7,1.2,1.1,2.1,1.1C396.8,564,398,563.2,398.8,562.1z"/>
		<path d="M407.5,551.2c-0.1-0.5-0.1-1.1-0.1-1.6c2.5-0.4,4.7-1,4.9-1c0.2,0,0.8,0.5,1,0.9c-0.3,1.1-0.6,2.6-1.1,4.8l0.3,0.1
			c2.3-3.5,4.7-5.8,6.1-5.8c0.8,0,1.5,0.3,1.9,0.5c0,1-0.9,2.7-1.3,3c-0.3-0.1-1.1-0.4-1.6-0.4c-1.6,0-5.3,4.3-6.2,7.6
			c-0.3,1.2-1.1,4.5-1.4,6c-0.9,0-1.8,0-2.7,0c0.7-3.2,2.3-10,3.2-14.4L407.5,551.2z"/>
		<path d="M427.4,563.5c1.1,0,2.8-0.3,4.4-0.8c0.1,0.5,0.1,1.1,0.2,1.7c-2.1,0.8-4.6,1.2-6,1.2c-1.1,0-2.7-0.9-3.2-2.5
			c-0.1-0.2-0.1-0.5-0.1-0.7c0-1.1,1.1-5.9,1.3-6.9c0.3-1.3,0.8-3.6,1.1-4.6c-0.9,0-2,0-3,0c0.1-0.6,0.2-1.2,0.4-1.8
			c1-0.1,2-0.2,2.9-0.2c0.1,0,0.3-0.1,0.3-0.3c0.3-1.1,0.7-2.5,1-3.6c0.9-0.4,2.2-0.7,2.5-0.7c0.1,0,0.1,0,0.1,0.2
			c-0.2,1.1-0.6,2.9-1,4.4c2,0,4,0,5.9,0c-0.1,0.7-0.2,1.4-0.4,2c-1.7,0-3.8,0-5.9,0c-0.3,1.1-0.8,3.4-1.1,4.7
			c-0.4,1.7-1.2,5.2-1.2,6.3C425.6,563,426.3,563.5,427.4,563.5z"/>
	</g>
	<g enable-background="new    ">
		<path d="M134.6,636.7c0-0.6-0.1-1.1-0.1-1.7c3-0.4,5.1-1,5.4-1c0.2,0,0.9,0.6,1.1,1c-0.9,3.8-2.9,12.1-3.4,14c0,0.2,0,0.3,0.2,0.3
			c0.5,0,1.6-0.3,2.9-0.6c0.2,0.5,0.2,1.1,0.3,1.6c-1.6,0.5-3.4,0.9-4.9,0.9c-0.2,0-1.1-0.7-1.4-1.2c0.9-3.9,2.1-9.1,3.1-13.5
			L134.6,636.7z M142.4,628.5c0,1-1,2-2.1,2c-1.1,0-2-0.9-2-2c0-0.9,0.8-2,2.2-2C141.8,626.5,142.4,627.6,142.4,628.5z"/>
		<path d="M144.7,636.8c0-0.6-0.1-1.1-0.1-1.7c2.6-0.4,4.7-1.1,5-1.1c0.2,0,0.8,0.4,1,0.8c-0.3,1.1-0.6,2.6-1.1,4.2l0.3,0.1
			c3.1-3.6,6.3-5.1,8-5.2c1,0.2,2,0.9,2.5,2c0.2,0.4,0.2,0.9,0.2,1.2c0,1.7-1.3,6.6-3.1,11.7c0,0.2,0,0.3,0.2,0.3
			c0.5,0,1.6-0.3,2.8-0.6c0.1,0.5,0.2,1.1,0.2,1.6c-1.5,0.5-3.4,0.9-5,0.9c-0.2,0-0.9-0.5-1.1-1.2c0.7-2,1.9-6.1,2.4-8
			c0.3-1.1,0.7-2.9,0.7-3.9c0-0.8-0.4-1.4-1.2-1.4c-2.4,0-6.9,4.3-7.5,6.5c-0.4,1.4-1.5,6.2-1.9,7.7c-0.9,0-1.8,0-2.7,0
			c0.9-3.5,2.4-9.9,3.4-14.3L144.7,636.8z"/>
		<path d="M174.6,646.1c-2.9,3.4-5.9,5.2-7.6,5.2c-1-0.1-2.3-0.9-2.9-2c-0.3-0.4-0.4-1-0.4-1.6c0-1.7,0.5-4,1.3-6
			c1.2-3.3,3.9-7.7,7.8-7.7c1.6,0,3,0.7,3.9,1.4h0.2c0.7-2.8,1.5-6.5,2.1-9.4l-3.5,0.2c0-0.6-0.1-1.1-0.1-1.6
			c3.2-0.4,5.4-1.1,5.7-1.1c0.3,0,0.7,0.5,1,0.9c-0.7,2.9-5.1,21.7-5.7,24.6c0,0.1,0.1,0.2,0.2,0.2c0.3,0,1.2-0.2,2.4-0.6
			c0.2,0.5,0.3,1.1,0.4,1.6c-1.8,0.7-3.4,1-4.6,1c-0.2,0-0.9-0.5-1.1-1c0.1-0.6,0.5-2.1,1-4.1L174.6,646.1z M175.3,642.4
			c0.2-0.9,0.9-3.5,1.1-4.7c-0.9-1.1-2.3-1.5-3.5-1.5c-2.3,0-4,2.5-5,5c-0.8,2-1.4,4.4-1.4,6.1c0,1.4,0.7,1.8,1.4,1.8
			C170.2,649.1,174.7,644.4,175.3,642.4z"/>
		<path d="M183,636.7c0-0.6-0.1-1.1-0.1-1.7c3-0.4,5.1-1,5.4-1c0.2,0,0.9,0.6,1.1,1c-0.9,3.8-2.9,12.1-3.4,14c0,0.2,0,0.3,0.2,0.3
			c0.5,0,1.6-0.3,2.9-0.6c0.2,0.5,0.2,1.1,0.3,1.6c-1.6,0.5-3.4,0.9-4.9,0.9c-0.2,0-1.1-0.7-1.4-1.2c0.9-3.9,2.1-9.1,3.1-13.5
			L183,636.7z M190.8,628.5c0,1-1,2-2.1,2c-1.1,0-2-0.9-2-2c0-0.9,0.8-2,2.2-2C190.2,626.5,190.8,627.6,190.8,628.5z"/>
		<path d="M195.8,637.1c2-2.1,3.9-3,6.6-3c1.2,0,2.3,0.4,2.8,0.7c-0.1,0.7-1.1,2.1-1.6,2.4c-0.3-0.2-1.8-0.9-2.8-0.9
			c-1.3,0-2.4,0.9-3,1.7c-1.4,1.8-2.5,5.1-2.5,7.6c0,2.6,1.2,3.6,3,3.6c1.2,0,3.2-0.7,4.8-1.3c0.2,0.5,0.4,1,0.5,1.5
			c-1.7,0.9-4.3,1.9-6.2,1.9c-2.4,0-5-1.7-5-5.1C192.3,643.8,193.3,639.8,195.8,637.1z"/>
		<path d="M216.6,646.2c-3.6,4-6.1,5.1-7.4,5.1c-0.9-0.2-2.1-0.9-2.7-2c-0.2-0.4-0.4-0.9-0.4-1.6c0-1.4,0.5-3.8,1.2-5.9
			c1.2-3.2,3.9-7.8,7.6-7.8c1.5,0,2.8,0.7,3.9,1.9h0.2l0.9-2.1c0.7,0.2,1.4,0.4,2.1,0.7c-1.1,3.5-2.8,10.4-3.6,14.4
			c0,0.1,0.1,0.2,0.2,0.2c0.3,0,1.4-0.3,2.7-0.7c0.2,0.5,0.3,1.1,0.4,1.6c-1.6,0.6-3.6,1-4.8,1c-0.1,0-0.8-0.5-1-1
			c0.1-0.7,0.5-2.3,1-3.9L216.6,646.2z M210.5,640.9c-0.9,2.1-1.5,4.6-1.5,6.4c0,1.1,0.6,1.7,1.2,1.7c1.8,0,6.2-4.3,6.9-6.3
			c0.2-0.7,0.9-3.5,1.2-4.7c-0.9-1.2-2.1-1.9-3.4-1.9C213,636.2,211.4,638.7,210.5,640.9z"/>
		<path d="M230.3,649.1c1.1,0,2.8-0.3,4.4-0.8c0.1,0.5,0.1,1.1,0.2,1.7c-2.1,0.8-4.6,1.2-6,1.2c-1.1,0-2.7-0.9-3.2-2.5
			c-0.1-0.2-0.1-0.5-0.1-0.7c0-1.1,1.1-5.9,1.3-6.9c0.3-1.3,0.8-3.6,1.1-4.6c-0.9,0-2,0-3,0c0.1-0.6,0.2-1.2,0.4-1.8
			c1-0.1,2-0.2,2.9-0.2c0.1,0,0.3-0.1,0.3-0.3c0.3-1.1,0.7-2.5,1-3.6c0.9-0.4,2.2-0.7,2.5-0.7c0.1,0,0.1,0,0.1,0.2
			c-0.2,1.1-0.6,2.9-1,4.4c2,0,4,0,5.9,0c-0.1,0.7-0.2,1.4-0.4,2c-1.7,0-3.8,0-5.9,0c-0.3,1.1-0.8,3.4-1.1,4.7
			c-0.4,1.7-1.2,5.2-1.2,6.3C228.5,648.6,229.2,649.1,230.3,649.1z"/>
		<path d="M241.1,637.2c2-2.2,3.8-3.1,5.9-3.1c2.8,0,4.2,2.2,4.3,4.1c-0.2,1.3-1,2.9-2.1,3.6c-2.1,1.1-4.8,1.5-8.2,1.5
			c-0.3,0.9-0.5,2.3-0.5,3c0,1.8,1,2.9,2.7,2.9c1.6,0,4-0.9,6.2-2.1c0.2,0.5,0.4,1,0.6,1.5c-2.2,1.4-5.1,2.7-7.8,2.7
			c-2.1,0-4.6-1.6-4.6-4.6C237.3,644.3,238.4,640.1,241.1,637.2z M243.1,637.6c-0.6,0.9-1.4,2-1.9,3.9c2.1,0,4.1-0.3,5.5-1
			c0.9-0.4,1.6-1.1,1.6-2.1c0-1.2-0.7-2.5-2.2-2.5C244.9,635.9,243.9,636.6,243.1,637.6z"/>
		<path d="M263.1,636.8c0-0.2-0.1-0.4-0.2-0.5c-0.4-0.3-1.1-0.5-2-0.5c-0.6,0-1.5,0.1-2.2,0.5c-0.7,0.4-1.4,1.2-1.4,2.3
			c0,1.5,1,2,2.7,2.7c2.6,1.1,4.1,2.3,4.1,4.5c0,1.9-0.9,3.4-2.7,4.4c-1.1,0.7-2.5,0.9-4.8,0.9c-1.5,0-3.2-0.4-3.8-0.7
			c0.1-1.6,0.2-3.2,0.2-4.8c0.5-0.1,1.2-0.1,1.7-0.1l0.3,2.8c0,0.2,0.1,0.4,0.2,0.4c0.5,0.4,1.4,0.5,2.3,0.5c0.9,0,2-0.2,2.6-0.6
			c0.8-0.5,1.2-1.2,1.2-2.4c0-1.6-1.1-2.2-2.8-3c-2.3-1-4-1.9-4-4.4c0-2,1.6-3.6,3-4.3c1.3-0.6,2.7-0.8,4.3-0.8c1.4,0,3,0.4,3.7,0.8
			c-0.2,1.5-0.3,3-0.4,4.4c-0.5,0-1.1,0-1.7,0.1L263.1,636.8z"/>
		<path d="M275.9,636.8c0-0.6-0.1-1.1-0.1-1.7c2.6-0.4,4.7-1.1,5-1.1c0.2,0,0.8,0.4,1,0.8c-0.3,1.1-0.6,2.6-1.1,4.2l0.3,0.1
			c3.1-3.6,6.3-5.1,8-5.2c1,0.2,2,0.9,2.5,2c0.2,0.4,0.2,0.9,0.2,1.2c0,1.7-1.3,6.6-3.1,11.7c0,0.2,0,0.3,0.2,0.3
			c0.5,0,1.6-0.3,2.8-0.6c0.1,0.5,0.2,1.1,0.2,1.6c-1.5,0.5-3.4,0.9-5,0.9c-0.2,0-0.9-0.5-1.1-1.2c0.7-2,1.9-6.1,2.4-8
			c0.3-1.1,0.7-2.9,0.7-3.9c0-0.8-0.4-1.4-1.2-1.4c-2.4,0-6.9,4.3-7.5,6.5c-0.4,1.4-1.5,6.2-1.9,7.7c-0.9,0-1.8,0-2.7,0
			c0.9-3.5,2.4-9.9,3.4-14.3L275.9,636.8z"/>
		<path d="M298.8,637.2c2-2.2,3.8-3.1,5.9-3.1c2.8,0,4.2,2.2,4.3,4.1c-0.2,1.3-1,2.9-2.1,3.6c-2.1,1.1-4.8,1.5-8.2,1.5
			c-0.3,0.9-0.5,2.3-0.5,3c0,1.8,1,2.9,2.7,2.9c1.6,0,4-0.9,6.2-2.1c0.2,0.5,0.4,1,0.6,1.5c-2.2,1.4-5.1,2.7-7.8,2.7
			c-2.1,0-4.6-1.6-4.6-4.6C295.1,644.3,296.2,640.1,298.8,637.2z M300.9,637.6c-0.6,0.9-1.4,2-1.9,3.9c2.1,0,4.1-0.3,5.5-1
			c0.9-0.4,1.6-1.1,1.6-2.1c0-1.2-0.7-2.5-2.2-2.5C302.7,635.9,301.7,636.6,300.9,637.6z"/>
		<path d="M317.1,649.1c1.1,0,2.8-0.3,4.4-0.8c0.1,0.5,0.1,1.1,0.2,1.7c-2.1,0.8-4.6,1.2-6,1.2c-1.1,0-2.7-0.9-3.2-2.5
			c-0.1-0.2-0.1-0.5-0.1-0.7c0-1.1,1.1-5.9,1.3-6.9c0.3-1.3,0.8-3.6,1.1-4.6c-0.9,0-2,0-3,0c0.1-0.6,0.2-1.2,0.4-1.8
			c1-0.1,2-0.2,2.9-0.2c0.1,0,0.3-0.1,0.3-0.3c0.3-1.1,0.7-2.5,1-3.6c0.9-0.4,2.2-0.7,2.5-0.7c0.1,0,0.1,0,0.1,0.2
			c-0.2,1.1-0.6,2.9-1,4.4c2,0,4,0,5.9,0c-0.1,0.7-0.2,1.4-0.4,2c-1.7,0-3.8,0-5.9,0c-0.3,1.1-0.8,3.4-1.1,4.7
			c-0.4,1.7-1.2,5.2-1.2,6.3C315.3,648.6,316,649.1,317.1,649.1z"/>
		<path d="M336.1,637.2c2-2.2,3.8-3.1,5.9-3.1c2.8,0,4.2,2.2,4.3,4.1c-0.2,1.3-1,2.9-2.1,3.6c-2.1,1.1-4.8,1.5-8.2,1.5
			c-0.3,0.9-0.5,2.3-0.5,3c0,1.8,1,2.9,2.7,2.9c1.6,0,4-0.9,6.2-2.1c0.2,0.5,0.4,1,0.6,1.5c-2.2,1.4-5.1,2.7-7.8,2.7
			c-2.1,0-4.6-1.6-4.6-4.6C332.4,644.3,333.5,640.1,336.1,637.2z M338.2,637.6c-0.6,0.9-1.4,2-1.9,3.9c2.1,0,4.1-0.3,5.5-1
			c0.9-0.4,1.6-1.1,1.6-2.1c0-1.2-0.7-2.5-2.2-2.5C340,635.9,339,636.6,338.2,637.6z"/>
		<path d="M356.1,640.2c2.2-2.7,5.6-6.1,6.6-6.1c0.5,0,1.6,1.1,1.8,2c-1.9,0.9-4.4,2.5-7.7,5.9l-0.1,0.2c1.1,2.9,1.7,4.4,2.7,6.7
			c0.1,0.2,0.2,0.3,0.5,0.3c0.4,0,1.5-0.2,2.6-0.5c0.1,0.5,0.2,1.1,0.2,1.6c-1.3,0.5-3.7,0.8-5.3,0.8c-0.7-1.6-1.7-4.5-2.8-7.4h-0.2
			c-2.3,2.5-4.1,5.4-4.7,7.5c-0.8,0.1-2.2,0.1-3.3,0.1c0.4-2,4.2-6.3,7.4-9.4l0-0.2c-0.6-1.5-1.2-3.3-2-5.2l-3,0.7
			c-0.2-0.5-0.3-1.1-0.4-1.6c2-0.7,4.2-1.5,4.4-1.5c0.3,0,0.9,0.3,1.2,0.5c0.7,2,1.2,3.8,1.8,5.6H356.1z"/>
		<path d="M370.9,639.8c2.9-3.9,5.5-5.7,8-5.8c0.9,0.1,2.1,1,2.7,2.2c0.2,0.4,0.3,0.9,0.3,1.4c0,2.6-0.7,6.1-2.3,8.8
			c-1.1,2.1-3.4,4.8-6.7,4.8c-1.4,0-2.7-0.4-3.9-1.5c-0.6,2.9-1.4,7.3-2.1,10.3c-0.9,0-1.8,0-2.7,0c1.4-7.2,3.2-16.6,4.6-23.6
			l-3.2,0.2c0-0.6,0-1.1,0-1.6c3.4-0.5,4.6-0.9,4.8-0.9s0.9,0.5,1.1,0.9c-0.3,1.2-0.7,3-1.1,4.8L370.9,639.8z M377.6,636.5
			c-2.4,0-6.8,5-7.5,7.3c-0.2,0.7-0.6,2.9-0.8,3.8c0.9,1.1,2.2,1.7,3.4,1.7c2.2,0,3.7-1.8,4.6-3.5c1.1-2.3,1.7-5.3,1.7-7.5
			C378.9,637.3,378.5,636.5,377.6,636.5z"/>
		<path d="M394.8,649.1c-1.4,1.4-3.1,2.1-5.5,2.1c-2,0-3.2-0.8-3.9-1.7c-0.6-0.7-1.1-2.1-1.1-3.6c0-3.9,1.6-7.5,4-9.7
			c1.8-1.6,3.6-2.2,5.5-2.2c1.6,0,2.8,0.6,3.6,1.4s1.5,2.3,1.5,4.3C398.7,643.1,397.3,646.6,394.8,649.1z M393.3,647.7
			c1.4-1.6,2.4-5,2.4-7.8c0-1.4-0.2-2.2-0.6-2.9c-0.4-0.7-1-1.2-2.1-1.2c-1.3,0-2.5,0.7-3.6,2.1c-1,1.3-2.2,4.4-2.2,7.6
			c0,1.2,0.2,2.1,0.6,2.8c0.4,0.7,1.2,1.1,2.1,1.1C391.3,649.5,392.5,648.8,393.3,647.7z"/>
		<path d="M402,636.7c-0.1-0.5-0.1-1.1-0.1-1.6c2.5-0.4,4.7-1,4.9-1c0.2,0,0.8,0.5,1,0.9c-0.3,1.1-0.6,2.6-1.1,4.8l0.3,0.1
			c2.3-3.5,4.7-5.8,6.1-5.8c0.8,0,1.5,0.3,1.9,0.5c0,1-0.9,2.7-1.3,3c-0.3-0.1-1.1-0.4-1.6-0.4c-1.6,0-5.3,4.3-6.2,7.6
			c-0.3,1.2-1.1,4.5-1.4,6c-0.9,0-1.8,0-2.7,0c0.7-3.2,2.3-10,3.2-14.4L402,636.7z"/>
		<path d="M421.9,649.1c1.1,0,2.8-0.3,4.4-0.8c0.1,0.5,0.1,1.1,0.2,1.7c-2.1,0.8-4.6,1.2-6,1.2c-1.1,0-2.7-0.9-3.2-2.5
			c-0.1-0.2-0.1-0.5-0.1-0.7c0-1.1,1.1-5.9,1.3-6.9c0.3-1.3,0.8-3.6,1.1-4.6c-0.9,0-2,0-3,0c0.1-0.6,0.2-1.2,0.4-1.8
			c1-0.1,2-0.2,2.9-0.2c0.1,0,0.3-0.1,0.3-0.3c0.3-1.1,0.7-2.5,1-3.6c0.9-0.4,2.2-0.7,2.5-0.7c0.1,0,0.1,0,0.1,0.2
			c-0.2,1.1-0.6,2.9-1,4.4c2,0,4,0,5.9,0c-0.1,0.7-0.2,1.4-0.4,2c-1.7,0-3.8,0-5.9,0c-0.3,1.1-0.8,3.4-1.1,4.7
			c-0.4,1.7-1.2,5.2-1.2,6.3C420.1,648.6,420.8,649.1,421.9,649.1z"/>
	</g>
</g>
<g>
	<g enable-background="new    ">
		<path d="M562.1,543.9c1.1,0,2.8-0.3,4.4-0.8c0.1,0.5,0.1,1.1,0.2,1.7c-2.1,0.8-4.6,1.2-6,1.2c-1.1,0-2.7-0.9-3.2-2.5
			c-0.1-0.2-0.1-0.5-0.1-0.7c0-1.1,1.1-5.9,1.3-6.9c0.3-1.3,0.8-3.6,1.1-4.6c-0.9,0-2,0-3,0c0.1-0.6,0.2-1.2,0.4-1.8
			c1-0.1,2-0.2,2.9-0.2c0.1,0,0.3-0.1,0.3-0.3c0.3-1.1,0.7-2.5,1-3.6c0.9-0.4,2.2-0.7,2.5-0.7c0.1,0,0.1,0,0.1,0.2
			c-0.2,1.1-0.6,2.9-1,4.4c2,0,4,0,5.9,0c-0.1,0.7-0.2,1.4-0.4,2c-1.7,0-3.8,0-5.9,0c-0.3,1.1-0.8,3.4-1.1,4.7
			c-0.4,1.7-1.2,5.2-1.2,6.3C560.3,543.4,561,543.9,562.1,543.9z"/>
		<path d="M570.5,531.6c-0.1-0.5-0.1-1.1-0.1-1.6c2.5-0.4,4.7-1,4.9-1c0.2,0,0.8,0.5,1,0.9c-0.3,1.1-0.6,2.6-1.1,4.8l0.3,0.1
			c2.3-3.5,4.7-5.8,6.1-5.8c0.8,0,1.5,0.3,1.9,0.5c0,1-0.9,2.7-1.3,3c-0.3-0.1-1.1-0.4-1.6-0.4c-1.6,0-5.3,4.3-6.2,7.6
			c-0.3,1.2-1.1,4.5-1.4,6c-0.9,0-1.8,0-2.7,0c0.7-3.2,2.3-10,3.2-14.4L570.5,531.6z"/>
		<path d="M593.4,541.1c-3.6,4-6.1,5.1-7.4,5.1c-0.9-0.2-2.1-0.9-2.7-2c-0.2-0.4-0.4-0.9-0.4-1.6c0-1.4,0.5-3.8,1.2-5.9
			c1.2-3.2,3.9-7.8,7.6-7.8c1.5,0,2.8,0.7,3.9,1.9h0.2l0.9-2.1c0.7,0.2,1.4,0.4,2.1,0.7c-1.1,3.5-2.8,10.4-3.6,14.4
			c0,0.1,0.1,0.2,0.2,0.2c0.3,0,1.4-0.3,2.7-0.7c0.2,0.5,0.3,1.1,0.4,1.6c-1.6,0.6-3.6,1-4.8,1c-0.1,0-0.8-0.5-1-1
			c0.1-0.7,0.5-2.3,1-3.9L593.4,541.1z M587.3,535.7c-0.9,2.1-1.5,4.6-1.5,6.4c0,1.1,0.6,1.7,1.2,1.7c1.8,0,6.2-4.3,6.9-6.3
			c0.2-0.7,0.9-3.5,1.2-4.7c-0.9-1.2-2.1-1.9-3.4-1.9C589.9,531,588.2,533.6,587.3,535.7z"/>
		<path d="M602,531.7c0-0.6-0.1-1.1-0.1-1.7c2.6-0.4,4.7-1.1,5-1.1c0.2,0,0.8,0.4,1,0.8c-0.3,1.1-0.6,2.6-1.1,4.2l0.3,0.1
			c3.1-3.6,6.3-5.1,8-5.2c1,0.2,2,0.9,2.5,2c0.2,0.4,0.2,0.9,0.2,1.2c0,1.7-1.3,6.6-3.1,11.7c0,0.2,0,0.3,0.2,0.3
			c0.5,0,1.6-0.3,2.8-0.6c0.1,0.5,0.2,1.1,0.2,1.6c-1.5,0.5-3.4,0.9-5,0.9c-0.2,0-0.9-0.5-1.1-1.2c0.7-2,1.9-6.1,2.4-8
			c0.3-1.1,0.7-2.9,0.7-3.9c0-0.8-0.4-1.4-1.2-1.4c-2.4,0-6.9,4.3-7.5,6.5c-0.4,1.4-1.5,6.2-1.9,7.7c-0.9,0-1.8,0-2.7,0
			c0.9-3.5,2.4-9.9,3.4-14.3L602,531.7z"/>
		<path d="M631.3,531.7c0-0.2-0.1-0.4-0.2-0.5c-0.4-0.3-1.1-0.5-2-0.5c-0.6,0-1.5,0.1-2.2,0.5c-0.7,0.4-1.4,1.2-1.4,2.3
			c0,1.5,1,2,2.7,2.7c2.6,1.1,4.1,2.3,4.1,4.5c0,1.9-0.9,3.4-2.7,4.4c-1.1,0.7-2.5,0.9-4.8,0.9c-1.5,0-3.2-0.4-3.8-0.7
			c0.1-1.6,0.2-3.2,0.2-4.8c0.5-0.1,1.2-0.1,1.7-0.1l0.3,2.8c0,0.2,0.1,0.4,0.2,0.4c0.5,0.4,1.4,0.5,2.3,0.5c0.9,0,2-0.2,2.6-0.6
			c0.8-0.5,1.2-1.2,1.2-2.4c0-1.6-1.1-2.2-2.8-3c-2.3-1-4-1.9-4-4.4c0-2,1.6-3.6,3-4.3c1.3-0.6,2.7-0.8,4.3-0.8c1.4,0,3,0.4,3.7,0.8
			c-0.2,1.5-0.3,3-0.4,4.4c-0.5,0-1.1,0-1.7,0.1L631.3,531.7z"/>
		<path d="M641.1,534.7c2.9-3.9,5.5-5.7,8-5.8c0.9,0.1,2.1,1,2.7,2.2c0.2,0.4,0.3,0.9,0.3,1.4c0,2.6-0.7,6.1-2.3,8.8
			c-1.1,2.1-3.4,4.8-6.7,4.8c-1.4,0-2.7-0.4-3.9-1.5c-0.6,2.9-1.4,7.3-2.1,10.3c-0.9,0-1.8,0-2.7,0c1.4-7.2,3.2-16.6,4.6-23.6
			l-3.2,0.2c0-0.6,0-1.1,0-1.6c3.4-0.5,4.6-0.9,4.8-0.9s0.9,0.5,1.1,0.9c-0.3,1.2-0.7,3-1.1,4.8L641.1,534.7z M647.8,531.3
			c-2.4,0-6.8,5-7.5,7.3c-0.2,0.7-0.6,2.9-0.8,3.8c0.9,1.1,2.2,1.7,3.4,1.7c2.2,0,3.7-1.8,4.6-3.5c1.1-2.3,1.7-5.3,1.7-7.5
			C649.1,532.2,648.7,531.3,647.8,531.3z"/>
		<path d="M664.9,543.9c-1.4,1.4-3.1,2.1-5.5,2.1c-2,0-3.2-0.8-3.9-1.7c-0.6-0.7-1.1-2.1-1.1-3.6c0-3.9,1.6-7.5,4-9.7
			c1.8-1.6,3.6-2.2,5.5-2.2c1.6,0,2.8,0.6,3.6,1.4s1.5,2.3,1.5,4.3C668.9,537.9,667.5,541.4,664.9,543.9z M663.5,542.5
			c1.4-1.6,2.4-5,2.4-7.8c0-1.4-0.2-2.2-0.6-2.9c-0.4-0.7-1-1.2-2.1-1.2c-1.3,0-2.5,0.7-3.6,2.1c-1,1.3-2.2,4.4-2.2,7.6
			c0,1.2,0.2,2.1,0.6,2.8c0.4,0.7,1.2,1.1,2.1,1.1C661.4,544.4,662.6,543.6,663.5,542.5z"/>
		<path d="M672.2,531.6c-0.1-0.5-0.1-1.1-0.1-1.6c2.5-0.4,4.7-1,4.9-1c0.2,0,0.8,0.5,1,0.9c-0.3,1.1-0.6,2.6-1.1,4.8l0.3,0.1
			c2.3-3.5,4.7-5.8,6.1-5.8c0.8,0,1.5,0.3,1.9,0.5c0,1-0.9,2.7-1.3,3c-0.3-0.1-1.1-0.4-1.6-0.4c-1.6,0-5.3,4.3-6.2,7.6
			c-0.3,1.2-1.1,4.5-1.4,6c-0.9,0-1.8,0-2.7,0c0.7-3.2,2.3-10,3.2-14.4L672.2,531.6z"/>
		<path d="M692.1,543.9c1.1,0,2.8-0.3,4.4-0.8c0.1,0.5,0.1,1.1,0.2,1.7c-2.1,0.8-4.6,1.2-6,1.2c-1.1,0-2.7-0.9-3.2-2.5
			c-0.1-0.2-0.1-0.5-0.1-0.7c0-1.1,1.1-5.9,1.3-6.9c0.3-1.3,0.8-3.6,1.1-4.6c-0.9,0-2,0-3,0c0.1-0.6,0.2-1.2,0.4-1.8
			c1-0.1,2-0.2,2.9-0.2c0.1,0,0.3-0.1,0.3-0.3c0.3-1.1,0.7-2.5,1-3.6c0.9-0.4,2.2-0.7,2.5-0.7c0.1,0,0.1,0,0.1,0.2
			c-0.2,1.1-0.6,2.9-1,4.4c2,0,4,0,5.9,0c-0.1,0.7-0.2,1.4-0.4,2c-1.7,0-3.8,0-5.9,0c-0.3,1.1-0.8,3.4-1.1,4.7
			c-0.4,1.7-1.2,5.2-1.2,6.3C690.3,543.4,691,543.9,692.1,543.9z"/>
		<path d="M709.8,541.1c-3.6,4-6.1,5.1-7.4,5.1c-0.9-0.2-2.1-0.9-2.7-2c-0.2-0.4-0.4-0.9-0.4-1.6c0-1.4,0.5-3.8,1.2-5.9
			c1.2-3.2,3.9-7.8,7.6-7.8c1.5,0,2.8,0.7,3.9,1.9h0.2l0.9-2.1c0.7,0.2,1.4,0.4,2.1,0.7c-1.1,3.5-2.8,10.4-3.6,14.4
			c0,0.1,0.1,0.2,0.2,0.2c0.3,0,1.4-0.3,2.7-0.7c0.2,0.5,0.3,1.1,0.4,1.6c-1.6,0.6-3.6,1-4.8,1c-0.1,0-0.8-0.5-1-1
			c0.1-0.7,0.5-2.3,1-3.9L709.8,541.1z M703.7,535.7c-0.9,2.1-1.5,4.6-1.5,6.4c0,1.1,0.6,1.7,1.2,1.7c1.8,0,6.2-4.3,6.9-6.3
			c0.2-0.7,0.9-3.5,1.2-4.7c-0.9-1.2-2.1-1.9-3.4-1.9C706.2,531,704.6,533.6,703.7,535.7z"/>
		<path d="M723.4,543.9c1.1,0,2.8-0.3,4.4-0.8c0.1,0.5,0.1,1.1,0.2,1.7c-2.1,0.8-4.6,1.2-6,1.2c-1.1,0-2.7-0.9-3.2-2.5
			c-0.1-0.2-0.1-0.5-0.1-0.7c0-1.1,1.1-5.9,1.3-6.9c0.3-1.3,0.8-3.6,1.1-4.6c-0.9,0-2,0-3,0c0.1-0.6,0.2-1.2,0.4-1.8
			c1-0.1,2-0.2,2.9-0.2c0.1,0,0.3-0.1,0.3-0.3c0.3-1.1,0.7-2.5,1-3.6c0.9-0.4,2.2-0.7,2.5-0.7c0.1,0,0.1,0,0.1,0.2
			c-0.2,1.1-0.6,2.9-1,4.4c2,0,4,0,5.9,0c-0.1,0.7-0.2,1.4-0.4,2c-1.7,0-3.8,0-5.9,0c-0.3,1.1-0.8,3.4-1.1,4.7
			c-0.4,1.7-1.2,5.2-1.2,6.3C721.7,543.4,722.4,543.9,723.4,543.9z"/>
		<path d="M731.6,531.6c0-0.6-0.1-1.1-0.1-1.7c3-0.4,5.1-1,5.4-1c0.2,0,0.9,0.6,1.1,1c-0.9,3.8-2.9,12.1-3.4,14c0,0.2,0,0.3,0.2,0.3
			c0.5,0,1.6-0.3,2.9-0.6c0.2,0.5,0.2,1.1,0.3,1.6c-1.6,0.5-3.4,0.9-4.9,0.9c-0.2,0-1.1-0.7-1.4-1.2c0.9-3.9,2.1-9.1,3.1-13.5
			L731.6,531.6z M739.3,523.3c0,1-1,2-2.1,2c-1.1,0-2-0.9-2-2c0-0.9,0.8-2,2.2-2C738.7,521.4,739.3,522.5,739.3,523.3z"/>
		<path d="M751.5,543.9c-1.4,1.4-3.1,2.1-5.5,2.1c-2,0-3.2-0.8-3.9-1.7c-0.6-0.7-1.1-2.1-1.1-3.6c0-3.9,1.6-7.5,4-9.7
			c1.8-1.6,3.6-2.2,5.5-2.2c1.6,0,2.8,0.6,3.6,1.4s1.5,2.3,1.5,4.3C755.4,537.9,754,541.4,751.5,543.9z M750,542.5
			c1.4-1.6,2.4-5,2.4-7.8c0-1.4-0.2-2.2-0.6-2.9c-0.4-0.7-1-1.2-2.1-1.2c-1.3,0-2.5,0.7-3.6,2.1c-1,1.3-2.2,4.4-2.2,7.6
			c0,1.2,0.2,2.1,0.6,2.8c0.4,0.7,1.2,1.1,2.1,1.1C747.9,544.4,749.2,543.6,750,542.5z"/>
		<path d="M758.6,531.7c0-0.6-0.1-1.1-0.1-1.7c2.6-0.4,4.7-1.1,5-1.1c0.2,0,0.8,0.4,1,0.8c-0.3,1.1-0.6,2.6-1.1,4.2l0.3,0.1
			c3.1-3.6,6.3-5.1,8-5.2c1,0.2,2,0.9,2.5,2c0.2,0.4,0.2,0.9,0.2,1.2c0,1.7-1.3,6.6-3.1,11.7c0,0.2,0,0.3,0.2,0.3
			c0.5,0,1.6-0.3,2.8-0.6c0.1,0.5,0.2,1.1,0.2,1.6c-1.5,0.5-3.4,0.9-5,0.9c-0.2,0-0.9-0.5-1.1-1.2c0.7-2,1.9-6.1,2.4-8
			c0.3-1.1,0.7-2.9,0.7-3.9c0-0.8-0.4-1.4-1.2-1.4c-2.4,0-6.9,4.3-7.5,6.5c-0.4,1.4-1.5,6.2-1.9,7.7c-0.9,0-1.8,0-2.7,0
			c0.9-3.5,2.4-9.9,3.4-14.3L758.6,531.7z"/>
		<path d="M796.2,543.9c-1.4,1.4-3.1,2.1-5.5,2.1c-2,0-3.2-0.8-3.9-1.7c-0.6-0.7-1.1-2.1-1.1-3.6c0-3.9,1.6-7.5,4-9.7
			c1.8-1.6,3.6-2.2,5.5-2.2c1.6,0,2.8,0.6,3.6,1.4s1.5,2.3,1.5,4.3C800.1,537.9,798.8,541.4,796.2,543.9z M794.8,542.5
			c1.4-1.6,2.4-5,2.4-7.8c0-1.4-0.2-2.2-0.6-2.9c-0.4-0.7-1-1.2-2.1-1.2c-1.3,0-2.5,0.7-3.6,2.1c-1,1.3-2.2,4.4-2.2,7.6
			c0,1.2,0.2,2.1,0.6,2.8c0.4,0.7,1.2,1.1,2.1,1.1C792.7,544.4,793.9,543.6,794.8,542.5z"/>
		<path d="M819.1,519.7c0,0.8-1,2.2-1.6,2.5c-0.3-0.2-1.6-0.7-2.8-0.7c-0.8,0-1.9,0.4-2.8,1.4c-1.2,1.4-1.6,3.4-2.2,6.4
			c1.9,0,3.8,0,5.5-0.1c-0.1,0.6-0.3,1.4-0.5,2c-1.5,0-3.8,0-5.5,0c-1.3,6.4-2.8,13.5-4.3,20.8c-0.9,0-1.8,0-2.7,0
			c1.5-7.2,2.9-14.3,4.3-20.8c-0.9,0-2,0-3.2,0c0.1-0.6,0.3-1.2,0.4-1.8c1,0,2.1-0.1,3-0.1c0.1,0,0.2-0.1,0.2-0.3
			c0.7-3.6,1.4-5.4,3.2-7.2c2.3-2.1,4.5-2.7,6.4-2.7C817.6,519.2,818.6,519.5,819.1,519.7z"/>
		<path d="M835.3,534.8c-2.8,6.9-6.7,11.2-7.1,11.2c-0.6,0-1.7,0-2.8-0.2c-0.1-3.9,0-11.5,0.2-14.4l-3,0.4c-0.1-0.6-0.2-1.1-0.2-1.6
			c2.4-0.6,4.5-1.2,4.8-1.2c0.3,0,1,0.6,1.2,1.1c-0.2,4.6-0.5,11.1-0.5,13.7c0,0.2,0.2,0.3,0.3,0.1c0.7-0.9,1.9-2.6,3.1-4.5
			c1.5-2.6,3.2-6.3,3.9-9.1c0.7-0.3,1.7-0.4,2.5-0.3c0.1,4.5,0.2,11.4,0.3,14c0,0.2,0.2,0.2,0.3,0.1c0.9-1.1,1.9-2.3,3.3-4.7
			c1.4-2.3,3-6.2,3-7.8c0-0.1,0-0.3-0.3-0.3l-2.3,0.2c-0.1-0.5-0.1-1.1-0.1-1.6c1.8-0.3,3.9-0.7,4.3-0.7c0.3,0,1.2,1,1.2,1.2
			c0,2.4-2.3,7.1-4.1,10c-2,3.1-4.5,5.7-4.8,5.7c-0.5,0-1.8,0-2.7-0.2c-0.1-2.6-0.2-6.6-0.1-11H835.3z"/>
		<path d="M858.9,541.1c-3.6,4-6.1,5.1-7.4,5.1c-0.9-0.2-2.1-0.9-2.7-2c-0.2-0.4-0.4-0.9-0.4-1.6c0-1.4,0.5-3.8,1.2-5.9
			c1.2-3.2,3.9-7.8,7.6-7.8c1.5,0,2.8,0.7,3.9,1.9h0.2l0.9-2.1c0.7,0.2,1.4,0.4,2.1,0.7c-1.1,3.5-2.8,10.4-3.6,14.4
			c0,0.1,0.1,0.2,0.2,0.2c0.3,0,1.4-0.3,2.7-0.7c0.2,0.5,0.3,1.1,0.4,1.6c-1.6,0.6-3.6,1-4.8,1c-0.1,0-0.8-0.5-1-1
			c0.1-0.7,0.5-2.3,1-3.9L858.9,541.1z M852.8,535.7c-0.9,2.1-1.5,4.6-1.5,6.4c0,1.1,0.6,1.7,1.2,1.7c1.8,0,6.2-4.3,6.9-6.3
			c0.2-0.7,0.9-3.5,1.2-4.7c-0.9-1.2-2.1-1.9-3.4-1.9C855.4,531,853.7,533.6,852.8,535.7z"/>
		<path d="M876.9,531.7c0-0.2-0.1-0.4-0.2-0.5c-0.4-0.3-1.1-0.5-2-0.5c-0.6,0-1.5,0.1-2.2,0.5c-0.7,0.4-1.4,1.2-1.4,2.3
			c0,1.5,1,2,2.7,2.7c2.6,1.1,4.1,2.3,4.1,4.5c0,1.9-0.9,3.4-2.7,4.4c-1.1,0.7-2.5,0.9-4.8,0.9c-1.5,0-3.2-0.4-3.8-0.7
			c0.1-1.6,0.2-3.2,0.2-4.8c0.5-0.1,1.2-0.1,1.7-0.1l0.3,2.8c0,0.2,0.1,0.4,0.2,0.4c0.5,0.4,1.4,0.5,2.3,0.5c0.9,0,2-0.2,2.6-0.6
			c0.8-0.5,1.2-1.2,1.2-2.4c0-1.6-1.1-2.2-2.8-3c-2.3-1-4-1.9-4-4.4c0-2,1.6-3.6,3-4.3c1.3-0.6,2.7-0.8,4.3-0.8c1.4,0,3,0.4,3.7,0.8
			c-0.2,1.5-0.3,3-0.4,4.4c-0.5,0-1.1,0-1.7,0.1L876.9,531.7z"/>
		<path d="M887.3,543.9c1.1,0,2.8-0.3,4.4-0.8c0.1,0.5,0.1,1.1,0.2,1.7c-2.1,0.8-4.6,1.2-6,1.2c-1.1,0-2.7-0.9-3.2-2.5
			c-0.1-0.2-0.1-0.5-0.1-0.7c0-1.1,1.1-5.9,1.3-6.9c0.3-1.3,0.8-3.6,1.1-4.6c-0.9,0-2,0-3,0c0.1-0.6,0.2-1.2,0.4-1.8
			c1-0.1,2-0.2,2.9-0.2c0.1,0,0.3-0.1,0.3-0.3c0.3-1.1,0.7-2.5,1-3.6c0.9-0.4,2.2-0.7,2.5-0.7c0.1,0,0.1,0,0.1,0.2
			c-0.2,1.1-0.6,2.9-1,4.4c2,0,4,0,5.9,0c-0.1,0.7-0.2,1.4-0.4,2c-1.7,0-3.8,0-5.9,0c-0.3,1.1-0.8,3.4-1.1,4.7
			c-0.4,1.7-1.2,5.2-1.2,6.3C885.5,543.4,886.2,543.9,887.3,543.9z"/>
		<path d="M898.1,532c2-2.2,3.8-3.1,5.9-3.1c2.8,0,4.2,2.2,4.3,4.1c-0.2,1.3-1,2.9-2.1,3.6c-2.1,1.1-4.8,1.5-8.2,1.5
			c-0.3,0.9-0.5,2.3-0.5,3c0,1.8,1,2.9,2.7,2.9c1.6,0,4-0.9,6.2-2.1c0.2,0.5,0.4,1,0.6,1.5c-2.2,1.4-5.1,2.7-7.8,2.7
			c-2.1,0-4.6-1.6-4.6-4.6C894.4,539.1,895.5,534.9,898.1,532z M900.1,532.5c-0.6,0.9-1.4,2-1.9,3.9c2.1,0,4.1-0.3,5.5-1
			c0.9-0.4,1.6-1.1,1.6-2.1c0-1.2-0.7-2.5-2.2-2.5C901.9,530.8,901,531.5,900.1,532.5z"/>
	</g>
	
		<linearGradient id="SVGID_1_" gradientUnits="userSpaceOnUse" x1="503.2399" y1="-2202.0361" x2="771.1673" y2="-2202.0361" gradientTransform="matrix(1.1574 0 0 1.1574 -5.5556 3050.6572)">
		<stop  offset="0" style="stop-color:#7FA53F"/>
		<stop  offset="0.2497" style="stop-color:#679F5F"/>
		<stop  offset="1" style="stop-color:#208DBA"/>
	</linearGradient>
	<line fill="none" stroke="url(#SVGID_1_)" stroke-width="16" stroke-miterlimit="10" x1="576.9" y1="501.9" x2="887" y2="501.9"/>
	<g enable-background="new    ">
		<path fill="#7FA53F" d="M528.3,446c0-0.6-0.1-1.1-0.1-1.7c3-0.4,5.1-1,5.4-1c0.2,0,0.9,0.6,1.1,1c-0.9,3.8-2.9,12.1-3.4,14
			c0,0.2,0,0.3,0.2,0.3c0.5,0,1.6-0.3,2.9-0.6c0.2,0.5,0.2,1.1,0.3,1.6c-1.6,0.5-3.4,0.9-4.9,0.9c-0.2,0-1.1-0.7-1.4-1.2
			c0.9-3.9,2.1-9.1,3.1-13.5L528.3,446z M536,437.8c0,1-1,2-2.1,2c-1.1,0-2-0.9-2-2c0-0.9,0.8-2,2.2-2
			C535.4,435.9,536,436.9,536,437.8z"/>
		<path fill="#7FA53F" d="M538.2,446.1c0-0.5-0.1-1.1-0.1-1.6c3-0.5,4.6-1.1,4.9-1.1c0.3,0,0.7,0.4,1,0.8c-0.2,1.1-0.5,2.3-0.9,4
			l0.4,0.1c3-3.6,5.5-4.9,7.1-4.9c0.8,0.1,1.8,0.7,2.3,1.7c0.2,0.3,0.2,0.7,0.2,1.1c0,0.3-0.1,1.2-0.3,2.2l0.3,0.1
			c2.9-3.8,5.5-5,7.2-5c0.7,0.1,2,0.8,2.5,2c0.2,0.4,0.3,0.8,0.3,1.2c0,1.6-1.2,6.5-2.9,11.7c0,0.1,0,0.2,0.1,0.2
			c0.5,0,1.4-0.2,2.7-0.6c0.1,0.5,0.2,1.1,0.3,1.6c-1.6,0.5-3.3,0.9-5,0.9c-0.2,0-0.9-0.6-1.1-1.2c0.7-2,1.6-5.7,2.1-7.5
			c0.3-1.1,0.9-3.4,0.9-4.5c0-0.6-0.4-1.3-1.3-1.3c-2.1,0-6.3,4.5-6.9,6.8c-0.5,2.2-1.2,4.9-1.8,7.4c-0.9,0-1.8,0-2.6,0
			c0.5-2,1.7-7.1,2.2-9c0.3-1.1,0.7-3.3,0.7-4.1c0-0.5-0.3-1.2-1.1-1.2c-2.3,0-6.3,4.5-6.9,6.8c-0.4,1.5-1.4,5.9-1.8,7.5
			c-0.9,0-1.8,0-2.6,0c0.8-3.5,2.3-9.9,3.3-14.4L538.2,446.1z"/>
		<path fill="#7FA53F" d="M571.8,449.1c2.9-3.9,5.5-5.7,8-5.8c0.9,0.1,2.1,1,2.7,2.2c0.2,0.4,0.3,0.9,0.3,1.4c0,2.6-0.7,6.1-2.3,8.8
			c-1.1,2.1-3.4,4.8-6.7,4.8c-1.4,0-2.7-0.4-3.9-1.5c-0.6,2.9-1.4,7.3-2.1,10.3c-0.9,0-1.8,0-2.7,0c1.4-7.2,3.2-16.6,4.6-23.6
			l-3.2,0.2c0-0.6,0-1.1,0-1.6c3.4-0.5,4.6-0.9,4.8-0.9s0.9,0.5,1.1,0.9c-0.3,1.2-0.7,3-1.1,4.8L571.8,449.1z M578.5,445.8
			c-2.4,0-6.8,5-7.5,7.3c-0.2,0.7-0.6,2.9-0.8,3.8c0.9,1.1,2.2,1.7,3.4,1.7c2.2,0,3.7-1.8,4.6-3.5c1.1-2.3,1.7-5.3,1.7-7.5
			C579.8,446.7,579.4,445.8,578.5,445.8z"/>
		<path fill="#7FA53F" d="M595.6,458.4c-1.4,1.4-3.1,2.1-5.5,2.1c-2,0-3.2-0.8-3.9-1.7c-0.6-0.7-1.1-2.1-1.1-3.6
			c0-3.9,1.6-7.5,4-9.7c1.8-1.6,3.6-2.2,5.5-2.2c1.6,0,2.8,0.6,3.6,1.4s1.5,2.3,1.5,4.3C599.6,452.4,598.2,455.9,595.6,458.4z
			 M594.2,457c1.4-1.6,2.4-5,2.4-7.8c0-1.4-0.2-2.2-0.6-2.9c-0.4-0.7-1-1.2-2.1-1.2c-1.3,0-2.5,0.7-3.6,2.1c-1,1.3-2.2,4.4-2.2,7.6
			c0,1.2,0.2,2.1,0.6,2.8c0.4,0.7,1.2,1.1,2.1,1.1C592.1,458.8,593.3,458.1,594.2,457z"/>
		<path fill="#7FA53F" d="M602.9,446c-0.1-0.5-0.1-1.1-0.1-1.6c2.5-0.4,4.7-1,4.9-1c0.2,0,0.8,0.5,1,0.9c-0.3,1.1-0.6,2.6-1.1,4.8
			l0.3,0.1c2.3-3.5,4.7-5.8,6.1-5.8c0.8,0,1.5,0.3,1.9,0.5c0,1-0.9,2.7-1.3,3c-0.3-0.1-1.1-0.4-1.6-0.4c-1.6,0-5.3,4.3-6.2,7.6
			c-0.3,1.2-1.1,4.5-1.4,6c-0.9,0-1.8,0-2.7,0c0.7-3.2,2.3-10,3.2-14.4L602.9,446z"/>
		<path fill="#7FA53F" d="M622.8,458.4c1.1,0,2.8-0.3,4.4-0.8c0.1,0.5,0.1,1.1,0.2,1.7c-2.1,0.8-4.6,1.2-6,1.2
			c-1.1,0-2.7-0.9-3.2-2.5c-0.1-0.2-0.1-0.5-0.1-0.7c0-1.1,1.1-5.9,1.3-6.9c0.3-1.3,0.8-3.6,1.1-4.6c-0.9,0-2,0-3,0
			c0.1-0.6,0.2-1.2,0.4-1.8c1-0.1,2-0.2,2.9-0.2c0.1,0,0.3-0.1,0.3-0.3c0.3-1.1,0.7-2.5,1-3.6c0.9-0.4,2.2-0.7,2.5-0.7
			c0.1,0,0.1,0,0.1,0.2c-0.2,1.1-0.6,2.9-1,4.4c2,0,4,0,5.9,0c-0.1,0.7-0.2,1.4-0.4,2c-1.7,0-3.8,0-5.9,0c-0.3,1.1-0.8,3.4-1.1,4.7
			c-0.4,1.7-1.2,5.2-1.2,6.3C621,457.9,621.7,458.4,622.8,458.4z"/>
	</g>
	<g enable-background="new    ">
		<path fill="#228DBA" d="M842.3,446.5c2-2.2,3.8-3.1,5.9-3.1c2.8,0,4.2,2.2,4.3,4.1c-0.2,1.3-1,2.9-2.1,3.6
			c-2.1,1.1-4.8,1.5-8.2,1.5c-0.3,0.9-0.5,2.3-0.5,3c0,1.8,1,2.9,2.7,2.9c1.6,0,4-0.9,6.2-2.1c0.2,0.5,0.4,1,0.6,1.5
			c-2.2,1.4-5.1,2.7-7.8,2.7c-2.1,0-4.6-1.6-4.6-4.6C838.6,453.6,839.7,449.4,842.3,446.5z M844.3,446.9c-0.6,0.9-1.4,2-1.9,3.9
			c2.1,0,4.1-0.3,5.5-1c0.9-0.4,1.6-1.1,1.6-2.1c0-1.2-0.7-2.5-2.2-2.5C846.1,445.3,845.2,445.9,844.3,446.9z"/>
		<path fill="#228DBA" d="M862.3,449.5c2.2-2.7,5.6-6.1,6.6-6.1c0.5,0,1.6,1.1,1.8,2c-1.9,0.9-4.4,2.5-7.7,5.9l-0.1,0.2
			c1.1,2.9,1.7,4.4,2.7,6.7c0.1,0.2,0.2,0.3,0.5,0.3c0.4,0,1.5-0.2,2.6-0.5c0.1,0.5,0.2,1.1,0.2,1.6c-1.3,0.5-3.7,0.8-5.3,0.8
			c-0.7-1.6-1.7-4.5-2.8-7.4h-0.2c-2.3,2.5-4.1,5.4-4.7,7.5c-0.8,0.1-2.2,0.1-3.3,0.1c0.4-2,4.2-6.3,7.4-9.4l0-0.2
			c-0.6-1.5-1.2-3.3-2-5.2l-3,0.7c-0.2-0.5-0.3-1.1-0.4-1.6c2-0.7,4.2-1.5,4.4-1.5c0.3,0,0.9,0.3,1.2,0.5c0.7,2,1.2,3.8,1.8,5.6
			H862.3z"/>
		<path fill="#228DBA" d="M877.1,449.1c2.9-3.9,5.5-5.7,8-5.8c0.9,0.1,2.1,1,2.7,2.2c0.2,0.4,0.3,0.9,0.3,1.4c0,2.6-0.7,6.1-2.3,8.8
			c-1.1,2.1-3.4,4.8-6.7,4.8c-1.4,0-2.7-0.4-3.9-1.5c-0.6,2.9-1.4,7.3-2.1,10.3c-0.9,0-1.8,0-2.7,0c1.4-7.2,3.2-16.6,4.6-23.6
			l-3.2,0.2c0-0.6,0-1.1,0-1.6c3.4-0.5,4.6-0.9,4.8-0.9s0.9,0.5,1.1,0.9c-0.3,1.2-0.7,3-1.1,4.8L877.1,449.1z M883.8,445.8
			c-2.4,0-6.8,5-7.5,7.3c-0.2,0.7-0.6,2.9-0.8,3.8c0.9,1.1,2.2,1.7,3.4,1.7c2.2,0,3.7-1.8,4.6-3.5c1.1-2.3,1.7-5.3,1.7-7.5
			C885.1,446.7,884.7,445.8,883.8,445.8z"/>
		<path fill="#228DBA" d="M900.9,458.4c-1.4,1.4-3.1,2.1-5.5,2.1c-2,0-3.2-0.8-3.9-1.7c-0.6-0.7-1.1-2.1-1.1-3.6
			c0-3.9,1.6-7.5,4-9.7c1.8-1.6,3.6-2.2,5.5-2.2c1.6,0,2.8,0.6,3.6,1.4s1.5,2.3,1.5,4.3C904.9,452.4,903.5,455.9,900.9,458.4z
			 M899.5,457c1.4-1.6,2.4-5,2.4-7.8c0-1.4-0.2-2.2-0.6-2.9c-0.4-0.7-1-1.2-2.1-1.2c-1.3,0-2.5,0.7-3.6,2.1c-1,1.3-2.2,4.4-2.2,7.6
			c0,1.2,0.2,2.1,0.6,2.8c0.4,0.7,1.2,1.1,2.1,1.1C897.4,458.8,898.6,458.1,899.5,457z"/>
		<path fill="#228DBA" d="M908.2,446c-0.1-0.5-0.1-1.1-0.1-1.6c2.5-0.4,4.7-1,4.9-1c0.2,0,0.8,0.5,1,0.9c-0.3,1.1-0.6,2.6-1.1,4.8
			l0.3,0.1c2.3-3.5,4.7-5.8,6.1-5.8c0.8,0,1.5,0.3,1.9,0.5c0,1-0.9,2.7-1.3,3c-0.3-0.1-1.1-0.4-1.6-0.4c-1.6,0-5.3,4.3-6.2,7.6
			c-0.3,1.2-1.1,4.5-1.4,6c-0.9,0-1.8,0-2.7,0c0.7-3.2,2.3-10,3.2-14.4L908.2,446z"/>
		<path fill="#228DBA" d="M928.1,458.4c1.1,0,2.8-0.3,4.4-0.8c0.1,0.5,0.1,1.1,0.2,1.7c-2.1,0.8-4.6,1.2-6,1.2
			c-1.1,0-2.7-0.9-3.2-2.5c-0.1-0.2-0.1-0.5-0.1-0.7c0-1.1,1.1-5.9,1.3-6.9c0.3-1.3,0.8-3.6,1.1-4.6c-0.9,0-2,0-3,0
			c0.1-0.6,0.2-1.2,0.4-1.8c1-0.1,2-0.2,2.9-0.2c0.1,0,0.3-0.1,0.3-0.3c0.3-1.1,0.7-2.5,1-3.6c0.9-0.4,2.2-0.7,2.5-0.7
			c0.1,0,0.1,0,0.1,0.2c-0.2,1.1-0.6,2.9-1,4.4c2,0,4,0,5.9,0c-0.1,0.7-0.2,1.4-0.4,2c-1.7,0-3.8,0-5.9,0c-0.3,1.1-0.8,3.4-1.1,4.7
			c-0.4,1.7-1.2,5.2-1.2,6.3C926.3,457.9,927,458.4,928.1,458.4z"/>
	</g>
	<polygon fill="#7FA53F" points="578.8,485.6 578.8,485.6 570.8,469.5 586.8,469.5 	"/>
	<polygon fill="#228DBA" points="887.1,485.6 887.1,485.6 879.1,469.5 895.3,469.5 	"/>
</g>
</svg>
