<?xml version="1.0" encoding="utf-8"?>
<!-- Generator: Adobe Illustrator 17.1.0, SVG Export Plug-In . SVG Version: 6.00 Build 0)  -->
<!DOCTYPE svg PUBLIC "-//W3C//DTD SVG 1.1//EN" "http://www.w3.org/Graphics/SVG/1.1/DTD/svg11.dtd">
<svg version="1.1" id="Layer_1" xmlns="http://www.w3.org/2000/svg" xmlns:xlink="http://www.w3.org/1999/xlink" x="0px" y="0px"
	 viewBox="0 0 960 450" enable-background="new 0 0 960 450" xml:space="preserve">
<g>
	<circle fill="#7FA53F" cx="111.3" cy="269.8" r="28.5"/>
	<circle fill="#228DBA" cx="110.9" cy="269.8" r="16.4"/>
	<circle fill="#228DBA" cx="110.9" cy="343.9" r="28.5"/>
	<circle fill="#7FA53F" cx="110.6" cy="343.9" r="16.4"/>
	<circle fill="#228DBA" cx="110.8" cy="120" r="29"/>
	<circle fill="#7FA53F" cx="110.4" cy="195.4" r="29"/>
	<text transform="matrix(1 0 0 1 154.7412 129.1289)" font-family="'ChaparralPro-Italic'" font-size="33.708">waste generated</text>
	<text transform="matrix(1 0 0 1 154.7412 203.0502)" font-family="'ChaparralPro-Italic'" font-size="33.708">waste disposed</text>
	<text transform="matrix(1 0 0 1 154.7412 279.7812)" font-family="'ChaparralPro-Italic'" font-size="33.708">indicates net import</text>
	<text transform="matrix(1 0 0 1 154.7412 353.7001)" font-family="'ChaparralPro-Italic'" font-size="33.708">indicates net export</text>
</g>
<g>
	<text transform="matrix(1 0 0 1 519.415 262.8461)" font-family="'ChaparralPro-Italic'" font-size="33.708">transportation of waste</text>
	<linearGradient id="SVGID_1_" gradientUnits="userSpaceOnUse" x1="538" y1="225" x2="806" y2="225">
		<stop  offset="0" style="stop-color:#7FA53F"/>
		<stop  offset="0.2497" style="stop-color:#679F5F"/>
		<stop  offset="1" style="stop-color:#208DBA"/>
	</linearGradient>
	<line fill="none" stroke="url(#SVGID_1_)" stroke-width="16" stroke-miterlimit="10" x1="538" y1="225" x2="806" y2="225"/>
	<text transform="matrix(1 0 0 1 494.8389 188.9428)" fill="#7FA53F" font-family="'ChaparralPro-Italic'" font-size="33.708">import</text>
	<text transform="matrix(1 0 0 1 763.3809 188.9428)" fill="#228DBA" font-family="'ChaparralPro-Italic'" font-size="33.708">export</text>
	<polygon fill="#7FA53F" points="539.7,210.9 539.7,210.9 532.7,197 546.6,197 	"/>
	<polygon fill="#228DBA" points="806.1,210.9 806.1,210.9 799.1,197 813.1,197 	"/>
</g>
</svg>
