<?xml version="1.0" encoding="utf-8"?>
<!-- Generator: Adobe Illustrator 17.1.0, SVG Export Plug-In . SVG Version: 6.00 Build 0)  -->
<!DOCTYPE svg PUBLIC "-//W3C//DTD SVG 1.1//EN" "http://www.w3.org/Graphics/SVG/1.1/DTD/svg11.dtd">
<svg version="1.1" id="Layer_1" xmlns="http://www.w3.org/2000/svg" xmlns:xlink="http://www.w3.org/1999/xlink" x="0px" y="0px"
	 viewBox="0 0 1440 1800" enable-background="new 0 0 1440 1800" xml:space="preserve">
<line fill="none" stroke="#58595B" stroke-width="1.7988" stroke-miterlimit="10" x1="809.9" y1="937.9" x2="809.9" y2="837.1"/>
<rect x="938.1" y="1535.3" transform="matrix(1 9.294434e-03 -9.294434e-03 1 14.9646 -9.2409)" opacity="0.4" fill="#8DC63F" width="127.1" height="140.1"/>
<rect x="492.5" y="1115.1" opacity="0.6" fill="#8DC63F" width="327.2" height="164.6"/>
<rect x="111.6" y="1115.7" opacity="0.6" fill="#8DC63F" width="293.2" height="164.6"/>
<rect x="493.6" y="1535.3" opacity="0.4" fill="#8DC63F" width="133.1" height="140.1"/>
<text transform="matrix(1 0 0 1 515.216 1603.085)"><tspan x="0" y="0" font-family="'MyriadPro-Regular'" font-size="21.5851">pounds of</tspan><tspan x="8.2" y="21.6" font-family="'MyriadPro-Regular'" font-size="21.5851">paper &amp; </tspan><tspan x="-0.8" y="43.2" font-family="'MyriadPro-Regular'" font-size="21.5851">cardboard</tspan><tspan x="8" y="64.8" font-family="'MyriadPro-Regular'" font-size="21.5851">recycled</tspan></text>
<rect x="641.1" y="1535.3" opacity="0.4" fill="#8DC63F" width="133.1" height="140.1"/>
<text transform="matrix(1 0 0 1 662.7131 1607.2822)"><tspan x="0" y="0" font-family="'MyriadPro-Regular'" font-size="21.5851">pounds of</tspan><tspan x="-14.8" y="25.9" font-family="'MyriadPro-Regular'" font-size="21.5851">cans, glass, &amp; </tspan><tspan x="-17.1" y="51.8" font-family="'MyriadPro-Regular'" font-size="21.5851">plastic bottles</tspan></text>
<rect x="785.9" y="1534.5" opacity="0.4" fill="#8DC63F" width="143.8" height="141"/>
<text transform="matrix(1 0 0 1 823.7849 1607.2822)"><tspan x="0" y="0" font-family="'MyriadPro-Regular'" font-size="21.5851">pounds </tspan><tspan x="-2.7" y="25.9" font-family="'MyriadPro-Regular'" font-size="21.5851">of mixed</tspan><tspan x="-1.1" y="51.8" font-family="'MyriadPro-Regular'" font-size="21.5851">recycled</tspan></text>
<text transform="matrix(1 0 0 1 962.5173 1612.0771)"><tspan x="0" y="0" font-family="'MyriadPro-Regular'" font-size="21.5851">pounds </tspan><tspan x="-9.8" y="25.9" font-family="'MyriadPro-Regular'" font-size="21.5851">of e-waste</tspan><tspan x="-1.1" y="51.8" font-family="'MyriadPro-Regular'" font-size="21.5851">recycled</tspan></text>
<rect x="34.4" y="1418.5" opacity="0.4" fill="#8DC63F" width="133.1" height="128.6"/>
<text transform="matrix(1 0 0 1 75.7233 1485.6855)"><tspan x="0" y="0" font-family="'MyriadPro-Regular'" font-size="21.5851">miles </tspan><tspan x="-6.2" y="25.9" font-family="'MyriadPro-Regular'" font-size="21.5851">walked</tspan><tspan x="-15.1" y="51.8" font-family="'MyriadPro-Regular'" font-size="21.5851">per week</tspan></text>
<text transform="matrix(1 0 0 1 144.2766 1227.8691)"><tspan x="0" y="0" font-family="'MyriadPro-Regular'" font-size="28.7801">SOV miles avoided</tspan><tspan x="62.6" y="34.5" font-family="'MyriadPro-Regular'" font-size="28.7801">per year</tspan></text>
<text transform="matrix(1 0 0 1 528.2766 1229.0361)"><tspan x="0" y="0" font-family="'MyriadPro-Regular'" font-size="28.7801">pounds diverted from </tspan><tspan x="18.6" y="34.5" font-family="'MyriadPro-Regular'" font-size="28.7801">the landfill per year</tspan></text>
<rect x="180.6" y="1418.5" opacity="0.4" fill="#8DC63F" width="133.1" height="130.1"/>
<text transform="matrix(1 0 0 1 224.2419 1485.6113)"><tspan x="0" y="0" font-family="'MyriadPro-Regular'" font-size="21.5851">miles</tspan><tspan x="-1.5" y="25.9" font-family="'MyriadPro-Regular'" font-size="21.5851">biked</tspan><tspan x="-17.4" y="51.8" font-family="'MyriadPro-Regular'" font-size="21.5851">per week</tspan></text>
<rect x="329.9" y="1418.5" opacity="0.4" fill="#8DC63F" width="133.1" height="130.1"/>
<text transform="matrix(1 0 0 1 360.2014 1484.3369)"><tspan x="0" y="0" font-family="'MyriadPro-Regular'" font-size="21.5851">miles on</tspan><tspan x="9.3" y="25.9" font-family="'MyriadPro-Regular'" font-size="21.5851">transit</tspan><tspan x="-3.2" y="51.8" font-family="'MyriadPro-Regular'" font-size="21.5851">per week</tspan></text>
<rect x="11.2" y="628.5" opacity="0.8" fill="#8DC63F" width="268.1" height="207"/>
<rect x="334.1" y="628.5" opacity="0.8" fill="#8DC63F" width="265.3" height="207"/>
<rect x="710.4" y="628.5" opacity="0.8" fill="#8DC63F" width="305.5" height="207"/>
<rect x="1056.9" y="628.5" opacity="0.8" fill="#8DC63F" width="307" height="207"/>
<rect x="411.4" y="161" fill="#8DC63F" width="537.8" height="271.4"/>
<g>
	<text transform="matrix(1 0 0 1 42.4636 775.3643)"><tspan x="0" y="0" font-family="'MyriadPro-Regular'" font-size="35.9751">gallons of gas</tspan><tspan x="-22.7" y="36" font-family="'MyriadPro-Regular'" font-size="35.9751">avoided per year</tspan></text>
</g>
<text transform="matrix(1 0 0 1 738.9108 775.3643)"><tspan x="0" y="0" font-family="'MyriadPro-Regular'" font-size="35.9751">conventional kW</tspan><tspan x="0.5" y="36" font-family="'MyriadPro-Regular'" font-size="35.9751">avoided per year</tspan></text>
<g>
	<text transform="matrix(1 0 0 1 1096.8551 775.3643)"><tspan x="0" y="0" font-family="'MyriadPro-Regular'" font-size="35.9751">gallons of water</tspan><tspan x="-5.8" y="36" font-family="'MyriadPro-Regular'" font-size="35.9751">avoided per year</tspan></text>
</g>
<g>
	<text transform="matrix(1 0 0 1 387.0422 775.3643)"><tspan x="0" y="0" font-family="'MyriadPro-Regular'" font-size="35.9751">trees saved</tspan><tspan x="23.4" y="36" font-family="'MyriadPro-Regular'" font-size="35.9751">per year</tspan></text>
</g>
<text transform="matrix(1 0 0 1 599.9504 407.4224)" font-family="'MyriadPro-Regular'" font-size="46.7676">avoided</text>
<line fill="none" stroke="#58595B" stroke-width="1.2719" stroke-miterlimit="10" x1="111.6" y1="1420.5" x2="111.6" y2="1311.4"/>
<line fill="none" stroke="#58595B" stroke-width="1.2719" stroke-miterlimit="10" x1="111.6" y1="1311.4" x2="224" y2="1311.4"/>
<line fill="none" stroke="#58595B" stroke-width="1.2719" stroke-miterlimit="10" x1="224" y1="1311.4" x2="224" y2="1280.3"/>
<line fill="none" stroke="#58595B" stroke-width="1.2719" stroke-miterlimit="10" x1="251.9" y1="1418.5" x2="251.9" y2="1280.4"/>
<line fill="none" stroke="#58595B" stroke-width="1.2719" stroke-miterlimit="10" x1="403.9" y1="1418.5" x2="403.9" y2="1311.4"/>
<line fill="none" stroke="#58595B" stroke-width="1.2719" stroke-miterlimit="10" x1="403.9" y1="1311.4" x2="280.7" y2="1311.4"/>
<line fill="none" stroke="#58595B" stroke-width="1.2719" stroke-miterlimit="10" x1="280.7" y1="1311.4" x2="280.7" y2="1280.3"/>
<line fill="none" stroke="#58595B" stroke-width="1.7988" stroke-linecap="square" stroke-miterlimit="10" x1="918.9" y1="1258.8" x2="918.9" y2="1177.1"/>
<line fill="none" stroke="#58595B" stroke-width="1.7988" stroke-miterlimit="10" x1="1293.8" y1="1176.9" x2="1293.8" y2="1046.1"/>
<line fill="none" stroke="#58595B" stroke-width="1.7988" stroke-miterlimit="10" x1="1293.8" y1="1046.1" x2="848.9" y2="1046.1"/>
<line fill="none" stroke="#58595B" stroke-width="1.7988" stroke-miterlimit="10" x1="848.9" y1="1046.1" x2="848.9" y2="835.5"/>
<line fill="none" stroke="#58595B" stroke-width="1.7988" stroke-miterlimit="10" x1="933.3" y1="1258.8" x2="933.3" y2="1191.1"/>
<line fill="none" stroke="#58595B" stroke-width="1.7988" stroke-miterlimit="10" x1="1308.2" y1="1191.1" x2="1308.2" y2="979.3"/>
<line fill="none" stroke="#58595B" stroke-width="1.7988" stroke-miterlimit="10" x1="1308.2" y1="979.3" x2="1170.6" y2="979.3"/>
<line fill="none" stroke="#58595B" stroke-width="1.7988" stroke-miterlimit="10" x1="1170.6" y1="979.3" x2="1170.6" y2="835.5"/>
<line fill="none" stroke="#58595B" stroke-width="1.7988" stroke-miterlimit="10" x1="858.5" y1="626" x2="858.5" y2="577.2"/>
<line fill="none" stroke="#58595B" stroke-width="1.7988" stroke-linecap="square" stroke-miterlimit="10" x1="679.5" y1="577.2" x2="858.5" y2="577.2"/>
<line fill="none" stroke="#58595B" stroke-width="1.7988" stroke-linecap="square" stroke-miterlimit="10" x1="679.5" y1="577.2" x2="679.5" y2="436"/>
<line fill="none" stroke="#58595B" stroke-width="1.7251" stroke-miterlimit="10" x1="1322.6" y1="1211.3" x2="1322.6" y2="1017.9"/>
<line fill="none" stroke="#58595B" stroke-width="1.7251" stroke-miterlimit="10" x1="1322.6" y1="1017.9" x2="892.7" y2="1017.9"/>
<line fill="none" stroke="#58595B" stroke-width="1.7251" stroke-miterlimit="10" x1="892.7" y1="1017.9" x2="892.7" y2="835.5"/>
<line fill="none" stroke="#58595B" stroke-width="1.7251" stroke-miterlimit="10" x1="1335.2" y1="1236.7" x2="1335.2" y2="945.9"/>
<line fill="none" stroke="#58595B" stroke-width="1.7251" stroke-miterlimit="10" x1="1335.2" y1="945.9" x2="1045.4" y2="945.9"/>
<line fill="none" stroke="#58595B" stroke-width="1.7988" stroke-miterlimit="10" x1="1045.4" y1="945.9" x2="1045.4" y2="506"/>
<line fill="none" stroke="#58595B" stroke-width="1.7988" stroke-miterlimit="10" x1="1362.7" y1="1386.7" x2="1362.7" y2="911.1"/>
<line fill="none" stroke="#58595B" stroke-width="1.7988" stroke-miterlimit="10" x1="1361.5" y1="913" x2="927.4" y2="913"/>
<line fill="none" stroke="#58595B" stroke-width="1.7988" stroke-miterlimit="10" x1="927.4" y1="913" x2="927.4" y2="835.5"/>
<line fill="none" stroke="#58595B" stroke-width="1.7988" stroke-miterlimit="10" x1="1375.3" y1="1385.9" x2="1375.3" y2="879.3"/>
<line fill="none" stroke="#58595B" stroke-width="1.7988" stroke-miterlimit="10" x1="1375.3" y1="879.3" x2="1201" y2="879.3"/>
<line fill="none" stroke="#58595B" stroke-width="1.7988" stroke-miterlimit="10" x1="1201" y1="879.3" x2="1201" y2="835.5"/>
<line fill="none" stroke="#58595B" stroke-width="1.7988" stroke-miterlimit="10" x1="555.5" y1="1535.3" x2="555.5" y2="1279.7"/>
<line fill="none" stroke="#58595B" stroke-width="1.7988" stroke-miterlimit="10" x1="707.6" y1="1534.5" x2="707.6" y2="1461.8"/>
<line fill="none" stroke="#58595B" stroke-width="1.7988" stroke-miterlimit="10" x1="707.6" y1="1461.3" x2="580.7" y2="1461.3"/>
<line fill="none" stroke="#58595B" stroke-width="1.7988" stroke-miterlimit="10" x1="580.7" y1="1461.8" x2="580.7" y2="1279.8"/>
<line fill="none" stroke="#58595B" stroke-width="1.7988" stroke-miterlimit="10" x1="850.7" y1="1535.3" x2="850.7" y2="1451.6"/>
<line fill="none" stroke="#58595B" stroke-width="1.7988" stroke-miterlimit="10" x1="850.7" y1="1451.1" x2="608.9" y2="1451.1"/>
<line fill="none" stroke="#58595B" stroke-width="1.7988" stroke-miterlimit="10" x1="608.9" y1="1451.6" x2="608.9" y2="1279.8"/>
<line fill="none" stroke="#58595B" stroke-width="1.7988" stroke-miterlimit="10" x1="999.5" y1="1534.5" x2="999.5" y2="1438.8"/>
<line fill="none" stroke="#58595B" stroke-width="1.7988" stroke-miterlimit="10" x1="999.5" y1="1438.5" x2="635.8" y2="1438.5"/>
<line fill="none" stroke="#58595B" stroke-width="1.7988" stroke-miterlimit="10" x1="635.8" y1="1438.5" x2="635.8" y2="1279.8"/>
<line fill="none" stroke="#58595B" stroke-width="1.7988" stroke-linecap="square" stroke-miterlimit="10" x1="777.5" y1="1115.3" x2="777.5" y2="1083.6"/>
<line fill="none" stroke="#58595B" stroke-width="1.7988" stroke-linecap="square" stroke-miterlimit="10" x1="777.5" y1="1083.6" x2="1139.8" y2="1083.6"/>
<line fill="none" stroke="#58595B" stroke-width="1.7988" stroke-miterlimit="10" x1="1139.8" y1="1081.8" x2="1139.8" y2="835.5"/>
<line fill="none" stroke="#58595B" stroke-width="1.7988" stroke-linecap="square" stroke-miterlimit="10" x1="748.9" y1="1114.1" x2="748.9" y2="937.9"/>
<line fill="none" stroke="#58595B" stroke-width="1.7988" stroke-miterlimit="10" x1="719.5" y1="1114" x2="719.5" y2="968.9"/>
<line fill="none" stroke="#58595B" stroke-width="1.7988" stroke-linecap="square" stroke-miterlimit="10" x1="719.1" y1="969.1" x2="656" y2="969.1"/>
<line fill="none" stroke="#58595B" stroke-width="1.7988" stroke-linecap="square" stroke-miterlimit="10" x1="656.1" y1="969.1" x2="656.1" y2="515.6"/>
<line fill="none" stroke="#58595B" stroke-width="1.7988" stroke-linecap="square" stroke-miterlimit="10" x1="656.1" y1="515.1" x2="601.3" y2="515.1"/>
<line fill="none" stroke="#58595B" stroke-width="1.7988" stroke-miterlimit="10" x1="601.3" y1="515.2" x2="601.3" y2="429.8"/>
<line fill="none" stroke="#58595B" stroke-width="1.7988" stroke-miterlimit="10" x1="691.4" y1="1115.3" x2="691.4" y2="1031.9"/>
<line fill="none" stroke="#58595B" stroke-width="1.7988" stroke-miterlimit="10" x1="692.1" y1="1031.7" x2="496" y2="1031.7"/>
<line fill="none" stroke="#58595B" stroke-width="1.7988" stroke-miterlimit="10" x1="496" y1="1031.7" x2="496" y2="835.5"/>
<line fill="none" stroke="#58595B" stroke-width="1.7988" stroke-miterlimit="10" x1="664.5" y1="1113.9" x2="664.5" y2="1081.5"/>
<line fill="none" stroke="#58595B" stroke-width="1.7988" stroke-miterlimit="10" x1="664.5" y1="1081.8" x2="110.4" y2="1081.8"/>
<line fill="none" stroke="#58595B" stroke-width="1.7988" stroke-miterlimit="10" x1="110.4" y1="1081.8" x2="110.4" y2="835.5"/>
<line fill="none" stroke="#58595B" stroke-width="1.7988" stroke-miterlimit="10" x1="341.3" y1="1115.7" x2="341.3" y2="904.9"/>
<line fill="none" stroke="#58595B" stroke-width="1.7988" stroke-miterlimit="10" x1="342.3" y1="903.4" x2="160.6" y2="903.4"/>
<line fill="none" stroke="#58595B" stroke-width="1.7988" stroke-miterlimit="10" x1="160.6" y1="903.4" x2="160.6" y2="835.5"/>
<rect x="411.4" y="161" fill="none" stroke="#58595B" stroke-width="7.195" stroke-miterlimit="10" width="537.8" height="271.4"/>
<rect x="11.2" y="628.5" fill="none" stroke="#58595B" stroke-width="5.3963" stroke-miterlimit="10" width="268.1" height="207"/>
<rect x="334.1" y="628.5" fill="none" stroke="#58595B" stroke-width="5.3963" stroke-miterlimit="10" width="265.3" height="207"/>
<rect x="710.4" y="628.5" fill="none" stroke="#58595B" stroke-width="5.3963" stroke-miterlimit="10" width="305.5" height="207"/>
<rect x="1058.4" y="628.5" fill="none" stroke="#58595B" stroke-width="5.3963" stroke-miterlimit="10" width="307" height="207"/>
<rect x="111.6" y="1115.7" fill="none" stroke="#58595B" stroke-width="3.5975" stroke-miterlimit="10" width="293.2" height="164.6"/>
<rect x="491.5" y="1115.1" fill="none" stroke="#58595B" stroke-width="3.5975" stroke-miterlimit="10" width="327.2" height="164.6"/>
<rect x="34.4" y="1418.5" fill="none" stroke="#58595B" stroke-width="1.7988" stroke-miterlimit="10" width="133.1" height="130"/>
<rect x="180.6" y="1418.5" fill="none" stroke="#58595B" stroke-width="1.7988" stroke-miterlimit="10" width="133.1" height="131.8"/>
<rect x="329.9" y="1418.5" fill="none" stroke="#58595B" stroke-width="1.7988" stroke-miterlimit="10" width="133.1" height="130.1"/>
<rect x="493.6" y="1535.3" fill="none" stroke="#58595B" stroke-width="1.7988" stroke-miterlimit="10" width="133.1" height="140.1"/>
<rect x="641.1" y="1534.5" fill="none" stroke="#58595B" stroke-width="1.7988" stroke-miterlimit="10" width="133.1" height="141"/>
<rect x="785.9" y="1535.3" fill="none" stroke="#58595B" stroke-width="1.7988" stroke-miterlimit="10" width="143.8" height="140.1"/>
<rect x="938.2" y="1534.5" transform="matrix(-1 -9.294527e-03 9.294527e-03 -1 1988.4524 3219.2249)" fill="none" stroke="#58595B" stroke-width="1.7988" stroke-miterlimit="10" width="127.1" height="141"/>
<text transform="matrix(1 0 0 1 499.7946 1577.9072)" font-family="'MyriadPro-Regular'" font-size="30.1236">3,500,000</text>
<text transform="matrix(1 0 0 1 666.6901 1577.9072)" font-family="'MyriadPro-Regular'" font-size="30.1236">54,500</text>
<rect x="858.7" y="1258" opacity="0.4" fill="#8DC63F" width="133.1" height="158.6"/>
<text transform="matrix(1 0 0 1 877.4372 1336.9932)"><tspan x="0" y="0" font-family="'MyriadPro-Regular'" font-size="21.5851">kWh saved</tspan><tspan x="-6" y="25.9" font-family="'MyriadPro-Regular'" font-size="21.5851">in electricity</tspan><tspan x="21.8" y="51.8" font-family="'MyriadPro-Regular'" font-size="21.5851">usage</tspan></text>
<rect x="858.7" y="1257" fill="none" stroke="#58595B" stroke-width="1.7988" stroke-miterlimit="10" width="133.1" height="159.5"/>
<text transform="matrix(1 0 0 1 865.7487 1307.6191)" font-family="'MyriadPro-Regular'" font-size="30.1236">3,000,000</text>
<rect x="999.7" y="1258.5" opacity="0.4" fill="#8DC63F" width="133.1" height="158.6"/>
<text transform="matrix(1 0 0 1 1035.569 1323.9199)"><tspan x="0" y="0" font-family="'MyriadPro-Regular'" font-size="21.5851">kWh of</tspan><tspan x="-16" y="25.9" font-family="'MyriadPro-Regular'" font-size="21.5851">renewable</tspan><tspan x="0.1" y="51.8" font-family="'MyriadPro-Regular'" font-size="21.5851">energy</tspan><tspan x="-15.9" y="77.7" font-family="'MyriadPro-Regular'" font-size="21.5851">purchased</tspan></text>
<rect x="999.7" y="1257.5" fill="none" stroke="#58595B" stroke-width="1.7988" stroke-miterlimit="10" width="133.1" height="159.5"/>
<text transform="matrix(1 0 0 1 1006.7946 1294.5469)" font-family="'MyriadPro-Regular'" font-size="30.1236">9,600,000</text>
<rect x="1140" y="1258" opacity="0.4" fill="#8DC63F" width="133.1" height="158.6"/>
<text transform="matrix(1 0 0 1 1168.7379 1323.5029)"><tspan x="0" y="0" font-family="'MyriadPro-Regular'" font-size="21.5851">MTCO2e</tspan><tspan x="-4.3" y="25.9" font-family="'MyriadPro-Regular'" font-size="21.5851">of carbon</tspan><tspan x="8.5" y="51.8" font-family="'MyriadPro-Regular'" font-size="21.5851">credits</tspan><tspan x="-8.7" y="77.7" font-family="'MyriadPro-Regular'" font-size="21.5851">purchased</tspan></text>
<rect x="1140" y="1257" fill="none" stroke="#58595B" stroke-width="1.7988" stroke-miterlimit="10" width="133.1" height="159.5"/>
<text transform="matrix(1 0 0 1 1184.2379 1294.1279)" font-family="'MyriadPro-Regular'" font-size="30.1236">566</text>
<rect x="1297.4" y="1390" opacity="0.4" fill="#8DC63F" width="133.1" height="158.6"/>
<text transform="matrix(1 0 0 1 1320.8649 1455.5234)"><tspan x="0" y="0" font-family="'MyriadPro-Regular'" font-size="21.5851">gallons of</tspan><tspan x="-10.2" y="25.9" font-family="'MyriadPro-Regular'" font-size="21.5851">water saved</tspan><tspan x="7.4" y="51.8" font-family="'MyriadPro-Regular'" font-size="21.5851">in water</tspan><tspan x="17" y="77.7" font-family="'MyriadPro-Regular'" font-size="21.5851">usage</tspan></text>
<rect x="1297.4" y="1389" fill="none" stroke="#58595B" stroke-width="1.7988" stroke-miterlimit="10" width="133.1" height="159.5"/>
<text transform="matrix(1 0 0 1 1304.4264 1426.1504)" font-family="'MyriadPro-Regular'" font-size="30.1236">1,000,000</text>
<text transform="matrix(1 0 0 1 965.8874 1577.9072)" font-family="'MyriadPro-Regular'" font-size="30.1236">5,000</text>
<text transform="matrix(1 0 0 1 789.8454 1577.9072)" font-family="'MyriadPro-Regular'" font-size="30.1236">15,000,000</text>
<text transform="matrix(0 -1 1 0 548.3493 1526.582)" font-family="'MyriadPro-Regular'" font-size="17.9875">pounds</text>
<text transform="matrix(0 -1 1 0 106.7502 1387.8008)" font-family="'MyriadPro-Regular'" font-size="17.9875">50 weeks</text>
<text transform="matrix(0 -1 1 0 702.0515 1526.582)" font-family="'MyriadPro-Regular'" font-size="17.9875">pounds</text>
<text transform="matrix(0 -1 1 0 845.3034 1526.582)" font-family="'MyriadPro-Regular'" font-size="17.9875">pounds</text>
<text transform="matrix(0 -1 1 0 993.7966 1526.582)" font-family="'MyriadPro-Regular'" font-size="17.9875">pounds</text>
<text transform="matrix(1 0 0 1 523.8864 1189.6689)" font-family="'MyriadPro-Regular'" font-size="58.0673">18,559,500</text>
<text transform="matrix(1 0 0 1 130.3688 1188.499)" font-family="'MyriadPro-Regular'" font-size="58.0673">32,609,000</text>
<g>
	<text transform="matrix(1 0 0 1 59.1857 1455.9229)" font-family="'MyriadPro-Regular'" font-size="30.1236">20,000</text>
</g>
<g>
	<text transform="matrix(1 0 0 1 206.2697 1455.8496)" font-family="'MyriadPro-Regular'" font-size="30.1236">15,000</text>
</g>
<g>
	<text transform="matrix(1 0 0 1 348.6804 1454.0518)" font-family="'MyriadPro-Regular'" font-size="30.1236">616,000</text>
</g>
<text transform="matrix(1 0 0 1 530.4059 1025.2852)"><tspan x="0" y="0" font-family="'MyriadPro-Regular'" font-size="17.9875">17 trees per</tspan><tspan x="-38.1" y="21.6" font-family="'MyriadPro-Regular'" font-size="17.9875">ton of paper recycling</tspan></text>
<text transform="matrix(1 0 0 1 166.3185 898.0088)" font-family="'MyriadPro-Regular'" font-size="17.9875">gallons for transit</text>
<text transform="matrix(1 0 0 1 412.6608 1076.1826)" font-family="'MyriadPro-Regular'" font-size="17.9875">380 gallons of oil per ton</text>
<text transform="matrix(1 0 0 1 843.2409 1077.9805)" font-family="'MyriadPro-Regular'" font-size="17.9875">7,000 gallons per ton</text>
<text transform="matrix(0 -1 1 0 104.6979 1024.0332)"><tspan x="0" y="0" font-family="'MyriadPro-Regular'" font-size="17.9875">19 gallons gas </tspan><tspan x="-8.8" y="21.6" font-family="'MyriadPro-Regular'" font-size="17.9875">per 42 gallons oil</tspan></text>
<text transform="matrix(0 -1 1 0 335.3532 1080.8779)" font-family="'MyriadPro-Regular'" font-size="17.9875">.03049 gallons per mile</text>
<g>
	<text transform="matrix(1 0 0 1 362.0598 728.3164)" font-family="'MyriadPro-Regular'" font-size="62.9564">136,850</text>
</g>
<text transform="matrix(1 0 0 1 23.7106 728.3164)" font-family="'MyriadPro-Regular'" font-size="62.9564">2,226,532</text>
<text transform="matrix(0 -1 1 0 675.0124 899.8525)" font-family="'MyriadPro-Regular'" font-size="17.9875">3.45 MTCO2e per ton of recycling</text>
<text transform="matrix(1 0 0 1 498.8015 889.6035)"><tspan x="0" y="0" font-family="'MyriadPro-Regular'" font-size="17.9875">0.00036 MTCO2e </tspan><tspan x="33" y="19.8" font-family="'MyriadPro-Regular'" font-size="17.9875">per mile </tspan></text>
<text transform="matrix(0 -1 1 0 745.0612 1079.5664)" font-family="'MyriadPro-Regular'" font-size="17.9875">4,000 kW per ton</text>
<text transform="matrix(0 -1 1 0 1039.9537 802.2437)" font-family="'MyriadPro-Regular'" font-size="17.9875">MTCO2e purchased</text>
<line fill="none" stroke="#58595B" stroke-width="1.7988" stroke-miterlimit="10" x1="379.1" y1="1115.5" x2="379.1" y2="895.4"/>
<line fill="none" stroke="#58595B" stroke-width="1.7988" stroke-miterlimit="10" x1="378.2" y1="894.1" x2="632.8" y2="894.1"/>
<line fill="none" stroke="#58595B" stroke-width="1.7988" stroke-linecap="square" stroke-miterlimit="10" x1="631.6" y1="894.1" x2="631.6" y2="575.1"/>
<line fill="none" stroke="#58595B" stroke-width="1.7988" stroke-linecap="square" stroke-miterlimit="10" x1="631.6" y1="574.5" x2="532.3" y2="574.5"/>
<line fill="none" stroke="#58595B" stroke-width="1.7988" stroke-miterlimit="10" x1="532.3" y1="574.7" x2="532.3" y2="431.6"/>
<text transform="matrix(1 0 0 1 865.9118 1041.4727)" font-family="'MyriadPro-Regular'" font-size="17.9875">change in kWh (09/2011-09/2013)</text>
<text transform="matrix(1 0 0 1 1212.2789 876.0469)"><tspan x="0" y="0" font-family="'MyriadPro-Regular'" font-size="17.9875">change in gallons </tspan><tspan x="-1.6" y="19.8" font-family="'MyriadPro-Regular'" font-size="17.9875">(09/2011-09/2013)</tspan></text>
<text transform="matrix(1 0 0 1 903.5241 1013.1436)" font-family="'MyriadPro-Regular'" font-size="17.9875"> kW renewable energy purchased</text>
<text transform="matrix(1 0 0 1 1190.9606 974.7266)"><tspan x="0" y="0" font-family="'MyriadPro-Regular'" font-size="17.9875">1.05 gallons </tspan><tspan x="-8" y="19.8" font-family="'MyriadPro-Regular'" font-size="17.9875">water per kWh</tspan></text>
<g>
	<circle fill="#58595B" cx="110.4" cy="859.6" r="9.6"/>
	<text transform="matrix(1 0 0 1 103.7214 865.123)" fill="#FFFFFF" font-family="'MyriadPro-Regular'" font-size="22.3926">+</text>
</g>
<g>
	<circle fill="#58595B" cx="497.5" cy="859.6" r="9.6"/>
	<text transform="matrix(1 0 0 1 490.863 865.123)" fill="#FFFFFF" font-family="'MyriadPro-Regular'" font-size="22.3926">+</text>
</g>
<g>
	<circle fill="#58595B" cx="811" cy="856" r="9.6"/>
	<text transform="matrix(1 0 0 1 804.2819 861.5244)" fill="#FFFFFF" font-family="'MyriadPro-Regular'" font-size="22.3926">+</text>
</g>
<g>
	<circle fill="#58595B" cx="848.9" cy="856.5" r="9.6"/>
	<text transform="matrix(1 0 0 1 842.2204 862.0117)" fill="#FFFFFF" font-family="'MyriadPro-Regular'" font-size="22.3926">+</text>
</g>
<g>
	<circle fill="#58595B" cx="892.7" cy="856" r="9.6"/>
	<text transform="matrix(1 0 0 1 885.9899 861.5244)" fill="#FFFFFF" font-family="'MyriadPro-Regular'" font-size="22.3926">+</text>
</g>
<g>
	<circle fill="#58595B" cx="926.9" cy="856" r="9.6"/>
	<text transform="matrix(1 0 0 1 920.2116 861.5244)" fill="#FFFFFF" font-family="'MyriadPro-Regular'" font-size="22.3926">+</text>
</g>
<g>
	<circle fill="#58595B" cx="1139.8" cy="859.6" r="9.6"/>
	<text transform="matrix(1 0 0 1 1133.1393 865.123)" fill="#FFFFFF" font-family="'MyriadPro-Regular'" font-size="22.3926">+</text>
</g>
<g>
	<circle fill="#58595B" cx="679.5" cy="451.2" r="9.6"/>
	<text transform="matrix(1 0 0 1 672.8366 456.7281)" fill="#FFFFFF" font-family="'MyriadPro-Regular'" font-size="22.3926">+</text>
</g>
<line fill="none" stroke="#58595B" stroke-width="1.7988" stroke-miterlimit="10" x1="822.5" y1="473.8" x2="822.5" y2="429.8"/>
<g>
	<circle fill="#58595B" cx="822.5" cy="450" r="9.6"/>
	<text transform="matrix(1 0 0 1 815.8493 455.4781)" fill="#FFFFFF" font-family="'MyriadPro-Regular'" font-size="22.3926">+</text>
</g>
<g>
	<circle fill="#58595B" cx="601.3" cy="450" r="9.6"/>
	<text transform="matrix(1 0 0 1 594.5905 455.4781)" fill="#FFFFFF" font-family="'MyriadPro-Regular'" font-size="22.3926">+</text>
</g>
<g>
	<circle fill="#58595B" cx="532.3" cy="448.9" r="9.6"/>
	<text transform="matrix(1 0 0 1 525.6716 454.3804)" fill="#FFFFFF" font-family="'MyriadPro-Regular'" font-size="22.3926">+</text>
</g>
<line fill="none" stroke="#58595B" stroke-width="1.7988" stroke-miterlimit="10" x1="750.4" y1="507.9" x2="750.4" y2="429.8"/>
<g>
	<circle fill="#58595B" cx="750.4" cy="450" r="9.6"/>
	<text transform="matrix(1 0 0 1 743.7643 455.4781)" fill="#FFFFFF" font-family="'MyriadPro-Regular'" font-size="22.3926">+</text>
</g>
<g>
	<circle fill="#58595B" cx="1170.6" cy="859.6" r="9.6"/>
	<text transform="matrix(1 0 0 1 1163.8981 865.123)" fill="#FFFFFF" font-family="'MyriadPro-Regular'" font-size="22.3926">+</text>
</g>
<g>
	<circle fill="#58595B" cx="1201" cy="859.6" r="9.6"/>
	<text transform="matrix(1 0 0 1 1194.3326 865.123)" fill="#FFFFFF" font-family="'MyriadPro-Regular'" font-size="22.3926">+</text>
</g>
<g>
	<circle fill="#58595B" cx="160.6" cy="859.6" r="9.6"/>
	<text transform="matrix(1 0 0 1 153.8962 865.123)" fill="#FFFFFF" font-family="'MyriadPro-Regular'" font-size="22.3926">+</text>
</g>
<g>
	<circle fill="#58595B" cx="224" cy="1296.9" r="9.6"/>
	<text transform="matrix(1 0 0 1 217.3098 1302.4111)" fill="#FFFFFF" font-family="'MyriadPro-Regular'" font-size="22.3926">+</text>
</g>
<g>
	<circle fill="#58595B" cx="555.5" cy="1298" r="9.6"/>
	<text transform="matrix(1 0 0 1 548.8737 1303.4697)" fill="#FFFFFF" font-family="'MyriadPro-Regular'" font-size="22.3926">+</text>
</g>
<g>
	<circle fill="#58595B" cx="580.7" cy="1298" r="9.6"/>
	<text transform="matrix(1 0 0 1 574.0075 1303.4697)" fill="#FFFFFF" font-family="'MyriadPro-Regular'" font-size="22.3926">+</text>
</g>
<g>
	<circle fill="#58595B" cx="608.9" cy="1298" r="9.6"/>
	<text transform="matrix(1 0 0 1 602.1862 1303.4697)" fill="#FFFFFF" font-family="'MyriadPro-Regular'" font-size="22.3926">+</text>
</g>
<g>
	<circle fill="#58595B" cx="635.8" cy="1298" r="9.6"/>
	<text transform="matrix(1 0 0 1 629.1325 1303.4697)" fill="#FFFFFF" font-family="'MyriadPro-Regular'" font-size="22.3926">+</text>
</g>
<g>
	<circle fill="#58595B" cx="251.9" cy="1296.9" r="9.6"/>
	<text transform="matrix(1 0 0 1 245.2004 1302.4111)" fill="#FFFFFF" font-family="'MyriadPro-Regular'" font-size="22.3926">+</text>
</g>
<g>
	<circle fill="#58595B" cx="280.7" cy="1296.9" r="9.6"/>
	<text transform="matrix(1 0 0 1 273.9807 1302.4111)" fill="#FFFFFF" font-family="'MyriadPro-Regular'" font-size="22.3926">+</text>
</g>
<g>
	<circle fill="#58595B" cx="112.4" cy="1404.3" r="9.6"/>
	
		<text transform="matrix(0.7071 0.7071 -0.7071 0.7071 103.8923 1403.5405)" fill="#FFFFFF" font-family="'MyriadPro-Regular'" font-size="22.3927">+</text>
</g>
<text transform="matrix(0 -1 1 0 247.1682 1388.0312)" font-family="'MyriadPro-Regular'" font-size="17.9875">50 weeks</text>
<g>
	<circle fill="#58595B" cx="252.5" cy="1404.1" r="9.6"/>
	
		<text transform="matrix(0.7071 0.7071 -0.7071 0.7071 243.9066 1403.3109)" fill="#FFFFFF" font-family="'MyriadPro-Regular'" font-size="22.3927">+</text>
</g>
<text transform="matrix(0 -1 1 0 400.0056 1388.0312)" font-family="'MyriadPro-Regular'" font-size="17.9875">50 weeks</text>
<g>
	<circle fill="#58595B" cx="404.5" cy="1404.3" r="9.6"/>
	
		<text transform="matrix(0.7071 0.7071 -0.7071 0.7071 395.8961 1403.5428)" fill="#FFFFFF" font-family="'MyriadPro-Regular'" font-size="22.3927">+</text>
</g>
<g>
	<circle fill="#58595B" cx="664.5" cy="1097.6" r="9.6"/>
	
		<text transform="matrix(0.7071 0.7071 -0.7071 0.7071 655.9791 1096.8542)" fill="#FFFFFF" font-family="'MyriadPro-Regular'" font-size="22.3927">+</text>
</g>
<g>
	<circle fill="#58595B" cx="693.2" cy="1096.1" r="9.6"/>
	
		<text transform="matrix(0.7071 0.7071 -0.7071 0.7071 684.6475 1095.3224)" fill="#FFFFFF" font-family="'MyriadPro-Regular'" font-size="22.3927">+</text>
</g>
<g>
	<path fill="#58595B" d="M727.7,1104.6c-3.7,3.7-9.8,3.7-13.5,0c-3.7-3.7-3.7-9.8,0-13.5c3.7-3.7,9.8-3.7,13.5,0
		C731.4,1094.8,731.4,1100.9,727.7,1104.6z"/>
	
		<text transform="matrix(0.7071 0.7071 -0.7071 0.7071 712.3262 1097.0688)" fill="#FFFFFF" font-family="'MyriadPro-Regular'" font-size="22.3927">+</text>
</g>
<g>
	<path fill="#58595B" d="M755.7,1104.6c-3.7,3.7-9.8,3.7-13.5,0c-3.7-3.7-3.7-9.8,0-13.5c3.7-3.7,9.8-3.7,13.5,0
		C759.4,1094.8,759.4,1100.9,755.7,1104.6z"/>
	
		<text transform="matrix(0.7071 0.7071 -0.7071 0.7071 740.3442 1097.1017)" fill="#FFFFFF" font-family="'MyriadPro-Regular'" font-size="22.3927">+</text>
</g>
<g>
	<circle fill="#58595B" cx="777.5" cy="1097.9" r="9.6"/>
	
		<text transform="matrix(0.7071 0.7071 -0.7071 0.7071 768.9865 1097.1207)" fill="#FFFFFF" font-family="'MyriadPro-Regular'" font-size="22.3927">+</text>
</g>
<g>
	<path fill="#58595B" d="M865.2,619.4c-3.7,3.7-9.8,3.7-13.5,0c-3.7-3.7-3.7-9.8,0-13.5c3.7-3.7,9.8-3.7,13.5,0
		C869,609.6,869,615.7,865.2,619.4z"/>
	
		<text transform="matrix(0.7071 0.7071 -0.7071 0.7071 849.9193 611.8968)" fill="#FFFFFF" font-family="'MyriadPro-Regular'" font-size="22.3927">+</text>
</g>
<g>
	<circle fill="#58595B" cx="341.3" cy="1099.5" r="9.6"/>
	
		<text transform="matrix(0.7071 0.7071 -0.7071 0.7071 332.789 1098.7666)" fill="#FFFFFF" font-family="'MyriadPro-Regular'" font-size="22.3927">+</text>
</g>
<g>
	<path fill="#58595B" d="M385.4,1106.6c-3.7,3.7-9.8,3.7-13.5,0c-3.7-3.7-3.7-9.8,0-13.5c3.7-3.7,9.8-3.7,13.5,0
		C389.1,1096.8,389.1,1102.8,385.4,1106.6z"/>
	
		<text transform="matrix(0.7071 0.7071 -0.7071 0.7071 370.0274 1099.0559)" fill="#FFFFFF" font-family="'MyriadPro-Regular'" font-size="22.3927">+</text>
</g>
<g>
	<circle fill="#58595B" cx="110.4" cy="1055.4" r="9.6"/>
	
		<text transform="matrix(0.7071 0.7071 -0.7071 0.7071 101.8392 1054.6476)" fill="#FFFFFF" font-family="'MyriadPro-Regular'" font-size="22.3927">+</text>
</g>
<g>
	<g>
		<circle fill="#58595B" cx="312.7" cy="904.9" r="9.6"/>
	</g>
	<line fill="none" stroke="#FFFFFF" stroke-width="1.7988" stroke-miterlimit="10" x1="307.1" y1="904.6" x2="318.2" y2="904.6"/>
</g>
<g>
	<g>
		<circle fill="#58595B" cx="631.1" cy="860.1" r="9.6"/>
	</g>
	<line fill="none" stroke="#FFFFFF" stroke-width="1.7988" stroke-miterlimit="10" x1="625.6" y1="859.8" x2="636.6" y2="859.8"/>
</g>
<text transform="matrix(0 -1 1 0 627.2643 836.9136)" font-family="'MyriadPro-Regular'" font-size="17.9875">emissions from transit</text>
<text transform="matrix(1 0 0 1 939.6891 909.2051)" font-family="'MyriadPro-Regular'" font-size="17.9875">0.00541 kW per gallon</text>
<text transform="matrix(1 0 0 1 705.3078 575.103)"><tspan x="0" y="0" font-family="'MyriadPro-Regular'" font-size="17.9875">0.00069 MTCO2e</tspan><tspan x="32.4" y="19.8" font-family="'MyriadPro-Regular'" font-size="17.9875">per kWh</tspan></text>
<text transform="matrix(1 0 0 1 1113.903 524.7378)"><tspan x="0" y="0" font-family="'MyriadPro-Regular'" font-size="17.9875">0.00000373 MTCO2e</tspan><tspan x="39.5" y="19.8" font-family="'MyriadPro-Regular'" font-size="17.9875">per gallon</tspan></text>
<line fill="none" stroke="#58595B" stroke-width="1.7988" stroke-miterlimit="10" x1="1092.1" y1="528.9" x2="1298.6" y2="528.9"/>
<line fill="none" stroke="#58595B" stroke-width="1.7988" stroke-miterlimit="10" x1="1298.6" y1="528.9" x2="1298.6" y2="628.5"/>
<g>
	<path fill="#58595B" d="M1305.4,619.4c-3.7,3.7-9.8,3.7-13.5,0c-3.7-3.7-3.7-9.8,0-13.5c3.7-3.7,9.8-3.7,13.5,0
		C1309.1,609.6,1309.1,615.7,1305.4,619.4z"/>
	
		<text transform="matrix(0.7071 0.7071 -0.7071 0.7071 1290.0265 611.8959)" fill="#FFFFFF" font-family="'MyriadPro-Regular'" font-size="22.3927">+</text>
</g>
<g>
	<text transform="matrix(1 0 0 1 720.9431 728.3164)" font-family="'MyriadPro-Regular'" font-size="62.9564">58,553,759</text>
</g>
<g>
	<text transform="matrix(1 0 0 1 1069.691 728.3164)" font-family="'MyriadPro-Regular'" font-size="62.9564">60,654,159</text>
</g>
<text transform="matrix(1 0 0 1 507.9577 271.9414)"><tspan x="0" y="0" font-family="'MyriadPro-Regular'" font-size="125.9128">46,114</tspan><tspan x="32.7" y="80.9" font-family="'MyriadPro-Regular'" font-size="79.1452">MTCO2e</tspan></text>
<line fill="none" stroke="#58595B" stroke-width="1.7988" stroke-miterlimit="10" x1="750.4" y1="507.9" x2="1045.4" y2="507.9"/>
<line fill="none" stroke="#58595B" stroke-width="1.7988" stroke-miterlimit="10" x1="822.5" y1="473.8" x2="1093.2" y2="473.8"/>
<line fill="none" stroke="#58595B" stroke-width="1.7988" stroke-miterlimit="10" x1="1093.2" y1="528.9" x2="1093.2" y2="473.8"/>
<line fill="none" stroke="#58595B" stroke-width="1.7988" stroke-linecap="square" stroke-miterlimit="10" x1="748.9" y1="937.9" x2="809.9" y2="937.9"/>
<line fill="none" stroke="#58595B" stroke-width="1.7988" stroke-linecap="square" stroke-miterlimit="10" x1="918.9" y1="1177.1" x2="1293.8" y2="1177.1"/>
<line fill="none" stroke="#58595B" stroke-width="1.7988" stroke-miterlimit="10" x1="933.3" y1="1191.1" x2="1308.2" y2="1191.1"/>
<line fill="none" stroke="#58595B" stroke-width="1.7251" stroke-miterlimit="10" x1="1061.7" y1="1257" x2="1061.7" y2="1211.3"/>
<line fill="none" stroke="#58595B" stroke-width="1.7251" stroke-miterlimit="10" x1="1061.7" y1="1211.3" x2="1322.6" y2="1211.3"/>
<line fill="none" stroke="#58595B" stroke-width="1.7251" stroke-miterlimit="10" x1="1335.2" y1="1236.7" x2="1206.6" y2="1236.7"/>
<line fill="none" stroke="#58595B" stroke-width="1.7251" stroke-miterlimit="10" x1="1206.6" y1="1236.6" x2="1206.6" y2="1258"/>
</svg>
