<?xml version="1.0" encoding="utf-8"?>
<!-- Generator: Adobe Illustrator 17.1.0, SVG Export Plug-In . SVG Version: 6.00 Build 0)  -->
<!DOCTYPE svg PUBLIC "-//W3C//DTD SVG 1.1//EN" "http://www.w3.org/Graphics/SVG/1.1/DTD/svg11.dtd">
<svg version="1.1" id="Layer_1" xmlns="http://www.w3.org/2000/svg" xmlns:xlink="http://www.w3.org/1999/xlink" x="0px" y="0px"
	 viewBox="0 100 400 200" enable-background="new 0 100 400 200" xml:space="preserve">
<g>
	<circle fill="#7FA53F" cx="38.5" cy="216.5" r="13.2"/>
	<circle fill="#228DBA" cx="38.4" cy="216.5" r="7.6"/>
	<circle fill="#228DBA" cx="38.4" cy="250.8" r="13.2"/>
	<circle fill="#7FA53F" cx="38.2" cy="250.8" r="7.6"/>
	<circle fill="#228DBA" cx="38.3" cy="147.2" r="13.4"/>
	<circle fill="#7FA53F" cx="38.1" cy="182.1" r="13.4"/>
	<g enable-background="new    ">
		<path d="M64,147c-1.1,2.8-2.7,4.5-2.8,4.5c-0.2,0-0.7,0-1.1-0.1c0-1.6,0-4.6,0.1-5.8l-1.2,0.2c0-0.2-0.1-0.5-0.1-0.7
			c1-0.2,1.8-0.5,1.9-0.5c0.1,0,0.4,0.2,0.5,0.4c-0.1,1.8-0.2,4.4-0.2,5.5c0,0.1,0.1,0.1,0.1,0c0.3-0.4,0.8-1,1.2-1.8
			c0.6-1,1.3-2.5,1.6-3.6c0.3-0.1,0.7-0.1,1-0.1c0,1.8,0.1,4.6,0.1,5.6c0,0.1,0.1,0.1,0.1,0c0.4-0.4,0.7-0.9,1.3-1.9
			c0.5-0.9,1.2-2.5,1.2-3.1c0,0,0-0.1-0.1-0.1l-0.9,0.1c0-0.2,0-0.4,0-0.7c0.7-0.1,1.6-0.3,1.7-0.3c0.1,0,0.5,0.4,0.5,0.5
			c0,1-0.9,2.8-1.7,4c-0.8,1.2-1.8,2.3-1.9,2.3c-0.2,0-0.7,0-1.1-0.1C64.1,150.4,64,148.8,64,147L64,147z"/>
		<path d="M73.4,149.5c-1.4,1.6-2.4,2-3,2c-0.3-0.1-0.9-0.4-1.1-0.8c-0.1-0.2-0.1-0.4-0.1-0.6c0-0.6,0.2-1.5,0.5-2.3
			c0.5-1.3,1.6-3.1,3-3.1c0.6,0,1.1,0.3,1.5,0.8h0.1l0.3-0.8c0.3,0.1,0.6,0.2,0.9,0.3c-0.4,1.4-1.1,4.2-1.5,5.8c0,0,0,0.1,0.1,0.1
			c0.1,0,0.5-0.1,1.1-0.3c0.1,0.2,0.1,0.4,0.1,0.7c-0.7,0.2-1.4,0.4-1.9,0.4c0,0-0.3-0.2-0.4-0.4C73.2,150.9,73.4,150.2,73.4,149.5
			L73.4,149.5z M71,147.4c-0.4,0.8-0.6,1.8-0.6,2.6c0,0.5,0.2,0.7,0.5,0.7c0.7,0,2.5-1.7,2.8-2.5c0.1-0.3,0.4-1.4,0.5-1.9
			c-0.3-0.5-0.8-0.8-1.4-0.8C72,145.5,71.4,146.5,71,147.4z"/>
		<path d="M80.7,145.8c0-0.1,0-0.1-0.1-0.2c-0.2-0.1-0.4-0.2-0.8-0.2c-0.2,0-0.6,0-0.9,0.2c-0.3,0.2-0.6,0.5-0.6,0.9
			c0,0.6,0.4,0.8,1.1,1.1c1,0.5,1.6,0.9,1.6,1.8c0,0.7-0.4,1.4-1.1,1.8c-0.5,0.3-1,0.4-1.9,0.4c-0.6,0-1.3-0.1-1.5-0.3
			c0-0.6,0.1-1.3,0.1-1.9c0.2,0,0.5,0,0.7,0l0.1,1.1c0,0.1,0,0.1,0.1,0.2c0.2,0.1,0.5,0.2,0.9,0.2c0.4,0,0.8-0.1,1-0.2
			c0.3-0.2,0.5-0.5,0.5-1c0-0.7-0.5-0.9-1.1-1.2c-0.9-0.4-1.6-0.8-1.6-1.8c0-0.8,0.6-1.4,1.2-1.7c0.5-0.2,1.1-0.3,1.7-0.3
			c0.6,0,1.2,0.2,1.5,0.3c-0.1,0.6-0.1,1.2-0.2,1.8c-0.2,0-0.5,0-0.7,0L80.7,145.8z"/>
		<path d="M84.8,150.7c0.4,0,1.1-0.1,1.8-0.3c0,0.2,0,0.5,0.1,0.7c-0.9,0.3-1.8,0.5-2.4,0.5c-0.4,0-1.1-0.4-1.3-1c0-0.1,0-0.2,0-0.3
			c0-0.5,0.5-2.4,0.5-2.8c0.1-0.5,0.3-1.4,0.4-1.9c-0.3,0-0.8,0-1.2,0c0-0.2,0.1-0.5,0.1-0.7c0.4,0,0.8-0.1,1.2-0.1
			c0,0,0.1,0,0.1-0.1c0.1-0.4,0.3-1,0.4-1.5c0.4-0.2,0.9-0.3,1-0.3c0,0,0,0,0,0.1c-0.1,0.5-0.2,1.2-0.4,1.8c0.8,0,1.6,0,2.4,0
			c0,0.3-0.1,0.6-0.2,0.8c-0.7,0-1.5,0-2.4,0c-0.1,0.4-0.3,1.4-0.4,1.9c-0.2,0.7-0.5,2.1-0.5,2.5C84.1,150.5,84.4,150.7,84.8,150.7z
			"/>
		<path d="M89.1,145.9c0.8-0.9,1.5-1.2,2.3-1.2c1.1,0,1.7,0.9,1.7,1.7c-0.1,0.5-0.4,1.2-0.9,1.4c-0.9,0.5-1.9,0.6-3.3,0.6
			c-0.1,0.4-0.2,0.9-0.2,1.2c0,0.7,0.4,1.2,1.1,1.2c0.6,0,1.6-0.3,2.5-0.8c0.1,0.2,0.2,0.4,0.2,0.6c-0.9,0.5-2,1.1-3.1,1.1
			c-0.8,0-1.8-0.6-1.8-1.8C87.6,148.8,88.1,147.1,89.1,145.9z M89.9,146.1c-0.2,0.3-0.5,0.8-0.8,1.6c0.8,0,1.7-0.1,2.2-0.4
			c0.4-0.2,0.6-0.4,0.6-0.9c0-0.5-0.3-1-0.9-1C90.7,145.4,90.3,145.7,89.9,146.1z"/>
		<path d="M100.4,144.7c0.5,0,0.8,0.1,1,0.1c0.1,0,0.1,0,0.2,0c0.3,0,1.7,0,2.2,0c0,0.2,0,0.5,0,0.7c-0.5,0-1,0-1.6,0.1v0.1
			c0.2,0.2,0.3,0.7,0.3,1.2c0,0.6-0.2,1.4-0.6,2c-0.4,0.6-1.2,1.4-2.8,1.3c-0.5,0.3-0.9,0.6-0.9,0.8c0,0.3,0.8,0.4,1.9,0.5
			c0.9,0.1,1.4,0.2,1.8,0.4c0.4,0.2,0.7,0.7,0.7,1.1c0,1.1-1.2,2.4-4,2.4c-1.6,0-2.8-0.6-2.8-1.5c0-0.2,0.1-0.6,0.4-0.8
			c0.5-0.3,0.8-0.5,1.7-1l0-0.1c-0.5-0.2-0.7-0.4-0.7-1c0-0.2,0.1-0.2,1.2-1v-0.1c-0.6-0.3-1-0.9-1-1.9
			C97.3,146.4,98.5,144.7,100.4,144.7z M100,152.2c-0.5-0.1-1-0.1-1.4-0.2c-1.1,0.7-1.7,1-1.7,1.6c0,0.7,1,1,1.9,1
			c1.5,0,2.7-0.5,2.7-1.5C101.5,152.5,101.1,152.3,100,152.2z M99.6,149.4c0.9,0,1.7-1.1,1.7-2.6c0-0.5,0-0.8-0.2-1.1
			c-0.2-0.3-0.5-0.5-0.9-0.5c-1,0-1.8,1.2-1.8,2.7C98.5,149,98.9,149.4,99.6,149.4z"/>
		<path d="M105.3,145.9c0.8-0.9,1.5-1.2,2.3-1.2c1.1,0,1.7,0.9,1.7,1.7c-0.1,0.5-0.4,1.2-0.9,1.4c-0.9,0.5-1.9,0.6-3.3,0.6
			c-0.1,0.4-0.2,0.9-0.2,1.2c0,0.7,0.4,1.2,1.1,1.2c0.6,0,1.6-0.3,2.5-0.8c0.1,0.2,0.2,0.4,0.2,0.6c-0.9,0.5-2,1.1-3.1,1.1
			c-0.8,0-1.8-0.6-1.8-1.8C103.8,148.8,104.2,147.1,105.3,145.9z M106.1,146.1c-0.2,0.3-0.5,0.8-0.8,1.6c0.8,0,1.7-0.1,2.2-0.4
			c0.4-0.2,0.6-0.4,0.6-0.9c0-0.5-0.3-1-0.9-1C106.8,145.4,106.4,145.7,106.1,146.1z"/>
		<path d="M110.4,145.8c0-0.2,0-0.5,0-0.7c1-0.2,1.9-0.4,2-0.4c0.1,0,0.3,0.2,0.4,0.3c-0.1,0.4-0.2,1-0.4,1.7l0.1,0
			c1.2-1.5,2.5-2,3.2-2.1c0.4,0.1,0.8,0.4,1,0.8c0.1,0.2,0.1,0.3,0.1,0.5c0,0.7-0.5,2.7-1.2,4.7c0,0.1,0,0.1,0.1,0.1
			c0.2,0,0.6-0.1,1.1-0.2c0,0.2,0.1,0.4,0.1,0.7c-0.6,0.2-1.4,0.4-2,0.4c-0.1,0-0.4-0.2-0.4-0.5c0.3-0.8,0.8-2.4,1-3.2
			c0.1-0.5,0.3-1.2,0.3-1.6c0-0.3-0.1-0.6-0.5-0.6c-1,0-2.8,1.7-3,2.6c-0.2,0.6-0.6,2.5-0.8,3.1c-0.4,0-0.7,0-1.1,0
			c0.3-1.4,1-4,1.3-5.7L110.4,145.8z"/>
		<path d="M119.6,145.9c0.8-0.9,1.5-1.2,2.3-1.2c1.1,0,1.7,0.9,1.7,1.7c-0.1,0.5-0.4,1.2-0.9,1.4c-0.9,0.5-1.9,0.6-3.3,0.6
			c-0.1,0.4-0.2,0.9-0.2,1.2c0,0.7,0.4,1.2,1.1,1.2c0.6,0,1.6-0.3,2.5-0.8c0.1,0.2,0.2,0.4,0.2,0.6c-0.9,0.5-2,1.1-3.1,1.1
			c-0.8,0-1.8-0.6-1.8-1.8C118.1,148.8,118.5,147.1,119.6,145.9z M120.4,146.1c-0.2,0.3-0.5,0.8-0.8,1.6c0.8,0,1.7-0.1,2.2-0.4
			c0.4-0.2,0.6-0.4,0.6-0.9c0-0.5-0.3-1-0.9-1C121.1,145.4,120.7,145.7,120.4,146.1z"/>
		<path d="M124.7,145.7c0-0.2,0-0.5,0-0.7c1-0.2,1.9-0.4,2-0.4c0.1,0,0.3,0.2,0.4,0.4c-0.1,0.4-0.2,1-0.5,1.9l0.1,0
			c0.9-1.4,1.9-2.3,2.5-2.3c0.3,0,0.6,0.1,0.8,0.2c0,0.4-0.3,1.1-0.5,1.2c-0.1,0-0.4-0.2-0.6-0.2c-0.6,0-2.1,1.7-2.5,3
			c-0.1,0.5-0.4,1.8-0.6,2.4c-0.4,0-0.7,0-1.1,0c0.3-1.3,0.9-4,1.3-5.8L124.7,145.7z"/>
		<path d="M133.9,149.5c-1.4,1.6-2.4,2-3,2c-0.3-0.1-0.9-0.4-1.1-0.8c-0.1-0.2-0.1-0.4-0.1-0.6c0-0.6,0.2-1.5,0.5-2.3
			c0.5-1.3,1.6-3.1,3-3.1c0.6,0,1.1,0.3,1.5,0.8h0.1l0.3-0.8c0.3,0.1,0.6,0.2,0.9,0.3c-0.4,1.4-1.1,4.2-1.5,5.8c0,0,0,0.1,0.1,0.1
			c0.1,0,0.5-0.1,1.1-0.3c0.1,0.2,0.1,0.4,0.1,0.7c-0.7,0.2-1.4,0.4-1.9,0.4c0,0-0.3-0.2-0.4-0.4
			C133.6,150.9,133.8,150.2,133.9,149.5L133.9,149.5z M131.4,147.4c-0.4,0.8-0.6,1.8-0.6,2.6c0,0.5,0.2,0.7,0.5,0.7
			c0.7,0,2.5-1.7,2.8-2.5c0.1-0.3,0.4-1.4,0.5-1.9c-0.3-0.5-0.8-0.8-1.4-0.8C132.5,145.5,131.8,146.5,131.4,147.4z"/>
		<path d="M139.4,150.7c0.4,0,1.1-0.1,1.8-0.3c0,0.2,0,0.5,0.1,0.7c-0.9,0.3-1.8,0.5-2.4,0.5c-0.4,0-1.1-0.4-1.3-1
			c0-0.1,0-0.2,0-0.3c0-0.5,0.5-2.4,0.5-2.8c0.1-0.5,0.3-1.4,0.4-1.9c-0.3,0-0.8,0-1.2,0c0-0.2,0.1-0.5,0.1-0.7
			c0.4,0,0.8-0.1,1.2-0.1c0,0,0.1,0,0.1-0.1c0.1-0.4,0.3-1,0.4-1.5c0.4-0.2,0.9-0.3,1-0.3c0,0,0,0,0,0.1c-0.1,0.5-0.2,1.2-0.4,1.8
			c0.8,0,1.6,0,2.4,0c0,0.3-0.1,0.6-0.2,0.8c-0.7,0-1.5,0-2.4,0c-0.1,0.4-0.3,1.4-0.4,1.9c-0.2,0.7-0.5,2.1-0.5,2.5
			C138.6,150.5,138.9,150.7,139.4,150.7z"/>
		<path d="M143.7,145.9c0.8-0.9,1.5-1.2,2.3-1.2c1.1,0,1.7,0.9,1.7,1.7c-0.1,0.5-0.4,1.2-0.9,1.4c-0.9,0.5-1.9,0.6-3.3,0.6
			c-0.1,0.4-0.2,0.9-0.2,1.2c0,0.7,0.4,1.2,1.1,1.2c0.6,0,1.6-0.3,2.5-0.8c0.1,0.2,0.2,0.4,0.2,0.6c-0.9,0.5-2,1.1-3.1,1.1
			c-0.8,0-1.8-0.6-1.8-1.8C142.2,148.8,142.6,147.1,143.7,145.9z M144.5,146.1c-0.2,0.3-0.5,0.8-0.8,1.6c0.8,0,1.7-0.1,2.2-0.4
			c0.4-0.2,0.6-0.4,0.6-0.9c0-0.5-0.3-1-0.9-1C145.2,145.4,144.8,145.7,144.5,146.1z"/>
		<path d="M152.8,149.5c-1.2,1.4-2.4,2.1-3,2.1c-0.4,0-0.9-0.4-1.2-0.8c-0.1-0.2-0.2-0.4-0.2-0.6c0-0.7,0.2-1.6,0.5-2.4
			c0.5-1.3,1.6-3.1,3.1-3.1c0.7,0,1.2,0.3,1.6,0.6h0.1c0.3-1.1,0.6-2.6,0.9-3.8l-1.4,0.1c0-0.2,0-0.5,0-0.7c1.3-0.2,2.2-0.4,2.3-0.4
			c0.1,0,0.3,0.2,0.4,0.3c-0.3,1.2-2,8.7-2.3,9.8c0,0,0,0.1,0.1,0.1c0.1,0,0.5-0.1,1-0.2c0.1,0.2,0.1,0.4,0.1,0.6
			c-0.7,0.3-1.3,0.4-1.8,0.4c-0.1,0-0.4-0.2-0.4-0.4C152.5,150.9,152.7,150.3,152.8,149.5L152.8,149.5z M153.1,148
			c0.1-0.4,0.3-1.4,0.4-1.9c-0.3-0.4-0.9-0.6-1.4-0.6c-0.9,0-1.6,1-2,2c-0.3,0.8-0.5,1.8-0.5,2.4c0,0.5,0.3,0.7,0.6,0.7
			C151,150.7,152.9,148.8,153.1,148z"/>
	</g>
	<g enable-background="new    ">
		<path d="M64,181.3c-1.1,2.8-2.7,4.5-2.8,4.5c-0.2,0-0.7,0-1.1-0.1c0-1.6,0-4.6,0.1-5.8l-1.2,0.2c0-0.2-0.1-0.5-0.1-0.7
			c1-0.2,1.8-0.5,1.9-0.5c0.1,0,0.4,0.2,0.5,0.4c-0.1,1.8-0.2,4.4-0.2,5.5c0,0.1,0.1,0.1,0.1,0c0.3-0.4,0.8-1,1.2-1.8
			c0.6-1,1.3-2.5,1.6-3.6c0.3-0.1,0.7-0.1,1-0.1c0,1.8,0.1,4.6,0.1,5.6c0,0.1,0.1,0.1,0.1,0c0.4-0.4,0.7-0.9,1.3-1.9
			c0.5-0.9,1.2-2.5,1.2-3.1c0,0,0-0.1-0.1-0.1l-0.9,0.1c0-0.2,0-0.4,0-0.7c0.7-0.1,1.6-0.3,1.7-0.3c0.1,0,0.5,0.4,0.5,0.5
			c0,1-0.9,2.8-1.7,4c-0.8,1.2-1.8,2.3-1.9,2.3c-0.2,0-0.7,0-1.1-0.1C64.1,184.6,64,183,64,181.3L64,181.3z"/>
		<path d="M73.4,183.8c-1.4,1.6-2.4,2-3,2c-0.3-0.1-0.9-0.4-1.1-0.8c-0.1-0.2-0.1-0.4-0.1-0.6c0-0.6,0.2-1.5,0.5-2.3
			c0.5-1.3,1.6-3.1,3-3.1c0.6,0,1.1,0.3,1.5,0.8h0.1l0.3-0.8c0.3,0.1,0.6,0.2,0.9,0.3c-0.4,1.4-1.1,4.2-1.5,5.8c0,0,0,0.1,0.1,0.1
			c0.1,0,0.5-0.1,1.1-0.3c0.1,0.2,0.1,0.4,0.1,0.7c-0.7,0.2-1.4,0.4-1.9,0.4c0,0-0.3-0.2-0.4-0.4C73.2,185.1,73.4,184.5,73.4,183.8
			L73.4,183.8z M71,181.6c-0.4,0.8-0.6,1.8-0.6,2.6c0,0.5,0.2,0.7,0.5,0.7c0.7,0,2.5-1.7,2.8-2.5c0.1-0.3,0.4-1.4,0.5-1.9
			c-0.3-0.5-0.8-0.8-1.4-0.8C72,179.7,71.4,180.8,71,181.6z"/>
		<path d="M80.7,180c0-0.1,0-0.1-0.1-0.2c-0.2-0.1-0.4-0.2-0.8-0.2c-0.2,0-0.6,0-0.9,0.2c-0.3,0.2-0.6,0.5-0.6,0.9
			c0,0.6,0.4,0.8,1.1,1.1c1,0.5,1.6,0.9,1.6,1.8c0,0.7-0.4,1.4-1.1,1.8c-0.5,0.3-1,0.4-1.9,0.4c-0.6,0-1.3-0.1-1.5-0.3
			c0-0.6,0.1-1.3,0.1-1.9c0.2,0,0.5,0,0.7,0l0.1,1.1c0,0.1,0,0.1,0.1,0.2c0.2,0.1,0.5,0.2,0.9,0.2c0.4,0,0.8-0.1,1-0.2
			c0.3-0.2,0.5-0.5,0.5-1c0-0.7-0.5-0.9-1.1-1.2c-0.9-0.4-1.6-0.8-1.6-1.8c0-0.8,0.6-1.4,1.2-1.7c0.5-0.2,1.1-0.3,1.7-0.3
			c0.6,0,1.2,0.2,1.5,0.3c-0.1,0.6-0.1,1.2-0.2,1.8c-0.2,0-0.5,0-0.7,0L80.7,180z"/>
		<path d="M84.8,184.9c0.4,0,1.1-0.1,1.8-0.3c0,0.2,0,0.5,0.1,0.7c-0.9,0.3-1.8,0.5-2.4,0.5c-0.4,0-1.1-0.4-1.3-1c0-0.1,0-0.2,0-0.3
			c0-0.5,0.5-2.4,0.5-2.8c0.1-0.5,0.3-1.4,0.4-1.9c-0.3,0-0.8,0-1.2,0c0-0.2,0.1-0.5,0.1-0.7c0.4,0,0.8-0.1,1.2-0.1
			c0,0,0.1,0,0.1-0.1c0.1-0.4,0.3-1,0.4-1.5c0.4-0.2,0.9-0.3,1-0.3c0,0,0,0,0,0.1c-0.1,0.5-0.2,1.2-0.4,1.8c0.8,0,1.6,0,2.4,0
			c0,0.3-0.1,0.6-0.2,0.8c-0.7,0-1.5,0-2.4,0c-0.1,0.4-0.3,1.4-0.4,1.9c-0.2,0.7-0.5,2.1-0.5,2.5C84.1,184.7,84.4,184.9,84.8,184.9z
			"/>
		<path d="M89.1,180.1c0.8-0.9,1.5-1.2,2.3-1.2c1.1,0,1.7,0.9,1.7,1.7c-0.1,0.5-0.4,1.2-0.9,1.4c-0.9,0.5-1.9,0.6-3.3,0.6
			c-0.1,0.4-0.2,0.9-0.2,1.2c0,0.7,0.4,1.2,1.1,1.2c0.6,0,1.6-0.3,2.5-0.8c0.1,0.2,0.2,0.4,0.2,0.6c-0.9,0.5-2,1.1-3.1,1.1
			c-0.8,0-1.8-0.6-1.8-1.8C87.6,183,88.1,181.3,89.1,180.1z M89.9,180.3c-0.2,0.3-0.5,0.8-0.8,1.6c0.8,0,1.7-0.1,2.2-0.4
			c0.4-0.2,0.6-0.4,0.6-0.9c0-0.5-0.3-1-0.9-1C90.7,179.7,90.3,179.9,89.9,180.3z"/>
		<path d="M101.4,183.7c-1.2,1.4-2.4,2.1-3,2.1c-0.4,0-0.9-0.4-1.2-0.8c-0.1-0.2-0.2-0.4-0.2-0.6c0-0.7,0.2-1.6,0.5-2.4
			c0.5-1.3,1.6-3.1,3.1-3.1c0.7,0,1.2,0.3,1.6,0.6h0.1c0.3-1.1,0.6-2.6,0.9-3.8l-1.4,0.1c0-0.2,0-0.5,0-0.7c1.3-0.2,2.2-0.4,2.3-0.4
			c0.1,0,0.3,0.2,0.4,0.3c-0.3,1.2-2,8.7-2.3,9.8c0,0,0,0.1,0.1,0.1c0.1,0,0.5-0.1,1-0.2c0.1,0.2,0.1,0.4,0.1,0.6
			c-0.7,0.3-1.3,0.4-1.8,0.4c-0.1,0-0.4-0.2-0.4-0.4C101.1,185.1,101.3,184.5,101.4,183.7L101.4,183.7z M101.7,182.2
			c0.1-0.4,0.3-1.4,0.4-1.9c-0.3-0.4-0.9-0.6-1.4-0.6c-0.9,0-1.6,1-2,2c-0.3,0.8-0.5,1.8-0.5,2.4c0,0.5,0.3,0.7,0.6,0.7
			C99.6,184.9,101.4,183,101.7,182.2z"/>
		<path d="M104.7,180c0-0.2,0-0.5,0-0.7c1.2-0.2,2-0.4,2.2-0.4c0.1,0,0.3,0.2,0.4,0.4c-0.4,1.5-1.2,4.8-1.3,5.6c0,0.1,0,0.1,0.1,0.1
			c0.2,0,0.7-0.1,1.2-0.2c0.1,0.2,0.1,0.4,0.1,0.7c-0.6,0.2-1.4,0.3-2,0.3c-0.1,0-0.5-0.3-0.5-0.5c0.3-1.5,0.8-3.6,1.2-5.4
			L104.7,180z M107.8,176.7c0,0.4-0.4,0.8-0.8,0.8c-0.5,0-0.8-0.4-0.8-0.8c0-0.4,0.3-0.8,0.9-0.8
			C107.6,175.9,107.8,176.3,107.8,176.7z"/>
		<path d="M112.5,180c0-0.1,0-0.1-0.1-0.2c-0.2-0.1-0.4-0.2-0.8-0.2c-0.2,0-0.6,0-0.9,0.2c-0.3,0.2-0.6,0.5-0.6,0.9
			c0,0.6,0.4,0.8,1.1,1.1c1,0.5,1.6,0.9,1.6,1.8c0,0.7-0.4,1.4-1.1,1.8c-0.5,0.3-1,0.4-1.9,0.4c-0.6,0-1.3-0.1-1.5-0.3
			c0-0.6,0.1-1.3,0.1-1.9c0.2,0,0.5,0,0.7,0l0.1,1.1c0,0.1,0,0.1,0.1,0.2c0.2,0.1,0.5,0.2,0.9,0.2c0.4,0,0.8-0.1,1-0.2
			c0.3-0.2,0.5-0.5,0.5-1c0-0.7-0.5-0.9-1.1-1.2c-0.9-0.4-1.6-0.8-1.6-1.8c0-0.8,0.6-1.4,1.2-1.7c0.5-0.2,1.1-0.3,1.7-0.3
			c0.6,0,1.2,0.2,1.5,0.3c-0.1,0.6-0.1,1.2-0.2,1.8c-0.2,0-0.5,0-0.7,0L112.5,180z"/>
		<path d="M116.4,181.2c1.2-1.5,2.2-2.3,3.2-2.3c0.4,0,0.8,0.4,1.1,0.9c0.1,0.2,0.1,0.4,0.1,0.6c0,1-0.3,2.4-0.9,3.5
			c-0.5,0.9-1.4,1.9-2.7,1.9c-0.5,0-1.1-0.2-1.5-0.6c-0.2,1.2-0.6,2.9-0.8,4.1c-0.3,0-0.7,0-1.1,0c0.6-2.9,1.3-6.6,1.8-9.4l-1.3,0.1
			c0-0.2,0-0.5,0-0.7c1.3-0.2,1.8-0.4,1.9-0.4c0.1,0,0.3,0.2,0.4,0.3c-0.1,0.5-0.3,1.2-0.4,1.9L116.4,181.2z M119.1,179.9
			c-1,0-2.7,2-3,2.9c-0.1,0.3-0.2,1.2-0.3,1.5c0.3,0.4,0.9,0.7,1.3,0.7c0.9,0,1.5-0.7,1.8-1.4c0.5-0.9,0.7-2.1,0.7-3
			C119.6,180.2,119.4,179.9,119.1,179.9z"/>
		<path d="M126,184.9c-0.6,0.5-1.2,0.9-2.2,0.9c-0.8,0-1.3-0.3-1.6-0.7c-0.2-0.3-0.5-0.8-0.5-1.4c0-1.5,0.6-3,1.6-3.9
			c0.7-0.7,1.4-0.9,2.2-0.9c0.7,0,1.1,0.2,1.5,0.6c0.3,0.3,0.6,0.9,0.6,1.7C127.5,182.5,127,183.9,126,184.9z M125.4,184.4
			c0.5-0.7,1-2,1-3.1c0-0.6-0.1-0.9-0.2-1.2c-0.2-0.3-0.4-0.5-0.9-0.5c-0.5,0-1,0.3-1.5,0.9c-0.4,0.5-0.9,1.8-0.9,3.1
			c0,0.5,0.1,0.8,0.2,1.1c0.2,0.3,0.5,0.4,0.9,0.4C124.5,185.1,125,184.8,125.4,184.4z"/>
		<path d="M132.6,180c0-0.1,0-0.1-0.1-0.2c-0.2-0.1-0.4-0.2-0.8-0.2c-0.2,0-0.6,0-0.9,0.2s-0.6,0.5-0.6,0.9c0,0.6,0.4,0.8,1.1,1.1
			c1,0.5,1.6,0.9,1.6,1.8c0,0.7-0.4,1.4-1.1,1.8c-0.5,0.3-1,0.4-1.9,0.4c-0.6,0-1.3-0.1-1.5-0.3c0-0.6,0.1-1.3,0.1-1.9
			c0.2,0,0.5,0,0.7,0l0.1,1.1c0,0.1,0,0.1,0.1,0.2c0.2,0.1,0.5,0.2,0.9,0.2c0.4,0,0.8-0.1,1-0.2c0.3-0.2,0.5-0.5,0.5-1
			c0-0.7-0.5-0.9-1.1-1.2c-0.9-0.4-1.6-0.8-1.6-1.8c0-0.8,0.6-1.4,1.2-1.7c0.5-0.2,1.1-0.3,1.7-0.3c0.6,0,1.2,0.2,1.5,0.3
			c-0.1,0.6-0.1,1.2-0.2,1.8c-0.2,0-0.5,0-0.7,0L132.6,180z"/>
		<path d="M135.8,180.1c0.8-0.9,1.5-1.2,2.3-1.2c1.1,0,1.7,0.9,1.7,1.7c-0.1,0.5-0.4,1.2-0.9,1.4c-0.9,0.5-1.9,0.6-3.3,0.6
			c-0.1,0.4-0.2,0.9-0.2,1.2c0,0.7,0.4,1.2,1.1,1.2c0.6,0,1.6-0.3,2.5-0.8c0.1,0.2,0.2,0.4,0.2,0.6c-0.9,0.5-2,1.1-3.1,1.1
			c-0.8,0-1.8-0.6-1.8-1.8C134.3,183,134.8,181.3,135.8,180.1z M136.6,180.3c-0.2,0.3-0.5,0.8-0.8,1.6c0.8,0,1.7-0.1,2.2-0.4
			c0.4-0.2,0.6-0.4,0.6-0.9c0-0.5-0.3-1-0.9-1C137.3,179.7,137,179.9,136.6,180.3z"/>
		<path d="M144.9,183.7c-1.2,1.4-2.4,2.1-3,2.1c-0.4,0-0.9-0.4-1.2-0.8c-0.1-0.2-0.2-0.4-0.2-0.6c0-0.7,0.2-1.6,0.5-2.4
			c0.5-1.3,1.6-3.1,3.1-3.1c0.7,0,1.2,0.3,1.6,0.6h0.1c0.3-1.1,0.6-2.6,0.9-3.8l-1.4,0.1c0-0.2,0-0.5,0-0.7c1.3-0.2,2.2-0.4,2.3-0.4
			c0.1,0,0.3,0.2,0.4,0.3c-0.3,1.2-2,8.7-2.3,9.8c0,0,0,0.1,0.1,0.1c0.1,0,0.5-0.1,1-0.2c0.1,0.2,0.1,0.4,0.1,0.6
			c-0.7,0.3-1.3,0.4-1.8,0.4c-0.1,0-0.4-0.2-0.4-0.4C144.7,185.1,144.8,184.5,144.9,183.7L144.9,183.7z M145.2,182.2
			c0.1-0.4,0.3-1.4,0.4-1.9c-0.3-0.4-0.9-0.6-1.4-0.6c-0.9,0-1.6,1-2,2c-0.3,0.8-0.5,1.8-0.5,2.4c0,0.5,0.3,0.7,0.6,0.7
			C143.2,184.9,145,183,145.2,182.2z"/>
	</g>
	<g enable-background="new    ">
		<path d="M59.2,215.5c0-0.2,0-0.5,0-0.7c1.2-0.2,2-0.4,2.2-0.4c0.1,0,0.3,0.2,0.4,0.4c-0.4,1.5-1.2,4.8-1.3,5.6
			c0,0.1,0,0.1,0.1,0.1c0.2,0,0.7-0.1,1.2-0.2c0.1,0.2,0.1,0.4,0.1,0.7c-0.6,0.2-1.4,0.3-2,0.3c-0.1,0-0.5-0.3-0.5-0.5
			c0.3-1.5,0.8-3.6,1.2-5.4L59.2,215.5z M62.3,212.2c0,0.4-0.4,0.8-0.8,0.8c-0.5,0-0.8-0.4-0.8-0.8c0-0.4,0.3-0.8,0.9-0.8
			C62.1,211.4,62.3,211.9,62.3,212.2z"/>
		<path d="M63.2,215.5c0-0.2,0-0.5,0-0.7c1-0.2,1.9-0.4,2-0.4c0.1,0,0.3,0.2,0.4,0.3c-0.1,0.4-0.2,1-0.4,1.7l0.1,0
			c1.2-1.5,2.5-2,3.2-2.1c0.4,0.1,0.8,0.4,1,0.8c0.1,0.2,0.1,0.3,0.1,0.5c0,0.7-0.5,2.7-1.2,4.7c0,0.1,0,0.1,0.1,0.1
			c0.2,0,0.6-0.1,1.1-0.2c0,0.2,0.1,0.4,0.1,0.7c-0.6,0.2-1.4,0.4-2,0.4c-0.1,0-0.4-0.2-0.4-0.5c0.3-0.8,0.8-2.4,1-3.2
			c0.1-0.5,0.3-1.2,0.3-1.6c0-0.3-0.1-0.6-0.5-0.6c-1,0-2.8,1.7-3,2.6c-0.2,0.6-0.6,2.5-0.8,3.1c-0.4,0-0.7,0-1.1,0
			c0.3-1.4,1-4,1.3-5.7L63.2,215.5z"/>
		<path d="M75.2,219.2c-1.2,1.4-2.4,2.1-3,2.1c-0.4,0-0.9-0.4-1.2-0.8c-0.1-0.2-0.2-0.4-0.2-0.6c0-0.7,0.2-1.6,0.5-2.4
			c0.5-1.3,1.6-3.1,3.1-3.1c0.7,0,1.2,0.3,1.6,0.6h0.1c0.3-1.1,0.6-2.6,0.9-3.8l-1.4,0.1c0-0.2,0-0.5,0-0.7c1.3-0.2,2.2-0.4,2.3-0.4
			c0.1,0,0.3,0.2,0.4,0.3c-0.3,1.2-2,8.7-2.3,9.8c0,0,0,0.1,0.1,0.1c0.1,0,0.5-0.1,1-0.2c0.1,0.2,0.1,0.4,0.1,0.6
			c-0.7,0.3-1.3,0.4-1.8,0.4c-0.1,0-0.4-0.2-0.4-0.4C74.9,220.6,75.1,220.1,75.2,219.2L75.2,219.2z M75.5,217.8
			c0.1-0.4,0.3-1.4,0.4-1.9c-0.3-0.4-0.9-0.6-1.4-0.6c-0.9,0-1.6,1-2,2c-0.3,0.8-0.5,1.8-0.5,2.4c0,0.5,0.3,0.7,0.6,0.7
			C73.4,220.4,75.2,218.6,75.5,217.8z"/>
		<path d="M78.5,215.5c0-0.2,0-0.5,0-0.7c1.2-0.2,2-0.4,2.2-0.4c0.1,0,0.3,0.2,0.4,0.4c-0.4,1.5-1.2,4.8-1.3,5.6
			c0,0.1,0,0.1,0.1,0.1c0.2,0,0.7-0.1,1.2-0.2c0.1,0.2,0.1,0.4,0.1,0.7c-0.6,0.2-1.4,0.3-2,0.3c-0.1,0-0.5-0.3-0.5-0.5
			c0.3-1.5,0.8-3.6,1.2-5.4L78.5,215.5z M81.6,212.2c0,0.4-0.4,0.8-0.8,0.8c-0.5,0-0.8-0.4-0.8-0.8c0-0.4,0.3-0.8,0.9-0.8
			C81.4,211.4,81.6,211.9,81.6,212.2z"/>
		<path d="M83.7,215.6c0.8-0.9,1.6-1.2,2.7-1.2c0.5,0,0.9,0.2,1.1,0.3c0,0.3-0.5,0.9-0.6,1c-0.1-0.1-0.7-0.4-1.1-0.4
			c-0.5,0-1,0.3-1.2,0.7c-0.5,0.7-1,2-1,3c0,1,0.5,1.4,1.2,1.4c0.5,0,1.3-0.3,1.9-0.5c0.1,0.2,0.1,0.4,0.2,0.6
			c-0.7,0.3-1.7,0.8-2.5,0.8c-1,0-2-0.7-2-2C82.3,218.3,82.6,216.7,83.7,215.6z"/>
		<path d="M92,219.3c-1.4,1.6-2.4,2-3,2c-0.3-0.1-0.9-0.4-1.1-0.8c-0.1-0.2-0.1-0.4-0.1-0.6c0-0.6,0.2-1.5,0.5-2.3
			c0.5-1.3,1.6-3.1,3-3.1c0.6,0,1.1,0.3,1.5,0.8h0.1l0.3-0.8c0.3,0.1,0.6,0.2,0.9,0.3c-0.4,1.4-1.1,4.2-1.5,5.8c0,0,0,0.1,0.1,0.1
			c0.1,0,0.5-0.1,1.1-0.3c0.1,0.2,0.1,0.4,0.1,0.7c-0.7,0.2-1.4,0.4-1.9,0.4c0,0-0.3-0.2-0.4-0.4C91.7,220.6,91.9,220,92,219.3
			L92,219.3z M89.5,217.2c-0.4,0.8-0.6,1.8-0.6,2.6c0,0.5,0.2,0.7,0.5,0.7c0.7,0,2.5-1.7,2.8-2.5c0.1-0.3,0.4-1.4,0.5-1.9
			c-0.3-0.5-0.8-0.8-1.4-0.8C90.5,215.3,89.9,216.3,89.5,217.2z"/>
		<path d="M97.4,220.4c0.4,0,1.1-0.1,1.8-0.3c0,0.2,0,0.5,0.1,0.7c-0.9,0.3-1.8,0.5-2.4,0.5c-0.4,0-1.1-0.4-1.3-1c0-0.1,0-0.2,0-0.3
			c0-0.5,0.5-2.4,0.5-2.8c0.1-0.5,0.3-1.4,0.4-1.9c-0.3,0-0.8,0-1.2,0c0-0.2,0.1-0.5,0.1-0.7c0.4,0,0.8-0.1,1.2-0.1
			c0,0,0.1,0,0.1-0.1c0.1-0.4,0.3-1,0.4-1.5c0.4-0.2,0.9-0.3,1-0.3c0,0,0,0,0,0.1c-0.1,0.5-0.2,1.2-0.4,1.8c0.8,0,1.6,0,2.4,0
			c0,0.3-0.1,0.6-0.2,0.8c-0.7,0-1.5,0-2.4,0c-0.1,0.4-0.3,1.4-0.4,1.9c-0.2,0.7-0.5,2.1-0.5,2.5C96.7,220.2,97,220.4,97.4,220.4z"
			/>
		<path d="M101.7,215.7c0.8-0.9,1.5-1.2,2.3-1.2c1.1,0,1.7,0.9,1.7,1.7c-0.1,0.5-0.4,1.2-0.9,1.4c-0.9,0.5-1.9,0.6-3.3,0.6
			c-0.1,0.4-0.2,0.9-0.2,1.2c0,0.7,0.4,1.2,1.1,1.2c0.6,0,1.6-0.3,2.5-0.8c0.1,0.2,0.2,0.4,0.2,0.6c-0.9,0.5-2,1.1-3.1,1.1
			c-0.8,0-1.8-0.6-1.8-1.8C100.3,218.5,100.7,216.8,101.7,215.7z M102.6,215.8c-0.2,0.3-0.5,0.8-0.8,1.6c0.8,0,1.7-0.1,2.2-0.4
			c0.4-0.2,0.6-0.4,0.6-0.9c0-0.5-0.3-1-0.9-1C103.3,215.2,102.9,215.4,102.6,215.8z"/>
		<path d="M110.6,215.5c0-0.1,0-0.1-0.1-0.2c-0.2-0.1-0.4-0.2-0.8-0.2c-0.2,0-0.6,0-0.9,0.2s-0.6,0.5-0.6,0.9c0,0.6,0.4,0.8,1.1,1.1
			c1,0.5,1.6,0.9,1.6,1.8c0,0.7-0.4,1.4-1.1,1.8c-0.5,0.3-1,0.4-1.9,0.4c-0.6,0-1.3-0.1-1.5-0.3c0-0.6,0.1-1.3,0.1-1.9
			c0.2,0,0.5,0,0.7,0l0.1,1.1c0,0.1,0,0.1,0.1,0.2c0.2,0.1,0.5,0.2,0.9,0.2c0.4,0,0.8-0.1,1-0.2c0.3-0.2,0.5-0.5,0.5-1
			c0-0.7-0.5-0.9-1.1-1.2c-0.9-0.4-1.6-0.8-1.6-1.8c0-0.8,0.6-1.4,1.2-1.7c0.5-0.2,1.1-0.3,1.7-0.3c0.6,0,1.2,0.2,1.5,0.3
			c-0.1,0.6-0.1,1.2-0.2,1.8c-0.2,0-0.5,0-0.7,0L110.6,215.5z"/>
		<path d="M115.7,215.5c0-0.2,0-0.5,0-0.7c1-0.2,1.9-0.4,2-0.4c0.1,0,0.3,0.2,0.4,0.3c-0.1,0.4-0.2,1-0.4,1.7l0.1,0
			c1.2-1.5,2.5-2,3.2-2.1c0.4,0.1,0.8,0.4,1,0.8c0.1,0.2,0.1,0.3,0.1,0.5c0,0.7-0.5,2.7-1.2,4.7c0,0.1,0,0.1,0.1,0.1
			c0.2,0,0.6-0.1,1.1-0.2c0,0.2,0.1,0.4,0.1,0.7c-0.6,0.2-1.4,0.4-2,0.4c-0.1,0-0.4-0.2-0.4-0.5c0.3-0.8,0.8-2.4,1-3.2
			c0.1-0.5,0.3-1.2,0.3-1.6c0-0.3-0.1-0.6-0.5-0.6c-1,0-2.8,1.7-3,2.6c-0.2,0.6-0.6,2.5-0.8,3.1c-0.4,0-0.7,0-1.1,0
			c0.3-1.4,1-4,1.3-5.7L115.7,215.5z"/>
		<path d="M124.9,215.7c0.8-0.9,1.5-1.2,2.3-1.2c1.1,0,1.7,0.9,1.7,1.7c-0.1,0.5-0.4,1.2-0.9,1.4c-0.9,0.5-1.9,0.6-3.3,0.6
			c-0.1,0.4-0.2,0.9-0.2,1.2c0,0.7,0.4,1.2,1.1,1.2c0.6,0,1.6-0.3,2.5-0.8c0.1,0.2,0.2,0.4,0.2,0.6c-0.9,0.5-2,1.1-3.1,1.1
			c-0.8,0-1.8-0.6-1.8-1.8C123.4,218.5,123.8,216.8,124.9,215.7z M125.7,215.8c-0.2,0.3-0.5,0.8-0.8,1.6c0.8,0,1.7-0.1,2.2-0.4
			c0.4-0.2,0.6-0.4,0.6-0.9c0-0.5-0.3-1-0.9-1C126.4,215.2,126,215.4,125.7,215.8z"/>
		<path d="M132.1,220.4c0.4,0,1.1-0.1,1.8-0.3c0,0.2,0,0.5,0.1,0.7c-0.9,0.3-1.8,0.5-2.4,0.5c-0.4,0-1.1-0.4-1.3-1
			c0-0.1,0-0.2,0-0.3c0-0.5,0.5-2.4,0.5-2.8c0.1-0.5,0.3-1.4,0.4-1.9c-0.3,0-0.8,0-1.2,0c0-0.2,0.1-0.5,0.1-0.7
			c0.4,0,0.8-0.1,1.2-0.1c0,0,0.1,0,0.1-0.1c0.1-0.4,0.3-1,0.4-1.5c0.4-0.2,0.9-0.3,1-0.3c0,0,0,0,0,0.1c-0.1,0.5-0.2,1.2-0.4,1.8
			c0.8,0,1.6,0,2.4,0c0,0.3-0.1,0.6-0.2,0.8c-0.7,0-1.5,0-2.4,0c-0.1,0.4-0.3,1.4-0.4,1.9c-0.2,0.7-0.5,2.1-0.5,2.5
			C131.4,220.2,131.7,220.4,132.1,220.4z"/>
		<path d="M138.5,215.5c0-0.2,0-0.5,0-0.7c1.2-0.2,2-0.4,2.2-0.4c0.1,0,0.3,0.2,0.4,0.4c-0.4,1.5-1.2,4.8-1.3,5.6
			c0,0.1,0,0.1,0.1,0.1c0.2,0,0.7-0.1,1.2-0.2c0.1,0.2,0.1,0.4,0.1,0.7c-0.6,0.2-1.4,0.3-2,0.3c-0.1,0-0.5-0.3-0.5-0.5
			c0.3-1.5,0.8-3.6,1.2-5.4L138.5,215.5z M141.6,212.2c0,0.4-0.4,0.8-0.8,0.8c-0.5,0-0.8-0.4-0.8-0.8c0-0.4,0.3-0.8,0.9-0.8
			C141.4,211.4,141.6,211.9,141.6,212.2z"/>
		<path d="M142.5,215.5c0-0.2,0-0.4,0-0.7c1.2-0.2,1.8-0.4,2-0.4c0.1,0,0.3,0.2,0.4,0.3c-0.1,0.4-0.2,0.9-0.4,1.6l0.1,0
			c1.2-1.5,2.2-2,2.8-2c0.3,0,0.7,0.3,0.9,0.7c0.1,0.1,0.1,0.3,0.1,0.4c0,0.1,0,0.5-0.1,0.9l0.1,0c1.2-1.5,2.2-2,2.9-2
			c0.3,0,0.8,0.3,1,0.8c0.1,0.1,0.1,0.3,0.1,0.5c0,0.6-0.5,2.6-1.2,4.7c0,0,0,0.1,0,0.1c0.2,0,0.6-0.1,1.1-0.2
			c0,0.2,0.1,0.4,0.1,0.7c-0.7,0.2-1.3,0.4-2,0.4c-0.1,0-0.3-0.2-0.4-0.5c0.3-0.8,0.7-2.3,0.8-3c0.1-0.4,0.3-1.3,0.3-1.8
			c0-0.2-0.1-0.5-0.5-0.5c-0.9,0-2.5,1.8-2.7,2.7c-0.2,0.9-0.5,2-0.7,3c-0.3,0-0.7,0-1,0c0.2-0.8,0.7-2.8,0.9-3.6
			c0.1-0.5,0.3-1.3,0.3-1.7c0-0.2-0.1-0.5-0.4-0.5c-0.9,0-2.5,1.8-2.8,2.7c-0.2,0.6-0.6,2.4-0.7,3c-0.3,0-0.7,0-1,0
			c0.3-1.4,0.9-4,1.3-5.8L142.5,215.5z"/>
		<path d="M155.9,216.7c1.2-1.5,2.2-2.3,3.2-2.3c0.4,0,0.8,0.4,1.1,0.9c0.1,0.2,0.1,0.4,0.1,0.6c0,1-0.3,2.4-0.9,3.5
			c-0.5,0.9-1.4,1.9-2.7,1.9c-0.5,0-1.1-0.2-1.5-0.6c-0.2,1.2-0.6,2.9-0.8,4.1c-0.3,0-0.7,0-1.1,0c0.6-2.9,1.3-6.6,1.8-9.4l-1.3,0.1
			c0-0.2,0-0.5,0-0.7c1.3-0.2,1.8-0.4,1.9-0.4c0.1,0,0.3,0.2,0.4,0.3c-0.1,0.5-0.3,1.2-0.4,1.9L155.9,216.7z M158.6,215.4
			c-1,0-2.7,2-3,2.9c-0.1,0.3-0.2,1.2-0.3,1.5c0.3,0.4,0.9,0.7,1.3,0.7c0.9,0,1.5-0.7,1.8-1.4c0.5-0.9,0.7-2.1,0.7-3
			C159.1,215.7,158.9,215.4,158.6,215.4z"/>
		<path d="M165.4,220.4c-0.6,0.5-1.2,0.9-2.2,0.9c-0.8,0-1.3-0.3-1.6-0.7c-0.2-0.3-0.5-0.8-0.5-1.4c0-1.5,0.6-3,1.6-3.9
			c0.7-0.7,1.4-0.9,2.2-0.9c0.7,0,1.1,0.2,1.5,0.6c0.3,0.3,0.6,0.9,0.6,1.7C167,218,166.5,219.4,165.4,220.4z M164.9,219.9
			c0.5-0.7,1-2,1-3.1c0-0.6-0.1-0.9-0.2-1.2c-0.2-0.3-0.4-0.5-0.9-0.5c-0.5,0-1,0.3-1.5,0.9c-0.4,0.5-0.9,1.8-0.9,3.1
			c0,0.5,0.1,0.8,0.2,1.1c0.2,0.3,0.5,0.4,0.9,0.4C164,220.6,164.5,220.3,164.9,219.9z"/>
		<path d="M168.3,215.5c0-0.2,0-0.5,0-0.7c1-0.2,1.9-0.4,2-0.4c0.1,0,0.3,0.2,0.4,0.4c-0.1,0.4-0.2,1-0.5,1.9l0.1,0
			c0.9-1.4,1.9-2.3,2.5-2.3c0.3,0,0.6,0.1,0.8,0.2c0,0.4-0.3,1.1-0.5,1.2c-0.1,0-0.4-0.2-0.6-0.2c-0.6,0-2.1,1.7-2.5,3
			c-0.1,0.5-0.4,1.8-0.6,2.4c-0.4,0-0.7,0-1.1,0c0.3-1.3,0.9-4,1.3-5.8L168.3,215.5z"/>
		<path d="M176.3,220.4c0.4,0,1.1-0.1,1.8-0.3c0,0.2,0,0.5,0.1,0.7c-0.9,0.3-1.8,0.5-2.4,0.5c-0.4,0-1.1-0.4-1.3-1
			c0-0.1,0-0.2,0-0.3c0-0.5,0.5-2.4,0.5-2.8c0.1-0.5,0.3-1.4,0.4-1.9c-0.3,0-0.8,0-1.2,0c0-0.2,0.1-0.5,0.1-0.7
			c0.4,0,0.8-0.1,1.2-0.1c0,0,0.1,0,0.1-0.1c0.1-0.4,0.3-1,0.4-1.5c0.4-0.2,0.9-0.3,1-0.3c0,0,0,0,0,0.1c-0.1,0.5-0.2,1.2-0.4,1.8
			c0.8,0,1.6,0,2.4,0c0,0.3-0.1,0.6-0.2,0.8c-0.7,0-1.5,0-2.4,0c-0.1,0.4-0.3,1.4-0.4,1.9c-0.2,0.7-0.5,2.1-0.5,2.5
			C175.6,220.2,175.9,220.4,176.3,220.4z"/>
	</g>
	<g enable-background="new    ">
		<path d="M59.2,249.7c0-0.2,0-0.5,0-0.7c1.2-0.2,2-0.4,2.2-0.4c0.1,0,0.3,0.2,0.4,0.4c-0.4,1.5-1.2,4.8-1.3,5.6
			c0,0.1,0,0.1,0.1,0.1c0.2,0,0.7-0.1,1.2-0.2c0.1,0.2,0.1,0.4,0.1,0.7c-0.6,0.2-1.4,0.3-2,0.3c-0.1,0-0.5-0.3-0.5-0.5
			c0.3-1.5,0.8-3.6,1.2-5.4L59.2,249.7z M62.3,246.4c0,0.4-0.4,0.8-0.8,0.8c-0.5,0-0.8-0.4-0.8-0.8c0-0.4,0.3-0.8,0.9-0.8
			C62.1,245.6,62.3,246.1,62.3,246.4z"/>
		<path d="M63.2,249.8c0-0.2,0-0.5,0-0.7c1-0.2,1.9-0.4,2-0.4c0.1,0,0.3,0.2,0.4,0.3c-0.1,0.4-0.2,1-0.4,1.7l0.1,0
			c1.2-1.5,2.5-2,3.2-2.1c0.4,0.1,0.8,0.4,1,0.8c0.1,0.2,0.1,0.3,0.1,0.5c0,0.7-0.5,2.7-1.2,4.7c0,0.1,0,0.1,0.1,0.1
			c0.2,0,0.6-0.1,1.1-0.2c0,0.2,0.1,0.4,0.1,0.7c-0.6,0.2-1.4,0.4-2,0.4c-0.1,0-0.4-0.2-0.4-0.5c0.3-0.8,0.8-2.4,1-3.2
			c0.1-0.5,0.3-1.2,0.3-1.6c0-0.3-0.1-0.6-0.5-0.6c-1,0-2.8,1.7-3,2.6c-0.2,0.6-0.6,2.5-0.8,3.1c-0.4,0-0.7,0-1.1,0
			c0.3-1.4,1-4,1.3-5.7L63.2,249.8z"/>
		<path d="M75.2,253.5c-1.2,1.4-2.4,2.1-3,2.1c-0.4,0-0.9-0.4-1.2-0.8c-0.1-0.2-0.2-0.4-0.2-0.6c0-0.7,0.2-1.6,0.5-2.4
			c0.5-1.3,1.6-3.1,3.1-3.1c0.7,0,1.2,0.3,1.6,0.6h0.1c0.3-1.1,0.6-2.6,0.9-3.8l-1.4,0.1c0-0.2,0-0.5,0-0.7c1.3-0.2,2.2-0.4,2.3-0.4
			c0.1,0,0.3,0.2,0.4,0.3c-0.3,1.2-2,8.7-2.3,9.8c0,0,0,0.1,0.1,0.1c0.1,0,0.5-0.1,1-0.2c0.1,0.2,0.1,0.4,0.1,0.6
			c-0.7,0.3-1.3,0.4-1.8,0.4c-0.1,0-0.4-0.2-0.4-0.4C74.9,254.9,75.1,254.3,75.2,253.5L75.2,253.5z M75.5,252
			c0.1-0.4,0.3-1.4,0.4-1.9c-0.3-0.4-0.9-0.6-1.4-0.6c-0.9,0-1.6,1-2,2c-0.3,0.8-0.5,1.8-0.5,2.4c0,0.5,0.3,0.7,0.6,0.7
			C73.4,254.6,75.2,252.8,75.5,252z"/>
		<path d="M78.5,249.7c0-0.2,0-0.5,0-0.7c1.2-0.2,2-0.4,2.2-0.4c0.1,0,0.3,0.2,0.4,0.4c-0.4,1.5-1.2,4.8-1.3,5.6
			c0,0.1,0,0.1,0.1,0.1c0.2,0,0.7-0.1,1.2-0.2c0.1,0.2,0.1,0.4,0.1,0.7c-0.6,0.2-1.4,0.3-2,0.3c-0.1,0-0.5-0.3-0.5-0.5
			c0.3-1.5,0.8-3.6,1.2-5.4L78.5,249.7z M81.6,246.4c0,0.4-0.4,0.8-0.8,0.8c-0.5,0-0.8-0.4-0.8-0.8c0-0.4,0.3-0.8,0.9-0.8
			C81.4,245.6,81.6,246.1,81.6,246.4z"/>
		<path d="M83.7,249.9c0.8-0.9,1.6-1.2,2.7-1.2c0.5,0,0.9,0.2,1.1,0.3c0,0.3-0.5,0.9-0.6,1c-0.1-0.1-0.7-0.4-1.1-0.4
			c-0.5,0-1,0.3-1.2,0.7c-0.5,0.7-1,2-1,3c0,1,0.5,1.4,1.2,1.4c0.5,0,1.3-0.3,1.9-0.5c0.1,0.2,0.1,0.4,0.2,0.6
			c-0.7,0.3-1.7,0.8-2.5,0.8c-1,0-2-0.7-2-2C82.3,252.5,82.6,251,83.7,249.9z"/>
		<path d="M92,253.5c-1.4,1.6-2.4,2-3,2c-0.3-0.1-0.9-0.4-1.1-0.8c-0.1-0.2-0.1-0.4-0.1-0.6c0-0.6,0.2-1.5,0.5-2.3
			c0.5-1.3,1.6-3.1,3-3.1c0.6,0,1.1,0.3,1.5,0.8h0.1l0.3-0.8c0.3,0.1,0.6,0.2,0.9,0.3c-0.4,1.4-1.1,4.2-1.5,5.8c0,0,0,0.1,0.1,0.1
			c0.1,0,0.5-0.1,1.1-0.3c0.1,0.2,0.1,0.4,0.1,0.7c-0.7,0.2-1.4,0.4-1.9,0.4c0,0-0.3-0.2-0.4-0.4C91.7,254.8,91.9,254.2,92,253.5
			L92,253.5z M89.5,251.4c-0.4,0.8-0.6,1.8-0.6,2.6c0,0.5,0.2,0.7,0.5,0.7c0.7,0,2.5-1.7,2.8-2.5c0.1-0.3,0.4-1.4,0.5-1.9
			c-0.3-0.5-0.8-0.8-1.4-0.8C90.5,249.5,89.9,250.5,89.5,251.4z"/>
		<path d="M97.4,254.7c0.4,0,1.1-0.1,1.8-0.3c0,0.2,0,0.5,0.1,0.7c-0.9,0.3-1.8,0.5-2.4,0.5c-0.4,0-1.1-0.4-1.3-1c0-0.1,0-0.2,0-0.3
			c0-0.5,0.5-2.4,0.5-2.8c0.1-0.5,0.3-1.4,0.4-1.9c-0.3,0-0.8,0-1.2,0c0-0.2,0.1-0.5,0.1-0.7c0.4,0,0.8-0.1,1.2-0.1
			c0,0,0.1,0,0.1-0.1c0.1-0.4,0.3-1,0.4-1.5c0.4-0.2,0.9-0.3,1-0.3c0,0,0,0,0,0.1c-0.1,0.5-0.2,1.2-0.4,1.8c0.8,0,1.6,0,2.4,0
			c0,0.3-0.1,0.6-0.2,0.8c-0.7,0-1.5,0-2.4,0c-0.1,0.4-0.3,1.4-0.4,1.9c-0.2,0.7-0.5,2.1-0.5,2.5C96.7,254.5,97,254.7,97.4,254.7z"
			/>
		<path d="M101.7,249.9c0.8-0.9,1.5-1.2,2.3-1.2c1.1,0,1.7,0.9,1.7,1.7c-0.1,0.5-0.4,1.2-0.9,1.4c-0.9,0.5-1.9,0.6-3.3,0.6
			c-0.1,0.4-0.2,0.9-0.2,1.2c0,0.7,0.4,1.2,1.1,1.2c0.6,0,1.6-0.3,2.5-0.8c0.1,0.2,0.2,0.4,0.2,0.6c-0.9,0.5-2,1.1-3.1,1.1
			c-0.8,0-1.8-0.6-1.8-1.8C100.3,252.7,100.7,251.1,101.7,249.9z M102.6,250.1c-0.2,0.3-0.5,0.8-0.8,1.6c0.8,0,1.7-0.1,2.2-0.4
			c0.4-0.2,0.6-0.4,0.6-0.9c0-0.5-0.3-1-0.9-1C103.3,249.4,102.9,249.7,102.6,250.1z"/>
		<path d="M110.6,249.8c0-0.1,0-0.1-0.1-0.2c-0.2-0.1-0.4-0.2-0.8-0.2c-0.2,0-0.6,0-0.9,0.2s-0.6,0.5-0.6,0.9c0,0.6,0.4,0.8,1.1,1.1
			c1,0.5,1.6,0.9,1.6,1.8c0,0.7-0.4,1.4-1.1,1.8c-0.5,0.3-1,0.4-1.9,0.4c-0.6,0-1.3-0.1-1.5-0.3c0-0.6,0.1-1.3,0.1-1.9
			c0.2,0,0.5,0,0.7,0l0.1,1.1c0,0.1,0,0.1,0.1,0.2c0.2,0.1,0.5,0.2,0.9,0.2c0.4,0,0.8-0.1,1-0.2c0.3-0.2,0.5-0.5,0.5-1
			c0-0.7-0.5-0.9-1.1-1.2c-0.9-0.4-1.6-0.8-1.6-1.8c0-0.8,0.6-1.4,1.2-1.7c0.5-0.2,1.1-0.3,1.7-0.3c0.6,0,1.2,0.2,1.5,0.3
			c-0.1,0.6-0.1,1.2-0.2,1.8c-0.2,0-0.5,0-0.7,0L110.6,249.8z"/>
		<path d="M115.7,249.8c0-0.2,0-0.5,0-0.7c1-0.2,1.9-0.4,2-0.4c0.1,0,0.3,0.2,0.4,0.3c-0.1,0.4-0.2,1-0.4,1.7l0.1,0
			c1.2-1.5,2.5-2,3.2-2.1c0.4,0.1,0.8,0.4,1,0.8c0.1,0.2,0.1,0.3,0.1,0.5c0,0.7-0.5,2.7-1.2,4.7c0,0.1,0,0.1,0.1,0.1
			c0.2,0,0.6-0.1,1.1-0.2c0,0.2,0.1,0.4,0.1,0.7c-0.6,0.2-1.4,0.4-2,0.4c-0.1,0-0.4-0.2-0.4-0.5c0.3-0.8,0.8-2.4,1-3.2
			c0.1-0.5,0.3-1.2,0.3-1.6c0-0.3-0.1-0.6-0.5-0.6c-1,0-2.8,1.7-3,2.6c-0.2,0.6-0.6,2.5-0.8,3.1c-0.4,0-0.7,0-1.1,0
			c0.3-1.4,1-4,1.3-5.7L115.7,249.8z"/>
		<path d="M124.9,249.9c0.8-0.9,1.5-1.2,2.3-1.2c1.1,0,1.7,0.9,1.7,1.7c-0.1,0.5-0.4,1.2-0.9,1.4c-0.9,0.5-1.9,0.6-3.3,0.6
			c-0.1,0.4-0.2,0.9-0.2,1.2c0,0.7,0.4,1.2,1.1,1.2c0.6,0,1.6-0.3,2.5-0.8c0.1,0.2,0.2,0.4,0.2,0.6c-0.9,0.5-2,1.1-3.1,1.1
			c-0.8,0-1.8-0.6-1.8-1.8C123.4,252.7,123.8,251.1,124.9,249.9z M125.7,250.1c-0.2,0.3-0.5,0.8-0.8,1.6c0.8,0,1.7-0.1,2.2-0.4
			c0.4-0.2,0.6-0.4,0.6-0.9c0-0.5-0.3-1-0.9-1C126.4,249.4,126,249.7,125.7,250.1z"/>
		<path d="M132.1,254.7c0.4,0,1.1-0.1,1.8-0.3c0,0.2,0,0.5,0.1,0.7c-0.9,0.3-1.8,0.5-2.4,0.5c-0.4,0-1.1-0.4-1.3-1
			c0-0.1,0-0.2,0-0.3c0-0.5,0.5-2.4,0.5-2.8c0.1-0.5,0.3-1.4,0.4-1.9c-0.3,0-0.8,0-1.2,0c0-0.2,0.1-0.5,0.1-0.7
			c0.4,0,0.8-0.1,1.2-0.1c0,0,0.1,0,0.1-0.1c0.1-0.4,0.3-1,0.4-1.5c0.4-0.2,0.9-0.3,1-0.3c0,0,0,0,0,0.1c-0.1,0.5-0.2,1.2-0.4,1.8
			c0.8,0,1.6,0,2.4,0c0,0.3-0.1,0.6-0.2,0.8c-0.7,0-1.5,0-2.4,0c-0.1,0.4-0.3,1.4-0.4,1.9c-0.2,0.7-0.5,2.1-0.5,2.5
			C131.4,254.5,131.7,254.7,132.1,254.7z"/>
		<path d="M139.8,249.9c0.8-0.9,1.5-1.2,2.3-1.2c1.1,0,1.7,0.9,1.7,1.7c-0.1,0.5-0.4,1.2-0.9,1.4c-0.9,0.5-1.9,0.6-3.3,0.6
			c-0.1,0.4-0.2,0.9-0.2,1.2c0,0.7,0.4,1.2,1.1,1.2c0.6,0,1.6-0.3,2.5-0.8c0.1,0.2,0.2,0.4,0.2,0.6c-0.9,0.5-2,1.1-3.1,1.1
			c-0.8,0-1.8-0.6-1.8-1.8C138.3,252.7,138.7,251.1,139.8,249.9z M140.6,250.1c-0.2,0.3-0.5,0.8-0.8,1.6c0.8,0,1.7-0.1,2.2-0.4
			c0.4-0.2,0.6-0.4,0.6-0.9c0-0.5-0.3-1-0.9-1C141.3,249.4,140.9,249.7,140.6,250.1z"/>
		<path d="M147.8,251.1c0.9-1.1,2.2-2.5,2.6-2.5c0.2,0,0.6,0.5,0.7,0.8c-0.8,0.4-1.8,1-3.1,2.3l0,0.1c0.5,1.2,0.7,1.8,1.1,2.7
			c0,0.1,0.1,0.1,0.2,0.1c0.2,0,0.6-0.1,1-0.2c0,0.2,0.1,0.4,0.1,0.7c-0.5,0.2-1.5,0.3-2.1,0.3c-0.3-0.6-0.7-1.8-1.1-3h-0.1
			c-0.9,1-1.6,2.2-1.9,3c-0.3,0-0.9,0-1.3,0c0.2-0.8,1.7-2.5,3-3.7l0-0.1c-0.2-0.6-0.5-1.3-0.8-2.1l-1.2,0.3
			c-0.1-0.2-0.1-0.4-0.2-0.6c0.8-0.3,1.7-0.6,1.8-0.6c0.1,0,0.4,0.1,0.5,0.2C147.3,249.7,147.5,250.4,147.8,251.1L147.8,251.1z"/>
		<path d="M153.7,250.9c1.2-1.5,2.2-2.3,3.2-2.3c0.4,0,0.8,0.4,1.1,0.9c0.1,0.2,0.1,0.4,0.1,0.6c0,1-0.3,2.4-0.9,3.5
			c-0.5,0.9-1.4,1.9-2.7,1.9c-0.5,0-1.1-0.2-1.5-0.6c-0.2,1.2-0.6,2.9-0.8,4.1c-0.3,0-0.7,0-1.1,0c0.6-2.9,1.3-6.6,1.8-9.4l-1.3,0.1
			c0-0.2,0-0.5,0-0.7c1.3-0.2,1.8-0.4,1.9-0.4c0.1,0,0.3,0.2,0.4,0.3c-0.1,0.5-0.3,1.2-0.4,1.9L153.7,250.9z M156.4,249.6
			c-1,0-2.7,2-3,2.9c-0.1,0.3-0.2,1.2-0.3,1.5c0.3,0.4,0.9,0.7,1.3,0.7c0.9,0,1.5-0.7,1.8-1.4c0.5-0.9,0.7-2.1,0.7-3
			C156.9,250,156.7,249.6,156.4,249.6z"/>
		<path d="M163.2,254.7c-0.6,0.5-1.2,0.9-2.2,0.9c-0.8,0-1.3-0.3-1.6-0.7c-0.2-0.3-0.5-0.8-0.5-1.4c0-1.5,0.6-3,1.6-3.9
			c0.7-0.7,1.4-0.9,2.2-0.9c0.7,0,1.1,0.2,1.5,0.6c0.3,0.3,0.6,0.9,0.6,1.7C164.8,252.3,164.3,253.6,163.2,254.7z M162.7,254.1
			c0.5-0.7,1-2,1-3.1c0-0.6-0.1-0.9-0.2-1.2c-0.2-0.3-0.4-0.5-0.9-0.5c-0.5,0-1,0.3-1.5,0.9c-0.4,0.5-0.9,1.8-0.9,3.1
			c0,0.5,0.1,0.8,0.2,1.1c0.2,0.3,0.5,0.4,0.9,0.4C161.8,254.8,162.3,254.5,162.7,254.1z"/>
		<path d="M166.1,249.7c0-0.2,0-0.5,0-0.7c1-0.2,1.9-0.4,2-0.4c0.1,0,0.3,0.2,0.4,0.4c-0.1,0.4-0.2,1-0.5,1.9l0.1,0
			c0.9-1.4,1.9-2.3,2.5-2.3c0.3,0,0.6,0.1,0.8,0.2c0,0.4-0.3,1.1-0.5,1.2c-0.1,0-0.4-0.2-0.6-0.2c-0.6,0-2.1,1.7-2.5,3
			c-0.1,0.5-0.4,1.8-0.6,2.4c-0.4,0-0.7,0-1.1,0c0.3-1.3,0.9-4,1.3-5.8L166.1,249.7z"/>
		<path d="M174.1,254.7c0.4,0,1.1-0.1,1.8-0.3c0,0.2,0,0.5,0.1,0.7c-0.9,0.3-1.8,0.5-2.4,0.5c-0.4,0-1.1-0.4-1.3-1
			c0-0.1,0-0.2,0-0.3c0-0.5,0.5-2.4,0.5-2.8c0.1-0.5,0.3-1.4,0.4-1.9c-0.3,0-0.8,0-1.2,0c0-0.2,0.1-0.5,0.1-0.7
			c0.4,0,0.8-0.1,1.2-0.1c0,0,0.1,0,0.1-0.1c0.1-0.4,0.3-1,0.4-1.5c0.4-0.2,0.9-0.3,1-0.3c0,0,0,0,0,0.1c-0.1,0.5-0.2,1.2-0.4,1.8
			c0.8,0,1.6,0,2.4,0c0,0.3-0.1,0.6-0.2,0.8c-0.7,0-1.5,0-2.4,0c-0.1,0.4-0.3,1.4-0.4,1.9c-0.2,0.7-0.5,2.1-0.5,2.5
			C173.4,254.5,173.7,254.7,174.1,254.7z"/>
	</g>
</g>
<g>
	<g enable-background="new    ">
		<path d="M230.2,212.6c0.4,0,1.1-0.1,1.8-0.3c0,0.2,0,0.5,0.1,0.7c-0.9,0.3-1.8,0.5-2.4,0.5c-0.4,0-1.1-0.4-1.3-1
			c0-0.1,0-0.2,0-0.3c0-0.5,0.5-2.4,0.5-2.8c0.1-0.5,0.3-1.4,0.4-1.9c-0.3,0-0.8,0-1.2,0c0-0.2,0.1-0.5,0.1-0.7
			c0.4,0,0.8-0.1,1.2-0.1c0,0,0.1,0,0.1-0.1c0.1-0.4,0.3-1,0.4-1.5c0.4-0.2,0.9-0.3,1-0.3c0,0,0,0,0,0.1c-0.1,0.5-0.2,1.2-0.4,1.8
			c0.8,0,1.6,0,2.4,0c0,0.3-0.1,0.6-0.2,0.8c-0.7,0-1.5,0-2.4,0c-0.1,0.4-0.3,1.4-0.4,1.9c-0.2,0.7-0.5,2.1-0.5,2.5
			C229.5,212.4,229.7,212.6,230.2,212.6z"/>
		<path d="M233.5,207.7c0-0.2,0-0.5,0-0.7c1-0.2,1.9-0.4,2-0.4c0.1,0,0.3,0.2,0.4,0.4c-0.1,0.4-0.2,1-0.5,1.9l0.1,0
			c0.9-1.4,1.9-2.3,2.5-2.3c0.3,0,0.6,0.1,0.8,0.2c0,0.4-0.3,1.1-0.5,1.2c-0.1,0-0.4-0.2-0.6-0.2c-0.6,0-2.1,1.7-2.5,3
			c-0.1,0.5-0.4,1.8-0.6,2.4c-0.4,0-0.7,0-1.1,0c0.3-1.3,0.9-4,1.3-5.8L233.5,207.7z"/>
		<path d="M242.7,211.4c-1.4,1.6-2.4,2-3,2c-0.3-0.1-0.9-0.4-1.1-0.8c-0.1-0.2-0.1-0.4-0.1-0.6c0-0.6,0.2-1.5,0.5-2.3
			c0.5-1.3,1.6-3.1,3-3.1c0.6,0,1.1,0.3,1.5,0.8h0.1l0.3-0.8c0.3,0.1,0.6,0.2,0.9,0.3c-0.4,1.4-1.1,4.2-1.5,5.8c0,0,0,0.1,0.1,0.1
			c0.1,0,0.5-0.1,1.1-0.3c0.1,0.2,0.1,0.4,0.1,0.7c-0.7,0.2-1.4,0.4-1.9,0.4c0,0-0.3-0.2-0.4-0.4
			C242.4,212.8,242.6,212.1,242.7,211.4L242.7,211.4z M240.3,209.3c-0.4,0.8-0.6,1.8-0.6,2.6c0,0.5,0.2,0.7,0.5,0.7
			c0.7,0,2.5-1.7,2.8-2.5c0.1-0.3,0.4-1.4,0.5-1.9c-0.3-0.5-0.8-0.8-1.4-0.8C241.3,207.4,240.6,208.4,240.3,209.3z"/>
		<path d="M246.1,207.7c0-0.2,0-0.5,0-0.7c1-0.2,1.9-0.4,2-0.4c0.1,0,0.3,0.2,0.4,0.3c-0.1,0.4-0.2,1-0.4,1.7l0.1,0
			c1.2-1.5,2.5-2,3.2-2.1c0.4,0.1,0.8,0.4,1,0.8c0.1,0.2,0.1,0.3,0.1,0.5c0,0.7-0.5,2.7-1.2,4.7c0,0.1,0,0.1,0.1,0.1
			c0.2,0,0.6-0.1,1.1-0.2c0,0.2,0.1,0.4,0.1,0.7c-0.6,0.2-1.4,0.4-2,0.4c-0.1,0-0.4-0.2-0.4-0.5c0.3-0.8,0.8-2.4,1-3.2
			c0.1-0.5,0.3-1.2,0.3-1.6c0-0.3-0.1-0.6-0.5-0.6c-1,0-2.8,1.7-3,2.6c-0.2,0.6-0.6,2.5-0.8,3.1c-0.4,0-0.7,0-1.1,0
			c0.3-1.4,1-4,1.3-5.7L246.1,207.7z"/>
		<path d="M257.8,207.7c0-0.1,0-0.1-0.1-0.2c-0.2-0.1-0.4-0.2-0.8-0.2c-0.2,0-0.6,0-0.9,0.2c-0.3,0.2-0.6,0.5-0.6,0.9
			c0,0.6,0.4,0.8,1.1,1.1c1,0.5,1.6,0.9,1.6,1.8c0,0.7-0.4,1.4-1.1,1.8c-0.5,0.3-1,0.4-1.9,0.4c-0.6,0-1.3-0.1-1.5-0.3
			c0-0.6,0.1-1.3,0.1-1.9c0.2,0,0.5,0,0.7,0l0.1,1.1c0,0.1,0,0.1,0.1,0.2c0.2,0.1,0.5,0.2,0.9,0.2c0.4,0,0.8-0.1,1-0.2
			c0.3-0.2,0.5-0.5,0.5-1c0-0.7-0.5-0.9-1.1-1.2c-0.9-0.4-1.6-0.8-1.6-1.8c0-0.8,0.6-1.4,1.2-1.7c0.5-0.2,1.1-0.3,1.7-0.3
			c0.6,0,1.2,0.2,1.5,0.3c-0.1,0.6-0.1,1.2-0.2,1.8c-0.2,0-0.5,0-0.7,0L257.8,207.7z"/>
		<path d="M261.7,208.9c1.2-1.5,2.2-2.3,3.2-2.3c0.4,0,0.8,0.4,1.1,0.9c0.1,0.2,0.1,0.4,0.1,0.6c0,1-0.3,2.4-0.9,3.5
			c-0.5,0.9-1.4,1.9-2.7,1.9c-0.5,0-1.1-0.2-1.5-0.6c-0.2,1.2-0.6,2.9-0.8,4.1c-0.3,0-0.7,0-1.1,0c0.6-2.9,1.3-6.6,1.8-9.4l-1.3,0.1
			c0-0.2,0-0.5,0-0.7c1.3-0.2,1.8-0.4,1.9-0.4s0.3,0.2,0.4,0.3c-0.1,0.5-0.3,1.2-0.4,1.9L261.7,208.9z M264.4,207.5
			c-1,0-2.7,2-3,2.9c-0.1,0.3-0.2,1.2-0.3,1.5c0.3,0.4,0.9,0.7,1.3,0.7c0.9,0,1.5-0.7,1.8-1.4c0.5-0.9,0.7-2.1,0.7-3
			C265,207.9,264.8,207.5,264.4,207.5z"/>
		<path d="M271.3,212.6c-0.6,0.5-1.2,0.9-2.2,0.9c-0.8,0-1.3-0.3-1.6-0.7c-0.2-0.3-0.5-0.8-0.5-1.4c0-1.5,0.6-3,1.6-3.9
			c0.7-0.7,1.4-0.9,2.2-0.9c0.7,0,1.1,0.2,1.5,0.6c0.3,0.3,0.6,0.9,0.6,1.7C272.9,210.2,272.3,211.6,271.3,212.6z M270.7,212
			c0.5-0.7,1-2,1-3.1c0-0.6-0.1-0.9-0.2-1.2c-0.2-0.3-0.4-0.5-0.9-0.5c-0.5,0-1,0.3-1.5,0.9c-0.4,0.5-0.9,1.8-0.9,3.1
			c0,0.5,0.1,0.8,0.2,1.1c0.2,0.3,0.5,0.4,0.9,0.4C269.9,212.8,270.4,212.5,270.7,212z"/>
		<path d="M274.2,207.7c0-0.2,0-0.5,0-0.7c1-0.2,1.9-0.4,2-0.4c0.1,0,0.3,0.2,0.4,0.4c-0.1,0.4-0.2,1-0.5,1.9l0.1,0
			c0.9-1.4,1.9-2.3,2.5-2.3c0.3,0,0.6,0.1,0.8,0.2c0,0.4-0.3,1.1-0.5,1.2c-0.1,0-0.4-0.2-0.6-0.2c-0.6,0-2.1,1.7-2.5,3
			c-0.1,0.5-0.4,1.8-0.6,2.4c-0.4,0-0.7,0-1.1,0c0.3-1.3,0.9-4,1.3-5.8L274.2,207.7z"/>
		<path d="M282.2,212.6c0.4,0,1.1-0.1,1.8-0.3c0,0.2,0,0.5,0.1,0.7c-0.9,0.3-1.8,0.5-2.4,0.5c-0.4,0-1.1-0.4-1.3-1
			c0-0.1,0-0.2,0-0.3c0-0.5,0.5-2.4,0.5-2.8c0.1-0.5,0.3-1.4,0.4-1.9c-0.3,0-0.8,0-1.2,0c0-0.2,0.1-0.5,0.1-0.7
			c0.4,0,0.8-0.1,1.2-0.1c0,0,0.1,0,0.1-0.1c0.1-0.4,0.3-1,0.4-1.5c0.4-0.2,0.9-0.3,1-0.3c0,0,0,0,0,0.1c-0.1,0.5-0.2,1.2-0.4,1.8
			c0.8,0,1.6,0,2.4,0c0,0.3-0.1,0.6-0.2,0.8c-0.7,0-1.5,0-2.4,0c-0.1,0.4-0.3,1.4-0.4,1.9c-0.2,0.7-0.5,2.1-0.5,2.5
			C281.4,212.4,281.7,212.6,282.2,212.6z"/>
		<path d="M289.2,211.4c-1.4,1.6-2.4,2-3,2c-0.3-0.1-0.9-0.4-1.1-0.8c-0.1-0.2-0.1-0.4-0.1-0.6c0-0.6,0.2-1.5,0.5-2.3
			c0.5-1.3,1.6-3.1,3-3.1c0.6,0,1.1,0.3,1.5,0.8h0.1l0.3-0.8c0.3,0.1,0.6,0.2,0.9,0.3c-0.4,1.4-1.1,4.2-1.5,5.8c0,0,0,0.1,0.1,0.1
			c0.1,0,0.5-0.1,1.1-0.3c0.1,0.2,0.1,0.4,0.1,0.7c-0.7,0.2-1.4,0.4-1.9,0.4c0,0-0.3-0.2-0.4-0.4C289,212.8,289.2,212.1,289.2,211.4
			L289.2,211.4z M286.8,209.3c-0.4,0.8-0.6,1.8-0.6,2.6c0,0.5,0.2,0.7,0.5,0.7c0.7,0,2.5-1.7,2.8-2.5c0.1-0.3,0.4-1.4,0.5-1.9
			c-0.3-0.5-0.8-0.8-1.4-0.8C287.8,207.4,287.2,208.4,286.8,209.3z"/>
		<path d="M294.7,212.6c0.4,0,1.1-0.1,1.8-0.3c0,0.2,0,0.5,0.1,0.7c-0.9,0.3-1.8,0.5-2.4,0.5c-0.4,0-1.1-0.4-1.3-1
			c0-0.1,0-0.2,0-0.3c0-0.5,0.5-2.4,0.5-2.8c0.1-0.5,0.3-1.4,0.4-1.9c-0.3,0-0.8,0-1.2,0c0-0.2,0.1-0.5,0.1-0.7
			c0.4,0,0.8-0.1,1.2-0.1c0,0,0.1,0,0.1-0.1c0.1-0.4,0.3-1,0.4-1.5c0.4-0.2,0.9-0.3,1-0.3c0,0,0,0,0,0.1c-0.1,0.5-0.2,1.2-0.4,1.8
			c0.8,0,1.6,0,2.4,0c0,0.3-0.1,0.6-0.2,0.8c-0.7,0-1.5,0-2.4,0c-0.1,0.4-0.3,1.4-0.4,1.9c-0.2,0.7-0.5,2.1-0.5,2.5
			C294,212.4,294.3,212.6,294.7,212.6z"/>
		<path d="M298,207.7c0-0.2,0-0.5,0-0.7c1.2-0.2,2-0.4,2.2-0.4c0.1,0,0.3,0.2,0.4,0.4c-0.4,1.5-1.2,4.8-1.3,5.6c0,0.1,0,0.1,0.1,0.1
			c0.2,0,0.7-0.1,1.2-0.2c0.1,0.2,0.1,0.4,0.1,0.7c-0.6,0.2-1.4,0.3-2,0.3c-0.1,0-0.5-0.3-0.5-0.5c0.3-1.5,0.8-3.6,1.2-5.4
			L298,207.7z M301.1,204.3c0,0.4-0.4,0.8-0.8,0.8c-0.5,0-0.8-0.4-0.8-0.8c0-0.4,0.3-0.8,0.9-0.8C300.8,203.6,301.1,204,301.1,204.3
			z"/>
		<path d="M305.9,212.6c-0.6,0.5-1.2,0.9-2.2,0.9c-0.8,0-1.3-0.3-1.6-0.7c-0.2-0.3-0.5-0.8-0.5-1.4c0-1.5,0.6-3,1.6-3.9
			c0.7-0.7,1.4-0.9,2.2-0.9c0.7,0,1.1,0.2,1.5,0.6c0.3,0.3,0.6,0.9,0.6,1.7C307.5,210.2,306.9,211.6,305.9,212.6z M305.3,212
			c0.5-0.7,1-2,1-3.1c0-0.6-0.1-0.9-0.2-1.2c-0.2-0.3-0.4-0.5-0.9-0.5c-0.5,0-1,0.3-1.5,0.9c-0.4,0.5-0.9,1.8-0.9,3.1
			c0,0.5,0.1,0.8,0.2,1.1c0.2,0.3,0.5,0.4,0.9,0.4C304.5,212.8,305,212.5,305.3,212z"/>
		<path d="M308.7,207.7c0-0.2,0-0.5,0-0.7c1-0.2,1.9-0.4,2-0.4c0.1,0,0.3,0.2,0.4,0.3c-0.1,0.4-0.2,1-0.4,1.7l0.1,0
			c1.2-1.5,2.5-2,3.2-2.1c0.4,0.1,0.8,0.4,1,0.8c0.1,0.2,0.1,0.3,0.1,0.5c0,0.7-0.5,2.7-1.2,4.7c0,0.1,0,0.1,0.1,0.1
			c0.2,0,0.6-0.1,1.1-0.2c0,0.2,0.1,0.4,0.1,0.7c-0.6,0.2-1.4,0.4-2,0.4c-0.1,0-0.4-0.2-0.4-0.5c0.3-0.8,0.8-2.4,1-3.2
			c0.1-0.5,0.3-1.2,0.3-1.6c0-0.3-0.1-0.6-0.5-0.6c-1,0-2.8,1.7-3,2.6c-0.2,0.6-0.6,2.5-0.8,3.1c-0.4,0-0.7,0-1.1,0
			c0.3-1.4,1-4,1.3-5.7L308.7,207.7z"/>
		<path d="M323.8,212.6c-0.6,0.5-1.2,0.9-2.2,0.9c-0.8,0-1.3-0.3-1.6-0.7c-0.2-0.3-0.5-0.8-0.5-1.4c0-1.5,0.6-3,1.6-3.9
			c0.7-0.7,1.4-0.9,2.2-0.9c0.7,0,1.1,0.2,1.5,0.6c0.3,0.3,0.6,0.9,0.6,1.7C325.4,210.2,324.8,211.6,323.8,212.6z M323.2,212
			c0.5-0.7,1-2,1-3.1c0-0.6-0.1-0.9-0.2-1.2c-0.2-0.3-0.4-0.5-0.9-0.5c-0.5,0-1,0.3-1.5,0.9c-0.4,0.5-0.9,1.8-0.9,3.1
			c0,0.5,0.1,0.8,0.2,1.1c0.2,0.3,0.5,0.4,0.9,0.4C322.4,212.8,322.9,212.5,323.2,212z"/>
		<path d="M333,202.9c0,0.3-0.4,0.9-0.6,1c-0.1-0.1-0.7-0.3-1.1-0.3c-0.3,0-0.8,0.2-1.1,0.6c-0.5,0.6-0.6,1.4-0.9,2.6
			c0.7,0,1.5,0,2.2,0c0,0.2-0.1,0.6-0.2,0.8c-0.6,0-1.5,0-2.2,0c-0.5,2.5-1.1,5.4-1.7,8.3c-0.3,0-0.7,0-1.1,0
			c0.6-2.9,1.2-5.7,1.7-8.3c-0.4,0-0.8,0-1.3,0c0-0.2,0.1-0.5,0.2-0.7c0.4,0,0.8,0,1.2,0c0,0,0.1,0,0.1-0.1c0.3-1.4,0.6-2.2,1.3-2.9
			c0.9-0.9,1.8-1.1,2.6-1.1C332.4,202.7,332.8,202.8,333,202.9z"/>
		<path d="M339.4,208.9c-1.1,2.8-2.7,4.5-2.8,4.5c-0.2,0-0.7,0-1.1-0.1c0-1.6,0-4.6,0.1-5.8l-1.2,0.2c0-0.2-0.1-0.5-0.1-0.7
			c1-0.2,1.8-0.5,1.9-0.5c0.1,0,0.4,0.2,0.5,0.4c-0.1,1.8-0.2,4.4-0.2,5.5c0,0.1,0.1,0.1,0.1,0c0.3-0.4,0.8-1,1.2-1.8
			c0.6-1,1.3-2.5,1.6-3.6c0.3-0.1,0.7-0.1,1-0.1c0,1.8,0.1,4.6,0.1,5.6c0,0.1,0.1,0.1,0.1,0c0.4-0.4,0.8-0.9,1.3-1.9
			c0.5-0.9,1.2-2.5,1.2-3.1c0,0,0-0.1-0.1-0.1l-0.9,0.1c0-0.2,0-0.4,0-0.7c0.7-0.1,1.6-0.3,1.7-0.3c0.1,0,0.5,0.4,0.5,0.5
			c0,1-0.9,2.8-1.7,4c-0.8,1.2-1.8,2.3-1.9,2.3c-0.2,0-0.7,0-1.1-0.1C339.5,212.3,339.5,210.7,339.4,208.9L339.4,208.9z"/>
		<path d="M348.9,211.4c-1.4,1.6-2.4,2-3,2c-0.3-0.1-0.9-0.4-1.1-0.8c-0.1-0.2-0.1-0.4-0.1-0.6c0-0.6,0.2-1.5,0.5-2.3
			c0.5-1.3,1.6-3.1,3-3.1c0.6,0,1.1,0.3,1.5,0.8h0.1l0.3-0.8c0.3,0.1,0.6,0.2,0.9,0.3c-0.4,1.4-1.1,4.2-1.5,5.8c0,0,0,0.1,0.1,0.1
			c0.1,0,0.5-0.1,1.1-0.3c0.1,0.2,0.1,0.4,0.1,0.7c-0.7,0.2-1.4,0.4-1.9,0.4c0,0-0.3-0.2-0.4-0.4
			C348.6,212.8,348.8,212.1,348.9,211.4L348.9,211.4z M346.5,209.3c-0.4,0.8-0.6,1.8-0.6,2.6c0,0.5,0.2,0.7,0.5,0.7
			c0.7,0,2.5-1.7,2.8-2.5c0.1-0.3,0.4-1.4,0.5-1.9c-0.3-0.5-0.8-0.8-1.4-0.8C347.5,207.4,346.8,208.4,346.5,209.3z"/>
		<path d="M356.1,207.7c0-0.1,0-0.1-0.1-0.2c-0.2-0.1-0.4-0.2-0.8-0.2c-0.2,0-0.6,0-0.9,0.2c-0.3,0.2-0.6,0.5-0.6,0.9
			c0,0.6,0.4,0.8,1.1,1.1c1,0.5,1.6,0.9,1.6,1.8c0,0.7-0.4,1.4-1.1,1.8c-0.5,0.3-1,0.4-1.9,0.4c-0.6,0-1.3-0.1-1.5-0.3
			c0-0.6,0.1-1.3,0.1-1.9c0.2,0,0.5,0,0.7,0l0.1,1.1c0,0.1,0,0.1,0.1,0.2c0.2,0.1,0.5,0.2,0.9,0.2c0.4,0,0.8-0.1,1-0.2
			c0.3-0.2,0.5-0.5,0.5-1c0-0.7-0.5-0.9-1.1-1.2c-0.9-0.4-1.6-0.8-1.6-1.8c0-0.8,0.6-1.4,1.2-1.7c0.5-0.2,1.1-0.3,1.7-0.3
			c0.6,0,1.2,0.2,1.5,0.3c-0.1,0.6-0.1,1.2-0.2,1.8c-0.2,0-0.5,0-0.7,0L356.1,207.7z"/>
		<path d="M360.2,212.6c0.4,0,1.1-0.1,1.8-0.3c0,0.2,0,0.5,0.1,0.7c-0.9,0.3-1.8,0.5-2.4,0.5c-0.4,0-1.1-0.4-1.3-1
			c0-0.1,0-0.2,0-0.3c0-0.5,0.5-2.4,0.5-2.8c0.1-0.5,0.3-1.4,0.4-1.9c-0.3,0-0.8,0-1.2,0c0-0.2,0.1-0.5,0.1-0.7
			c0.4,0,0.8-0.1,1.2-0.1c0,0,0.1,0,0.1-0.1c0.1-0.4,0.3-1,0.4-1.5c0.4-0.2,0.9-0.3,1-0.3c0,0,0,0,0,0.1c-0.1,0.5-0.2,1.2-0.4,1.8
			c0.8,0,1.6,0,2.4,0c0,0.3-0.1,0.6-0.2,0.8c-0.7,0-1.5,0-2.4,0c-0.1,0.4-0.3,1.4-0.4,1.9c-0.2,0.7-0.5,2.1-0.5,2.5
			C359.5,212.4,359.8,212.6,360.2,212.6z"/>
		<path d="M364.6,207.8c0.8-0.9,1.5-1.2,2.3-1.2c1.1,0,1.7,0.9,1.7,1.7c-0.1,0.5-0.4,1.2-0.9,1.4c-0.9,0.5-1.9,0.6-3.3,0.6
			c-0.1,0.4-0.2,0.9-0.2,1.2c0,0.7,0.4,1.2,1.1,1.2c0.6,0,1.6-0.3,2.5-0.8c0.1,0.2,0.2,0.4,0.2,0.6c-0.9,0.5-2,1.1-3.1,1.1
			c-0.8,0-1.8-0.6-1.8-1.8C363.1,210.7,363.5,209,364.6,207.8z M365.4,208c-0.2,0.3-0.5,0.8-0.8,1.6c0.8,0,1.7-0.1,2.2-0.4
			c0.4-0.2,0.6-0.4,0.6-0.9c0-0.5-0.3-1-0.9-1C366.1,207.3,365.7,207.6,365.4,208z"/>
	</g>
	
		<linearGradient id="SVGID_1_" gradientUnits="userSpaceOnUse" x1="449.9468" y1="-4205.9385" x2="717.8741" y2="-4205.9385" gradientTransform="matrix(0.463 0 0 0.463 27.7778 2143.0496)">
		<stop  offset="0" style="stop-color:#7FA53F"/>
		<stop  offset="0.2497" style="stop-color:#679F5F"/>
		<stop  offset="1" style="stop-color:#208DBA"/>
	</linearGradient>
	
		<line fill="none" stroke="url(#SVGID_1_)" stroke-width="10" stroke-miterlimit="10" x1="236.1" y1="195.8" x2="360.1" y2="195.8"/>
	<g enable-background="new    ">
		<path fill="#7FA53F" d="M216.6,173.4c0-0.2,0-0.5,0-0.7c1.2-0.2,2-0.4,2.2-0.4c0.1,0,0.3,0.2,0.4,0.4c-0.4,1.5-1.2,4.8-1.3,5.6
			c0,0.1,0,0.1,0.1,0.1c0.2,0,0.7-0.1,1.2-0.2c0.1,0.2,0.1,0.4,0.1,0.7c-0.6,0.2-1.4,0.3-2,0.3c-0.1,0-0.5-0.3-0.5-0.5
			c0.3-1.5,0.8-3.6,1.2-5.4L216.6,173.4z M219.7,170.1c0,0.4-0.4,0.8-0.8,0.8c-0.5,0-0.8-0.4-0.8-0.8c0-0.4,0.3-0.8,0.9-0.8
			C219.5,169.4,219.7,169.8,219.7,170.1z"/>
		<path fill="#7FA53F" d="M220.6,173.5c0-0.2,0-0.4,0-0.7c1.2-0.2,1.8-0.4,2-0.4c0.1,0,0.3,0.2,0.4,0.3c-0.1,0.4-0.2,0.9-0.4,1.6
			l0.1,0c1.2-1.5,2.2-2,2.8-2c0.3,0,0.7,0.3,0.9,0.7c0.1,0.1,0.1,0.3,0.1,0.4c0,0.1,0,0.5-0.1,0.9l0.1,0c1.2-1.5,2.2-2,2.9-2
			c0.3,0,0.8,0.3,1,0.8c0.1,0.1,0.1,0.3,0.1,0.5c0,0.6-0.5,2.6-1.2,4.7c0,0,0,0.1,0,0.1c0.2,0,0.6-0.1,1.1-0.2
			c0,0.2,0.1,0.4,0.1,0.7c-0.7,0.2-1.3,0.4-2,0.4c-0.1,0-0.3-0.2-0.4-0.5c0.3-0.8,0.7-2.3,0.8-3c0.1-0.4,0.3-1.3,0.3-1.8
			c0-0.2-0.1-0.5-0.5-0.5c-0.9,0-2.5,1.8-2.7,2.7c-0.2,0.9-0.5,2-0.7,3c-0.3,0-0.7,0-1,0c0.2-0.8,0.7-2.8,0.9-3.6
			c0.1-0.5,0.3-1.3,0.3-1.7c0-0.2-0.1-0.5-0.4-0.5c-0.9,0-2.5,1.8-2.8,2.7c-0.2,0.6-0.6,2.4-0.7,3c-0.3,0-0.7,0-1,0
			c0.3-1.4,0.9-4,1.3-5.8L220.6,173.5z"/>
		<path fill="#7FA53F" d="M234,174.7c1.2-1.5,2.2-2.3,3.2-2.3c0.4,0,0.8,0.4,1.1,0.9c0.1,0.2,0.1,0.4,0.1,0.6c0,1-0.3,2.4-0.9,3.5
			c-0.5,0.9-1.4,1.9-2.7,1.9c-0.5,0-1.1-0.2-1.5-0.6c-0.2,1.2-0.6,2.9-0.8,4.1c-0.3,0-0.7,0-1.1,0c0.6-2.9,1.3-6.6,1.8-9.4l-1.3,0.1
			c0-0.2,0-0.5,0-0.7c1.3-0.2,1.8-0.4,1.9-0.4s0.3,0.2,0.4,0.3c-0.1,0.5-0.3,1.2-0.4,1.9L234,174.7z M236.7,173.3c-1,0-2.7,2-3,2.9
			c-0.1,0.3-0.2,1.2-0.3,1.5c0.3,0.4,0.9,0.7,1.3,0.7c0.9,0,1.5-0.7,1.8-1.4c0.5-0.9,0.7-2.1,0.7-3
			C237.2,173.7,237.1,173.3,236.7,173.3z"/>
		<path fill="#7FA53F" d="M243.6,178.4c-0.6,0.5-1.2,0.9-2.2,0.9c-0.8,0-1.3-0.3-1.6-0.7c-0.2-0.3-0.5-0.8-0.5-1.4
			c0-1.5,0.6-3,1.6-3.9c0.7-0.7,1.4-0.9,2.2-0.9c0.7,0,1.1,0.2,1.5,0.6c0.3,0.3,0.6,0.9,0.6,1.7C245.2,176,244.6,177.4,243.6,178.4z
			 M243,177.8c0.5-0.7,1-2,1-3.1c0-0.6-0.1-0.9-0.2-1.2c-0.2-0.3-0.4-0.5-0.9-0.5c-0.5,0-1,0.3-1.5,0.9c-0.4,0.5-0.9,1.8-0.9,3.1
			c0,0.5,0.1,0.8,0.2,1.1c0.2,0.3,0.5,0.4,0.9,0.4C242.2,178.6,242.7,178.3,243,177.8z"/>
		<path fill="#7FA53F" d="M246.5,173.4c0-0.2,0-0.5,0-0.7c1-0.2,1.9-0.4,2-0.4c0.1,0,0.3,0.2,0.4,0.4c-0.1,0.4-0.2,1-0.5,1.9l0.1,0
			c0.9-1.4,1.9-2.3,2.5-2.3c0.3,0,0.6,0.1,0.8,0.2c0,0.4-0.3,1.1-0.5,1.2c-0.1,0-0.4-0.2-0.6-0.2c-0.6,0-2.1,1.7-2.5,3
			c-0.1,0.5-0.4,1.8-0.6,2.4c-0.4,0-0.7,0-1.1,0c0.3-1.3,0.9-4,1.3-5.8L246.5,173.4z"/>
		<path fill="#7FA53F" d="M254.4,178.4c0.4,0,1.1-0.1,1.8-0.3c0,0.2,0,0.5,0.1,0.7c-0.9,0.3-1.8,0.5-2.4,0.5c-0.4,0-1.1-0.4-1.3-1
			c0-0.1,0-0.2,0-0.3c0-0.5,0.5-2.4,0.5-2.8c0.1-0.5,0.3-1.4,0.4-1.9c-0.3,0-0.8,0-1.2,0c0-0.2,0.1-0.5,0.1-0.7
			c0.4,0,0.8-0.1,1.2-0.1c0,0,0.1,0,0.1-0.1c0.1-0.4,0.3-1,0.4-1.5c0.4-0.2,0.9-0.3,1-0.3c0,0,0,0,0,0.1c-0.1,0.5-0.2,1.2-0.4,1.8
			c0.8,0,1.6,0,2.4,0c0,0.3-0.1,0.6-0.2,0.8c-0.7,0-1.5,0-2.4,0c-0.1,0.4-0.3,1.4-0.4,1.9c-0.2,0.7-0.5,2.1-0.5,2.5
			C253.7,178.2,254,178.4,254.4,178.4z"/>
	</g>
	<g enable-background="new    ">
		<path fill="#228DBA" d="M342.3,173.6c0.8-0.9,1.5-1.2,2.3-1.2c1.1,0,1.7,0.9,1.7,1.7c-0.1,0.5-0.4,1.2-0.9,1.4
			c-0.9,0.5-1.9,0.6-3.3,0.6c-0.1,0.4-0.2,0.9-0.2,1.2c0,0.7,0.4,1.2,1.1,1.2c0.6,0,1.6-0.3,2.5-0.8c0.1,0.2,0.2,0.4,0.2,0.6
			c-0.9,0.5-2,1.1-3.1,1.1c-0.8,0-1.8-0.6-1.8-1.8C340.8,176.4,341.2,174.8,342.3,173.6z M343.1,173.8c-0.2,0.3-0.5,0.8-0.8,1.6
			c0.8,0,1.7-0.1,2.2-0.4c0.4-0.2,0.6-0.4,0.6-0.9c0-0.5-0.3-1-0.9-1C343.8,173.1,343.4,173.4,343.1,173.8z"/>
		<path fill="#228DBA" d="M350.3,174.8c0.9-1.1,2.2-2.5,2.6-2.5c0.2,0,0.6,0.5,0.7,0.8c-0.8,0.4-1.8,1-3.1,2.3l0,0.1
			c0.5,1.2,0.7,1.8,1.1,2.7c0,0.1,0.1,0.1,0.2,0.1c0.2,0,0.6-0.1,1-0.2c0,0.2,0.1,0.4,0.1,0.7c-0.5,0.2-1.5,0.3-2.1,0.3
			c-0.3-0.6-0.7-1.8-1.1-3h-0.1c-0.9,1-1.6,2.2-1.9,3c-0.3,0-0.9,0-1.3,0c0.2-0.8,1.7-2.5,3-3.7l0-0.1c-0.2-0.6-0.5-1.3-0.8-2.1
			l-1.2,0.3c-0.1-0.2-0.1-0.4-0.2-0.6c0.8-0.3,1.7-0.6,1.8-0.6c0.1,0,0.4,0.1,0.5,0.2C349.7,173.4,350,174.1,350.3,174.8
			L350.3,174.8z"/>
		<path fill="#228DBA" d="M356.2,174.7c1.2-1.5,2.2-2.3,3.2-2.3c0.4,0,0.8,0.4,1.1,0.9c0.1,0.2,0.1,0.4,0.1,0.6c0,1-0.3,2.4-0.9,3.5
			c-0.5,0.9-1.4,1.9-2.7,1.9c-0.5,0-1.1-0.2-1.5-0.6c-0.2,1.2-0.6,2.9-0.8,4.1c-0.3,0-0.7,0-1.1,0c0.6-2.9,1.3-6.6,1.8-9.4l-1.3,0.1
			c0-0.2,0-0.5,0-0.7c1.3-0.2,1.8-0.4,1.9-0.4s0.3,0.2,0.4,0.3c-0.1,0.5-0.3,1.2-0.4,1.9L356.2,174.7z M358.8,173.3
			c-1,0-2.7,2-3,2.9c-0.1,0.3-0.2,1.2-0.3,1.5c0.3,0.4,0.9,0.7,1.3,0.7c0.9,0,1.5-0.7,1.8-1.4c0.5-0.9,0.7-2.1,0.7-3
			C359.4,173.7,359.2,173.3,358.8,173.3z"/>
		<path fill="#228DBA" d="M365.7,178.4c-0.6,0.5-1.2,0.9-2.2,0.9c-0.8,0-1.3-0.3-1.6-0.7c-0.2-0.3-0.5-0.8-0.5-1.4
			c0-1.5,0.6-3,1.6-3.9c0.7-0.7,1.4-0.9,2.2-0.9c0.7,0,1.1,0.2,1.5,0.6c0.3,0.3,0.6,0.9,0.6,1.7C367.3,176,366.7,177.4,365.7,178.4z
			 M365.1,177.8c0.5-0.7,1-2,1-3.1c0-0.6-0.1-0.9-0.2-1.2c-0.2-0.3-0.4-0.5-0.9-0.5c-0.5,0-1,0.3-1.5,0.9c-0.4,0.5-0.9,1.8-0.9,3.1
			c0,0.5,0.1,0.8,0.2,1.1c0.2,0.3,0.5,0.4,0.9,0.4C364.3,178.6,364.8,178.3,365.1,177.8z"/>
		<path fill="#228DBA" d="M368.6,173.4c0-0.2,0-0.5,0-0.7c1-0.2,1.9-0.4,2-0.4c0.1,0,0.3,0.2,0.4,0.4c-0.1,0.4-0.2,1-0.5,1.9l0.1,0
			c0.9-1.4,1.9-2.3,2.5-2.3c0.3,0,0.6,0.1,0.8,0.2c0,0.4-0.3,1.1-0.5,1.2c-0.1,0-0.4-0.2-0.6-0.2c-0.6,0-2.1,1.7-2.5,3
			c-0.1,0.5-0.4,1.8-0.6,2.4c-0.4,0-0.7,0-1.1,0c0.3-1.3,0.9-4,1.3-5.8L368.6,173.4z"/>
		<path fill="#228DBA" d="M376.6,178.4c0.4,0,1.1-0.1,1.8-0.3c0,0.2,0,0.5,0.1,0.7c-0.9,0.3-1.8,0.5-2.4,0.5c-0.4,0-1.1-0.4-1.3-1
			c0-0.1,0-0.2,0-0.3c0-0.5,0.5-2.4,0.5-2.8c0.1-0.5,0.3-1.4,0.4-1.9c-0.3,0-0.8,0-1.2,0c0-0.2,0.1-0.5,0.1-0.7
			c0.4,0,0.8-0.1,1.2-0.1c0,0,0.1,0,0.1-0.1c0.1-0.4,0.3-1,0.4-1.5c0.4-0.2,0.9-0.3,1-0.3c0,0,0,0,0,0.1c-0.1,0.5-0.2,1.2-0.4,1.8
			c0.8,0,1.6,0,2.4,0c0,0.3-0.1,0.6-0.2,0.8c-0.7,0-1.5,0-2.4,0c-0.1,0.4-0.3,1.4-0.4,1.9c-0.2,0.7-0.5,2.1-0.5,2.5
			C375.8,178.2,376.1,178.4,376.6,178.4z"/>
	</g>
	<polygon fill="#7FA53F" points="236.8,189.3 236.8,189.3 233.6,182.8 240,182.8 	"/>
	<polygon fill="#228DBA" points="360.2,189.3 360.2,189.3 357,182.8 363.4,182.8 	"/>
</g>
</svg>
