<?xml version="1.0" encoding="utf-8"?>
<!-- Generator: Adobe Illustrator 17.1.0, SVG Export Plug-In . SVG Version: 6.00 Build 0)  -->
<!DOCTYPE svg PUBLIC "-//W3C//DTD SVG 1.1//EN" "http://www.w3.org/Graphics/SVG/1.1/DTD/svg11.dtd">
<svg version="1.1" id="Layer_1" xmlns="http://www.w3.org/2000/svg" xmlns:xlink="http://www.w3.org/1999/xlink" x="0px" y="0px"
	 viewBox="0 0 1200 600" enable-background="new 0 0 1200 600" xml:space="preserve">
<line fill="none" stroke="#010101" stroke-width="0.5" x1="533.8" y1="296.5" x2="524.9" y2="296.5"/>
<polygon fill="none" stroke="#B3B3B3" stroke-width="1.5181" points="389.2,90.9 385.3,87.7 374.2,87.4 374.5,62.4 377.5,62.5 
	377.7,-8.4 375.7,-8.5 375.6,-22.5 475,-21.9 474.5,87.5 463.6,87.2 460.4,90.6 452.9,90.9 450.5,87.8 435.9,87.8 436.5,38.4 
	440.9,38.5 441.1,18 437.2,13.4 437.5,6.4 414.9,6.7 414.6,14.2 411.5,17.1 411.4,39.1 414.8,41.7 415.1,48.7 412.4,51.6 
	411.8,87.6 399.3,87.2 397.2,90.6 "/>
<polygon fill="none" stroke="#B3B3B3" stroke-width="1.5181" points="1092.2,100.7 1092.8,64.7 1102.3,65 1102.8,50.5 1099.3,50.4 
	1099.7,2.9 1093.9,-4.8 1093.9,-20.7 1142.1,-20.8 1141.8,100.7 "/>
<polygon fill="none" stroke="#B3B3B3" stroke-width="1.5181" points="325.4,595.7 325.7,519.7 354.8,519.6 354.9,564.6 383,564.5 
	383.4,520 413,519.9 412.6,596.4 "/>
<polygon fill="none" stroke="#B3B3B3" stroke-width="1.5181" points="1101.6,620.3 1103.3,563.8 1118.3,564.3 1113.5,560.1 
	1105.5,559.9 1105.7,552.4 1100.1,552.3 1100.1,536.2 1094.6,536.1 1095.5,507.1 1109.1,507.5 1109,509 1125.1,509 1125.1,507.5 
	1139.1,508 1138,543.4 1136.5,543.4 1136,578.3 1138,578.4 1137.6,606.9 1136.1,606.9 1135.7,620.8 "/>
<polygon fill="none" stroke="#B3B3B3" stroke-width="1.5181" points="170.5,591.4 170.2,569.9 175.2,569.5 175,541.6 169,541.4 
	168.8,515.9 170.3,515.4 170.5,510.9 173.1,508 185.6,507.9 188.5,511 188.9,516 198.4,515.8 198.6,510.8 202.2,507.4 213.2,507.8 
	216.6,511.4 216.4,516.9 218,516.9 217.7,541.4 212.2,541.7 212.3,568.7 217.3,568.8 217.2,591.3 "/>
<polygon fill="none" stroke="#B3B3B3" stroke-width="1.5181" points="77.7,89.7 73.3,86.6 72.6,58.6 78.3,53.2 78.2,24.8 74.6,25.2 
	74.3,6.6 110.4,6.7 120.9,6.6 120.8,24.6 117.3,24.5 117.4,56 120.8,57.6 121.5,85.1 114.8,89.4 107.8,89.2 102.9,86 89.8,86.6 
	85.2,89.5 "/>
<polygon fill="none" stroke="#B3B3B3" stroke-width="1.5181" points="68.8,587.7 68.8,553.8 79.4,554.1 79.5,518.6 94.5,518.6 
	112.1,518.6 111.9,588.1 92.3,588 "/>
<polygon fill="none" stroke="#B3B3B3" stroke-width="1.5181" points="650.1,89 649.5,12 643.6,12 643.5,-8.4 647.6,-8.6 
	647.9,-17.6 659.4,-17.7 659.7,-9.7 671.2,-9.9 671.8,69.1 674.8,69.2 674.7,89.2 "/>
<polygon fill="none" stroke="#B3B3B3" stroke-width="1.5181" points="609.5,88.2 609.5,70.2 614.1,70.4 613.5,-9.1 627.1,-9.2 
	627.3,-16.7 639.3,-16.8 639.6,-8.3 643.5,-8.4 643.6,12 634.9,12 635.5,88.5 "/>
<polygon fill="none" stroke="#B3B3B3" stroke-width="1.5181" points="438.2,580.7 424.2,580.2 424.5,569.8 420,569.6 420,519.1 
	424,519.3 423.8,509.3 450,509.1 450.2,519.1 453.2,519.2 453.1,535.6 455.1,535.7 455,538.2 461.1,537.9 461.2,549.9 455.2,549.7 
	455.1,569.2 438.5,569.2 "/>
<polygon fill="none" stroke="#B3B3B3" stroke-width="1.5181" points="135.2,581.8 135.1,566.3 121.1,566.4 120.8,544.4 124.3,544.5 
	123.7,515.5 144.8,515.1 147.3,514.7 151.3,515.3 154.2,517.4 155.2,520 155.5,524.4 153,526.9 153.8,563.4 155.3,563.4 
	155.7,581.4 "/>
<polygon fill="none" stroke="#B3B3B3" stroke-width="1.5181" points="1039.8,92 1039.6,80.5 1037.1,80.5 1037,68 1034.2,62.9 
	1033.7,43.9 1037.3,41 1036.6,16.5 1061.7,16.2 1062.7,80.2 1057.7,80.1 1057.8,91.6 "/>
<polygon fill="none" stroke="#B3B3B3" stroke-width="1.5181" points="1069.7,98 1069.4,88.9 1064.9,89.3 1064,54.8 1068.1,51.4 
	1067.4,10.4 1086.5,10 1087.4,60 1090.4,60.1 1091,89.1 1085,89.4 1085.2,97.4 "/>
<polygon fill="none" stroke="#B3B3B3" stroke-width="1.5181" points="995.2,89.1 984.2,88.8 984.5,78.3 977.5,78.1 978.3,51.6 
	973.4,48 974.3,20 978.3,20.1 978.5,11.7 999.1,12.3 998,46.8 1002.8,53.4 1002.1,78.9 995.5,78.6 "/>
<polygon fill="none" stroke="#B3B3B3" stroke-width="1.5181" points="687.7,89.1 684.3,87 684.4,81.5 676.4,81.8 676.8,53.8 
	680.8,53.9 680.7,40.4 676.7,40.3 676.7,21.8 684.3,22 684.5,13 692.6,12.8 692.4,18.8 702.4,19.1 701.9,53.6 704.8,56.7 
	704.6,63.7 701.4,68.6 701.4,84.6 698.3,88.9 "/>
<polygon fill="none" stroke="#B3B3B3" stroke-width="1.5181" points="551.8,571.2 552.1,565.2 551,565.2 551.4,522.7 553.8,522.8 
	554.1,515.8 579.7,516.1 579.4,523.1 582.5,523.2 582.1,565.1 576.6,565 576.4,571.5 "/>
<polygon fill="none" stroke="#B3B3B3" stroke-width="1.5181" points="845.8,88 845.3,22.6 870.4,22.3 870.8,87.8 "/>
<polygon fill="none" stroke="#B3B3B3" stroke-width="1.5181" points="734.8,90.1 725.8,89.8 722.4,85.7 722.1,81.2 714.5,81.4 
	714.2,60.5 711.2,57.9 711.5,48.4 715.1,46 714.4,21.5 739,20.7 739.4,39.8 734.9,40.1 734.9,56.1 739.4,55.7 739.9,86.7 "/>
<polygon fill="none" stroke="#B3B3B3" stroke-width="1.5181" points="764.5,86.5 748.5,86 748.8,77.5 744.3,77.4 745.5,22.4 
	751.5,22.6 751.7,15.1 763.2,15.5 763,23 770,23.2 768.8,77.6 764.8,77.5 "/>
<polygon fill="none" stroke="#B3B3B3" stroke-width="1.5181" points="782.6,86.1 782.9,77.6 778.4,77.4 779.6,22 785.6,22.2 
	785.8,15.2 797.4,15 797.1,22.6 803.6,22.8 802.4,77.7 798.9,77.6 798.7,86 "/>
<polygon fill="none" stroke="#B3B3B3" stroke-width="1.5181" points="226.4,82.3 226.4,32.8 237,33.2 237.2,23.7 254.3,23.7 
	254,82.7 "/>
<polygon fill="none" stroke="#B3B3B3" stroke-width="1.5181" points="724.6,566.1 724.4,556.5 722.4,556.5 722.4,523 738,523 
	737.7,513.5 755.3,513.5 755,523 757,523.1 757,557.6 748.9,557.3 749.3,563.3 741.2,563.1 741.4,557.1 738.9,557 739.1,566 "/>
<polygon fill="none" stroke="#B3B3B3" stroke-width="1.5181" points="177.8,80.8 178,57.3 174.5,57.2 174.5,40.7 182.5,41 182.5,26 
	207.1,26.3 207,43.8 204.5,43.7 204.4,47.7 207.8,49.8 208.2,54.8 204.1,58.7 203.8,81.1 "/>
<polygon fill="none" stroke="#B3B3B3" stroke-width="1.5181" points="647.4,564.7 630.3,564.1 631.1,524.2 632.1,524.2 632.3,516.2 
	663.4,517.2 663.2,523.7 665.7,523.8 664.6,558.2 647.1,557.7 "/>
<polygon fill="none" stroke="#B3B3B3" stroke-width="1.5181" points="1061.1,568.4 1061,523 1068.5,523.2 1068.7,516.2 
	1081.8,516.1 1082.1,523.1 1092.1,522.9 1092.2,568.4 "/>
<polygon fill="none" stroke="#B3B3B3" stroke-width="1.5181" points="928.1,569.9 913.1,569.4 913.2,566.9 906.2,566.7 906.3,561.2 
	900.8,561 901.5,523.5 903,523.6 903.3,514.1 928.3,514.9 928.1,523.9 930.6,523.9 929.4,560.9 927.9,560.9 "/>
<polygon fill="none" stroke="#B3B3B3" stroke-width="1.5181" points="968.7,573.1 968.8,567.6 963.3,567.4 963.4,564.4 961.9,564.4 
	961.6,524.4 963.6,524.5 963.4,515 976,514.8 975.7,523.9 990.8,523.8 991,564.3 988,564.7 988.2,572.7 "/>
<polygon fill="none" stroke="#B3B3B3" stroke-width="1.5181" points="1036.4,573.2 1036.2,562.7 1027.7,562.4 1027.7,514.5 
	1045.7,514.5 1045.9,523.5 1055.5,523.8 1055.9,572.8 "/>
<polygon fill="none" stroke="#B3B3B3" stroke-width="1.5181" points="814.1,91.4 813.8,83.8 810.8,83.7 810.4,29.8 835,30 835.3,84 
	829.3,83.8 829.6,91.3 "/>
<polygon fill="none" stroke="#B3B3B3" stroke-width="1.5181" points="278.6,82.5 278.9,57 274.9,56.8 274.8,42.9 279.3,43 
	279.4,40.5 285.4,40.7 285.2,30.7 309.7,31 309.8,44.9 305.8,44.8 305.7,82.3 "/>
<polygon fill="none" stroke="#B3B3B3" stroke-width="1.5181" points="326.2,82.9 326.2,69.4 329.1,69.5 328.3,32 357.4,31.4 
	358.5,75.5 343,75.9 343.3,82.5 "/>
<polygon fill="none" stroke="#B3B3B3" stroke-width="1.5181" points="221.8,554.5 221.7,543 219.1,542.9 219,529.9 222.1,530 
	221.6,510.5 254.8,510 255,536.5 250.9,536.4 251.2,545.9 249.1,545.8 249.4,553.9 "/>
<polygon fill="none" stroke="#B3B3B3" stroke-width="1.5181" points="946.7,84.7 946,26.1 969.6,25.9 970.5,78.4 966.9,78.3 
	967.2,84.8 "/>
<polygon fill="none" stroke="#B3B3B3" stroke-width="1.5181" points="298,556.9 270.4,556 271.2,512.5 306.3,513.1 305.7,535.6 
	298.1,535.4 "/>
<polygon fill="none" stroke="#B3B3B3" stroke-width="1.5181" points="803.3,567.5 802.9,562.5 800.4,562.4 800.6,523.4 805.7,523.6 
	805.8,520.1 811.4,515.8 817.4,515.9 824.7,523.7 828.2,523.8 827.8,536.3 832.4,536.4 832.6,562.4 817,562.4 816.8,567.4 "/>
<polygon fill="none" stroke="#B3B3B3" stroke-width="1.5181" points="894,568.8 876.5,568.2 876.7,561.3 866.2,560.9 867.3,523.5 
	873.4,523.7 873.6,515.7 888.6,516.2 888.5,522.6 896,522.9 894.8,560.3 894.3,560.3 "/>
<polygon fill="none" stroke="#B3B3B3" stroke-width="1.5181" points="895.8,74.6 895.4,22.6 920.5,22.4 920.9,74.4 "/>
<polygon fill="none" stroke="#B3B3B3" stroke-width="1.5181" points="836.9,566.5 837.1,562.5 833.5,562.4 833.8,522.9 836.3,523 
	836.5,516.6 856,516.6 856.4,522.7 858.9,522.7 858.7,543.7 864.2,543.9 863.7,561.4 858.1,561.7 858,566.7 "/>
<polygon fill="none" stroke="#B3B3B3" stroke-width="1.5181" points="992.5,564.3 992.3,523.9 994.3,523.4 994,515.9 1017.6,516.1 
	1017.4,523.6 1021.4,523.8 1021.8,558.2 1008.3,558.3 1008.5,564.3 "/>
<polygon fill="none" stroke="#B3B3B3" stroke-width="1.5181" points="33.2,554.6 22.6,554.3 22.8,550.8 21.3,550.8 21.3,516.8 
	41.9,516.9 42,511.9 58.1,512 57.8,536.4 51.3,536.2 51.3,550.7 33.3,550.6 "/>
<polygon fill="none" stroke="#B3B3B3" stroke-width="1.5181" points="679.4,565.6 679.6,560.7 678.6,560.6 678.2,524.6 684.2,524.3 
	684.4,518.8 687.5,514.9 698.1,514.7 702,519.4 701.8,524.4 706.8,524.5 706.7,560 695.7,560.2 695.5,565.6 "/>
<polygon fill="none" stroke="#B3B3B3" stroke-width="1.5181" points="593.3,562 593,523.5 628.6,523.1 629.1,555.6 608.5,556 
	608.3,562 "/>
<polygon fill="none" stroke="#B3B3B3" stroke-width="1.5181" points="131.9,73.9 131.2,28.4 156.8,28.2 157.4,42.7 160.3,45.3 
	160.6,52.3 158.1,54.2 158.4,73.7 "/>
<polygon fill="none" stroke="#B3B3B3" stroke-width="1.5181" points="944.8,566.9 944.6,557.9 931.5,557.9 931,524 932.5,524 
	932.8,517 947.3,516.4 947.6,524.5 959.6,524.3 960.1,558.8 957.6,558.8 957.8,566.8 "/>
<polygon fill="none" stroke="#B3B3B3" stroke-width="1.5181" points="763.9,560.3 764.5,523.8 770.1,524 769.8,515 786.8,515.5 
	786.6,523.5 792.6,523.7 792.5,560.6 "/>
<polygon fill="none" stroke="#B3B3B3" stroke-width="1.5181" points="543.1,76.2 542.8,40.2 550.3,39.9 550.1,28.4 558.7,28.1 
	558.6,31.2 569.6,31 570.2,76 "/>
<polygon fill="none" stroke="#B3B3B3" stroke-width="1.5181" points="28.7,86.7 28.1,39.2 54.1,39 54.1,74 51,77.9 43.9,77.7 
	44.2,86.7 "/>
<polygon fill="none" stroke="#B3B3B3" stroke-width="1.5181" points="579,83.3 578.9,39.8 605,39.6 604.4,75.5 594.8,75.8 
	595.1,83.3 "/>
<polygon fill="none" stroke="#B3B3B3" stroke-width="1.5181" points="1006.5,80.5 1005,47.5 1031.7,46.3 1033.1,79.8 "/>
<g id="XMLID_1_">
	<g>
		<polygon fill="#FFFFFF" points="1137.3,188.2 1137,201.1 1132.4,206.5 1130.3,206.5 1130.3,208 1130.2,212.5 1123.7,212.3 
			1123.9,247.8 1047.1,247.6 1047.3,239.5 1026.7,239.6 1026.6,309 1029.2,309.1 1029,337.1 1027,337 1026.5,421.5 964.4,421 
			964.7,405.5 833.9,405 834.2,409.5 819.2,409.2 819.3,407.1 799.2,407.2 795.6,412.1 784,412.3 780.2,406.8 761.6,406.8 
			761.5,409.3 745.5,408.9 745.6,405.4 632.2,405.3 632.1,409.3 616.1,408.9 616.2,424 553,423.5 553.9,194.6 553.7,180.1 
			615.4,180.1 615,196.1 614.8,224.5 631.4,224.4 630.9,332.9 746.8,333.5 746.6,338.5 761.7,338.9 761.4,326.9 754.4,326.7 
			754.8,224.8 749.7,225.1 749.6,211.7 746.5,211.6 746.8,199.1 746.6,187.1 750.6,187.2 750.8,180.2 829,180.5 829.1,201 829,224 
			824.5,223.9 824.3,274.9 828.3,278.4 828.1,284.9 824.6,286.9 824.7,326.3 818.1,326.2 818.3,339.2 833.3,339.1 833,331.5 
			947.9,332.2 948.3,203.8 948.4,179.3 962.4,179.6 962.5,177.1 1130.5,177.5 1130.9,182.5 		"/>
		<polygon fill="#FFFFFF" points="158.4,227 158.4,225.7 158.5,199.5 444.5,197.1 445.3,268.1 366.6,268.8 366.8,279.7 288.5,280.4 
			288.9,269 158.9,269.9 158.6,241.9 158.6,241 126.5,241.7 127.6,351.7 101.1,352 52.2,352.5 50.7,200.5 104.6,200.2 126,200.2 
			126.4,227.2 		"/>
	</g>
	<g>
		<polygon fill="none" stroke="#B3B3B3" stroke-width="2" points="423.7,419 423.4,409.5 418.9,409.9 418.3,371.9 434.8,371.3 
			434.6,359.3 430.6,359.7 430.7,352.3 433.7,352.3 433.7,334.8 427.6,338.2 419.6,338 419.2,311.5 471.4,310.7 473.1,409.7 
			470.6,409.6 470.9,418.6 456.8,418.8 456.5,409.8 438.5,409.9 438.2,418.9 		"/>
		<polygon fill="none" stroke="#B3B3B3" stroke-width="2" points="398.7,419.4 384.2,419.1 384.4,411.1 373.3,410.8 373.5,361.3 
			393,361.8 392.8,370.8 397.8,370.9 397.6,381.4 402.6,381.5 402.8,394 403.8,394 403.4,411 398.4,410.9 		"/>
		<polygon fill="none" stroke="#010101" stroke-width="2" points="553,423.5 553.9,194.6 553.7,180.1 615.4,180.1 615,196.1 
			614.8,224.5 631.4,224.4 630.9,332.9 746.8,333.5 746.6,338.5 761.7,338.9 761.4,326.9 754.4,326.7 754.8,224.8 749.7,225.1 
			749.6,211.7 746.5,211.6 746.8,199.1 746.6,187.1 750.6,187.2 750.8,180.2 829,180.5 829.1,201 829,224 824.5,223.9 824.3,274.9 
			828.3,278.4 828.1,284.9 824.6,286.9 824.7,326.3 818.1,326.2 818.3,339.2 833.3,339.1 833,331.5 947.9,332.2 948.3,203.8 
			948.4,179.3 962.4,179.6 962.5,177.1 1130.5,177.5 1130.9,182.5 1137.3,188.2 1137,201.1 1132.4,206.5 1130.3,206.5 1130.3,208 
			1130.2,212.5 1123.7,212.3 1123.9,247.8 1047.1,247.6 1047.3,239.5 1026.7,239.6 1026.6,309 1029.2,309.1 1029,337.1 1027,337 
			1026.5,421.5 964.4,421 964.7,405.5 833.9,405 834.2,409.5 819.2,409.2 819.3,407.1 799.2,407.2 795.6,412.1 784,412.3 
			780.2,406.8 761.6,406.8 761.5,409.3 745.5,408.9 745.6,405.4 632.2,405.3 632.1,409.3 616.1,408.9 616.2,424 		"/>
		<polyline fill="none" stroke="#010101" stroke-width="2" points="158.4,225.7 158.5,199.5 444.5,197.1 445.3,268.1 366.6,268.8 
			366.8,279.7 288.5,280.4 288.9,269 158.9,269.9 158.6,241.9 		"/>
		<polyline fill="none" stroke="#010101" stroke-width="2" points="160.2,241 158.6,241 126.5,241.7 127.6,351.7 101.1,352 
			52.2,352.5 50.7,200.5 104.6,200.2 126,200.2 126.4,227.2 158.4,227 159.9,227 		"/>
	</g>
</g>
<rect x="185.7" y="364.8" fill="none" stroke="#B3B3B3" stroke-width="1.5181" width="78.7" height="35"/>
<line fill="none" stroke="#010101" x1="-59.4" y1="161" x2="479.3" y2="161"/>
<line fill="none" stroke="#010101" x1="489.4" y1="171.1" x2="489.4" y2="444.6"/>
<line fill="none" stroke="#010101" x1="3.4" y1="453.9" x2="-60.9" y2="453.9"/>
<path fill="none" stroke="#010101" d="M3.4,453.9"/>
<line fill="none" stroke="#010101" x1="245.7" y1="453.9" x2="42.9" y2="453.9"/>
<line fill="none" stroke="#010101" x1="479" y1="453.9" x2="285.2" y2="453.9"/>
<line fill="none" stroke="#010101" x1="524.7" y1="444.6" x2="524.7" y2="171.1"/>
<line fill="none" stroke="#010101" x1="533.6" y1="161" x2="1142.4" y2="161"/>
<line fill="none" stroke="#010101" x1="1152.5" y1="279.1" x2="1152.5" y2="445.6"/>
<line fill="none" stroke="#010101" x1="1152.5" y1="171.1" x2="1152.5" y2="241.1"/>
<line fill="none" stroke="#B3B3B3" x1="1152.5" y1="488.3" x2="1152.5" y2="645.7"/>
<line fill="none" stroke="#010101" x1="1020.7" y1="454.3" x2="533.6" y2="454.3"/>
<line fill="none" stroke="#010101" x1="1144.2" y1="454.3" x2="1052.7" y2="454.3"/>
<line fill="none" stroke="#B3B3B3" x1="479" y1="482" x2="-60.9" y2="482"/>
<line fill="none" stroke="#B3B3B3" x1="533.6" y1="482" x2="1144.5" y2="482"/>
<line fill="none" stroke="#B3B3B3" x1="489.4" y1="491.7" x2="489.4" y2="645.7"/>
<line fill="none" stroke="#B3B3B3" x1="524" y1="491.7" x2="524" y2="645.7"/>
<line fill="none" stroke="#B3B3B3" x1="524.7" y1="114.5" x2="524.7" y2="-48"/>
<line fill="none" stroke="#B3B3B3" x1="534.9" y1="124.6" x2="1135.2" y2="124.6"/>
<line fill="none" stroke="#B3B3B3" x1="1148.7" y1="111.1" x2="1148.7" y2="-45.3"/>
<line fill="none" stroke="#B3B3B3" x1="482.1" y1="124.6" x2="-60.9" y2="124.6"/>
<line fill="none" stroke="#B3B3B3" x1="492.8" y1="-48" x2="492.8" y2="113.7"/>
<path fill="none" stroke="#010101" d="M489.4,444.6c0,5.2-4.7,9.4-10.4,9.4"/>
<path fill="none" stroke="#010101" d="M525,444.6c0,5.4,4.3,9.7,9.7,9.7"/>
<path fill="none" stroke="#010101" d="M524.7,171.1c0-5.6,4.5-10.1,10.1-10.1"/>
<path fill="none" stroke="#B3B3B3" d="M489.4,491.7c0-5.5-4.7-9.9-10.4-9.9"/>
<path fill="none" stroke="#B3B3B3" d="M524,491.7c0-5.4,4.3-9.7,9.7-9.7"/>
<circle fill="none" stroke="#B3B3B3" cx="506.9" cy="471.3" r="8.7"/>
<circle fill="none" stroke="#B3B3B3" cx="506.9" cy="147.1" r="8.7"/>
<circle fill="none" stroke="#B3B3B3" cx="1167.9" cy="141.2" r="8.7"/>
<circle fill="none" stroke="#B3B3B3" cx="1169.2" cy="469.5" r="8.7"/>
<path fill="none" stroke="#010101" d="M489.4,171.1c0-5.6-4.5-10.1-10.1-10.1"/>
<path fill="none" stroke="#B3B3B3" d="M524.7,113.5c0,6.1,5,11.1,11.1,11.1"/>
<path fill="none" stroke="#B3B3B3" d="M492.8,113.2c0,6.3-5.1,11.4-11.4,11.4"/>
<path fill="none" stroke="#010101" d="M1152.5,171.1c0-5.6-4.5-10.1-10.1-10.1"/>
<path fill="none" stroke="#010101" d="M1152.5,444.6c0,5.4-4.5,9.7-10.1,9.7"/>
<path fill="none" stroke="#B3B3B3" d="M1152.5,490c0-4.4-3.6-8-8-8"/>
<line fill="none" stroke="#B3B3B3" x1="1184.1" y1="645.7" x2="1184.1" y2="496.4"/>
<line fill="none" stroke="#B3B3B3" x1="1184.1" y1="439.4" x2="1184.1" y2="172.6"/>
<line fill="none" stroke="#B3B3B3" x1="1184.1" y1="113" x2="1184.1" y2="-45.3"/>
<path fill="none" stroke="#B3B3B3" d="M1184.1,496.4c0-7.9,6.4-14.3,14.3-14.3"/>
<path fill="none" stroke="#B3B3B3" d="M1184.1,439.4c0,8.2,6.7,14.9,14.9,14.9"/>
<path fill="none" stroke="#B3B3B3" d="M1184.1,172.6c0-6.4,5.2-11.6,11.6-11.6"/>
<path fill="none" stroke="#B3B3B3" d="M1184.1,113c0,6.4,5.2,11.6,11.6,11.6"/>
<path fill="none" stroke="#B3B3B3" d="M1148.7,111.1c0,7.5-6,13.5-13.5,13.5"/>
<line fill="#FFFFFF" stroke="#010101" stroke-width="0.5" x1="474.1" y1="439.4" x2="474.1" y2="308"/>
<line fill="#FFFFFF" stroke="#010101" stroke-width="0.5" x1="474.1" y1="453.9" x2="474.1" y2="444.6"/>
<line fill="#FFFFFF" stroke="#010101" stroke-width="0.5" x1="479" y1="439.4" x2="479" y2="315.6"/>
<line fill="#FFFFFF" stroke="#010101" stroke-width="0.5" x1="479" y1="453.9" x2="479" y2="444.6"/>
<line fill="#FFFFFF" stroke="#B3B3B3" stroke-width="0.5" x1="479" y1="645.7" x2="479" y2="497.2"/>
<line fill="#FFFFFF" stroke="#B3B3B3" stroke-width="0.5" x1="473.8" y1="644.5" x2="473.8" y2="497.4"/>
<line fill="#FFFFFF" stroke="#010101" stroke-width="0.5" x1="479" y1="315.6" x2="489.4" y2="315.6"/>
<line fill="#FFFFFF" stroke="#010101" stroke-width="0.5" x1="445.5" y1="262.5" x2="445.5" y2="282.7"/>
<line fill="#FFFFFF" stroke="#010101" stroke-width="0.5" x1="445.5" y1="282.7" x2="463.4" y2="282.7"/>
<line fill="#FFFFFF" stroke="#010101" stroke-width="0.5" x1="463.4" y1="282.7" x2="463.4" y2="187.3"/>
<line fill="#FFFFFF" stroke="#010101" stroke-width="0.5" x1="463.4" y1="187.3" x2="431.8" y2="187.3"/>
<line fill="#FFFFFF" stroke="#010101" stroke-width="0.5" x1="431.8" y1="187.3" x2="431.8" y2="197.2"/>
<line fill="#FFFFFF" stroke="#010101" stroke-width="0.5" x1="161.3" y1="269.9" x2="161.3" y2="285.5"/>
<line fill="#FFFFFF" stroke="#010101" stroke-width="0.5" x1="161.3" y1="285.5" x2="288.7" y2="285.5"/>
<line fill="#FFFFFF" stroke="#010101" stroke-width="0.5" x1="288.7" y1="285.5" x2="288.7" y2="273.6"/>
<line fill="#FFFFFF" stroke="#010101" stroke-width="0.5" x1="525" y1="444.6" x2="533.6" y2="444.6"/>
<line fill="#FFFFFF" stroke="#010101" stroke-width="0.5" x1="523.8" y1="439.4" x2="533.3" y2="439.4"/>
<line fill="#FFFFFF" stroke="#010101" stroke-width="0.5" x1="566" y1="444.6" x2="566" y2="454.3"/>
<line fill="#FFFFFF" stroke="#010101" stroke-width="0.5" x1="566" y1="423.6" x2="566" y2="439.4"/>
<line fill="#FFFFFF" stroke="#010101" stroke-width="0.5" x1="598.2" y1="444.6" x2="598.2" y2="454.3"/>
<line fill="#FFFFFF" stroke="#010101" stroke-width="0.5" x1="598.2" y1="423.8" x2="598.2" y2="439.4"/>
<line fill="#FFFFFF" stroke="#010101" stroke-width="0.5" x1="760.6" y1="423.8" x2="818.3" y2="423.8"/>
<line fill="#FFFFFF" stroke="#010101" stroke-width="0.5" x1="676.6" y1="176.3" x2="676.6" y2="180.8"/>
<line fill="#FFFFFF" stroke="#010101" stroke-width="0.5" x1="676.6" y1="161" x2="676.6" y2="171.1"/>
<line fill="#FFFFFF" stroke="#010101" stroke-width="0.5" x1="700.5" y1="176.3" x2="700.5" y2="180.8"/>
<line fill="#FFFFFF" stroke="#010101" stroke-width="0.5" x1="700.5" y1="161" x2="700.5" y2="171.1"/>
<line fill="#FFFFFF" stroke="#010101" stroke-width="0.5" x1="631.8" y1="190.5" x2="631.8" y2="176.3"/>
<line fill="#FFFFFF" stroke="#010101" stroke-width="0.5" x1="615.2" y1="224.4" x2="615.2" y2="176.3"/>
<line fill="#FFFFFF" stroke="#010101" stroke-width="0.5" x1="631.8" y1="190.5" x2="666.8" y2="190.5"/>
<line fill="#FFFFFF" stroke="#010101" stroke-width="0.5" x1="709.5" y1="190.5" x2="740.8" y2="190.5"/>
<path fill="#FFFFFF" stroke="#010101" stroke-width="0.5" d="M676.6,180.8c0,5.4-4.3,9.7-9.7,9.7"/>
<path fill="#FFFFFF" stroke="#010101" stroke-width="0.5" d="M700.5,180.8c0,5.4,4.3,9.7,9.7,9.7"/>
<path fill="#FFFFFF" stroke="#010101" stroke-width="0.5" d="M846.8,181.8c0,6.4-5.2,11.6-11.6,11.6"/>
<path fill="#FFFFFF" stroke="#010101" stroke-width="0.5" d="M869.6,181.8c0,6.3,5.1,11.4,11.4,11.4"/>
<path fill="#FFFFFF" stroke="#010101" stroke-width="0.5" d="M902.2,179.7c0,7.5-6,13.5-13.5,13.5"/>
<path fill="#FFFFFF" stroke="#010101" stroke-width="0.5" d="M924.4,178.5c0,8.1,6.6,14.7,14.7,14.7"/>
<line fill="#FFFFFF" stroke="#010101" stroke-width="0.5" x1="242.9" y1="430.7" x2="33.9" y2="430.7"/>
<line fill="#FFFFFF" stroke="#010101" stroke-width="0.5" x1="275.8" y1="355.8" x2="275.8" y2="439.4"/>
<line fill="#FFFFFF" stroke="#010101" stroke-width="0.5" x1="12.9" y1="161" x2="12.9" y2="439.2"/>
<line fill="#FFFFFF" stroke="#010101" stroke-width="0.5" x1="325.7" y1="439.4" x2="325.7" y2="355.7"/>
<line fill="#FFFFFF" stroke="#010101" stroke-width="0.5" x1="373.3" y1="439.4" x2="373.3" y2="410.8"/>
<line fill="#FFFFFF" stroke="#010101" stroke-width="0.5" x1="325.7" y1="355.7" x2="275.8" y2="355.7"/>
<line fill="#FFFFFF" stroke="#010101" stroke-width="0.5" x1="479" y1="439.4" x2="489.4" y2="439.4"/>
<line fill="#FFFFFF" stroke="#010101" stroke-width="0.5" x1="33.9" y1="439.4" x2="255" y2="439.4"/>
<line fill="#FFFFFF" stroke="#010101" stroke-width="0.5" x1="479" y1="444.6" x2="489.4" y2="444.6"/>
<line fill="#FFFFFF" stroke="#010101" stroke-width="0.5" x1="533.6" y1="454.3" x2="533.6" y2="444.6"/>
<line fill="#FFFFFF" stroke="#B3B3B3" stroke-width="0.5" x1="533.6" y1="645.7" x2="533.6" y2="497.2"/>
<line fill="#FFFFFF" stroke="#B3B3B3" stroke-width="0.5" x1="538.6" y1="644.5" x2="538.6" y2="497.2"/>
<line fill="#FFFFFF" stroke="#010101" stroke-width="0.5" x1="538.2" y1="454.3" x2="538.2" y2="444.6"/>
<line fill="#FFFFFF" stroke="#010101" stroke-width="0.5" x1="760.6" y1="444.6" x2="818.3" y2="444.6"/>
<line fill="#FFFFFF" stroke="#010101" stroke-width="0.5" x1="692.8" y1="444.6" x2="744.7" y2="444.6"/>
<line fill="#FFFFFF" stroke="#010101" stroke-width="0.5" x1="538.2" y1="444.6" x2="566" y2="444.6"/>
<line fill="#FFFFFF" stroke="#010101" stroke-width="0.5" x1="760.6" y1="439.4" x2="818.3" y2="439.4"/>
<line fill="#FFFFFF" stroke="#010101" stroke-width="0.5" x1="692.8" y1="439.4" x2="744.7" y2="439.4"/>
<line fill="#FFFFFF" stroke="#010101" stroke-width="0.5" x1="538.2" y1="439.4" x2="566" y2="439.4"/>
<line fill="#FFFFFF" stroke="#010101" stroke-width="0.5" x1="687.3" y1="444.6" x2="687.3" y2="454.3"/>
<line fill="#FFFFFF" stroke="#010101" stroke-width="0.5" x1="687.3" y1="405.9" x2="687.3" y2="439.4"/>
<line fill="#FFFFFF" stroke="#010101" stroke-width="0.5" x1="692.8" y1="444.6" x2="692.8" y2="454.3"/>
<line fill="#FFFFFF" stroke="#010101" stroke-width="0.5" x1="692.8" y1="405.9" x2="692.8" y2="439.4"/>
<line fill="#FFFFFF" stroke="#010101" stroke-width="0.5" x1="744.7" y1="444.6" x2="744.7" y2="454.3"/>
<line fill="#FFFFFF" stroke="#010101" stroke-width="0.5" x1="744.7" y1="405.4" x2="744.7" y2="439.4"/>
<line fill="#FFFFFF" stroke="#010101" stroke-width="0.5" x1="760.6" y1="444.6" x2="760.6" y2="454.3"/>
<line fill="#FFFFFF" stroke="#010101" stroke-width="0.5" x1="760.6" y1="423.8" x2="760.6" y2="439.4"/>
<line fill="#FFFFFF" stroke="#010101" stroke-width="0.5" x1="818.3" y1="444.6" x2="818.3" y2="454.3"/>
<line fill="#FFFFFF" stroke="#010101" stroke-width="0.5" x1="818.3" y1="423.8" x2="818.3" y2="439.4"/>
<line fill="#FFFFFF" stroke="#010101" stroke-width="0.5" x1="833.4" y1="444.6" x2="833.4" y2="454.3"/>
<line fill="#FFFFFF" stroke="#010101" stroke-width="0.5" x1="833.4" y1="407" x2="833.4" y2="439.4"/>
<line fill="#FFFFFF" stroke="#010101" stroke-width="0.5" x1="963.4" y1="419.5" x2="963.4" y2="439.4"/>
<line fill="#FFFFFF" stroke="#010101" stroke-width="0.5" x1="963.4" y1="444.6" x2="963.4" y2="454.3"/>
<line fill="#FFFFFF" stroke="#010101" stroke-width="0.5" x1="944.3" y1="405.4" x2="944.3" y2="439.4"/>
<line fill="#FFFFFF" stroke="#010101" stroke-width="0.5" x1="944.3" y1="444.6" x2="944.3" y2="454.6"/>
<line fill="#FFFFFF" stroke="#010101" stroke-width="0.5" x1="1025.6" y1="444.6" x2="1025.6" y2="449.4"/>
<line fill="#FFFFFF" stroke="#010101" stroke-width="0.5" x1="1047.8" y1="449.4" x2="1047.8" y2="444.6"/>
<line fill="#FFFFFF" stroke="#010101" stroke-width="0.5" x1="1047.8" y1="428.6" x2="1126.5" y2="428.6"/>
<line fill="#FFFFFF" stroke="#010101" stroke-width="0.5" x1="1126.5" y1="428.6" x2="1126.5" y2="273.8"/>
<line fill="#FFFFFF" stroke="#010101" stroke-width="0.5" x1="1142.4" y1="439.4" x2="1151.6" y2="439.4"/>
<line fill="#FFFFFF" stroke="#010101" stroke-width="0.5" x1="1048.5" y1="439.4" x2="1137.6" y2="439.4"/>
<line fill="#FFFFFF" stroke="#010101" stroke-width="0.5" x1="963.4" y1="439.4" x2="1025.5" y2="439.4"/>
<line fill="#FFFFFF" stroke="#010101" stroke-width="0.5" x1="833.3" y1="439.4" x2="944.3" y2="439.4"/>
<line fill="#FFFFFF" stroke="#010101" stroke-width="0.5" x1="1142.4" y1="444.6" x2="1152.5" y2="444.6"/>
<line fill="#FFFFFF" stroke="#010101" stroke-width="0.5" x1="1048.5" y1="444.6" x2="1137.6" y2="444.6"/>
<line fill="#FFFFFF" stroke="#010101" stroke-width="0.5" x1="963.2" y1="444.6" x2="1025.5" y2="444.6"/>
<line fill="#FFFFFF" stroke="#010101" stroke-width="0.5" x1="833.4" y1="444.6" x2="944.3" y2="444.6"/>
<line fill="#FFFFFF" stroke="#010101" stroke-width="0.5" x1="1025.6" y1="420.4" x2="1025.6" y2="439.4"/>
<line fill="#FFFFFF" stroke="#010101" stroke-width="0.5" x1="1047.8" y1="439.4" x2="1047.8" y2="428.6"/>
<line fill="#FFFFFF" stroke="#010101" stroke-width="0.5" x1="888.7" y1="193.2" x2="881.1" y2="193.2"/>
<line fill="#FFFFFF" stroke="#010101" stroke-width="0.5" x1="835.2" y1="193.4" x2="835.2" y2="318.6"/>
<line fill="#FFFFFF" stroke="#010101" stroke-width="0.5" x1="835.2" y1="318.6" x2="940.7" y2="318.6"/>
<line fill="#FFFFFF" stroke="#010101" stroke-width="0.5" x1="631" y1="318.6" x2="746.6" y2="318.6"/>
<line fill="#FFFFFF" stroke="#010101" stroke-width="0.5" x1="939.1" y1="193.2" x2="939.1" y2="318.6"/>
<line fill="#FFFFFF" stroke="#010101" stroke-width="0.5" x1="533.2" y1="176.3" x2="524.7" y2="176.3"/>
<line fill="#FFFFFF" stroke="#010101" stroke-width="0.5" x1="902.2" y1="176.3" x2="869.6" y2="176.3"/>
<line fill="#FFFFFF" stroke="#010101" stroke-width="0.5" x1="533.2" y1="171.1" x2="524.7" y2="171.1"/>
<line fill="#FFFFFF" stroke="#010101" stroke-width="0.5" x1="676.6" y1="171.1" x2="538.1" y2="171.1"/>
<line fill="#FFFFFF" stroke="#010101" stroke-width="0.5" x1="902.2" y1="171.1" x2="869.6" y2="171.1"/>
<line fill="#FFFFFF" stroke="#010101" stroke-width="0.5" x1="846.8" y1="176.3" x2="846.8" y2="181.8"/>
<line fill="#FFFFFF" stroke="#010101" stroke-width="0.5" x1="846.8" y1="161" x2="846.8" y2="171.1"/>
<line fill="#FFFFFF" stroke="#010101" stroke-width="0.5" x1="869.6" y1="176.1" x2="869.6" y2="181.8"/>
<line fill="#FFFFFF" stroke="#010101" stroke-width="0.5" x1="869.6" y1="161" x2="869.6" y2="171.1"/>
<line fill="#FFFFFF" stroke="#010101" stroke-width="0.5" x1="902.2" y1="176.1" x2="902.2" y2="179.7"/>
<line fill="#FFFFFF" stroke="#010101" stroke-width="0.5" x1="902.2" y1="161" x2="902.2" y2="171.1"/>
<line fill="#FFFFFF" stroke="#010101" stroke-width="0.5" x1="924.6" y1="161" x2="924.6" y2="171.1"/>
<line fill="#FFFFFF" stroke="#010101" stroke-width="0.5" x1="945.9" y1="161" x2="945.9" y2="171.1"/>
<line fill="#FFFFFF" stroke="#010101" stroke-width="0.5" x1="924.4" y1="176.5" x2="924.4" y2="179.7"/>
<line fill="#FFFFFF" stroke="#010101" stroke-width="0.5" x1="963.6" y1="161" x2="963.6" y2="171.1"/>
<line fill="#FFFFFF" stroke="#010101" stroke-width="0.5" x1="533.6" y1="171.1" x2="533.6" y2="161"/>
<line fill="#FFFFFF" stroke="#010101" stroke-width="0.5" x1="533.6" y1="296.5" x2="533.6" y2="176.3"/>
<line fill="#FFFFFF" stroke="#010101" stroke-width="0.5" x1="533.6" y1="439.4" x2="533.6" y2="322.6"/>
<line fill="#FFFFFF" stroke="#010101" stroke-width="0.5" x1="538.2" y1="171.1" x2="538.2" y2="161"/>
<line fill="#FFFFFF" stroke="#010101" stroke-width="0.5" x1="538.2" y1="311.9" x2="538.2" y2="176.3"/>
<line fill="#FFFFFF" stroke="#010101" stroke-width="0.5" x1="538.2" y1="439.4" x2="538.2" y2="322.6"/>
<line fill="#FFFFFF" stroke="#010101" stroke-width="0.5" x1="1137.6" y1="444.6" x2="1137.6" y2="454.3"/>
<line fill="#FFFFFF" stroke="#010101" stroke-width="0.5" x1="1137.6" y1="273.8" x2="1137.6" y2="439.4"/>
<line fill="#FFFFFF" stroke="#010101" stroke-width="0.5" x1="1137.6" y1="176.4" x2="1137.6" y2="246.7"/>
<line fill="#FFFFFF" stroke="#010101" stroke-width="0.5" x1="1137.6" y1="161" x2="1137.6" y2="171.1"/>
<line fill="#FFFFFF" stroke="#010101" stroke-width="0.5" x1="1142.4" y1="444.7" x2="1142.4" y2="454.3"/>
<line fill="#FFFFFF" stroke="#010101" stroke-width="0.5" x1="1142.4" y1="273.8" x2="1142.4" y2="439.4"/>
<line fill="#FFFFFF" stroke="#010101" stroke-width="0.5" x1="1142.4" y1="176.4" x2="1142.4" y2="246.7"/>
<line fill="#FFFFFF" stroke="#010101" stroke-width="0.5" x1="1142.4" y1="161" x2="1142.4" y2="171.1"/>
<line fill="#FFFFFF" stroke="#010101" stroke-width="0.5" x1="1137.6" y1="176.4" x2="924.4" y2="176.4"/>
<line fill="#FFFFFF" stroke="#010101" stroke-width="0.5" x1="1152.5" y1="176.4" x2="1142.4" y2="176.4"/>
<line fill="#FFFFFF" stroke="#010101" stroke-width="0.5" x1="1152.5" y1="171.1" x2="1142.4" y2="171.1"/>
<line fill="#FFFFFF" stroke="#010101" stroke-width="0.5" x1="1142.4" y1="273.8" x2="1146.1" y2="273.8"/>
<line fill="#FFFFFF" stroke="#010101" stroke-width="0.5" x1="1126.5" y1="273.8" x2="1137.6" y2="273.8"/>
<line fill="#FFFFFF" stroke="#010101" stroke-width="0.5" x1="1142.4" y1="246.7" x2="1146.3" y2="246.7"/>
<line fill="#FFFFFF" stroke="#010101" stroke-width="0.5" x1="1125.4" y1="246.7" x2="1137.6" y2="246.7"/>
<line fill="#FFFFFF" stroke="#010101" stroke-width="0.5" x1="33.9" y1="430.7" x2="33.9" y2="439.4"/>
<line fill="none" stroke="#010101" stroke-width="0.5" x1="616.2" y1="444.6" x2="616.2" y2="454.3"/>
<line fill="none" stroke="#010101" stroke-width="0.5" x1="616.2" y1="424" x2="616.2" y2="439.4"/>
<line fill="none" stroke="#010101" stroke-width="0.5" x1="632.1" y1="444.6" x2="632.1" y2="454.3"/>
<line fill="none" stroke="#010101" stroke-width="0.5" x1="632.1" y1="409.3" x2="632.1" y2="439.4"/>
<line fill="#FFFFFF" stroke="#010101" stroke-width="0.5" x1="632.1" y1="444.6" x2="687.3" y2="444.6"/>
<line fill="#FFFFFF" stroke="#010101" stroke-width="0.5" x1="598.2" y1="444.6" x2="616.2" y2="444.6"/>
<line fill="#FFFFFF" stroke="#010101" stroke-width="0.5" x1="632.1" y1="439.4" x2="687.3" y2="439.4"/>
<line fill="#FFFFFF" stroke="#010101" stroke-width="0.5" x1="598.2" y1="439.4" x2="616.2" y2="439.4"/>
<line fill="none" stroke="#010101" stroke-width="0.5" x1="1017" y1="161" x2="1017" y2="171.1"/>
<line fill="none" stroke="#010101" stroke-width="0.5" x1="1051.6" y1="161" x2="1051.6" y2="171.1"/>
<line fill="#FFFFFF" stroke="#010101" stroke-width="0.5" x1="1017" y1="171.1" x2="963.6" y2="171.1"/>
<line fill="#FFFFFF" stroke="#010101" stroke-width="0.5" x1="945.9" y1="171.1" x2="924.6" y2="171.1"/>
<line fill="#FFFFFF" stroke="#010101" stroke-width="0.5" x1="1137.6" y1="171.1" x2="1051.6" y2="171.1"/>
<line fill="none" stroke="#010101" stroke-width="0.5" x1="783.3" y1="171.1" x2="783.3" y2="161"/>
<line fill="none" stroke="#010101" stroke-width="0.5" x1="783.3" y1="180.3" x2="783.3" y2="176.3"/>
<line fill="none" stroke="#010101" stroke-width="0.5" x1="796.5" y1="176.3" x2="796.5" y2="180.4"/>
<line fill="none" stroke="#010101" stroke-width="0.5" x1="796.5" y1="161" x2="796.5" y2="171.1"/>
<line fill="#FFFFFF" stroke="#010101" stroke-width="0.5" x1="740.8" y1="176.3" x2="700.5" y2="176.3"/>
<line fill="#FFFFFF" stroke="#010101" stroke-width="0.5" x1="846.8" y1="176.3" x2="796.4" y2="176.3"/>
<line fill="#FFFFFF" stroke="#010101" stroke-width="0.5" x1="740.8" y1="171.1" x2="700.5" y2="171.1"/>
<line fill="#FFFFFF" stroke="#010101" stroke-width="0.5" x1="846.8" y1="171.1" x2="796.5" y2="171.1"/>
<line fill="none" stroke="#010101" stroke-width="0.5" x1="746.6" y1="171.1" x2="746.6" y2="161"/>
<line fill="none" stroke="#010101" stroke-width="0.5" x1="746.6" y1="187.1" x2="746.6" y2="176.3"/>
<line fill="#FFFFFF" stroke="#010101" stroke-width="0.5" x1="783.3" y1="176.3" x2="746.6" y2="176.3"/>
<line fill="#FFFFFF" stroke="#010101" stroke-width="0.5" x1="783.3" y1="171.1" x2="746.6" y2="171.1"/>
<line fill="#FFFFFF" stroke="#010101" stroke-width="0.5" x1="740.8" y1="176.3" x2="740.8" y2="190.5"/>
<line fill="#FFFFFF" stroke="#010101" stroke-width="0.5" x1="746.6" y1="176.3" x2="746.6" y2="318.6"/>
<line fill="#FFFFFF" stroke="#010101" stroke-width="0.5" x1="740.8" y1="161" x2="740.8" y2="171.1"/>
<line fill="#FFFFFF" stroke="#010101" stroke-width="0.5" x1="616" y1="176.3" x2="538.1" y2="176.3"/>
<line fill="#FFFFFF" stroke="#010101" stroke-width="0.5" x1="676.6" y1="176.3" x2="631.8" y2="176.3"/>
<g>
	<line fill="none" stroke="#010101" stroke-width="0.5" x1="678.4" y1="210.2" x2="694.7" y2="210.2"/>
	<line fill="none" stroke="#010101" stroke-width="0.5" x1="678.4" y1="218.9" x2="694.7" y2="218.9"/>
	<path fill="none" stroke="#010101" stroke-width="0.5" d="M678.5,218.9c-2.4,0-4.3-1.9-4.3-4.3c0-2.4,1.9-4.3,4.3-4.3"/>
	<path fill="none" stroke="#010101" stroke-width="0.5" d="M694.5,210.2c2.4,0,4.3,1.9,4.3,4.3c0,2.4-1.9,4.3-4.3,4.3"/>
</g>
<g>
	<line fill="none" stroke="#010101" stroke-width="0.5" x1="877.3" y1="210.2" x2="893.7" y2="210.2"/>
	<line fill="none" stroke="#010101" stroke-width="0.5" x1="877.3" y1="218.9" x2="893.7" y2="218.9"/>
	<path fill="none" stroke="#010101" stroke-width="0.5" d="M877.5,218.9c-2.4,0-4.3-1.9-4.3-4.3c0-2.4,1.9-4.3,4.3-4.3"/>
	<path fill="none" stroke="#010101" stroke-width="0.5" d="M893.5,210.2c2.4,0,4.3,1.9,4.3,4.3c0,2.4-1.9,4.3-4.3,4.3"/>
</g>
<g>
	<line fill="none" stroke="#010101" stroke-width="0.5" x1="678.4" y1="297.1" x2="694.7" y2="297.1"/>
	<line fill="none" stroke="#010101" stroke-width="0.5" x1="678.4" y1="305.8" x2="694.7" y2="305.8"/>
	<path fill="none" stroke="#010101" stroke-width="0.5" d="M678.5,305.8c-2.4,0-4.3-1.9-4.3-4.3c0-2.4,1.9-4.3,4.3-4.3"/>
	<path fill="none" stroke="#010101" stroke-width="0.5" d="M694.5,297.1c2.4,0,4.3,1.9,4.3,4.3c0,2.4-1.9,4.3-4.3,4.3"/>
</g>
<g>
	<line fill="none" stroke="#010101" stroke-width="0.5" x1="630.6" y1="249.4" x2="647" y2="249.4"/>
	<line fill="none" stroke="#010101" stroke-width="0.5" x1="630.6" y1="258.1" x2="647" y2="258.1"/>
	<path fill="none" stroke="#010101" stroke-width="0.5" d="M646.8,249.4c2.4,0,4.3,1.9,4.3,4.3c0,2.4-1.9,4.3-4.3,4.3"/>
</g>
<path fill="none" stroke="#010101" stroke-width="0.5" d="M275.8,444.6c0,5.2,4.2,9.4,9.4,9.4"/>
<path fill="none" stroke="#010101" stroke-width="0.5" d="M255,444.6c0,5.2-4.2,9.4-9.4,9.4"/>
<line fill="#FFFFFF" stroke="#010101" stroke-width="0.5" x1="275.8" y1="444.6" x2="474.1" y2="444.6"/>
<line fill="#FFFFFF" stroke="#010101" stroke-width="0.5" x1="33.9" y1="444.6" x2="255" y2="444.6"/>
<line fill="#FFFFFF" stroke="#010101" stroke-width="0.5" x1="-56.3" y1="439.4" x2="12.9" y2="439.4"/>
<line fill="#FFFFFF" stroke="#010101" stroke-width="0.5" x1="-59.4" y1="444.6" x2="12.9" y2="444.6"/>
<line fill="none" stroke="#010101" stroke-width="0.5" x1="255" y1="439.4" x2="255" y2="412.3"/>
<line fill="#FFFFFF" stroke="#010101" stroke-width="0.5" x1="373.3" y1="439.4" x2="474.1" y2="439.4"/>
<line fill="#FFFFFF" stroke="#010101" stroke-width="0.5" x1="275.8" y1="439.4" x2="325.7" y2="439.4"/>
<line fill="none" stroke="#010101" stroke-width="0.5" x1="474.1" y1="308" x2="415.7" y2="308"/>
<line fill="none" stroke="#010101" stroke-width="0.5" x1="415.7" y1="308" x2="415.7" y2="358.6"/>
<line fill="none" stroke="#010101" stroke-width="0.5" x1="415.7" y1="358.6" x2="373.4" y2="358.6"/>
<line fill="none" stroke="#010101" stroke-width="0.5" x1="373.4" y1="358.6" x2="373.4" y2="439.4"/>
<line fill="none" stroke="#010101" stroke-width="0.5" x1="255" y1="412.3" x2="242.6" y2="412.3"/>
<line fill="none" stroke="#010101" stroke-width="0.5" x1="242.6" y1="430.7" x2="242.6" y2="412.3"/>
<path fill="none" stroke="#010101" stroke-width="0.5" d="M33.5,444.6c0,5.2,4.2,9.4,9.4,9.4"/>
<path fill="none" stroke="#010101" stroke-width="0.5" d="M12.7,444.6c0,5.2-4.2,9.4-9.4,9.4"/>
<line fill="none" stroke="#B3B3B3" stroke-width="0.5" x1="473.9" y1="491.7" x2="-60.9" y2="491.7"/>
<line fill="none" stroke="#B3B3B3" stroke-width="0.5" x1="524" y1="491.7" x2="533.6" y2="491.7"/>
<line fill="none" stroke="#B3B3B3" stroke-width="0.5" x1="473.9" y1="497.2" x2="-59.4" y2="497.2"/>
<line fill="none" stroke="#B3B3B3" stroke-width="0.5" x1="524" y1="497.2" x2="533.6" y2="497.2"/>
<path fill="none" stroke="#010101" stroke-width="0.5" d="M1025.6,449.4c0,2.7-2.2,4.9-4.9,4.9"/>
<path fill="none" stroke="#010101" stroke-width="0.5" d="M1047.8,449.4c0,2.7,2.2,4.9,4.9,4.9"/>
<path fill="none" stroke="#010101" stroke-width="0.5" d="M1152.5,239.5c0,4-3.2,7.2-7.2,7.2"/>
<path fill="none" stroke="#010101" stroke-width="0.5" d="M1152.9,281.4c0-4.2-3.4-7.5-7.5-7.5"/>
<line fill="none" stroke="#B3B3B3" stroke-width="0.5" x1="533.6" y1="491.7" x2="533.6" y2="482"/>
<line fill="none" stroke="#B3B3B3" stroke-width="0.5" x1="538.6" y1="491.7" x2="538.6" y2="482"/>
<line fill="none" stroke="#B3B3B3" stroke-width="0.5" x1="473.9" y1="491.7" x2="473.9" y2="482"/>
<line fill="none" stroke="#B3B3B3" stroke-width="0.5" x1="479" y1="491.3" x2="479" y2="481.8"/>
<line fill="none" stroke="#B3B3B3" stroke-width="0.5" x1="479.3" y1="491.7" x2="489.4" y2="491.7"/>
<line fill="none" stroke="#B3B3B3" stroke-width="0.5" x1="479" y1="497.2" x2="489.4" y2="497.2"/>
<line fill="#FFFFFF" stroke="#B3B3B3" stroke-width="0.5" x1="482.4" y1="-45.3" x2="482.4" y2="109.2"/>
<line fill="#FFFFFF" stroke="#B3B3B3" stroke-width="0.5" x1="477.2" y1="-45.3" x2="477.2" y2="109"/>
<line fill="none" stroke="#B3B3B3" stroke-width="0.5" x1="477.4" y1="114.7" x2="-60.9" y2="114.7"/>
<line fill="none" stroke="#B3B3B3" stroke-width="0.5" x1="477.4" y1="109.2" x2="-59.4" y2="109.2"/>
<line fill="none" stroke="#B3B3B3" stroke-width="0.5" x1="477.4" y1="114.7" x2="477.4" y2="124.4"/>
<line fill="none" stroke="#B3B3B3" stroke-width="0.5" x1="482.4" y1="115.1" x2="482.4" y2="124.6"/>
<line fill="none" stroke="#B3B3B3" stroke-width="0.5" x1="482.7" y1="114.7" x2="492.8" y2="114.7"/>
<line fill="none" stroke="#B3B3B3" stroke-width="0.5" x1="482.4" y1="109.2" x2="492.8" y2="109.2"/>
<line fill="#FFFFFF" stroke="#B3B3B3" stroke-width="0.5" x1="535.1" y1="-48" x2="535.1" y2="109"/>
<line fill="#FFFFFF" stroke="#B3B3B3" stroke-width="0.5" x1="540.3" y1="-48" x2="540.3" y2="108.8"/>
<line fill="none" stroke="#B3B3B3" stroke-width="0.5" x1="540.2" y1="114.5" x2="1132.6" y2="114.5"/>
<line fill="none" stroke="#B3B3B3" stroke-width="0.5" x1="540.2" y1="109" x2="1132.6" y2="109"/>
<line fill="none" stroke="#B3B3B3" stroke-width="0.5" x1="540.2" y1="114.5" x2="540.2" y2="124.2"/>
<line fill="none" stroke="#B3B3B3" stroke-width="0.5" x1="535.1" y1="114.9" x2="535.1" y2="124.4"/>
<line fill="none" stroke="#B3B3B3" stroke-width="0.5" x1="534.8" y1="114.5" x2="524.7" y2="114.5"/>
<line fill="none" stroke="#B3B3B3" stroke-width="0.5" x1="535.1" y1="109" x2="524.7" y2="109"/>
<line fill="none" stroke="#B3B3B3" stroke-width="0.5" x1="1144.5" y1="491.7" x2="1152.5" y2="491.7"/>
<line fill="none" stroke="#B3B3B3" stroke-width="0.5" x1="538.6" y1="491.7" x2="1139.7" y2="491.7"/>
<line fill="none" stroke="#B3B3B3" stroke-width="0.5" x1="1144.5" y1="497.2" x2="1152.5" y2="497.2"/>
<line fill="none" stroke="#B3B3B3" stroke-width="0.5" x1="538.6" y1="497.2" x2="1139.8" y2="497.2"/>
<line fill="#FFFFFF" stroke="#B3B3B3" stroke-width="0.5" x1="1139.7" y1="497.1" x2="1139.7" y2="640.6"/>
<line fill="#FFFFFF" stroke="#B3B3B3" stroke-width="0.5" x1="1139.7" y1="482" x2="1139.7" y2="491.7"/>
<line fill="#FFFFFF" stroke="#B3B3B3" stroke-width="0.5" x1="1144.5" y1="497.2" x2="1144.5" y2="645.7"/>
<line fill="#FFFFFF" stroke="#B3B3B3" stroke-width="0.5" x1="1144.5" y1="482" x2="1144.5" y2="491.7"/>
<circle fill="#FFFFFF" stroke="#010101" stroke-width="0.25" cx="485.7" cy="343.5" r="11.6"/>
<circle fill="#FFFFFF" stroke="#010101" stroke-width="0.25" cx="485.7" cy="374.5" r="12.5"/>
<circle fill="#FFFFFF" stroke="#010101" stroke-width="0.25" cx="485.7" cy="418.2" r="11.6"/>
<circle fill="#FFFFFF" stroke="#010101" stroke-width="0.25" cx="466.5" cy="448.7" r="11.6"/>
<circle fill="#FFFFFF" stroke="#010101" stroke-width="0.25" cx="438.8" cy="448.7" r="11.6"/>
<circle fill="#FFFFFF" stroke="#010101" stroke-width="0.25" cx="403.4" cy="448.7" r="11.6"/>
<circle fill="#FFFFFF" stroke="#010101" stroke-width="0.25" cx="373.6" cy="448.7" r="11.6"/>
<circle fill="#FFFFFF" stroke="#010101" stroke-width="0.25" cx="338.9" cy="448.7" r="11.6"/>
<circle fill="#FFFFFF" stroke="#010101" stroke-width="0.25" cx="316.7" cy="409.4" r="11.6"/>
<circle fill="#FFFFFF" stroke="#010101" stroke-width="0.25" cx="289.6" cy="430.2" r="11.6"/>
<circle fill="#FFFFFF" stroke="#010101" stroke-width="0.25" cx="282.4" cy="405.4" r="11.6"/>
<circle fill="#FFFFFF" stroke="#010101" stroke-width="0.25" cx="301.5" cy="448.7" r="11.6"/>
<circle fill="#FFFFFF" stroke="#010101" stroke-width="0.25" cx="229" cy="448.7" r="11.6"/>
<circle fill="#FFFFFF" stroke="#010101" stroke-width="0.25" cx="201.3" cy="448.7" r="11.6"/>
<circle fill="#FFFFFF" stroke="#010101" stroke-width="0.25" cx="165.9" cy="448.7" r="11.6"/>
<circle fill="#FFFFFF" stroke="#010101" stroke-width="0.25" cx="136.1" cy="448.7" r="11.6"/>
<circle fill="#FFFFFF" stroke="#010101" stroke-width="0.25" cx="101.5" cy="448.7" r="11.6"/>
<circle fill="#FFFFFF" stroke="#010101" stroke-width="0.25" cx="64" cy="448.7" r="11.6"/>
<circle fill="#FFFFFF" stroke="#010101" stroke-width="0.25" cx="232.2" cy="170" r="11.6"/>
<circle fill="#FFFFFF" stroke="#010101" stroke-width="0.25" cx="204.4" cy="170" r="11.6"/>
<circle fill="#FFFFFF" stroke="#010101" stroke-width="0.25" cx="169.1" cy="170" r="11.6"/>
<circle fill="#FFFFFF" stroke="#010101" stroke-width="0.25" cx="139.3" cy="170" r="11.6"/>
<circle fill="#FFFFFF" stroke="#010101" stroke-width="0.25" cx="104.6" cy="170" r="11.6"/>
<circle fill="#FFFFFF" stroke="#010101" stroke-width="0.25" cx="67.2" cy="170" r="11.6"/>
<circle fill="#FFFFFF" stroke="#010101" stroke-width="0.25" cx="436.1" cy="170" r="11.6"/>
<circle fill="#FFFFFF" stroke="#010101" stroke-width="0.25" cx="403.4" cy="170" r="11.6"/>
<circle fill="#FFFFFF" stroke="#010101" stroke-width="0.25" cx="368" cy="170" r="11.6"/>
<circle fill="#FFFFFF" stroke="#010101" stroke-width="0.25" cx="338.2" cy="170" r="11.6"/>
<circle fill="#FFFFFF" stroke="#010101" stroke-width="0.25" cx="303.6" cy="170" r="11.6"/>
<circle fill="#FFFFFF" stroke="#010101" stroke-width="0.25" cx="266.1" cy="170" r="11.6"/>
<path fill="#FFFFFF" stroke="#010101" stroke-width="0.2208" d="M543.7,355.7c0,7.6-6.2,13.8-13.8,13.8c-7.6,0-13.8-6.2-13.8-13.8
	c0-7.6,6.2-13.8,13.8-13.8C537.5,341.9,543.7,348.1,543.7,355.7z"/>
<path fill="#FFFFFF" stroke="#010101" stroke-width="0.25" d="M541.7,384.9c0,6.5-5.3,11.8-11.8,11.8c-6.5,0-11.8-5.3-11.8-11.8
	c0-6.5,5.3-11.8,11.8-11.8C536.4,373.1,541.7,378.4,541.7,384.9z"/>
<circle fill="#FFFFFF" stroke="#010101" stroke-width="0.25" cx="583.8" cy="449.4" r="8.8"/>
<circle fill="#FFFFFF" stroke="#010101" stroke-width="0.25" cx="640.1" cy="449.4" r="8.8"/>
<circle fill="#FFFFFF" stroke="#010101" stroke-width="0.25" cx="659.9" cy="449.4" r="8.8"/>
<circle fill="#FFFFFF" stroke="#010101" stroke-width="0.25" cx="707.2" cy="449.4" r="8.8"/>
<circle fill="#FFFFFF" stroke="#010101" stroke-width="0.25" cx="729.6" cy="449.4" r="8.8"/>
<circle fill="#FFFFFF" stroke="#010101" stroke-width="0.25" cx="775.9" cy="449.4" r="8.8"/>
<circle fill="#FFFFFF" stroke="#010101" stroke-width="0.25" cx="850.6" cy="449.4" r="8.8"/>
<circle fill="#FFFFFF" stroke="#010101" stroke-width="0.25" cx="880.4" cy="449.4" r="8.8"/>
<circle fill="#FFFFFF" stroke="#010101" stroke-width="0.25" cx="912.6" cy="449.4" r="8.8"/>
<circle fill="#FFFFFF" stroke="#010101" stroke-width="0.25" cx="936.2" cy="449.4" r="5.2"/>
<circle fill="#FFFFFF" stroke="#010101" stroke-width="0.25" cx="970.5" cy="449.4" r="5.2"/>
<circle fill="#FFFFFF" stroke="#010101" stroke-width="0.25" cx="994.8" cy="449.4" r="5.2"/>
<circle fill="#FFFFFF" stroke="#010101" stroke-width="0.25" cx="1017.3" cy="449.4" r="5.2"/>
<circle fill="#FFFFFF" stroke="#010101" stroke-width="0.25" cx="1059.6" cy="449.8" r="6.6"/>
<circle fill="#FFFFFF" stroke="#010101" stroke-width="0.25" cx="1090.4" cy="449.8" r="8.5"/>
<circle fill="#FFFFFF" stroke="#010101" stroke-width="0.25" cx="1148.1" cy="422.9" r="8.5"/>
<circle fill="#FFFFFF" stroke="#010101" stroke-width="0.25" cx="1071.7" cy="164.9" r="10.1"/>
<circle fill="#FFFFFF" stroke="#010101" stroke-width="0.25" cx="983.9" cy="165.2" r="8.2"/>
<circle fill="#FFFFFF" stroke="#010101" stroke-width="0.25" cx="934.5" cy="165.2" r="8.2"/>
<circle fill="#FFFFFF" stroke="#010101" stroke-width="0.25" cx="886.6" cy="165.6" r="9.8"/>
<circle fill="#FFFFFF" stroke="#010101" stroke-width="0.25" cx="838.7" cy="165.6" r="9.8"/>
<circle fill="#FFFFFF" stroke="#010101" stroke-width="0.25" cx="804.6" cy="165.6" r="9.8"/>
<circle fill="#FFFFFF" stroke="#010101" stroke-width="0.25" cx="886.6" cy="188" r="8.2"/>
<circle fill="#FFFFFF" stroke="#010101" stroke-width="0.25" cx="879.5" cy="214.3" r="8.2"/>
<circle fill="#FFFFFF" stroke="#010101" stroke-width="0.25" cx="690.5" cy="214.3" r="8.2"/>
<circle fill="#FFFFFF" stroke="#010101" stroke-width="0.25" cx="648.5" cy="186.3" r="8.2"/>
<circle fill="#FFFFFF" stroke="#010101" stroke-width="0.25" cx="709.8" cy="186.3" r="8.2"/>
<circle fill="#FFFFFF" stroke="#010101" stroke-width="0.25" cx="690.5" cy="301.4" r="8.2"/>
<circle fill="#FFFFFF" stroke="#010101" stroke-width="0.25" cx="642.8" cy="253.7" r="8.2"/>
<circle fill="#FFFFFF" stroke="#010101" stroke-width="0.25" cx="939.1" cy="259.8" r="8.2"/>
<circle fill="#FFFFFF" stroke="#010101" stroke-width="0.25" cx="928.2" cy="322.7" r="8.2"/>
<circle fill="#FFFFFF" stroke="#010101" stroke-width="0.25" cx="839.9" cy="186.3" r="8.2"/>
<circle fill="#FFFFFF" stroke="#010101" stroke-width="0.25" cx="1148.1" cy="393.9" r="8.5"/>
<circle fill="#FFFFFF" stroke="#010101" stroke-width="0.25" cx="1148.1" cy="365.5" r="8.5"/>
<circle fill="#FFFFFF" stroke="#010101" stroke-width="0.25" cx="1120.9" cy="449.8" r="6.6"/>
<circle fill="#FFFFFF" stroke="#010101" stroke-width="0.25" cx="1147.8" cy="340.2" r="6.6"/>
<circle fill="#FFFFFF" stroke="#010101" stroke-width="0.25" cx="1147.8" cy="315.3" r="6.6"/>
<circle fill="#FFFFFF" stroke="#010101" stroke-width="0.25" cx="1147.8" cy="234.7" r="6.6"/>
<circle fill="#FFFFFF" stroke="#010101" stroke-width="0.25" cx="1147.8" cy="211.1" r="6.6"/>
<circle fill="#FFFFFF" stroke="#010101" stroke-width="0.25" cx="1147.8" cy="188.7" r="6.6"/>
<circle fill="#FFFFFF" stroke="#010101" stroke-width="0.25" cx="1126.2" cy="165.1" r="6.6"/>
<circle fill="#FFFFFF" stroke="#010101" stroke-width="0.25" cx="1102.2" cy="165.1" r="6.6"/>
<circle fill="#FFFFFF" stroke="#010101" stroke-width="0.25" cx="1147.8" cy="285.8" r="6.6"/>
<circle fill="#FFFFFF" stroke="#010101" stroke-width="0.25" cx="680.7" cy="449.4" r="8.8"/>
<path fill="#FFFFFF" stroke="#010101" stroke-width="0.2212" d="M543.9,418.8c0,7.7-6.3,14-14,14c-7.7,0-14-6.3-14-14
	c0-7.7,6.3-14,14-14C537.6,404.9,543.9,411.1,543.9,418.8z"/>
<path fill="#FFFFFF" stroke="#010101" stroke-width="0.25" d="M566,448.1c0,6.3-5.1,11.4-11.4,11.4c-6.3,0-11.4-5.1-11.4-11.4
	c0-6.3,5.1-11.4,11.4-11.4C560.9,436.7,566,441.8,566,448.1z"/>
<path fill="#FFFFFF" stroke="#010101" stroke-width="0.25" d="M619.6,449.4c0,5.9-4.8,10.7-10.7,10.7c-5.9,0-10.7-4.8-10.7-10.7
	c0-5.9,4.8-10.7,10.7-10.7C614.8,438.7,619.6,443.5,619.6,449.4z"/>
<circle fill="#FFFFFF" stroke="#010101" stroke-width="0.25" cx="722.4" cy="165" r="12.7"/>
<circle fill="#FFFFFF" stroke="#010101" stroke-width="0.25" cx="658.4" cy="165" r="12.7"/>
<circle fill="#FFFFFF" stroke="#010101" stroke-width="0.25" cx="628.7" cy="165" r="12.7"/>
<circle fill="#FFFFFF" stroke="#010101" stroke-width="0.25" cx="599.1" cy="165" r="12.7"/>
<circle fill="#FFFFFF" stroke="#010101" stroke-width="0.25" cx="573.6" cy="165" r="12.7"/>
<circle fill="#FFFFFF" stroke="#010101" stroke-width="0.25" cx="545" cy="165" r="12.7"/>
<g id="XMLID_2_">
	<g>
		<path fill="#662D91" d="M532.3,300.2l-1.6,3.1l-3.1-3.1l1.3-1.8l0.4-0.5C530.3,298.6,531.2,299.4,532.3,300.2z"/>
		<path fill="#ED1C24" d="M527.6,300.2l3.1,3.1l-4.3,8.2c-1.7-1.2-3-2.6-4.1-4.1L527.6,300.2z"/>
		<path fill="#006838" d="M529.4,297.8l-0.4,0.5l-1.3,1.8l-7.5-1.6v0l7.1-2.9C527.8,296.4,528.5,297.1,529.4,297.8z"/>
		<path fill="#F15A29" d="M527.6,300.2l-5.3,7.3c-1.8-2.5-2.9-5.3-3.7-8.2l1.5-0.6L527.6,300.2z"/>
		<path fill="#ED1C24" d="M527.1,295.7l-7.1,2.9l2.1-4.2l-0.2-0.9l4.2,0.9C526.4,294.8,526.8,295.2,527.1,295.7z"/>
		<path fill="#FFF200" d="M526.1,294.4l-4.2-0.9l-2.8-12.1l3.1-0.6C522.5,285.9,522.7,290,526.1,294.4z"/>
		<path fill="#FFF200" d="M523.3,240.8c0,1.6,0,3.1-0.1,4.7l-2.6,1l-1-5.4l-0.1-0.2l3.8-1C523.3,240.2,523.3,240.5,523.3,240.8z"/>
		<path fill="#662D91" d="M523.2,239.9l-3.8,1l-3.4-4.8V236l6.1-1.4C522.7,236.1,523.1,237.8,523.2,239.9z"/>
		<path fill="#ED1C24" d="M520.6,246.5L520.6,246.5l2.6-1c-0.1,2.2-0.3,4.4-0.6,6.7l-4.5,1c0-0.8,0-1.6,0-2.5c0-1.1-0.1-2.2-0.3-3.1
			L520.6,246.5z"/>
		<path fill="#662D91" d="M518.1,253.1l4.5-1c-0.2,1.9-0.4,3.9-0.7,5.8l-4.5,0.5C517.8,256.9,518.1,255.2,518.1,253.1z"/>
		<path fill="#FFF200" d="M521.9,293.6l0.2,0.9l-2.1,4.2v0l-1.5,0.6c-0.5-2.1-0.8-4.3-1-6.6L521.9,293.6z"/>
		<path fill="#FFF200" d="M522.1,234.6l-6.1,1.4l0.3-7.6l2.1-0.9h0C519.7,230,521.2,231.9,522.1,234.6z"/>
		<path fill="#ED1C24" d="M522,275.2l-2.8,6.2l0,0.1l-2.2,0.4c-0.1-2-0.3-3.8-0.6-5.5L522,275.2z"/>
		<path fill="#006838" d="M517.5,258.4l4.5-0.5c-0.4,3.1-0.7,6.2-0.7,9.2l-5.7-0.6C516,263.8,516.9,261.4,517.5,258.4z"/>
		<path fill="#FFF200" d="M522,275.2l-5.7,1.1c0-0.2-0.1-0.5-0.1-0.7c-0.3-1-0.4-2-0.6-2.9l5.9-0.6
			C521.6,273.2,521.7,274.2,522,275.2z"/>
		<path fill="#1C75BC" d="M519.1,281.4l2.8,12.1l-4.4-0.9c-0.3-3.7-0.4-7.4-0.6-10.8L519.1,281.4z"/>
		<path fill="#F15A29" d="M521.5,272.1l-5.9,0.6h0c-0.3-2.4-0.3-4.4,0-6.2l5.7,0.6C521.2,268.8,521.3,270.5,521.5,272.1z"/>
		<path fill="#F15A29" d="M520.6,246.5L520.6,246.5l-2.8,1c-0.4-2.1-1-4-1.7-5.8l3.3-0.9l0.1,0.2L520.6,246.5z"/>
		<path fill="#ED1C24" d="M519.4,240.9l-3.3,0.9c-0.7-1.8-1.6-3.4-2.5-5.2l2.5-0.6v0.1L519.4,240.9z"/>
		<path fill="#1C75BC" d="M518.5,227.5l-2.1,0.9l-3.4-2.2l4.2-1.7C517.6,225.6,518,226.6,518.5,227.5z"/>
		<path fill="#ED1C24" d="M517.2,224.5l-4.2,1.7l-0.4-0.3l1-12.4l2.7-2C515.7,217.6,516.3,221.5,517.2,224.5z"/>
		<path fill="#662D91" d="M516.5,205.5c0,1.3,0.1,2.6,0.1,3.9c-0.1,0.7-0.2,1.4-0.2,2.1l-2.7,2l-3.4-4.1v0L516.5,205.5z"/>
		<path fill="#F15A29" d="M516.5,205.5l-6.3,3.9l3.4-11.5v0l1.7-1.3l0.3,0C516.1,199.5,516.4,202.5,516.5,205.5z"/>
		<path fill="#006838" d="M516.3,228.4l-0.3,7.6l-2.5,0.6c-0.9-1.8-1.8-3.7-2.6-5.9L516.3,228.4z"/>
		<path fill="#662D91" d="M516.3,228.4l-5.4,2.2c-0.4-1-0.7-2.1-1-3.3l3-1.2L516.3,228.4z"/>
		<path fill="#FFF200" d="M515.6,196.5l-0.3,0l-1.7,1.3l-5.9-12.9l3.5-3.5C513.4,186,514.8,191.1,515.6,196.5z"/>
		<path fill="#F15A29" d="M510.2,209.4l3.4,4.1l-4.9,3.6c0-0.2,0-0.4,0-0.7c0-2-0.1-4.1-0.3-6L510.2,209.4z"/>
		<path fill="#FFF200" d="M508.7,217.1l4.9-3.6l-1,12.4l0.4,0.3l-3,1.2C509.3,224.6,508.8,221.2,508.7,217.1z"/>
		<path fill="#ED1C24" d="M513.6,197.8l-3.4,11.5v0l-1.7,1.1c-0.2-2.7-0.6-5.4-1.1-7.9L513.6,197.8z"/>
		<path fill="#006838" d="M513.6,197.8L513.6,197.8l-6.2,4.7c-0.9-4.9-2.4-9.4-4.3-13.1l0.2-0.1l4.4-4.4L513.6,197.8z"/>
		<path fill="#F15A29" d="M511.2,181.4l-3.5,3.5l0.3-3.7l2.3-1.7C510.6,180.2,510.9,180.8,511.2,181.4z"/>
		<path fill="#006838" d="M510.3,179.6l-2.3,1.7l-5.7-0.8l5.9-4.3C508.9,177.2,509.6,178.4,510.3,179.6z"/>
		<path fill="#1C75BC" d="M509.4,250.6c0,0.5,0.1,1,0.1,1.6c0,1,0,1.9-0.1,2.8l-2.5,0.5v0l0.4-4.1L509.4,250.6z"/>
		<path fill="#ED1C24" d="M509.4,250.6l-2.1,0.8l-4.3-6.2l4.7-1.2h0C508.6,245.9,509.2,248,509.4,250.6z"/>
		<path fill="#1C75BC" d="M508.4,259.4l0.4,0c-0.5,2.5-1.1,4.5-1.5,6.4l-2.8-0.3l0.2-0.6l-3.2-4.6l0.1-0.2L508.4,259.4z"/>
		<path fill="#006838" d="M508.4,277.9c0.3,1.9,0.3,3.8,0.2,5.5h0l-8.4,1.5l5.3-6.5L508.4,277.9z"/>
		<path fill="#ED1C24" d="M508.5,283.4L508.5,283.4c-0.2,2.5-0.7,4.9-1.5,7.1l-3-0.6l0.7-0.5l-4.6-4.4L508.5,283.4z"/>
		<polygon fill="#ED1C24" points="506.9,255.5 508.4,259.4 501.6,260.1 503.3,256.2 		"/>
		<path fill="#F15A29" d="M508.4,277.9l-2.8,0.6l0.4-0.6l-4.3-3.7l5.7-0.6c0.1,0.6,0.3,1.3,0.6,2.1
			C508.1,276.4,508.3,277.1,508.4,277.9z"/>
		<path fill="#ED1C24" d="M508.2,176.2l-5.9,4.3l-0.8-0.1l-3-2.9l8.3-3C507.3,175,507.8,175.6,508.2,176.2z"/>
		<path fill="#FFF200" d="M508,181.3l-0.3,3.7l-4.4,4.4l-0.2,0.1c-0.6-1.1-1.2-2.2-1.8-3.1L508,181.3z"/>
		<path fill="#ED1C24" d="M508,181.3l-6.7,5.1h0c-0.8-1.2-1.6-2.3-2.6-3.2l3.6-2.6L508,181.3z"/>
		<path fill="#662D91" d="M507.7,243.9l-4.7,1.2l-0.8-6l2.2-0.5C505.7,240.3,506.8,242,507.7,243.9z"/>
		<path fill="#006838" d="M507.4,273.6l-5.7,0.6l-0.2-0.1l3-8.6l2.8,0.3C506.8,268.1,506.6,270.4,507.4,273.6z"/>
		<path fill="#FFF200" d="M503,245.2l4.3,6.2l-7.3,2.7c-0.3-2.6-1-5.1-2.3-7.5l0.4-0.2L503,245.2z"/>
		<path fill="#662D91" d="M503.3,256.2l-3.2,0.7c0-0.3,0-0.6,0-0.9c0-0.6,0-1.3-0.1-1.9l7.3-2.7l-0.4,4.1v0L503.3,256.2z"/>
		<path fill="#ED1C24" d="M504,289.9l3,0.6c-1.1,3-2.6,5.7-4.2,7.9l-4.4-4.1l0.2-0.7h0.4L504,289.9z"/>
		<path fill="#1C75BC" d="M506,277.9l-0.4,0.6l-7,1.4c0.1-1.6,0.2-3.4,0.1-5.3h0.1l3.1-0.3L506,277.9z"/>
		<path fill="#FFF200" d="M505.5,278.4l-5.3,6.5l-2.8,0.5c0.5-1.7,0.9-3.6,1.1-5.7L505.5,278.4z"/>
		<path fill="#662D91" d="M501.5,260.2l3.2,4.6l-0.2,0.6l-5.6-0.6c0.3-1.3,0.7-2.7,1-4.6l1.7-0.2L501.5,260.2z"/>
		<path fill="#F15A29" d="M504.7,289.3l-0.7,0.5l-7.8-1.6c0.4-0.9,0.8-1.8,1.1-2.8l2.8-0.5L504.7,289.3z"/>
		<path fill="#ED1C24" d="M504.5,265.4l-3,8.6l0.2,0.1l-3.1,0.3h-0.1c0-0.8-0.1-1.5-0.2-2.3c-0.4-3.2,0-5.1,0.5-7.2L504.5,265.4z"/>
		<path fill="#006838" d="M504.4,238.7l-2.2,0.5h0l-5.2-2.8l4.5-1.9C502.5,236,503.5,237.3,504.4,238.7z"/>
		<path fill="#662D91" d="M504,289.9l-4.9,3.7h-0.4l-0.2,0.7l-3.2-2.9l-1-0.1c0.7-0.9,1.4-1.8,1.9-2.9L504,289.9z"/>
		<path fill="#1C75BC" d="M503.3,256.2l-1.7,3.8l-1.7,0.2c0.1-1,0.2-2.1,0.2-3.3L503.3,256.2z"/>
		<path fill="#ED1C24" d="M502.2,239.2l0.8,6l-4.8,1.3l-0.4,0.2c-1-2-2.4-3.8-4-5.6L502.2,239.2L502.2,239.2z"/>
		<path fill="#006838" d="M498.5,294.3l4.4,4.1c-1.6,2.2-3.3,4-4.6,5.3l-1.8-3.4L498.5,294.3z"/>
		<path fill="#F15A29" d="M502.3,180.5l-3.6,2.6c-1.6-1.7-3.3-3-5.2-3.8l5.1-1.8l3,2.9L502.3,180.5z"/>
		<path fill="#1C75BC" d="M497,236.4l5.2,2.8l-8.4,1.9c-0.8-0.8-1.6-1.6-2.5-2.3L497,236.4z"/>
		<path fill="#F15A29" d="M501.5,234.5l-4.5,1.9l-0.6-0.3l0-3.4l3.2-1.3C500.3,232.6,500.9,233.6,501.5,234.5z"/>
		<path fill="#FFF200" d="M499.7,231.4l-3.2,1.3l-5.9-2.1l7-5.2C498.1,227.8,498.8,229.7,499.7,231.4z"/>
		<path fill="#ED1C24" d="M498.5,294.3l-2.1,6l-4-7.2c0.7-0.5,1.3-1.2,1.9-1.9l1,0.1L498.5,294.3z"/>
		<path fill="#1C75BC" d="M497.5,225.5l-7,5.2l2.2-10.6l3.7-2.3h0.3c0,0.2,0,0.4,0,0.6C496.8,221.1,497.1,223.4,497.5,225.5z"/>
		<path fill="#662D91" d="M497,236.4l-5.7,2.3c-1.1-0.9-2.3-1.8-3.5-2.6l8.7-3.4l0,3.4L497,236.4z"/>
		<path fill="#FFF200" d="M496.8,217.8h-0.3l-3.7,2.3l0-0.2l-8.7,0.4l11.8-9C496.5,213.4,496.8,215.6,496.8,217.8z"/>
		<path fill="#006838" d="M496.5,232.7l-8.7,3.4c-0.8-0.5-1.7-1-2.6-1.5l1.4-1.1l3.9-2.9L496.5,232.7z"/>
		<path fill="#ED1C24" d="M495.9,211.3l-11.8,9h0l0.7-12.4l6.6-6.6C493.5,204.3,495.1,207.7,495.9,211.3z"/>
		<polygon fill="#006838" points="492.8,219.9 492.8,220.1 480.6,227.6 480.6,227.5 475.4,227.4 475.3,227 484.1,220.3 484.1,220.3 
					"/>
		<polygon fill="#662D91" points="492.8,220.1 490.6,230.6 486.7,233.6 480.6,227.6 		"/>
		<path fill="#1C75BC" d="M491.4,201.3l-6.6,6.6l-6.4-4l0.1-0.3l9.2-6.9C489.1,198.1,490.3,199.6,491.4,201.3z"/>
		<path fill="#662D91" d="M487.7,196.6l-9.2,6.9l1.1-5.9l-0.2-0.3l0.2-0.2l4.8-3.5C485.5,194.6,486.6,195.6,487.7,196.6z"/>
		<path fill="#662D91" d="M486.7,233.6l-1.4,1.1c-3-1.6-6.3-2.9-10-3.8l5.3-3.3L486.7,233.6z"/>
		<polygon fill="#662D91" points="484.8,207.9 484.1,220.3 475.3,227 474.6,218.1 		"/>
		<polygon fill="#F15A29" points="484.8,207.9 474.6,218.1 473.7,207.1 478.4,203.6 478.4,203.9 		"/>
		<path fill="#006838" d="M484.4,193.6l-4.8,3.5l-8.4-3l8.2-4.1C481.1,191.2,482.8,192.3,484.4,193.6z"/>
		<path fill="#1C75BC" d="M475.3,227l0,0.4l5.2,0.2l0,0l-5.3,3.3c-3.7-0.9-7.7-1.5-11.9-1.5v0l11.2-11.2L475.3,227z"/>
		<polygon fill="#006838" points="479.3,197.4 479.6,197.7 478.4,203.6 473.7,207.1 468.8,205.1 468.8,205.1 		"/>
		<polygon fill="#F15A29" points="479.6,197.2 479.3,197.4 468.8,205.1 468.8,195.4 471.1,194.2 		"/>
		<path fill="#F15A29" d="M479.3,190.1l-8.2,4.1l-0.9-6l2.1-1.4C474.7,187.7,477.1,188.8,479.3,190.1z"/>
		<polygon fill="#ED1C24" points="473.7,207.1 474.6,218.1 463.4,229.3 463.4,214.9 		"/>
		<polygon fill="#662D91" points="473.7,207.1 463.4,214.9 463.4,209.1 468.8,205.1 		"/>
		<path fill="#006838" d="M472.3,186.9l-2.1,1.4l-6.4,4.3l-0.4-0.2v-5.2l3.1-1.8l0-0.1C468.5,185.6,470.4,186.2,472.3,186.9z"/>
		<polygon fill="#FFF200" points="470.2,188.2 471.1,194.2 468.8,195.4 463.8,192.5 		"/>
		<polygon fill="#FFF200" points="468.8,205.1 468.8,205.1 463.4,209.1 463.4,198.1 468.8,195.4 		"/>
		<polygon fill="#1C75BC" points="468.8,195.4 463.4,198.1 463.4,192.8 463.8,192.5 		"/>
		<path fill="#FFF200" d="M466.5,185.2L466.5,185.2l-3.1,1.9h-6.5v-2.9C460.2,184.2,463.4,184.6,466.5,185.2z"/>
	</g>
	<g>
		<path fill="none" stroke="#FFFFFF" stroke-width="0.5" d="M496.8,218.4c0-0.2,0-0.4,0-0.6c0-2.2-0.3-4.4-0.9-6.5
			c-0.9-3.6-2.4-7-4.5-10c-1.1-1.6-2.4-3.2-3.8-4.6c-1-1.1-2.1-2.1-3.3-3c-1.6-1.3-3.3-2.5-5.1-3.5c-2.2-1.3-4.5-2.4-7-3.2
			c-1.9-0.7-3.8-1.2-5.8-1.6c-3.1-0.7-6.3-1-9.6-1"/>
		<path fill="none" stroke="#FFFFFF" stroke-width="0.5" d="M501.3,186.4c-0.8-1.2-1.6-2.3-2.6-3.2c-1.6-1.7-3.3-3-5.2-3.8"/>
		<path fill="none" stroke="#FFFFFF" stroke-width="0.5" d="M508.7,217.2C508.7,217.2,508.7,217.2,508.7,217.2c0-0.3,0-0.6,0-0.8
			c0-2-0.1-4.1-0.3-6c-0.2-2.7-0.6-5.4-1.1-7.9c-0.9-4.9-2.4-9.4-4.3-13.1c-0.6-1.1-1.2-2.2-1.8-3.1"/>
		<path fill="none" stroke="#FFFFFF" stroke-width="0.5" d="M507.7,243.9c0.9,1.9,1.5,4.1,1.7,6.7c0,0.5,0.1,1,0.1,1.6"/>
		<path fill="none" stroke="#FFFFFF" stroke-width="0.5" d="M496.8,218.4c0,2.7,0.3,5,0.7,7.1c0.5,2.3,1.3,4.2,2.1,6
			c0.6,1.1,1.2,2.1,1.8,3.1c1,1.5,2,2.8,2.9,4.1c1.2,1.7,2.4,3.4,3.2,5.3"/>
		<path fill="none" stroke="#FFFFFF" stroke-width="0.5" d="M508.7,216.5c0,0.2,0,0.5,0,0.7c0,4.1,0.5,7.4,1.3,10.2
			c0.3,1.2,0.6,2.3,1,3.3c0.8,2.2,1.7,4.1,2.6,5.9c0.9,1.8,1.8,3.4,2.5,5.2s1.3,3.6,1.7,5.8c0.2,1,0.3,2,0.3,3.1"/>
		<path fill="none" stroke="#FFFFFF" stroke-width="0.5" d="M509.5,252.2c0,1,0,1.9-0.1,2.8c-0.1,1.6-0.3,3.1-0.6,4.3
			c-0.5,2.5-1.1,4.5-1.5,6.4c-0.5,2.3-0.7,4.7,0.1,7.8c0.1,0.6,0.3,1.3,0.6,2.1"/>
		<path fill="none" stroke="#FFFFFF" stroke-width="0.5" d="M515.6,272.7c0.1,0.9,0.3,1.8,0.6,2.9"/>
		<path fill="none" stroke="#FFFFFF" stroke-width="0.5" d="M518.1,250.6c0,0.9,0,1.7,0,2.5c-0.1,2-0.3,3.7-0.6,5.3
			c-0.6,3-1.5,5.4-1.9,8.1c-0.3,1.8-0.4,3.8,0,6.2"/>
		<path fill="none" stroke="#FFFFFF" stroke-width="0.5" d="M507.9,275.6c0.2,0.8,0.3,1.5,0.4,2.3c0.3,1.9,0.3,3.8,0.2,5.5
			c-0.2,2.5-0.7,4.9-1.5,7.1c-1.1,3-2.6,5.7-4.2,7.9c-1.6,2.2-3.3,4-4.6,5.3"/>
		<path fill="none" stroke="#FFFFFF" stroke-width="0.5" d="M516.1,275.6c0.1,0.2,0.1,0.5,0.1,0.7c0.3,1.7,0.5,3.6,0.6,5.5
			c0.2,3.4,0.3,7.1,0.6,10.8c0.2,2.2,0.5,4.4,1,6.6c0.7,3,1.8,5.8,3.7,8.2c1.1,1.5,2.4,2.9,4.1,4.1"/>
		<path fill="none" stroke="#FFFFFF" stroke-width="0.5" d="M516.6,209.4c0-1.3,0-2.6-0.1-3.9c-0.1-3-0.4-6-0.9-9
			c-0.8-5.3-2.2-10.5-4.4-15c-0.3-0.6-0.6-1.3-1-1.9c-0.6-1.2-1.3-2.3-2.1-3.4c-0.4-0.6-0.9-1.2-1.3-1.7"/>
		<path fill="none" stroke="#FFFFFF" stroke-width="0.5" d="M518.5,227.5c1.2,2.4,2.7,4.4,3.6,7.1c0.5,1.5,0.9,3.1,1.1,5.3
			c0,0.3,0,0.6,0.1,0.9"/>
		<path fill="none" stroke="#FFFFFF" stroke-width="0.5" d="M516.6,209.4c-0.1,0.7-0.2,1.4-0.2,2.1c-0.6,6.1-0.1,10,0.9,13
			c0.4,1.1,0.8,2.1,1.3,3"/>
		<path fill="none" stroke="#FFFFFF" stroke-width="0.5" d="M523.3,240.8c0,1.6,0,3.1-0.1,4.7c-0.1,2.2-0.3,4.4-0.6,6.7
			c-0.2,1.9-0.4,3.9-0.7,5.8c-0.4,3.1-0.7,6.2-0.7,9.2c0,1.7,0,3.4,0.2,5c0.1,1,0.3,2.1,0.5,3.1"/>
		<path fill="none" stroke="#FFFFFF" stroke-width="0.5" d="M522,275.2c0.2,2,0.3,3.9,0.3,5.7c0.2,5,0.4,9.2,3.8,13.5
			c0.3,0.4,0.7,0.8,1,1.2c0.6,0.7,1.4,1.5,2.2,2.2c0.9,0.8,1.8,1.5,2.9,2.3"/>
		<polyline fill="none" stroke="#FFFFFF" stroke-width="0.5" points="532.3,300.2 530.7,303.3 526.4,311.5 		"/>
		<polyline fill="none" stroke="#FFFFFF" stroke-width="0.5" points="498.2,303.6 496.4,300.3 492.4,293.1 		"/>
		<path fill="none" stroke="#FFFFFF" stroke-width="0.5" d="M500.1,256c0-0.6,0-1.3-0.1-1.9c-0.3-2.6-1-5.1-2.3-7.5
			c-1-2-2.4-3.8-4-5.6c-0.8-0.8-1.6-1.6-2.5-2.3c-1.1-0.9-2.3-1.8-3.5-2.6c-0.8-0.5-1.7-1-2.6-1.5c-3-1.6-6.3-2.9-10-3.8
			c-3.7-0.9-7.7-1.5-11.9-1.5c-0.1,0-0.3,0-0.4,0"/>
		<path fill="none" stroke="#FFFFFF" stroke-width="0.5" d="M500.1,256c0,0.3,0,0.6,0,0.9c0,1.3-0.1,2.3-0.2,3.3
			c-0.3,1.9-0.6,3.3-1,4.6c-0.5,2.1-1,4-0.5,7.2"/>
		<path fill="none" stroke="#FFFFFF" stroke-width="0.5" d="M498.4,272.1c0.1,0.8,0.1,1.6,0.2,2.3c0.1,1.9,0.1,3.7-0.1,5.3
			c-0.2,2.1-0.6,4-1.1,5.7c-0.3,1-0.7,1.9-1.1,2.8c-0.6,1.1-1.2,2.1-1.9,2.9c-0.6,0.7-1.2,1.3-1.9,1.9"/>
		<polyline fill="none" stroke="#FFFFFF" stroke-width="0.5" points="456.9,184.2 456.9,187.1 456.9,187.3 		"/>
		<line fill="none" stroke="#FFFFFF" stroke-width="0.5" x1="456.9" y1="187.1" x2="463.4" y2="187.1"/>
		<polyline fill="none" stroke="#FFFFFF" stroke-width="0.5" points="463.4,187.1 463.4,192.3 463.4,192.8 463.4,198.1 463.4,209.1 
			463.4,214.9 463.4,229.3 		"/>
		<polyline fill="none" stroke="#FFFFFF" stroke-width="0.5" points="493.5,179.3 498.6,177.5 506.9,174.4 		"/>
		<polyline fill="none" stroke="#FFFFFF" stroke-width="0.5" points="463.4,229.3 474.6,218.1 484.8,207.9 491.4,201.3 491.6,201.1 
					"/>
		<polyline fill="none" stroke="#FFFFFF" stroke-width="0.5" points="503.3,189.4 507.7,185 511.2,181.4 511.4,181.3 		"/>
		<polyline fill="none" stroke="#FFFFFF" stroke-width="0.5" points="501.3,186.4 501.3,186.4 508,181.3 510.3,179.6 510.6,179.3 		
			"/>
		<polyline fill="none" stroke="#FFFFFF" stroke-width="0.5" points="463,215.2 463.4,214.9 473.7,207.1 478.4,203.6 487.7,196.6 		
			"/>
		<polyline fill="none" stroke="#FFFFFF" stroke-width="0.5" points="468.8,205.1 463.4,209.1 463,209.4 		"/>
		<polyline fill="none" stroke="#FFFFFF" stroke-width="0.5" points="484.4,193.6 484.4,193.6 479.6,197.2 479.3,197.4 468.8,205.1 
					"/>
		<polyline fill="none" stroke="#FFFFFF" stroke-width="0.5" points="508.2,176.2 502.3,180.5 498.7,183.1 		"/>
		<polyline fill="none" stroke="#FFFFFF" stroke-width="0.5" points="463,198.3 463.4,198.1 468.8,195.4 471.1,194.2 479.3,190.1 		
			"/>
		<polyline fill="none" stroke="#FFFFFF" stroke-width="0.5" points="472.3,186.9 470.2,188.2 463.8,192.5 463.4,192.8 		"/>
		<line fill="none" stroke="#FFFFFF" stroke-width="0.5" x1="463.4" y1="187.1" x2="466.5" y2="185.3"/>
		<line fill="none" stroke="#FFFFFF" stroke-width="0.5" x1="513.6" y1="197.8" x2="515.3" y2="196.5"/>
		<line fill="none" stroke="#FFFFFF" stroke-width="0.5" x1="507.4" y1="202.6" x2="513.6" y2="197.8"/>
		<line fill="none" stroke="#FFFFFF" stroke-width="0.5" x1="484.1" y1="220.3" x2="495.9" y2="211.3"/>
		<polyline fill="none" stroke="#FFFFFF" stroke-width="0.5" points="472.3,229.3 475.3,227 484.1,220.3 		"/>
		<polyline fill="none" stroke="#FFFFFF" stroke-width="0.5" points="496.5,217.8 492.8,220.1 480.6,227.6 475.3,230.8 		"/>
		<line fill="none" stroke="#FFFFFF" stroke-width="0.5" x1="510.2" y1="209.4" x2="508.4" y2="210.4"/>
		<polyline fill="none" stroke="#FFFFFF" stroke-width="0.5" points="516.7,205.4 516.5,205.5 510.2,209.4 		"/>
		<polyline fill="none" stroke="#FFFFFF" stroke-width="0.5" points="508.7,217.2 508.7,217.2 508.7,217.1 513.6,213.5 516.3,211.5 
					"/>
		<polyline fill="none" stroke="#FFFFFF" stroke-width="0.5" points="485.2,234.6 486.7,233.6 490.6,230.6 497.5,225.5 		"/>
		<polyline fill="none" stroke="#FFFFFF" stroke-width="0.5" points="499.7,231.4 496.5,232.7 487.8,236.1 		"/>
		<polyline fill="none" stroke="#FFFFFF" stroke-width="0.5" points="517.2,224.5 513,226.2 510,227.4 		"/>
		<polyline fill="none" stroke="#FFFFFF" stroke-width="0.5" points="511,230.6 516.3,228.4 518.5,227.5 518.5,227.5 		"/>
		<polyline fill="none" stroke="#FFFFFF" stroke-width="0.5" points="491.3,238.7 497,236.4 501.5,234.5 		"/>
		<line fill="none" stroke="#FFFFFF" stroke-width="0.5" x1="502.2" y1="239.2" x2="493.8" y2="241.1"/>
		<line fill="none" stroke="#FFFFFF" stroke-width="0.5" x1="504.4" y1="238.7" x2="502.2" y2="239.2"/>
		<polyline fill="none" stroke="#FFFFFF" stroke-width="0.5" points="522.1,234.6 516.1,236 513.6,236.6 		"/>
		<polyline fill="none" stroke="#FFFFFF" stroke-width="0.5" points="516.1,241.7 519.4,240.9 523.2,239.9 		"/>
		<polyline fill="none" stroke="#FFFFFF" stroke-width="0.5" points="498.2,246.4 503,245.2 507.7,243.9 507.7,243.9 		"/>
		<polyline fill="none" stroke="#FFFFFF" stroke-width="0.5" points="509.4,250.6 507.3,251.4 500,254.1 500,254.1 		"/>
		<line fill="none" stroke="#FFFFFF" stroke-width="0.5" x1="520.6" y1="246.5" x2="517.8" y2="247.5"/>
		<polyline fill="none" stroke="#FFFFFF" stroke-width="0.5" points="523.3,245.5 523.2,245.5 520.6,246.5 		"/>
		<polyline fill="none" stroke="#FFFFFF" stroke-width="0.5" points="518.1,253.1 522.6,252.2 522.6,252.2 		"/>
		<polyline fill="none" stroke="#FFFFFF" stroke-width="0.5" points="499.2,257.1 500.1,256.9 503.3,256.2 506.9,255.5 509.4,255 
			509.4,255 		"/>
		<polyline fill="none" stroke="#FFFFFF" stroke-width="0.5" points="508.8,259.3 508.4,259.4 501.6,260.1 499.9,260.2 499.9,260.2 
					"/>
		<line fill="none" stroke="#FFFFFF" stroke-width="0.5" x1="522" y1="258" x2="517.5" y2="258.4"/>
		<line fill="none" stroke="#FFFFFF" stroke-width="0.5" x1="515.6" y1="266.6" x2="521.3" y2="267.1"/>
		<polyline fill="none" stroke="#FFFFFF" stroke-width="0.5" points="498.6,264.9 498.9,264.9 504.5,265.4 507.3,265.7 		"/>
		<polyline fill="none" stroke="#FFFFFF" stroke-width="0.5" points="507.4,273.6 501.7,274.1 498.6,274.5 		"/>
		<polyline fill="none" stroke="#FFFFFF" stroke-width="0.5" points="521.5,272.1 515.6,272.7 515.6,272.7 		"/>
		<line fill="none" stroke="#FFFFFF" stroke-width="0.5" x1="516.3" y1="276.3" x2="522" y2="275.2"/>
		<polyline fill="none" stroke="#FFFFFF" stroke-width="0.5" points="498.2,279.8 498.5,279.8 505.5,278.4 508.4,277.9 		"/>
		<polyline fill="none" stroke="#FFFFFF" stroke-width="0.5" points="508.5,283.4 500.2,284.9 497.4,285.5 		"/>
		<polyline fill="none" stroke="#FFFFFF" stroke-width="0.5" points="522.3,280.9 522.3,280.9 519.1,281.4 516.9,281.9 516.9,281.9 
					"/>
		<polyline fill="none" stroke="#FFFFFF" stroke-width="0.5" points="517.1,292.6 517.6,292.7 521.9,293.6 526.1,294.4 		"/>
		<polyline fill="none" stroke="#FFFFFF" stroke-width="0.5" points="496,288.2 496.2,288.3 504,289.9 507,290.5 		"/>
		<polyline fill="none" stroke="#FFFFFF" stroke-width="0.5" points="495.3,291.3 498.5,294.3 502.9,298.4 		"/>
		<line fill="none" stroke="#FFFFFF" stroke-width="0.5" x1="520.1" y1="298.6" x2="527.1" y2="295.7"/>
		<polyline fill="none" stroke="#FFFFFF" stroke-width="0.5" points="518.2,299.4 518.6,299.2 520.1,298.6 		"/>
		<polyline fill="none" stroke="#FFFFFF" stroke-width="0.5" points="528.9,298.4 527.6,300.2 522.3,307.4 		"/>
		<line fill="none" stroke="#FFFFFF" stroke-width="0.5" x1="470.2" y1="188.2" x2="471.1" y2="194.2"/>
		<line fill="none" stroke="#FFFFFF" stroke-width="0.5" x1="471.1" y1="194.2" x2="479.6" y2="197.2"/>
		<polyline fill="none" stroke="#FFFFFF" stroke-width="0.5" points="479.6,197.7 478.4,203.6 478.4,203.9 		"/>
		<line fill="none" stroke="#FFFFFF" stroke-width="0.5" x1="478.4" y1="203.9" x2="484.8" y2="207.9"/>
		<line fill="none" stroke="#FFFFFF" stroke-width="0.5" x1="484.8" y1="207.9" x2="484.1" y2="220.3"/>
		<polyline fill="none" stroke="#FFFFFF" stroke-width="0.5" points="484.1,220.3 484.1,220.3 492.8,219.9 		"/>
		<polyline fill="none" stroke="#FFFFFF" stroke-width="0.5" points="492.8,219.9 492.8,220.1 490.6,230.6 		"/>
		<line fill="none" stroke="#FFFFFF" stroke-width="0.5" x1="490.6" y1="230.6" x2="496.5" y2="232.7"/>
		<line fill="none" stroke="#FFFFFF" stroke-width="0.5" x1="496.5" y1="232.7" x2="496.4" y2="236.1"/>
		<polyline fill="none" stroke="#FFFFFF" stroke-width="0.5" points="496.4,236.1 497,236.4 502.2,239.2 502.2,239.2 		"/>
		<line fill="none" stroke="#FFFFFF" stroke-width="0.5" x1="502.2" y1="239.2" x2="503" y2="245.2"/>
		<line fill="none" stroke="#FFFFFF" stroke-width="0.5" x1="503" y1="245.2" x2="507.3" y2="251.4"/>
		<line fill="none" stroke="#FFFFFF" stroke-width="0.5" x1="507.3" y1="251.4" x2="506.9" y2="255.5"/>
		<polyline fill="none" stroke="#FFFFFF" stroke-width="0.5" points="506.9,255.5 506.9,255.5 508.4,259.4 		"/>
		<polyline fill="none" stroke="#FFFFFF" stroke-width="0.5" points="463.4,192.3 463.8,192.5 468.8,195.4 		"/>
		<polyline fill="none" stroke="#FFFFFF" stroke-width="0.5" points="468.8,195.4 468.8,205.1 468.8,205.1 		"/>
		<line fill="none" stroke="#FFFFFF" stroke-width="0.5" x1="468.8" y1="205.1" x2="473.7" y2="207.1"/>
		<polyline fill="none" stroke="#FFFFFF" stroke-width="0.5" points="473.7,207.1 474.6,218.1 475.3,227 475.4,227.4 		"/>
		<line fill="none" stroke="#FFFFFF" stroke-width="0.5" x1="475.4" y1="227.4" x2="480.6" y2="227.5"/>
		<polyline fill="none" stroke="#FFFFFF" stroke-width="0.5" points="480.6,227.5 480.6,227.6 486.7,233.6 		"/>
		<polyline fill="none" stroke="#FFFFFF" stroke-width="0.5" points="503.4,256 503.3,256.2 501.6,260.1 501.5,260.2 		"/>
		<line fill="none" stroke="#FFFFFF" stroke-width="0.5" x1="501.5" y1="260.2" x2="504.7" y2="264.9"/>
		<polyline fill="none" stroke="#FFFFFF" stroke-width="0.5" points="504.7,264.9 504.5,265.4 501.5,274 		"/>
		<polyline fill="none" stroke="#FFFFFF" stroke-width="0.5" points="501.5,274 501.7,274.1 506,277.9 		"/>
		<polyline fill="none" stroke="#FFFFFF" stroke-width="0.5" points="506,277.9 505.5,278.4 500.2,284.9 		"/>
		<line fill="none" stroke="#FFFFFF" stroke-width="0.5" x1="500.2" y1="284.9" x2="504.7" y2="289.3"/>
		<polyline fill="none" stroke="#FFFFFF" stroke-width="0.5" points="504.7,289.3 504,289.9 499.1,293.6 		"/>
		<polyline fill="none" stroke="#FFFFFF" stroke-width="0.5" points="498.7,293.6 498.5,294.3 496.4,300.3 496,301.3 		"/>
		<polyline fill="none" stroke="#FFFFFF" stroke-width="0.5" points="498.2,177.1 498.6,177.5 501.5,180.4 		"/>
		<polyline fill="none" stroke="#FFFFFF" stroke-width="0.5" points="501.5,180.4 502.3,180.5 508,181.3 		"/>
		<line fill="none" stroke="#FFFFFF" stroke-width="0.5" x1="508" y1="181.3" x2="507.7" y2="185"/>
		<polyline fill="none" stroke="#FFFFFF" stroke-width="0.5" points="507.7,185 513.6,197.8 513.6,197.8 		"/>
		<polyline fill="none" stroke="#FFFFFF" stroke-width="0.5" points="513.6,197.8 510.2,209.4 510.2,209.4 		"/>
		<line fill="none" stroke="#FFFFFF" stroke-width="0.5" x1="510.2" y1="209.4" x2="513.6" y2="213.5"/>
		<line fill="none" stroke="#FFFFFF" stroke-width="0.5" x1="513.6" y1="213.5" x2="512.6" y2="225.9"/>
		<polyline fill="none" stroke="#FFFFFF" stroke-width="0.5" points="512.6,225.9 513,226.2 516.3,228.4 		"/>
		<polyline fill="none" stroke="#FFFFFF" stroke-width="0.5" points="516.3,228.4 516.1,236 516.1,236.1 		"/>
		<polyline fill="none" stroke="#FFFFFF" stroke-width="0.5" points="516.1,236.1 519.4,240.9 519.6,241.1 		"/>
		<polyline fill="none" stroke="#FFFFFF" stroke-width="0.5" points="519.6,241.1 520.6,246.5 520.6,246.5 		"/>
		<line fill="none" stroke="#FFFFFF" stroke-width="0.5" x1="520.6" y1="246.5" x2="518.5" y2="252.2"/>
		<line fill="none" stroke="#FFFFFF" stroke-width="0.5" x1="530.7" y1="303.3" x2="527.6" y2="300.2"/>
		<line fill="none" stroke="#FFFFFF" stroke-width="0.5" x1="527.6" y1="300.2" x2="520.1" y2="298.6"/>
		<polyline fill="none" stroke="#FFFFFF" stroke-width="0.5" points="520.1,298.6 520.1,298.6 522.1,294.4 		"/>
		<polyline fill="none" stroke="#FFFFFF" stroke-width="0.5" points="522.1,294.4 521.9,293.6 519.1,281.4 519.1,281.4 		"/>
		<line fill="none" stroke="#FFFFFF" stroke-width="0.5" x1="519.1" y1="281.4" x2="522" y2="275.2"/>
	</g>
</g>
<circle opacity="0.8" fill="#FFFFFF" stroke="#010101" stroke-width="0.25" cx="485.7" cy="203.9" r="11.6"/>
<circle opacity="0.8" fill="#FFFFFF" stroke="#010101" stroke-width="0.25" cx="485.9" cy="233.8" r="11.6"/>
<circle opacity="0.8" fill="#FFFFFF" stroke="#010101" stroke-width="0.25" cx="485.7" cy="259.8" r="11.6"/>
<circle opacity="0.8" fill="#FFFFFF" stroke="#010101" stroke-width="0.25" cx="485.9" cy="287.2" r="11.6"/>
<circle opacity="0.8" fill="#FFFFFF" stroke="#010101" stroke-width="0.25" cx="530.3" cy="199.5" r="12.6"/>
<circle opacity="0.8" fill="#FFFFFF" stroke="#010101" stroke-width="0.25" cx="529.9" cy="232.8" r="12.6"/>
<circle opacity="0.8" fill="#FFFFFF" stroke="#010101" stroke-width="0.25" cx="529.9" cy="264.3" r="12.6"/>
<circle opacity="0.8" fill="#FFFFFF" stroke="#010101" stroke-width="0.25" cx="529.9" cy="298.4" r="12.6"/>
<line fill="none" stroke="#010101" stroke-width="0.5" x1="538.2" y1="312.2" x2="552.6" y2="312.2"/>
<line fill="none" stroke="#010101" stroke-width="0.5" x1="533.6" y1="322.6" x2="524.7" y2="322.6"/>
<line fill="none" stroke="#010101" stroke-width="0.5" x1="538.2" y1="322.6" x2="553.5" y2="322.6"/>
<g>
	<path d="M264.4,211.6h3.5v6.9h0.1c0.3-0.6,0.7-1.2,1.1-1.7l3.5-5.2h4.3l-5.1,6.6l5.4,8.9H273l-3.8-6.7l-1.3,1.6v5.1h-3.5V211.6z"/>
	<path d="M282.1,211.6v15.5h-3.5v-15.5H282.1z"/>
	<path d="M285.1,211.6h3.5v12.6h6.2v2.9h-9.7V211.6z"/>
	<path d="M310,221.2c-0.1-1.9-0.1-4.1-0.1-6.4h-0.1c-0.5,2-1.1,4.2-1.7,6l-1.9,6.1h-2.7l-1.7-6c-0.5-1.8-1-4-1.4-6.1h0
		c-0.1,2.1-0.2,4.5-0.3,6.4l-0.3,5.9h-3.2l1-15.5h4.7l1.5,5.2c0.5,1.8,1,3.7,1.3,5.6h0.1c0.4-1.8,1-3.8,1.5-5.6l1.7-5.2h4.6
		l0.9,15.5h-3.4L310,221.2z"/>
	<path d="M325.6,220.5h-5.7v3.7h6.4v2.9h-9.9v-15.5h9.6v2.9h-6.1v3.2h5.7V220.5z"/>
	<path d="M328.7,211.8c1.1-0.2,2.8-0.3,4.7-0.3c2.3,0,3.9,0.3,5,1.2c0.9,0.7,1.4,1.8,1.4,3.2c0,2-1.4,3.3-2.7,3.8v0.1
		c1.1,0.4,1.7,1.5,2.1,2.9c0.5,1.8,1,3.8,1.3,4.4h-3.6c-0.3-0.4-0.6-1.7-1.1-3.6c-0.4-1.9-1.1-2.5-2.5-2.5h-1.1v6.1h-3.5V211.8z
		 M332.2,218.5h1.4c1.8,0,2.8-0.9,2.8-2.2c0-1.4-1-2.1-2.6-2.2c-0.9,0-1.3,0.1-1.6,0.1V218.5z"/>
	<path d="M198.3,243.6h-5.7v3.7h6.4v2.9H189v-15.5h9.6v2.9h-6.1v3.2h5.7V243.6z"/>
	<path d="M201.3,234.6h3.5v12.6h6.2v2.9h-9.7V234.6z"/>
	<path d="M222.3,243.6h-5.7v3.7h6.4v2.9h-9.9v-15.5h9.6v2.9h-6.1v3.2h5.7V243.6z"/>
	<path d="M238.5,244.2c-0.1-1.9-0.1-4.1-0.1-6.4h-0.1c-0.5,2-1.1,4.2-1.7,6l-1.9,6.1H232l-1.7-6c-0.5-1.8-1-4-1.4-6.1h0
		c-0.1,2.1-0.2,4.5-0.3,6.4l-0.3,5.9H225l1-15.5h4.7l1.5,5.2c0.5,1.8,1,3.7,1.3,5.6h0.1c0.4-1.8,1-3.8,1.5-5.6l1.7-5.2h4.6l0.9,15.5
		h-3.4L238.5,244.2z"/>
	<path d="M254.1,243.6h-5.7v3.7h6.4v2.9h-9.9v-15.5h9.6v2.9h-6.1v3.2h5.7V243.6z"/>
	<path d="M257.2,250.1v-15.5h4.1l3.2,5.7c0.9,1.6,1.8,3.6,2.5,5.3h0.1c-0.2-2.1-0.3-4.1-0.3-6.5v-4.5h3.2v15.5h-3.7l-3.3-6
		c-0.9-1.7-1.9-3.7-2.7-5.5l-0.1,0c0.1,2.1,0.1,4.2,0.1,6.8v4.7H257.2z"/>
	<path d="M276.1,237.6h-4.2v-2.9h11.9v2.9h-4.2v12.6h-3.5V237.6z"/>
	<path d="M287.7,246.2l-1.1,4h-3.6l4.7-15.5h4.6l4.8,15.5h-3.8l-1.2-4H287.7z M291.6,243.5l-1-3.3c-0.3-0.9-0.6-2.1-0.8-3h0
		c-0.2,0.9-0.5,2.1-0.7,3l-0.9,3.3H291.6z"/>
	<path d="M299.1,234.8c1.1-0.2,2.8-0.3,4.7-0.3c2.3,0,3.9,0.3,5,1.2c0.9,0.7,1.4,1.8,1.4,3.2c0,2-1.4,3.3-2.7,3.8v0.1
		c1.1,0.4,1.7,1.5,2.1,2.9c0.5,1.8,1,3.8,1.3,4.4h-3.6c-0.3-0.4-0.6-1.7-1.1-3.6c-0.4-1.9-1.1-2.5-2.5-2.5h-1.1v6.1h-3.5V234.8z
		 M302.6,241.5h1.4c1.8,0,2.8-0.9,2.8-2.2c0-1.4-1-2.1-2.6-2.2c-0.9,0-1.3,0.1-1.6,0.1V241.5z"/>
	<path d="M316,250.1v-6.4l-4.9-9.2h4l1.6,3.7c0.5,1.1,0.8,2,1.2,3h0c0.3-1,0.7-1.9,1.2-3l1.6-3.7h3.9l-5.1,9.1v6.5H316z"/>
	<path d="M331,246.5c0.9,0.5,2.4,1,3.9,1c1.6,0,2.5-0.7,2.5-1.7c0-1-0.7-1.5-2.6-2.2c-2.6-0.9-4.3-2.3-4.3-4.6
		c0-2.6,2.2-4.7,5.9-4.7c1.8,0,3,0.4,4,0.8l-0.8,2.8c-0.6-0.3-1.7-0.7-3.2-0.7c-1.5,0-2.3,0.7-2.3,1.5c0,1,0.9,1.4,2.9,2.2
		c2.7,1,4,2.4,4,4.6c0,2.6-2,4.8-6.3,4.8c-1.8,0-3.5-0.5-4.4-0.9L331,246.5z"/>
	<path d="M354.8,249.7c-0.6,0.3-2.1,0.7-4,0.7c-5.4,0-8.1-3.3-8.1-7.8c0-5.3,3.8-8.2,8.5-8.2c1.8,0,3.2,0.4,3.8,0.7l-0.7,2.8
		c-0.7-0.3-1.7-0.6-2.9-0.6c-2.8,0-5,1.7-5,5.1c0,3.1,1.8,5.1,5,5.1c1.1,0,2.2-0.2,2.9-0.5L354.8,249.7z"/>
	<path d="M360.6,234.6v6h5.8v-6h3.5v15.5h-3.5v-6.5h-5.8v6.5h-3.5v-15.5H360.6z"/>
	<path d="M387.1,242.2c0,5.1-3.1,8.2-7.6,8.2c-4.6,0-7.3-3.5-7.3-7.9c0-4.7,3-8.1,7.6-8.1C384.5,234.4,387.1,237.9,387.1,242.2z
		 M375.9,242.4c0,3,1.4,5.2,3.8,5.2c2.4,0,3.7-2.3,3.7-5.3c0-2.8-1.3-5.2-3.8-5.2C377.3,237.1,375.9,239.4,375.9,242.4z"/>
	<path d="M403.7,242.2c0,5.1-3.1,8.2-7.6,8.2c-4.6,0-7.3-3.5-7.3-7.9c0-4.7,3-8.1,7.6-8.1C401.1,234.4,403.7,237.9,403.7,242.2z
		 M392.4,242.4c0,3,1.4,5.2,3.8,5.2c2.4,0,3.7-2.3,3.7-5.3c0-2.8-1.3-5.2-3.8-5.2C393.8,237.1,392.4,239.4,392.4,242.4z"/>
	<path d="M406,234.6h3.5v12.6h6.2v2.9H406V234.6z"/>
</g>
<g>
	<path d="M664.7,373.9c0.9,0.5,2.4,1,3.9,1c1.6,0,2.5-0.7,2.5-1.7c0-1-0.7-1.5-2.6-2.2c-2.6-0.9-4.3-2.3-4.3-4.6
		c0-2.6,2.2-4.7,5.9-4.7c1.8,0,3,0.4,4,0.8l-0.8,2.8c-0.6-0.3-1.7-0.7-3.2-0.7s-2.3,0.7-2.3,1.5c0,1,0.9,1.4,2.9,2.2
		c2.7,1,4,2.4,4,4.6c0,2.6-2,4.8-6.3,4.8c-1.8,0-3.5-0.5-4.4-0.9L664.7,373.9z"/>
	<path d="M680.5,362v8.9c0,2.7,1,4,2.8,4c1.8,0,2.9-1.3,2.9-4V362h3.5v8.7c0,4.8-2.4,7.1-6.5,7.1c-3.9,0-6.2-2.2-6.2-7.1V362H680.5z
		"/>
	<path d="M692.7,362h3.5v12.6h6.2v2.9h-9.7V362z"/>
	<path d="M704.5,362h3.5v12.6h6.2v2.9h-9.7V362z"/>
	<path d="M719.8,362v15.5h-3.5V362H719.8z"/>
	<path d="M726.5,377.5l-5-15.5h3.8l1.9,6.6c0.5,1.8,1,3.6,1.4,5.6h0.1c0.4-1.9,0.9-3.7,1.4-5.5l2-6.6h3.7l-5.2,15.5H726.5z"/>
	<path d="M739.9,373.5l-1.1,4h-3.6l4.7-15.5h4.6l4.8,15.5h-3.8l-1.2-4H739.9z M743.8,370.9l-1-3.3c-0.3-0.9-0.6-2.1-0.8-3h0
		c-0.2,0.9-0.5,2.1-0.7,3l-0.9,3.3H743.8z"/>
	<path d="M751.4,377.5V362h4.1l3.2,5.7c0.9,1.6,1.8,3.6,2.5,5.3h0.1c-0.2-2.1-0.3-4.1-0.3-6.5V362h3.2v15.5h-3.7l-3.3-6
		c-0.9-1.7-1.9-3.7-2.7-5.5l-0.1,0c0.1,2.1,0.1,4.2,0.1,6.8v4.7H751.4z"/>
	<path d="M775.4,362v6h5.8v-6h3.5v15.5h-3.5V371h-5.8v6.5h-3.5V362H775.4z"/>
	<path d="M791.3,362v15.5h-3.5V362H791.3z"/>
	<path d="M807.3,376.8c-1.1,0.4-3.1,0.9-5.2,0.9c-2.8,0-4.9-0.7-6.3-2.1c-1.4-1.3-2.2-3.4-2.2-5.6c0-5.2,3.8-8.1,8.9-8.1
		c2,0,3.5,0.4,4.3,0.8l-0.7,2.8c-0.9-0.4-1.9-0.7-3.6-0.7c-2.9,0-5.1,1.7-5.1,5c0,3.2,2,5.1,4.9,5.1c0.8,0,1.5-0.1,1.7-0.2v-3.2
		h-2.4v-2.7h5.8V376.8z"/>
	<path d="M813.6,362v6h5.8v-6h3.5v15.5h-3.5V371h-5.8v6.5H810V362H813.6z"/>
	<path d="M830.7,373.9c0.9,0.5,2.4,1,3.9,1c1.6,0,2.5-0.7,2.5-1.7c0-1-0.7-1.5-2.6-2.2c-2.6-0.9-4.3-2.3-4.3-4.6
		c0-2.6,2.2-4.7,5.9-4.7c1.8,0,3,0.4,4,0.8l-0.8,2.8c-0.6-0.3-1.7-0.7-3.2-0.7c-1.5,0-2.3,0.7-2.3,1.5c0,1,0.9,1.4,2.9,2.2
		c2.7,1,4,2.4,4,4.6c0,2.6-2,4.8-6.3,4.8c-1.8,0-3.5-0.5-4.4-0.9L830.7,373.9z"/>
	<path d="M854.4,377c-0.6,0.3-2.1,0.7-4,0.7c-5.4,0-8.1-3.3-8.1-7.8c0-5.3,3.8-8.2,8.5-8.2c1.8,0,3.2,0.4,3.8,0.7l-0.7,2.8
		c-0.7-0.3-1.7-0.6-2.9-0.6c-2.8,0-5,1.7-5,5.1c0,3.1,1.8,5.1,5,5.1c1.1,0,2.2-0.2,2.9-0.5L854.4,377z"/>
	<path d="M860.2,362v6h5.8v-6h3.5v15.5H866V371h-5.8v6.5h-3.5V362H860.2z"/>
	<path d="M886.8,369.6c0,5.1-3.1,8.2-7.6,8.2c-4.6,0-7.3-3.5-7.3-7.9c0-4.7,3-8.1,7.6-8.1C884.2,361.7,886.8,365.3,886.8,369.6z
		 M875.6,369.8c0,3,1.4,5.2,3.8,5.2c2.4,0,3.7-2.3,3.7-5.3c0-2.8-1.3-5.2-3.8-5.2C877,364.5,875.6,366.7,875.6,369.8z"/>
	<path d="M903.3,369.6c0,5.1-3.1,8.2-7.6,8.2c-4.6,0-7.3-3.5-7.3-7.9c0-4.7,3-8.1,7.6-8.1C900.7,361.7,903.3,365.3,903.3,369.6z
		 M892.1,369.8c0,3,1.4,5.2,3.8,5.2c2.4,0,3.7-2.3,3.7-5.3c0-2.8-1.3-5.2-3.8-5.2C893.5,364.5,892.1,366.7,892.1,369.8z"/>
	<path d="M905.6,362h3.5v12.6h6.2v2.9h-9.7V362z"/>
</g>
<rect x="1.7" y="0.5" fill="none" stroke="#000000" stroke-width="2" width="1197.3" height="598.5"/>
</svg>
