<?xml version="1.0" encoding="utf-8"?>
<!-- Generator: Adobe Illustrator 17.1.0, SVG Export Plug-In . SVG Version: 6.00 Build 0)  -->
<!DOCTYPE svg PUBLIC "-//W3C//DTD SVG 1.1//EN" "http://www.w3.org/Graphics/SVG/1.1/DTD/svg11.dtd">
<svg version="1.1" id="Layer_1" xmlns="http://www.w3.org/2000/svg" xmlns:xlink="http://www.w3.org/1999/xlink" x="0px" y="0px"
	 viewBox="0 0 800 400" enable-background="new 0 0 800 400" xml:space="preserve">
<g id="background">
	<g>
		<path fill="#A04A37" stroke="#FFFFFF" stroke-width="2.6491" d="M556.1,134.8c0.9,2.1,1.9,4.2,2.8,6.3
			c6.5,15.7,10.3,31.9,11.6,47.9l0,0l-25.7,2.1c-0.9-14.2-4.2-28.4-9.9-42.3c-0.5-1.2-1-2.4-1.5-3.6L556.1,134.8z"/>
		<path fill="#A04A37" stroke="#FFFFFF" stroke-width="2.6491" d="M556.1,134.8l-22.8,10.4c-17.6-39.3-51.9-66.2-91-75.7l5.5-22.8
			C494.1,57.5,534.8,88.9,556.1,134.8z"/>
		<path fill="#A04A37" stroke="#FFFFFF" stroke-width="2.6491" d="M570.4,189.1L570.4,189.1c1.1,12.9,0.5,25.8-1.5,38.3l0,0l-25.9-4
			c1.9-10.5,2.5-21.3,1.8-32.2L570.4,189.1z"/>
		<path fill="#A04A37" stroke="#FFFFFF" stroke-width="2.6491" d="M568.9,227.4L568.9,227.4c-1.8,11-4.7,21.8-8.7,32.1l-24.9-9.6
			c3.4-8.5,6-17.4,7.6-26.5L568.9,227.4z"/>
		<path fill="#6D8152" stroke="#FFFFFF" stroke-width="2.6491" d="M533.3,145.2L514,154c-14.7-33.2-43.7-55.8-76.7-63.4l5.1-21.1
			C481.4,79,515.7,105.9,533.3,145.2z"/>
		<path fill="#A04A37" stroke="#FFFFFF" stroke-width="2.6491" d="M535.4,249.9l24.9,9.6c-15.2,39.4-45.9,72.7-88.1,90.1
			c-3.4,1.4-6.9,2.7-10.4,3.9l-1.4-3.9l-7.5-22.1c3-1,6-2.1,9-3.3C496.7,309.8,522.4,282.4,535.4,249.9z"/>
		<path fill="#A39358" stroke="#FFFFFF" stroke-width="2.6491" d="M514,154.1l-26.6,12.2c-10.6-25.2-32-42.5-56.6-48.7l6.5-26.8
			C470.2,98.3,499.2,120.9,514,154.1z"/>
		<path fill="#A39358" stroke="#FFFFFF" stroke-width="2.6491" d="M487.3,166.2l26.6-12.1c0.4,0.8,0.8,1.8,1.1,2.7
			c4.9,11.9,7.5,24.1,8.2,36.1l-29.6,2.4c-0.4-9.6-2.4-19.2-6.2-28.6C487.4,166.5,487.4,166.3,487.3,166.2z"/>
		<path fill="#A39358" stroke="#FFFFFF" stroke-width="2.6491" d="M493.7,195.2l29.6-2.4c0.5,9.1-0.1,18.2-1.8,27.1l-29.4-4.6
			C493.4,208.8,494,202,493.7,195.2z"/>
		<path fill="#A39358" stroke="#FFFFFF" stroke-width="2.6491" d="M492.1,215.4l29.4,4.6c-1.4,7.5-3.7,15-6.6,22L487,231.3
			C489.2,226.2,490.9,220.8,492.1,215.4z"/>
		<path fill="#A04A37" stroke="#FFFFFF" stroke-width="2.6491" d="M447.8,46.6l-5.5,22.8c-8-2-16.2-3.1-24.5-3.6l1.2-23v-0.3
			C428.7,43,438.4,44.5,447.8,46.6z"/>
		<path fill="#A39358" stroke="#FFFFFF" stroke-width="2.6491" d="M487,231.3l27.9,10.7c-11,26.3-32,48.5-60.5,60.2
			c-3,1.2-6,2.3-9,3.3l-9.3-27.6c2-0.6,3.9-1.3,5.9-2.1C463.1,267,478.7,250.7,487,231.3z"/>
		<path fill="#6D8152" stroke="#FFFFFF" stroke-width="2.6491" d="M442.3,69.5l-5.1,21.1c-6.8-1.6-13.6-2.6-20.6-2.8l1.2-21.9
			C426.1,66.4,434.3,67.6,442.3,69.5z"/>
		<path fill="#A04A37" stroke="#FFFFFF" stroke-width="2.6491" d="M419,42.6v0.3l-1.2,23c-9-0.5-18-0.1-26.9,1.3l-3.5-23
			C397.9,42.6,408.5,42.1,419,42.6z"/>
		<path fill="#FFFFFF" stroke="#FFFFFF" stroke-width="2.6491" d="M437.2,90.6l-6.5,26.8c-5.1-1.3-10.3-2.1-15.6-2.4l1.5-27.3
			C423.6,88.1,430.5,89,437.2,90.6z"/>
		<path fill="#6D8152" stroke="#FFFFFF" stroke-width="2.6491" d="M417.8,65.9l-1.2,21.9c-7.4-0.3-15,0.1-22.4,1.3l-3.3-21.9
			C399.8,65.9,408.8,65.5,417.8,65.9z"/>
		<path fill="#FFFFFF" stroke="#FFFFFF" stroke-width="2.6491" d="M416.6,87.8l-1.5,27.3c-5.6-0.4-11.3-0.1-16.9,0.7l-4.1-26.6
			C401.6,87.9,409.2,87.5,416.6,87.8z"/>
		<path fill="#A04A37" stroke="#FFFFFF" stroke-width="2.6491" d="M387.3,44.2l3.5,23c-9.2,1.4-18.4,3.7-27.5,7.2L355,52.7
			C365.7,48.7,376.5,45.9,387.3,44.2z"/>
		<path fill="#6D8152" stroke="#FFFFFF" stroke-width="2.6491" d="M390.8,67.2l3.3,21.9c-7.7,1.2-15.3,3.3-22.7,6.3l-8.1-21
			C372.4,71,381.6,68.6,390.8,67.2z"/>
		<path fill="#FFFFFF" stroke="#FFFFFF" stroke-width="2.6491" d="M394.1,89.1l4.1,26.6c-5.8,0.8-11.6,2.3-17.3,4.5l-9.6-24.9
			C378.9,92.5,386.5,90.4,394.1,89.1z"/>
		<path fill="#6D8152" stroke="#FFFFFF" stroke-width="2.6491" d="M363.3,74.4l8.1,21c-0.7,0.2-1.2,0.5-1.8,0.7
			c-10.4,4.3-19.9,10-28.2,16.9l-14.2-18.1c9.6-7.7,20.5-14.1,32.5-19C360.8,75.4,362,74.8,363.3,74.4z"/>
		<path fill="#FFFFFF" stroke="#FFFFFF" stroke-width="2.6491" d="M371.4,95.4l9.6,24.9c-0.9,0.2-1.7,0.6-2.6,0.9
			c-7.7,3.2-14.7,7.4-20.9,12.4L341.3,113c8.3-6.9,17.8-12.6,28.2-16.9C370.2,95.9,370.8,95.6,371.4,95.4z"/>
		<path fill="#FFFFFF" stroke="#FFFFFF" stroke-width="2.6491" d="M405.7,194.8l3.4,4.3l-0.9,1l-81.2-9.3c1.5-16.3,7.8-31.8,18-44.6
			L405.7,194.8z"/>
		<path fill="#FFFFFF" stroke="#FFFFFF" stroke-width="2.6491" d="M405.7,194.8L345,146.2c3.7-4.6,7.8-8.8,12.5-12.6L405.7,194.8z"
			/>
		<path fill="#A39358" stroke="#FFFFFF" stroke-width="2.6491" d="M436.1,277.8l9.3,27.6c-11.6,3.7-23.4,5.3-35.1,5.2l-0.1-28.6
			C418.9,282,427.6,280.6,436.1,277.8z"/>
		<path fill="#A04A37" stroke="#FFFFFF" stroke-width="2.6491" d="M452.9,327.5l7.5,22.1l1.4,3.9c-16.9,5.6-34.2,8.3-51.2,8.2v-0.9
			l-0.1-26.4C424.5,334.3,438.8,332.1,452.9,327.5z"/>
		<path fill="#FFFFFF" stroke="#FFFFFF" stroke-width="2.6491" d="M341.3,113.1l16.2,20.6c-4.6,3.8-8.8,8-12.5,12.6L324.6,130
			C329.5,123.8,335,118.1,341.3,113.1z"/>
		<path fill="#6D8152" stroke="#FFFFFF" stroke-width="2.6491" d="M327,95l14.2,18.1c-6.2,5-11.7,10.7-16.6,16.9l-18.2-14.6
			C312.5,107.9,319.4,101,327,95z"/>
		<path fill="#A39358" stroke="#FFFFFF" stroke-width="2.6491" d="M410.3,282l0.1,28.6c-11.7-0.2-23.3-2.3-34.2-6l8.6-26.6
			C392.8,280.6,401.5,282,410.3,282z"/>
		<path fill="#FFFFFF" stroke="#FFFFFF" stroke-width="2.6491" d="M324.7,130l20.4,16.3c-10.2,12.8-16.5,28.2-18,44.6l-25.9-3
			C303.3,166.7,311.5,146.6,324.7,130z"/>
		<path fill="#A04A37" stroke="#FFFFFF" stroke-width="2.6491" d="M410.4,334.3l0.1,26.4v0.9c-17.1-0.1-34.1-3-50.1-8.4l8.2-25.6
			C382,332,396.2,334.3,410.4,334.3z"/>
		<path fill="#6D8152" stroke="#FFFFFF" stroke-width="2.6491" d="M306.4,115.4l18.2,14.6c-13.2,16.7-21.4,36.8-23.5,57.9l-23.9-2.7
			C280.1,159.6,290.2,135.3,306.4,115.4z"/>
		<path fill="#A39358" stroke="#FFFFFF" stroke-width="2.6491" d="M384.6,278l-8.6,26.6c-14-4.7-27-12.3-38.2-22.2l17.7-20.8
			C364.1,269.1,374,274.6,384.6,278z"/>
		<path fill="#FFFFFF" stroke="#FFFFFF" stroke-width="2.6491" d="M301.1,187.8l25.9,3c-0.9,10.4,0,21.2,3.2,31.7l-25.6,6.3
			C300.7,215.2,299.7,201.3,301.1,187.8z"/>
		<path fill="#A39358" stroke="#FFFFFF" stroke-width="2.6491" d="M355.6,261.7l-17.7,20.8c-6.8-6.1-12.9-12.9-18.1-20.7l22.3-14.9
			C346,252.4,350.6,257.4,355.6,261.7z"/>
		<path fill="#A39358" stroke="#FFFFFF" stroke-width="2.6491" d="M342.1,246.9l-22.3,14.9c-2.7-4-5.2-8.2-7.4-12.6l23.9-11.7
			C338,240.8,340,243.9,342.1,246.9z"/>
		<path fill="#A39358" stroke="#FFFFFF" stroke-width="2.6491" d="M304.5,228.8l25.6-6.3c0.8,2.6,1.7,5.2,2.8,7.8
			c1,2.4,2.1,4.8,3.3,7.1l-23.9,11.7c-1.2-2.4-2.4-5-3.4-7.5C307.2,237.4,305.7,233.1,304.5,228.8z"/>
		<path fill="#6D8152" stroke="#FFFFFF" stroke-width="2.6491" d="M277.2,185.1l23.9,2.7c-1.4,13.5-0.4,27.4,3.4,41l-23.6,5.9
			C276.5,218.2,275.3,201.4,277.2,185.1z"/>
		<path fill="#6D8152" stroke="#FFFFFF" stroke-width="2.6491" d="M280.9,234.7l23.6-5.9c1.2,4.3,2.7,8.6,4.4,12.8
			c1.1,2.6,2.2,5.1,3.4,7.5l-21.9,10.8c-1.4-2.8-2.7-5.8-4-8.7C284.2,245.7,282.4,240.2,280.9,234.7z"/>
	</g>
	<text transform="matrix(1 0 0 1 520.4886 65.7577)" font-family="'Lato-Regular'" font-size="12">design research</text>
	<text transform="matrix(1 0 0 1 436.0856 32.3786)" font-family="'Lato-Regular'" font-size="12">biomimicry</text>
	<text transform="matrix(1 0 0 1 388.3351 23.9594)" font-family="'Lato-Regular'" font-size="12">LEED</text>
	<text transform="matrix(1 0 0 1 577.5364 164.2122)" font-family="'Lato-Regular'" font-size="12">hand drawing</text>
	<text transform="matrix(1 0 0 1 581.0849 213.5099)" font-family="'Lato-Regular'" font-size="12">AutoCAD</text>
	<text transform="matrix(1 0 0 1 575.085 251.7976)" font-family="'Lato-Regular'" font-size="12">3D modeling</text>
	<text transform="matrix(1 0 0 1 529.5316 332.6013)" font-family="'Lato-Regular'" font-size="12">Illustrator</text>
	<text transform="matrix(1 0 0 1 434.5323 383.1937)" font-family="'Lato-Regular'" font-size="12">Photoshop</text>
	<text transform="matrix(1 0 0 1 343.0971 383.1942)" font-family="'Lato-Regular'" font-size="12">InDesign</text>
	<text transform="matrix(1 0 0 1 288.7583 361.7087)" font-family="'Lato-Regular'" font-size="12">HTML</text>
	<text transform="matrix(1 0 0 1 256.916 325.7066)" font-family="'Lato-Regular'" font-size="12">CSS</text>
	<text transform="matrix(1 0 0 1 207.6644 293.0408)" font-family="'Lato-Regular'" font-size="12">JavaScript</text>
	<text transform="matrix(1 0 0 1 233.7419 267.1642)" font-family="'Lato-Regular'" font-size="12">GIS</text>
	<text transform="matrix(1 0 0 1 285.3 28.6642)" font-family="'Lato-Regular'" font-size="12">energy modeling</text>
	<text transform="matrix(1 0 0 1 192.7047 74.4064)" font-family="'Lato-Regular'" font-size="12">energy efficiency</text>
	<text transform="matrix(1 0 0 1 279.7549 46.706)" font-family="'Lato-Regular'" font-size="12">ecology</text>
	<text transform="matrix(1 0 0 1 145.5117 135.3374)" font-family="'Lato-Regular'" font-size="12">carbon accounting</text>
	<text transform="matrix(1 0 0 1 166.6117 212.9938)" font-family="'Lato-Regular'" font-size="12">environmental</text>
	<text transform="matrix(1 0 0 1 145.5117 221.9938)" font-family="'Lato-Regular'" font-size="12">impact assessment</text>
	<text transform="matrix(1 0 0 1 620 98.8064)"><tspan x="0" y="0" fill="#A04A37" font-family="'Lato-Bold'" font-size="25">SUSTAINABLE</tspan><tspan x="0" y="30" fill="#A04A37" font-family="'Lato-Bold'" font-size="25">DESIGN</tspan></text>
	<text transform="matrix(1 0 0 1 620 330.5563)"><tspan x="0" y="0" fill="#A39358" font-family="'Lato-Bold'" font-size="25">GRAPHIC</tspan><tspan x="0" y="30" fill="#A39358" font-family="'Lato-Bold'" font-size="25">DESIGN</tspan></text>
	<text transform="matrix(1 0 0 1 17 44.2064)"><tspan x="0" y="0" fill="#6D8152" font-family="'Lato-Bold'" font-size="25">ENVIRONMENTAL</tspan><tspan x="0" y="30" fill="#6D8152" font-family="'Lato-Bold'" font-size="25">SCIENCE</tspan></text>
</g>
<g id="architecture">
</g>
<g id="environmentalScience">
</g>
<g id="design">
</g>
<g id="Layer_2">
</g>
<g id="dividers">
	<g id="XMLID_2_" opacity="0.4">
		<g>
			<line fill="none" stroke="#434C55" stroke-width="0.5" x1="345" y1="146.2" x2="271.8" y2="87.4"/>
			<line fill="none" stroke="#434C55" stroke-width="0.5" x1="487" y1="231.3" x2="580.1" y2="267.3"/>
			<line fill="none" stroke="#434C55" stroke-width="0.5" x1="336.3" y1="237.5" x2="250.4" y2="279.3"/>
			<line fill="none" stroke="#434C55" stroke-width="0.5" x1="342.1" y1="246.9" x2="262.9" y2="300.1"/>
			<line fill="none" stroke="#434C55" stroke-width="0.5" x1="355.5" y1="261.6" x2="292.5" y2="335.3"/>
			<line fill="none" stroke="#434C55" stroke-width="0.5" x1="357.5" y1="133.6" x2="299.6" y2="60.1"/>
			<line fill="none" stroke="#434C55" stroke-width="0.5" x1="381" y1="120.3" x2="347.6" y2="33"/>
			<line fill="none" stroke="#434C55" stroke-width="0.5" x1="398.2" y1="115.8" x2="384.2" y2="23.4"/>
			<line fill="none" stroke="#434C55" stroke-width="0.5" x1="487.4" y1="166.3" x2="578.5" y2="124.7"/>
			<line fill="none" stroke="#434C55" stroke-width="0.5" x1="430.7" y1="117.4" x2="452.7" y2="26.2"/>
			<line fill="none" stroke="#434C55" stroke-width="0.5" x1="493.6" y1="195.3" x2="591.6" y2="187.6"/>
			<line fill="none" stroke="#434C55" stroke-width="0.5" x1="384.6" y1="278" x2="353.8" y2="373.4"/>
			<line fill="none" stroke="#434C55" stroke-width="0.5" x1="436.1" y1="277.9" x2="467" y2="369.2"/>
			<line fill="none" stroke="#434C55" stroke-width="0.5" x1="410.2" y1="281.7" x2="410.4" y2="381.8"/>
			<line fill="none" stroke="#434C55" stroke-width="0.5" x1="327" y1="190.8" x2="232.1" y2="179.8"/>
			<line fill="none" stroke="#434C55" stroke-width="0.5" x1="330.2" y1="222.5" x2="238.8" y2="245.4"/>
			<line fill="none" stroke="#434C55" stroke-width="0.5" x1="492.1" y1="215.3" x2="589.9" y2="230.9"/>
			<line fill="none" stroke="#434C55" stroke-width="0.5" x1="415.1" y1="115" x2="420.1" y2="21.9"/>
		</g>
	</g>
</g>
</svg>
